<?xml version="1.0" encoding="UTF-8" standalone="no"?>
<!DOCTYPE svg PUBLIC "-//W3C//DTD SVG 1.1//EN"
 "http://www.w3.org/Graphics/SVG/1.1/DTD/svg11.dtd">
<!-- Generated by graphviz version 2.43.0 (0)
 -->
<!-- Title: G Pages: 1 -->
<svg width="1098pt" height="960pt"
 viewBox="0.00 0.00 1098.00 959.50" xmlns="http://www.w3.org/2000/svg" xmlns:xlink="http://www.w3.org/1999/xlink">
<g id="graph0" class="graph" transform="scale(1 1) rotate(0) translate(36 923.5)">
<title>G</title>
<polygon fill="#f7f7f7" stroke="transparent" points="-36,36 -36,-923.5 1062,-923.5 1062,36 -36,36"/>
<!-- appmodelsanak -->
<g id="node1" class="node">
<title>appmodelsanak</title>
<polygon fill="none" stroke="black" points="300,-851 0,-851 0,0 300,0 300,-851"/>
<polygon fill="#d3d3d3" stroke="transparent" points="0,-813.5 0,-850.5 300,-850.5 300,-813.5 0,-813.5"/>
<polygon fill="none" stroke="black" points="0,-813.5 0,-850.5 300,-850.5 300,-813.5 0,-813.5"/>
<text text-anchor="start" x="132" y="-828.3" font-family="Helvetica Neue" font-size="14.00" fill="#333333">Anak</text>
<polygon fill="#ffffff" stroke="transparent" points="0,-776.5 0,-813.5 300,-813.5 300,-776.5 0,-776.5"/>
<polygon fill="none" stroke="black" points="0,-776.5 0,-813.5 300,-813.5 300,-776.5 0,-776.5"/>
<text text-anchor="start" x="11" y="-791.3" font-family="Helvetica Neue" font-size="14.00" fill="#333333">id_anak (int8)</text>
<polygon fill="#ffffff" stroke="transparent" points="0,-739.5 0,-776.5 300,-776.5 300,-739.5 0,-739.5"/>
<polygon fill="none" stroke="black" points="0,-739.5 0,-776.5 300,-776.5 300,-739.5 0,-739.5"/>
<text text-anchor="start" x="11" y="-754.3" font-family="Helvetica Neue" font-size="14.00" fill="#333333">id_wali (int8)</text>
<polygon fill="#ffffff" stroke="transparent" points="0,-702.5 0,-739.5 300,-739.5 300,-702.5 0,-702.5"/>
<polygon fill="none" stroke="black" points="0,-702.5 0,-739.5 300,-739.5 300,-702.5 0,-702.5"/>
<text text-anchor="start" x="11" y="-717.3" font-family="Helvetica Neue" font-size="14.00" fill="#333333">nama (varchar)</text>
<polygon fill="#ffffff" stroke="transparent" points="0,-665.5 0,-702.5 300,-702.5 300,-665.5 0,-665.5"/>
<polygon fill="none" stroke="black" points="0,-665.5 0,-702.5 300,-702.5 300,-665.5 0,-665.5"/>
<text text-anchor="start" x="11" y="-680.3" font-family="Helvetica Neue" font-size="14.00" fill="#333333">anak_ke (int2)</text>
<polygon fill="#ffffff" stroke="transparent" points="0,-628.5 0,-665.5 300,-665.5 300,-628.5 0,-628.5"/>
<polygon fill="none" stroke="black" points="0,-628.5 0,-665.5 300,-665.5 300,-628.5 0,-628.5"/>
<text text-anchor="start" x="11" y="-643.3" font-family="Helvetica Neue" font-size="14.00" fill="#333333">no_akte_kelahiran (varchar)</text>
<polygon fill="#ffffff" stroke="transparent" points="0,-591.5 0,-628.5 300,-628.5 300,-591.5 0,-591.5"/>
<polygon fill="none" stroke="black" points="0,-591.5 0,-628.5 300,-628.5 300,-591.5 0,-591.5"/>
<text text-anchor="start" x="11" y="-606.3" font-family="Helvetica Neue" font-size="14.00" fill="#333333">nik (bpchar)</text>
<polygon fill="#ffffff" stroke="transparent" points="0,-554.5 0,-591.5 300,-591.5 300,-554.5 0,-554.5"/>
<polygon fill="none" stroke="black" points="0,-554.5 0,-591.5 300,-591.5 300,-554.5 0,-554.5"/>
<text text-anchor="start" x="11" y="-569.3" font-family="Helvetica Neue" font-size="14.00" fill="#333333">tmpt_lahir (varchar)</text>
<polygon fill="#ffffff" stroke="transparent" points="0,-517.5 0,-554.5 300,-554.5 300,-517.5 0,-517.5"/>
<polygon fill="none" stroke="black" points="0,-517.5 0,-554.5 300,-554.5 300,-517.5 0,-517.5"/>
<text text-anchor="start" x="11" y="-532.3" font-family="Helvetica Neue" font-size="14.00" fill="#333333">tgl_lahir (date)</text>
<polygon fill="#ffffff" stroke="transparent" points="0,-480.5 0,-517.5 300,-517.5 300,-480.5 0,-480.5"/>
<polygon fill="none" stroke="black" points="0,-480.5 0,-517.5 300,-517.5 300,-480.5 0,-480.5"/>
<text text-anchor="start" x="11" y="-495.3" font-family="Helvetica Neue" font-size="14.00" fill="#333333">gol_darah (bpchar)</text>
<polygon fill="#ffffff" stroke="transparent" points="0,-443.5 0,-480.5 300,-480.5 300,-443.5 0,-443.5"/>
<polygon fill="none" stroke="black" points="0,-443.5 0,-480.5 300,-480.5 300,-443.5 0,-443.5"/>
<text text-anchor="start" x="11" y="-458.3" font-family="Helvetica Neue" font-size="14.00" fill="#333333">jenis_pelayanan (varchar)</text>
<polygon fill="#ffffff" stroke="transparent" points="0,-406.5 0,-443.5 300,-443.5 300,-406.5 0,-406.5"/>
<polygon fill="none" stroke="black" points="0,-406.5 0,-443.5 300,-443.5 300,-406.5 0,-406.5"/>
<text text-anchor="start" x="11" y="-421.3" font-family="Helvetica Neue" font-size="14.00" fill="#333333">no_asuransi (varchar)</text>
<polygon fill="#ffffff" stroke="transparent" points="0,-369.5 0,-406.5 300,-406.5 300,-369.5 0,-369.5"/>
<polygon fill="none" stroke="black" points="0,-369.5 0,-406.5 300,-406.5 300,-369.5 0,-369.5"/>
<text text-anchor="start" x="11" y="-384.3" font-family="Helvetica Neue" font-size="14.00" fill="#333333">tgl_berlaku_asuransi (date)</text>
<polygon fill="#ffffff" stroke="transparent" points="0,-332.5 0,-369.5 300,-369.5 300,-332.5 0,-332.5"/>
<polygon fill="none" stroke="black" points="0,-332.5 0,-369.5 300,-369.5 300,-332.5 0,-332.5"/>
<text text-anchor="start" x="11" y="-347.3" font-family="Helvetica Neue" font-size="14.00" fill="#333333">fasilitas_pelayanan_kesehatan (varchar)</text>
<polygon fill="#ffffff" stroke="transparent" points="0,-295.5 0,-332.5 300,-332.5 300,-295.5 0,-295.5"/>
<polygon fill="none" stroke="black" points="0,-295.5 0,-332.5 300,-332.5 300,-295.5 0,-295.5"/>
<text text-anchor="start" x="11" y="-310.3" font-family="Helvetica Neue" font-size="14.00" fill="#333333">no_reg_kohort_bayi (varchar)</text>
<polygon fill="#ffffff" stroke="transparent" points="0,-258.5 0,-295.5 300,-295.5 300,-258.5 0,-258.5"/>
<polygon fill="none" stroke="black" points="0,-258.5 0,-295.5 300,-295.5 300,-258.5 0,-258.5"/>
<text text-anchor="start" x="11" y="-273.3" font-family="Helvetica Neue" font-size="14.00" fill="#333333">no_reg_kohort_balita (varchar)</text>
<polygon fill="#ffffff" stroke="transparent" points="0,-221.5 0,-258.5 300,-258.5 300,-221.5 0,-221.5"/>
<polygon fill="none" stroke="black" points="0,-221.5 0,-258.5 300,-258.5 300,-221.5 0,-221.5"/>
<text text-anchor="start" x="11" y="-236.3" font-family="Helvetica Neue" font-size="14.00" fill="#333333">no_catatan_medik_rs (varchar)</text>
<polygon fill="#ffffff" stroke="transparent" points="0,-184.5 0,-221.5 300,-221.5 300,-184.5 0,-184.5"/>
<polygon fill="none" stroke="black" points="0,-184.5 0,-221.5 300,-221.5 300,-184.5 0,-184.5"/>
<text text-anchor="start" x="11" y="-199.3" font-family="Helvetica Neue" font-size="14.00" fill="#333333">provinsi (varchar)</text>
<polygon fill="#ffffff" stroke="transparent" points="0,-147.5 0,-184.5 300,-184.5 300,-147.5 0,-147.5"/>
<polygon fill="none" stroke="black" points="0,-147.5 0,-184.5 300,-184.5 300,-147.5 0,-147.5"/>
<text text-anchor="start" x="11" y="-162.3" font-family="Helvetica Neue" font-size="14.00" fill="#333333">kabupaten (varchar)</text>
<polygon fill="#ffffff" stroke="transparent" points="0,-110.5 0,-147.5 300,-147.5 300,-110.5 0,-110.5"/>
<polygon fill="none" stroke="black" points="0,-110.5 0,-147.5 300,-147.5 300,-110.5 0,-110.5"/>
<text text-anchor="start" x="11" y="-125.3" font-family="Helvetica Neue" font-size="14.00" fill="#333333">alamat (text)</text>
<polygon fill="#ffffff" stroke="transparent" points="0,-73.5 0,-110.5 300,-110.5 300,-73.5 0,-73.5"/>
<polygon fill="none" stroke="black" points="0,-73.5 0,-110.5 300,-110.5 300,-73.5 0,-73.5"/>
<text text-anchor="start" x="11" y="-88.3" font-family="Helvetica Neue" font-size="14.00" fill="#333333">telepon (varchar)</text>
<polygon fill="#ffffff" stroke="transparent" points="0,-36.5 0,-73.5 300,-73.5 300,-36.5 0,-36.5"/>
<polygon fill="none" stroke="black" points="0,-36.5 0,-73.5 300,-73.5 300,-36.5 0,-36.5"/>
<text text-anchor="start" x="11" y="-51.3" font-family="Helvetica Neue" font-size="14.00" fill="#333333">created_at (timestamp)</text>
<polygon fill="#ffffff" stroke="transparent" points="0,0.5 0,-36.5 300,-36.5 300,0.5 0,0.5"/>
<polygon fill="none" stroke="black" points="0,0.5 0,-36.5 300,-36.5 300,0.5 0,0.5"/>
<text text-anchor="start" x="11" y="-14.3" font-family="Helvetica Neue" font-size="14.00" fill="#333333">updated_at (timestamp)</text>
</g>
<!-- appmodelskapsulanak -->
<g id="node2" class="node">
<title>appmodelskapsulanak</title>
<polygon fill="none" stroke="black" points="663,-887.5 449,-887.5 449,-517.5 663,-517.5 663,-887.5"/>
<polygon fill="#d3d3d3" stroke="transparent" points="449,-850.5 449,-887.5 663,-887.5 663,-850.5 449,-850.5"/>
<polygon fill="none" stroke="black" points="449,-850.5 449,-887.5 663,-887.5 663,-850.5 449,-850.5"/>
<text text-anchor="start" x="515" y="-865.3" font-family="Helvetica Neue" font-size="14.00" fill="#333333">KapsulAnak</text>
<polygon fill="#ffffff" stroke="transparent" points="449,-813.5 449,-850.5 663,-850.5 663,-813.5 449,-813.5"/>
<polygon fill="none" stroke="black" points="449,-813.5 449,-850.5 663,-850.5 663,-813.5 449,-813.5"/>
<text text-anchor="start" x="460" y="-828.3" font-family="Helvetica Neue" font-size="14.00" fill="#333333">id_kapsul_anak (int8)</text>
<polygon fill="#ffffff" stroke="transparent" points="449,-776.5 449,-813.5 663,-813.5 663,-776.5 449,-776.5"/>
<polygon fill="none" stroke="black" points="449,-776.5 449,-813.5 663,-813.5 663,-776.5 449,-776.5"/>
<text text-anchor="start" x="460" y="-791.3" font-family="Helvetica Neue" font-size="14.00" fill="#333333">id_anak (int8)</text>
<polygon fill="#ffffff" stroke="transparent" points="449,-739.5 449,-776.5 663,-776.5 663,-739.5 449,-739.5"/>
<polygon fill="none" stroke="black" points="449,-739.5 449,-776.5 663,-776.5 663,-739.5 449,-739.5"/>
<text text-anchor="start" x="460" y="-754.3" font-family="Helvetica Neue" font-size="14.00" fill="#333333">id_umur_kapsul_anak (int8)</text>
<polygon fill="#ffffff" stroke="transparent" points="449,-702.5 449,-739.5 663,-739.5 663,-702.5 449,-702.5"/>
<polygon fill="none" stroke="black" points="449,-702.5 449,-739.5 663,-739.5 663,-702.5 449,-702.5"/>
<text text-anchor="start" x="460" y="-717.3" font-family="Helvetica Neue" font-size="14.00" fill="#333333">kapsul (varchar)</text>
<polygon fill="#ffffff" stroke="transparent" points="449,-665.5 449,-702.5 663,-702.5 663,-665.5 449,-665.5"/>
<polygon fill="none" stroke="black" points="449,-665.5 449,-702.5 663,-702.5 663,-665.5 449,-665.5"/>
<text text-anchor="start" x="460" y="-680.3" font-family="Helvetica Neue" font-size="14.00" fill="#333333">februari (timestamp)</text>
<polygon fill="#ffffff" stroke="transparent" points="449,-628.5 449,-665.5 663,-665.5 663,-628.5 449,-628.5"/>
<polygon fill="none" stroke="black" points="449,-628.5 449,-665.5 663,-665.5 663,-628.5 449,-628.5"/>
<text text-anchor="start" x="460" y="-643.3" font-family="Helvetica Neue" font-size="14.00" fill="#333333">agustus (timestamp)</text>
<polygon fill="#ffffff" stroke="transparent" points="449,-591.5 449,-628.5 663,-628.5 663,-591.5 449,-591.5"/>
<polygon fill="none" stroke="black" points="449,-591.5 449,-628.5 663,-628.5 663,-591.5 449,-591.5"/>
<text text-anchor="start" x="460" y="-606.3" font-family="Helvetica Neue" font-size="14.00" fill="#333333">obat_cacing (timestamp)</text>
<polygon fill="#ffffff" stroke="transparent" points="449,-554.5 449,-591.5 663,-591.5 663,-554.5 449,-554.5"/>
<polygon fill="none" stroke="black" points="449,-554.5 449,-591.5 663,-591.5 663,-554.5 449,-554.5"/>
<text text-anchor="start" x="460" y="-569.3" font-family="Helvetica Neue" font-size="14.00" fill="#333333">created_at (timestamp)</text>
<polygon fill="#ffffff" stroke="transparent" points="449,-517.5 449,-554.5 663,-554.5 663,-517.5 449,-517.5"/>
<polygon fill="none" stroke="black" points="449,-517.5 449,-554.5 663,-554.5 663,-517.5 449,-517.5"/>
<text text-anchor="start" x="460" y="-532.3" font-family="Helvetica Neue" font-size="14.00" fill="#333333">updated_at (timestamp)</text>
</g>
<!-- appmodelsanak&#45;&gt;appmodelskapsulanak -->
<g id="edge1" class="edge">
<title>appmodelsanak:id_anak&#45;&gt;appmodelskapsulanak:id_anak</title>
<path fill="none" stroke="#fcbf49" stroke-width="1.8" d="M300,-795.5C300,-795.5 405.1,-795.5 438.76,-795.5"/>
<polygon fill="#fcbf49" stroke="#fcbf49" stroke-width="1.8" points="439,-795.5 449,-800 444,-795.5 449,-795.5 449,-795.5 449,-795.5 444,-795.5 449,-791 439,-795.5 439,-795.5"/>
<text text-anchor="middle" x="374.5" y="-799.3" font-family="Helvetica Neue" font-size="14.00"> </text>
<text text-anchor="middle" x="409.88" y="-784.3" font-family="Helvetica Neue" font-size="14.00">HasMany</text>
<text text-anchor="middle" x="409.88" y="-769.3" font-family="Helvetica Neue" font-size="14.00">kapsulAnak</text>
</g>
<!-- appmodelskapsulanak&#45;&gt;appmodelsanak -->
<g id="edge2" class="edge">
<title>appmodelskapsulanak:id_anak&#45;&gt;appmodelsanak:id_anak</title>
<path fill="none" stroke="#f77f00" stroke-width="1.8" d="M439.88,-791.32C420.51,-782.44 377,-762.5 377,-762.5 377,-762.5 372,-762.5 372,-762.5 372,-762.5 320.74,-785.99 304.72,-793.33"/>
<polygon fill="#f77f00" stroke="#f77f00" stroke-width="1.8" points="439.91,-791.33 447.13,-799.59 444.45,-793.42 449,-795.5 449,-795.5 449,-795.5 444.45,-793.42 450.87,-791.41 439.91,-791.33 439.91,-791.33"/>
<polygon fill="#f77f00" stroke="#f77f00" stroke-width="1.8" points="302.99,-799.63 298.83,-790.54 300.64,-789.7 304.81,-798.8 302.99,-799.63"/>
<polyline fill="none" stroke="#f77f00" stroke-width="1.8" points="300,-795.5 304.55,-793.42 "/>
<text text-anchor="middle" x="374.5" y="-766.3" font-family="Helvetica Neue" font-size="14.00"> </text>
<text text-anchor="middle" x="337.08" y="-751.3" font-family="Helvetica Neue" font-size="14.00">BelongsTo</text>
<text text-anchor="middle" x="337.08" y="-736.3" font-family="Helvetica Neue" font-size="14.00">anak</text>
</g>
<!-- appmodelsumurkapsulanak -->
<g id="node3" class="node">
<title>appmodelsumurkapsulanak</title>
<polygon fill="none" stroke="black" points="1026,-814 812,-814 812,-629 1026,-629 1026,-814"/>
<polygon fill="#d3d3d3" stroke="transparent" points="812,-776.5 812,-813.5 1026,-813.5 1026,-776.5 812,-776.5"/>
<polygon fill="none" stroke="black" points="812,-776.5 812,-813.5 1026,-813.5 1026,-776.5 812,-776.5"/>
<text text-anchor="start" x="858.5" y="-791.3" font-family="Helvetica Neue" font-size="14.00" fill="#333333">UmurKapsulAnak</text>
<polygon fill="#ffffff" stroke="transparent" points="812,-739.5 812,-776.5 1026,-776.5 1026,-739.5 812,-739.5"/>
<polygon fill="none" stroke="black" points="812,-739.5 812,-776.5 1026,-776.5 1026,-739.5 812,-739.5"/>
<text text-anchor="start" x="823" y="-754.3" font-family="Helvetica Neue" font-size="14.00" fill="#333333">id_umur_kapsul_anak (int8)</text>
<polygon fill="#ffffff" stroke="transparent" points="812,-702.5 812,-739.5 1026,-739.5 1026,-702.5 812,-702.5"/>
<polygon fill="none" stroke="black" points="812,-702.5 812,-739.5 1026,-739.5 1026,-702.5 812,-702.5"/>
<text text-anchor="start" x="823" y="-717.3" font-family="Helvetica Neue" font-size="14.00" fill="#333333">umur (varchar)</text>
<polygon fill="#ffffff" stroke="transparent" points="812,-665.5 812,-702.5 1026,-702.5 1026,-665.5 812,-665.5"/>
<polygon fill="none" stroke="black" points="812,-665.5 812,-702.5 1026,-702.5 1026,-665.5 812,-665.5"/>
<text text-anchor="start" x="823" y="-680.3" font-family="Helvetica Neue" font-size="14.00" fill="#333333">created_at (timestamp)</text>
<polygon fill="#ffffff" stroke="transparent" points="812,-628.5 812,-665.5 1026,-665.5 1026,-628.5 812,-628.5"/>
<polygon fill="none" stroke="black" points="812,-628.5 812,-665.5 1026,-665.5 1026,-628.5 812,-628.5"/>
<text text-anchor="start" x="823" y="-643.3" font-family="Helvetica Neue" font-size="14.00" fill="#333333">updated_at (timestamp)</text>
</g>
<!-- appmodelskapsulanak&#45;&gt;appmodelsumurkapsulanak -->
<g id="edge3" class="edge">
<title>appmodelskapsulanak:id_umur_kapsul_anak&#45;&gt;appmodelsumurkapsulanak:id_umur_kapsul_anak</title>
<path fill="none" stroke="#f77f00" stroke-width="1.8" d="M673.24,-758.5C702.43,-758.5 785.34,-758.5 806.85,-758.5"/>
<polygon fill="#f77f00" stroke="#f77f00" stroke-width="1.8" points="673,-758.5 663,-754 668,-758.5 663,-758.5 663,-758.5 663,-758.5 668,-758.5 663,-763 673,-758.5 673,-758.5"/>
<polygon fill="#f77f00" stroke="#f77f00" stroke-width="1.8" points="811,-753.5 811,-763.5 809,-763.5 809,-753.5 811,-753.5"/>
<polyline fill="none" stroke="#f77f00" stroke-width="1.8" points="812,-758.5 807,-758.5 "/>
<text text-anchor="middle" x="737.5" y="-762.3" font-family="Helvetica Neue" font-size="14.00"> </text>
<text text-anchor="middle" x="680.05" y="-747.3" font-family="Helvetica Neue" font-size="14.00">BelongsTo</text>
<text text-anchor="middle" x="680.05" y="-732.3" font-family="Helvetica Neue" font-size="14.00">umurKapsulAnak</text>
</g>
<!-- appmodelsumurkapsulanak&#45;&gt;appmodelskapsulanak -->
<g id="edge4" class="edge">
<title>appmodelsumurkapsulanak:id_umur_kapsul_anak&#45;&gt;appmodelskapsulanak:id_umur_kapsul_anak</title>
<path fill="none" stroke="#fcbf49" stroke-width="1.8" d="M812,-758.5C812,-758.5 740,-725.5 740,-725.5 740,-725.5 735,-725.5 735,-725.5 735,-725.5 691.49,-745.44 672.12,-754.32"/>
<polygon fill="#fcbf49" stroke="#fcbf49" stroke-width="1.8" points="672.09,-754.33 661.13,-754.41 667.55,-756.42 663,-758.5 663,-758.5 663,-758.5 667.55,-756.42 664.87,-762.59 672.09,-754.33 672.09,-754.33"/>
<text text-anchor="middle" x="737.5" y="-729.3" font-family="Helvetica Neue" font-size="14.00"> </text>
<text text-anchor="middle" x="701.79" y="-715.35" font-family="Helvetica Neue" font-size="14.00">HasMany</text>
<text text-anchor="middle" x="701.79" y="-700.35" font-family="Helvetica Neue" font-size="14.00">kapsulAnak</text>
</g>
</g>
</svg>
