<?xml version="1.0" encoding="UTF-8" standalone="no"?><svg xmlns="http://www.w3.org/2000/svg" xmlns:xlink="http://www.w3.org/1999/xlink" contentScriptType="application/ecmascript" contentStyleType="text/css" height="279px" preserveAspectRatio="none" style="width:958px;height:279px;" version="1.1" viewBox="0 0 958 279" width="958px" zoomAndPan="magnify"><defs><filter height="300%" id="fmi9p04vv70if" width="300%" x="-1" y="-1"><feGaussianBlur result="blurOut" stdDeviation="2.0"/><feColorMatrix in="blurOut" result="blurOut2" type="matrix" values="0 0 0 0 0 0 0 0 0 0 0 0 0 0 0 0 0 0 .4 0"/><feOffset dx="4.0" dy="4.0" in="blurOut2" result="blurOut3"/><feBlend in="SourceGraphic" in2="blurOut3" mode="normal"/></filter></defs><g><!--MD5=[bb5828b590ca9192e05f93b751eb1690]
class MinumTtdController--><rect fill="#FEFECE" filter="url(#fmi9p04vv70if)" height="152.8732" id="MinumTtdController" style="stroke: #A80036; stroke-width: 1.5;" width="145" x="6" y="116"/><ellipse cx="21" cy="132" fill="#ADD1B2" rx="11" ry="11" style="stroke: #A80036; stroke-width: 1.0;"/><path d="M23.9688,137.6406 Q23.3906,137.9375 22.75,138.0781 Q22.1094,138.2344 21.4063,138.2344 Q18.9063,138.2344 17.5781,136.5938 Q16.2656,134.9375 16.2656,131.8125 Q16.2656,128.6875 17.5781,127.0313 Q18.9063,125.375 21.4063,125.375 Q22.1094,125.375 22.75,125.5313 Q23.4063,125.6875 23.9688,125.9844 L23.9688,128.7031 Q23.3438,128.125 22.75,127.8594 Q22.1563,127.5781 21.5313,127.5781 Q20.1875,127.5781 19.5,128.6563 Q18.8125,129.7188 18.8125,131.8125 Q18.8125,133.9063 19.5,134.9844 Q20.1875,136.0469 21.5313,136.0469 Q22.1563,136.0469 22.75,135.7813 Q23.3438,135.5 23.9688,134.9219 L23.9688,137.6406 Z "/><text fill="#000000" font-family="sans-serif" font-size="12" lengthAdjust="spacingAndGlyphs" textLength="113" x="35" y="136.656">MinumTtdController</text><line style="stroke: #A80036; stroke-width: 1.5;" x1="7" x2="150" y1="148" y2="148"/><line style="stroke: #A80036; stroke-width: 1.5;" x1="7" x2="150" y1="156" y2="156"/><ellipse cx="17" cy="167" fill="#84BE84" rx="3" ry="3" style="stroke: #038048; stroke-width: 1.0;"/><text fill="#000000" font-family="sans-serif" font-size="11" lengthAdjust="spacingAndGlyphs" textLength="35" x="26" y="171.7589">index()</text><ellipse cx="17" cy="181.9819" fill="#84BE84" rx="3" ry="3" style="stroke: #038048; stroke-width: 1.0;"/><text fill="#000000" font-family="sans-serif" font-size="11" lengthAdjust="spacingAndGlyphs" textLength="38" x="26" y="186.7408">create()</text><ellipse cx="17" cy="196.9638" fill="#84BE84" rx="3" ry="3" style="stroke: #038048; stroke-width: 1.0;"/><text fill="#000000" font-family="sans-serif" font-size="11" lengthAdjust="spacingAndGlyphs" textLength="33" x="26" y="201.7227">store()</text><ellipse cx="17" cy="211.9457" fill="#84BE84" rx="3" ry="3" style="stroke: #038048; stroke-width: 1.0;"/><text fill="#000000" font-family="sans-serif" font-size="11" lengthAdjust="spacingAndGlyphs" textLength="43" x="26" y="216.7046">update()</text><ellipse cx="17" cy="226.9276" fill="#84BE84" rx="3" ry="3" style="stroke: #038048; stroke-width: 1.0;"/><text fill="#000000" font-family="sans-serif" font-size="11" lengthAdjust="spacingAndGlyphs" textLength="26" x="26" y="231.6865">edit()</text><ellipse cx="17" cy="241.9094" fill="#84BE84" rx="3" ry="3" style="stroke: #038048; stroke-width: 1.0;"/><text fill="#000000" font-family="sans-serif" font-size="11" lengthAdjust="spacingAndGlyphs" textLength="46" x="26" y="246.6684">destroy()</text><ellipse cx="17" cy="256.8913" fill="#84BE84" rx="3" ry="3" style="stroke: #038048; stroke-width: 1.0;"/><text fill="#000000" font-family="sans-serif" font-size="11" lengthAdjust="spacingAndGlyphs" textLength="27" x="26" y="261.6502">ajax()</text><!--MD5=[a91429b804a8b5b16e6c31526b722d6a]
class BaseCrudController--><rect fill="#FEFECE" filter="url(#fmi9p04vv70if)" height="48" id="BaseCrudController" style="stroke: #A80036; stroke-width: 1.5;" width="143" x="281" y="8"/><ellipse cx="296" cy="24" fill="#ADD1B2" rx="11" ry="11" style="stroke: #A80036; stroke-width: 1.0;"/><path d="M298.9688,29.6406 Q298.3906,29.9375 297.75,30.0781 Q297.1094,30.2344 296.4063,30.2344 Q293.9063,30.2344 292.5781,28.5938 Q291.2656,26.9375 291.2656,23.8125 Q291.2656,20.6875 292.5781,19.0313 Q293.9063,17.375 296.4063,17.375 Q297.1094,17.375 297.75,17.5313 Q298.4063,17.6875 298.9688,17.9844 L298.9688,20.7031 Q298.3438,20.125 297.75,19.8594 Q297.1563,19.5781 296.5313,19.5781 Q295.1875,19.5781 294.5,20.6563 Q293.8125,21.7188 293.8125,23.8125 Q293.8125,25.9063 294.5,26.9844 Q295.1875,28.0469 296.5313,28.0469 Q297.1563,28.0469 297.75,27.7813 Q298.3438,27.5 298.9688,26.9219 L298.9688,29.6406 Z "/><text fill="#000000" font-family="sans-serif" font-size="12" lengthAdjust="spacingAndGlyphs" textLength="111" x="310" y="28.656">BaseCrudController</text><line style="stroke: #A80036; stroke-width: 1.5;" x1="282" x2="423" y1="40" y2="40"/><line style="stroke: #A80036; stroke-width: 1.5;" x1="282" x2="423" y1="48" y2="48"/><!--MD5=[76e5522644e37a03eea85431bf87877d]
class UsgTri3Controller--><rect fill="#FEFECE" filter="url(#fmi9p04vv70if)" height="152.8732" id="UsgTri3Controller" style="stroke: #A80036; stroke-width: 1.5;" width="132" x="186.5" y="116"/><ellipse cx="201.5" cy="132" fill="#ADD1B2" rx="11" ry="11" style="stroke: #A80036; stroke-width: 1.0;"/><path d="M204.4688,137.6406 Q203.8906,137.9375 203.25,138.0781 Q202.6094,138.2344 201.9063,138.2344 Q199.4063,138.2344 198.0781,136.5938 Q196.7656,134.9375 196.7656,131.8125 Q196.7656,128.6875 198.0781,127.0313 Q199.4063,125.375 201.9063,125.375 Q202.6094,125.375 203.25,125.5313 Q203.9063,125.6875 204.4688,125.9844 L204.4688,128.7031 Q203.8438,128.125 203.25,127.8594 Q202.6563,127.5781 202.0313,127.5781 Q200.6875,127.5781 200,128.6563 Q199.3125,129.7188 199.3125,131.8125 Q199.3125,133.9063 200,134.9844 Q200.6875,136.0469 202.0313,136.0469 Q202.6563,136.0469 203.25,135.7813 Q203.8438,135.5 204.4688,134.9219 L204.4688,137.6406 Z "/><text fill="#000000" font-family="sans-serif" font-size="12" lengthAdjust="spacingAndGlyphs" textLength="100" x="215.5" y="136.656">UsgTri3Controller</text><line style="stroke: #A80036; stroke-width: 1.5;" x1="187.5" x2="317.5" y1="148" y2="148"/><line style="stroke: #A80036; stroke-width: 1.5;" x1="187.5" x2="317.5" y1="156" y2="156"/><ellipse cx="197.5" cy="167" fill="#84BE84" rx="3" ry="3" style="stroke: #038048; stroke-width: 1.0;"/><text fill="#000000" font-family="sans-serif" font-size="11" lengthAdjust="spacingAndGlyphs" textLength="35" x="206.5" y="171.7589">index()</text><ellipse cx="197.5" cy="181.9819" fill="#84BE84" rx="3" ry="3" style="stroke: #038048; stroke-width: 1.0;"/><text fill="#000000" font-family="sans-serif" font-size="11" lengthAdjust="spacingAndGlyphs" textLength="38" x="206.5" y="186.7408">create()</text><ellipse cx="197.5" cy="196.9638" fill="#84BE84" rx="3" ry="3" style="stroke: #038048; stroke-width: 1.0;"/><text fill="#000000" font-family="sans-serif" font-size="11" lengthAdjust="spacingAndGlyphs" textLength="33" x="206.5" y="201.7227">store()</text><ellipse cx="197.5" cy="211.9457" fill="#84BE84" rx="3" ry="3" style="stroke: #038048; stroke-width: 1.0;"/><text fill="#000000" font-family="sans-serif" font-size="11" lengthAdjust="spacingAndGlyphs" textLength="43" x="206.5" y="216.7046">update()</text><ellipse cx="197.5" cy="226.9276" fill="#84BE84" rx="3" ry="3" style="stroke: #038048; stroke-width: 1.0;"/><text fill="#000000" font-family="sans-serif" font-size="11" lengthAdjust="spacingAndGlyphs" textLength="26" x="206.5" y="231.6865">edit()</text><ellipse cx="197.5" cy="241.9094" fill="#84BE84" rx="3" ry="3" style="stroke: #038048; stroke-width: 1.0;"/><text fill="#000000" font-family="sans-serif" font-size="11" lengthAdjust="spacingAndGlyphs" textLength="46" x="206.5" y="246.6684">destroy()</text><ellipse cx="197.5" cy="256.8913" fill="#84BE84" rx="3" ry="3" style="stroke: #038048; stroke-width: 1.0;"/><text fill="#000000" font-family="sans-serif" font-size="11" lengthAdjust="spacingAndGlyphs" textLength="27" x="206.5" y="261.6502">ajax()</text><!--MD5=[ffeef648ce97aed934d29cf1cf37b401]
class DataKesehatanGigiController--><rect fill="#FEFECE" filter="url(#fmi9p04vv70if)" height="152.8732" id="DataKesehatanGigiController" style="stroke: #A80036; stroke-width: 1.5;" width="196" x="353.5" y="116"/><ellipse cx="368.5" cy="132" fill="#ADD1B2" rx="11" ry="11" style="stroke: #A80036; stroke-width: 1.0;"/><path d="M371.4688,137.6406 Q370.8906,137.9375 370.25,138.0781 Q369.6094,138.2344 368.9063,138.2344 Q366.4063,138.2344 365.0781,136.5938 Q363.7656,134.9375 363.7656,131.8125 Q363.7656,128.6875 365.0781,127.0313 Q366.4063,125.375 368.9063,125.375 Q369.6094,125.375 370.25,125.5313 Q370.9063,125.6875 371.4688,125.9844 L371.4688,128.7031 Q370.8438,128.125 370.25,127.8594 Q369.6563,127.5781 369.0313,127.5781 Q367.6875,127.5781 367,128.6563 Q366.3125,129.7188 366.3125,131.8125 Q366.3125,133.9063 367,134.9844 Q367.6875,136.0469 369.0313,136.0469 Q369.6563,136.0469 370.25,135.7813 Q370.8438,135.5 371.4688,134.9219 L371.4688,137.6406 Z "/><text fill="#000000" font-family="sans-serif" font-size="12" lengthAdjust="spacingAndGlyphs" textLength="164" x="382.5" y="136.656">DataKesehatanGigiController</text><line style="stroke: #A80036; stroke-width: 1.5;" x1="354.5" x2="548.5" y1="148" y2="148"/><line style="stroke: #A80036; stroke-width: 1.5;" x1="354.5" x2="548.5" y1="156" y2="156"/><ellipse cx="364.5" cy="167" fill="#84BE84" rx="3" ry="3" style="stroke: #038048; stroke-width: 1.0;"/><text fill="#000000" font-family="sans-serif" font-size="11" lengthAdjust="spacingAndGlyphs" textLength="35" x="373.5" y="171.7589">index()</text><ellipse cx="364.5" cy="181.9819" fill="#84BE84" rx="3" ry="3" style="stroke: #038048; stroke-width: 1.0;"/><text fill="#000000" font-family="sans-serif" font-size="11" lengthAdjust="spacingAndGlyphs" textLength="38" x="373.5" y="186.7408">create()</text><ellipse cx="364.5" cy="196.9638" fill="#84BE84" rx="3" ry="3" style="stroke: #038048; stroke-width: 1.0;"/><text fill="#000000" font-family="sans-serif" font-size="11" lengthAdjust="spacingAndGlyphs" textLength="33" x="373.5" y="201.7227">store()</text><ellipse cx="364.5" cy="211.9457" fill="#84BE84" rx="3" ry="3" style="stroke: #038048; stroke-width: 1.0;"/><text fill="#000000" font-family="sans-serif" font-size="11" lengthAdjust="spacingAndGlyphs" textLength="43" x="373.5" y="216.7046">update()</text><ellipse cx="364.5" cy="226.9276" fill="#84BE84" rx="3" ry="3" style="stroke: #038048; stroke-width: 1.0;"/><text fill="#000000" font-family="sans-serif" font-size="11" lengthAdjust="spacingAndGlyphs" textLength="26" x="373.5" y="231.6865">edit()</text><ellipse cx="364.5" cy="241.9094" fill="#84BE84" rx="3" ry="3" style="stroke: #038048; stroke-width: 1.0;"/><text fill="#000000" font-family="sans-serif" font-size="11" lengthAdjust="spacingAndGlyphs" textLength="46" x="373.5" y="246.6684">destroy()</text><ellipse cx="364.5" cy="256.8913" fill="#84BE84" rx="3" ry="3" style="stroke: #038048; stroke-width: 1.0;"/><text fill="#000000" font-family="sans-serif" font-size="11" lengthAdjust="spacingAndGlyphs" textLength="27" x="373.5" y="261.6502">ajax()</text><!--MD5=[38239982e41fb20355a24f748a437aac]
class DashboardLalaController--><rect fill="#FEFECE" filter="url(#fmi9p04vv70if)" height="152.8732" id="DashboardLalaController" style="stroke: #A80036; stroke-width: 1.5;" width="173" x="774" y="116"/><ellipse cx="789" cy="132" fill="#ADD1B2" rx="11" ry="11" style="stroke: #A80036; stroke-width: 1.0;"/><path d="M791.9688,137.6406 Q791.3906,137.9375 790.75,138.0781 Q790.1094,138.2344 789.4063,138.2344 Q786.9063,138.2344 785.5781,136.5938 Q784.2656,134.9375 784.2656,131.8125 Q784.2656,128.6875 785.5781,127.0313 Q786.9063,125.375 789.4063,125.375 Q790.1094,125.375 790.75,125.5313 Q791.4063,125.6875 791.9688,125.9844 L791.9688,128.7031 Q791.3438,128.125 790.75,127.8594 Q790.1563,127.5781 789.5313,127.5781 Q788.1875,127.5781 787.5,128.6563 Q786.8125,129.7188 786.8125,131.8125 Q786.8125,133.9063 787.5,134.9844 Q788.1875,136.0469 789.5313,136.0469 Q790.1563,136.0469 790.75,135.7813 Q791.3438,135.5 791.9688,134.9219 L791.9688,137.6406 Z "/><text fill="#000000" font-family="sans-serif" font-size="12" lengthAdjust="spacingAndGlyphs" textLength="141" x="803" y="136.656">DashboardLalaController</text><line style="stroke: #A80036; stroke-width: 1.5;" x1="775" x2="946" y1="148" y2="148"/><line style="stroke: #A80036; stroke-width: 1.5;" x1="775" x2="946" y1="156" y2="156"/><ellipse cx="785" cy="167" fill="#84BE84" rx="3" ry="3" style="stroke: #038048; stroke-width: 1.0;"/><text fill="#000000" font-family="sans-serif" font-size="11" lengthAdjust="spacingAndGlyphs" textLength="35" x="794" y="171.7589">index()</text><ellipse cx="785" cy="181.9819" fill="#84BE84" rx="3" ry="3" style="stroke: #038048; stroke-width: 1.0;"/><text fill="#000000" font-family="sans-serif" font-size="11" lengthAdjust="spacingAndGlyphs" textLength="38" x="794" y="186.7408">create()</text><ellipse cx="785" cy="196.9638" fill="#84BE84" rx="3" ry="3" style="stroke: #038048; stroke-width: 1.0;"/><text fill="#000000" font-family="sans-serif" font-size="11" lengthAdjust="spacingAndGlyphs" textLength="33" x="794" y="201.7227">store()</text><ellipse cx="785" cy="211.9457" fill="#84BE84" rx="3" ry="3" style="stroke: #038048; stroke-width: 1.0;"/><text fill="#000000" font-family="sans-serif" font-size="11" lengthAdjust="spacingAndGlyphs" textLength="34" x="794" y="216.7046">show()</text><ellipse cx="785" cy="226.9276" fill="#84BE84" rx="3" ry="3" style="stroke: #038048; stroke-width: 1.0;"/><text fill="#000000" font-family="sans-serif" font-size="11" lengthAdjust="spacingAndGlyphs" textLength="26" x="794" y="231.6865">edit()</text><ellipse cx="785" cy="241.9094" fill="#84BE84" rx="3" ry="3" style="stroke: #038048; stroke-width: 1.0;"/><text fill="#000000" font-family="sans-serif" font-size="11" lengthAdjust="spacingAndGlyphs" textLength="43" x="794" y="246.6684">update()</text><ellipse cx="785" cy="256.8913" fill="#84BE84" rx="3" ry="3" style="stroke: #038048; stroke-width: 1.0;"/><text fill="#000000" font-family="sans-serif" font-size="11" lengthAdjust="spacingAndGlyphs" textLength="46" x="794" y="261.6502">destroy()</text><!--MD5=[1d7ba1c7002d54515419844fbd155368]
class Controller--><rect fill="#FEFECE" filter="url(#fmi9p04vv70if)" height="48" id="Controller" style="stroke: #A80036; stroke-width: 1.5;" width="88" x="816.5" y="8"/><ellipse cx="831.5" cy="24" fill="#ADD1B2" rx="11" ry="11" style="stroke: #A80036; stroke-width: 1.0;"/><path d="M834.4688,29.6406 Q833.8906,29.9375 833.25,30.0781 Q832.6094,30.2344 831.9063,30.2344 Q829.4063,30.2344 828.0781,28.5938 Q826.7656,26.9375 826.7656,23.8125 Q826.7656,20.6875 828.0781,19.0313 Q829.4063,17.375 831.9063,17.375 Q832.6094,17.375 833.25,17.5313 Q833.9063,17.6875 834.4688,17.9844 L834.4688,20.7031 Q833.8438,20.125 833.25,19.8594 Q832.6563,19.5781 832.0313,19.5781 Q830.6875,19.5781 830,20.6563 Q829.3125,21.7188 829.3125,23.8125 Q829.3125,25.9063 830,26.9844 Q830.6875,28.0469 832.0313,28.0469 Q832.6563,28.0469 833.25,27.7813 Q833.8438,27.5 834.4688,26.9219 L834.4688,29.6406 Z "/><text fill="#000000" font-family="sans-serif" font-size="12" lengthAdjust="spacingAndGlyphs" textLength="56" x="845.5" y="28.656">Controller</text><line style="stroke: #A80036; stroke-width: 1.5;" x1="817.5" x2="903.5" y1="40" y2="40"/><line style="stroke: #A80036; stroke-width: 1.5;" x1="817.5" x2="903.5" y1="48" y2="48"/><!--MD5=[65f9bf22a0121fe79dd2f15ffd03c155]
class Kesehatan1Controller--><rect fill="#FEFECE" filter="url(#fmi9p04vv70if)" height="152.8732" id="Kesehatan1Controller" style="stroke: #A80036; stroke-width: 1.5;" width="154" x="584.5" y="116"/><ellipse cx="599.5" cy="132" fill="#ADD1B2" rx="11" ry="11" style="stroke: #A80036; stroke-width: 1.0;"/><path d="M602.4688,137.6406 Q601.8906,137.9375 601.25,138.0781 Q600.6094,138.2344 599.9063,138.2344 Q597.4063,138.2344 596.0781,136.5938 Q594.7656,134.9375 594.7656,131.8125 Q594.7656,128.6875 596.0781,127.0313 Q597.4063,125.375 599.9063,125.375 Q600.6094,125.375 601.25,125.5313 Q601.9063,125.6875 602.4688,125.9844 L602.4688,128.7031 Q601.8438,128.125 601.25,127.8594 Q600.6563,127.5781 600.0313,127.5781 Q598.6875,127.5781 598,128.6563 Q597.3125,129.7188 597.3125,131.8125 Q597.3125,133.9063 598,134.9844 Q598.6875,136.0469 600.0313,136.0469 Q600.6563,136.0469 601.25,135.7813 Q601.8438,135.5 602.4688,134.9219 L602.4688,137.6406 Z "/><text fill="#000000" font-family="sans-serif" font-size="12" lengthAdjust="spacingAndGlyphs" textLength="122" x="613.5" y="136.656">Kesehatan1Controller</text><line style="stroke: #A80036; stroke-width: 1.5;" x1="585.5" x2="737.5" y1="148" y2="148"/><line style="stroke: #A80036; stroke-width: 1.5;" x1="585.5" x2="737.5" y1="156" y2="156"/><ellipse cx="595.5" cy="167" fill="#84BE84" rx="3" ry="3" style="stroke: #038048; stroke-width: 1.0;"/><text fill="#000000" font-family="sans-serif" font-size="11" lengthAdjust="spacingAndGlyphs" textLength="35" x="604.5" y="171.7589">index()</text><ellipse cx="595.5" cy="181.9819" fill="#84BE84" rx="3" ry="3" style="stroke: #038048; stroke-width: 1.0;"/><text fill="#000000" font-family="sans-serif" font-size="11" lengthAdjust="spacingAndGlyphs" textLength="38" x="604.5" y="186.7408">create()</text><ellipse cx="595.5" cy="196.9638" fill="#84BE84" rx="3" ry="3" style="stroke: #038048; stroke-width: 1.0;"/><text fill="#000000" font-family="sans-serif" font-size="11" lengthAdjust="spacingAndGlyphs" textLength="33" x="604.5" y="201.7227">store()</text><ellipse cx="595.5" cy="211.9457" fill="#84BE84" rx="3" ry="3" style="stroke: #038048; stroke-width: 1.0;"/><text fill="#000000" font-family="sans-serif" font-size="11" lengthAdjust="spacingAndGlyphs" textLength="43" x="604.5" y="216.7046">update()</text><ellipse cx="595.5" cy="226.9276" fill="#84BE84" rx="3" ry="3" style="stroke: #038048; stroke-width: 1.0;"/><text fill="#000000" font-family="sans-serif" font-size="11" lengthAdjust="spacingAndGlyphs" textLength="26" x="604.5" y="231.6865">edit()</text><ellipse cx="595.5" cy="241.9094" fill="#84BE84" rx="3" ry="3" style="stroke: #038048; stroke-width: 1.0;"/><text fill="#000000" font-family="sans-serif" font-size="11" lengthAdjust="spacingAndGlyphs" textLength="46" x="604.5" y="246.6684">destroy()</text><ellipse cx="595.5" cy="256.8913" fill="#84BE84" rx="3" ry="3" style="stroke: #038048; stroke-width: 1.0;"/><text fill="#000000" font-family="sans-serif" font-size="11" lengthAdjust="spacingAndGlyphs" textLength="27" x="604.5" y="261.6502">ajax()</text><!--MD5=[87adc5a190aa8f7a298a12d26e081174]
reverse link BaseCrudController to MinumTtdController--><path d="M271.48,63.86 C238.48,77.87 200.62,95.82 168.5,116 C162.71,119.63 156.9,123.61 151.17,127.78 " fill="none" id="BaseCrudController&lt;-MinumTtdController" style="stroke: #A80036; stroke-width: 1.0;"/><polygon fill="none" points="269.11,57.27,290.27,56.09,274.46,70.2,269.11,57.27" style="stroke: #A80036; stroke-width: 1.0;"/><!--MD5=[1c34c2fff49a9ae52c2a5fcaaa03625f]
reverse link BaseCrudController to UsgTri3Controller--><path d="M327.26,73.01 C319.03,86.05 309.61,100.98 300.29,115.76 " fill="none" id="BaseCrudController&lt;-UsgTri3Controller" style="stroke: #A80036; stroke-width: 1.0;"/><polygon fill="none" points="321.37,69.23,337.96,56.05,333.21,76.7,321.37,69.23" style="stroke: #A80036; stroke-width: 1.0;"/><!--MD5=[e1ea4480faf69889dcebc33718b34602]
reverse link BaseCrudController to DataKesehatanGigiController--><path d="M377.77,73.46 C385.85,86.39 395.07,101.15 404.19,115.76 " fill="none" id="BaseCrudController&lt;-DataKesehatanGigiController" style="stroke: #A80036; stroke-width: 1.0;"/><polygon fill="none" points="371.55,76.72,366.9,56.05,383.43,69.3,371.55,76.72" style="stroke: #A80036; stroke-width: 1.0;"/><!--MD5=[94bc664f1cd635937def97acaeae413e]
reverse link Controller to DashboardLalaController--><path d="M860.5,76.19 C860.5,88.45 860.5,102.17 860.5,115.76 " fill="none" id="Controller&lt;-DashboardLalaController" style="stroke: #A80036; stroke-width: 1.0;"/><polygon fill="none" points="853.5,76.05,860.5,56.05,867.5,76.05,853.5,76.05" style="stroke: #A80036; stroke-width: 1.0;"/><!--MD5=[b0c5494d0ecfa945008c93ccade3fabb]
reverse link BaseCrudController to Kesehatan1Controller--><path d="M443.27,61.36 C482.42,75.31 527.97,93.9 566.5,116 C572.44,119.41 578.4,123.17 584.29,127.13 " fill="none" id="BaseCrudController&lt;-Kesehatan1Controller" style="stroke: #A80036; stroke-width: 1.0;"/><polygon fill="none" points="440.94,67.96,424.33,54.8,445.52,54.74,440.94,67.96" style="stroke: #A80036; stroke-width: 1.0;"/><!--MD5=[ac43a6546b983bd5ddacb66f060d959a]
@startuml

class MinumTtdController extends BaseCrudController {
  +index()
  +create()
  +store()
  +update()
  +edit()
  +destroy()
  +ajax()
}

class UsgTri3Controller extends BaseCrudController {
  +index()
  +create()
  +store()
  +update()
  +edit()
  +destroy()
  +ajax()
}

class DataKesehatanGigiController extends BaseCrudController {
  +index()
  +create()
  +store()
  +update()
  +edit()
  +destroy()
  +ajax()
}

class DashboardLalaController extends Controller {
  +index()
  +create()
  +store()
  +show()
  +edit()
  +update()
  +destroy()
}

class Kesehatan1Controller extends BaseCrudController {
  +index()
  +create()
  +store()
  +update()
  +edit()
  +destroy()
  +ajax()
}

@enduml

PlantUML version 1.2020.02(Sun Mar 01 17:22:07 WIB 2020)
(GPL source distribution)
Java Runtime: OpenJDK Runtime Environment
JVM: OpenJDK 64-Bit Server VM
Java Version: 21.0.7+6-Ubuntu-0ubuntu124.04
Operating System: Linux
Default Encoding: UTF-8
Language: en
Country: US
--></g></svg>