<?xml version="1.0" encoding="UTF-8" standalone="no"?><svg xmlns="http://www.w3.org/2000/svg" xmlns:xlink="http://www.w3.org/1999/xlink" contentScriptType="application/ecmascript" contentStyleType="text/css" height="309px" preserveAspectRatio="none" style="width:1029px;height:309px;" version="1.1" viewBox="0 0 1029 309" width="1029px" zoomAndPan="magnify"><defs><filter height="300%" id="fuvw913972k0x" width="300%" x="-1" y="-1"><feGaussianBlur result="blurOut" stdDeviation="2.0"/><feColorMatrix in="blurOut" result="blurOut2" type="matrix" values="0 0 0 0 0 0 0 0 0 0 0 0 0 0 0 0 0 0 .4 0"/><feOffset dx="4.0" dy="4.0" in="blurOut2" result="blurOut3"/><feBlend in="SourceGraphic" in2="blurOut3" mode="normal"/></filter></defs><g><!--MD5=[74b319c536402927a6f5cee95aed7850]
class GrafikTinggiBadanUmurLakiController--><rect fill="#FEFECE" filter="url(#fuvw913972k0x)" height="182.837" id="GrafikTinggiBadanUmurLakiController" style="stroke: #A80036; stroke-width: 1.5;" width="246" x="6" y="116"/><ellipse cx="21" cy="132" fill="#ADD1B2" rx="11" ry="11" style="stroke: #A80036; stroke-width: 1.0;"/><path d="M23.9688,137.6406 Q23.3906,137.9375 22.75,138.0781 Q22.1094,138.2344 21.4063,138.2344 Q18.9063,138.2344 17.5781,136.5938 Q16.2656,134.9375 16.2656,131.8125 Q16.2656,128.6875 17.5781,127.0313 Q18.9063,125.375 21.4063,125.375 Q22.1094,125.375 22.75,125.5313 Q23.4063,125.6875 23.9688,125.9844 L23.9688,128.7031 Q23.3438,128.125 22.75,127.8594 Q22.1563,127.5781 21.5313,127.5781 Q20.1875,127.5781 19.5,128.6563 Q18.8125,129.7188 18.8125,131.8125 Q18.8125,133.9063 19.5,134.9844 Q20.1875,136.0469 21.5313,136.0469 Q22.1563,136.0469 22.75,135.7813 Q23.3438,135.5 23.9688,134.9219 L23.9688,137.6406 Z "/><text fill="#000000" font-family="sans-serif" font-size="12" lengthAdjust="spacingAndGlyphs" textLength="214" x="35" y="136.656">GrafikTinggiBadanUmurLakiController</text><line style="stroke: #A80036; stroke-width: 1.5;" x1="7" x2="251" y1="148" y2="148"/><line style="stroke: #A80036; stroke-width: 1.5;" x1="7" x2="251" y1="156" y2="156"/><ellipse cx="17" cy="167" fill="#84BE84" rx="3" ry="3" style="stroke: #038048; stroke-width: 1.0;"/><text fill="#000000" font-family="sans-serif" font-size="11" lengthAdjust="spacingAndGlyphs" textLength="35" x="26" y="171.7589">index()</text><ellipse cx="17" cy="181.9819" fill="#84BE84" rx="3" ry="3" style="stroke: #038048; stroke-width: 1.0;"/><text fill="#000000" font-family="sans-serif" font-size="11" lengthAdjust="spacingAndGlyphs" textLength="61" x="26" y="186.7408">dataGrafik()</text><ellipse cx="17" cy="196.9638" fill="#84BE84" rx="3" ry="3" style="stroke: #038048; stroke-width: 1.0;"/><text fill="#000000" font-family="sans-serif" font-size="11" lengthAdjust="spacingAndGlyphs" textLength="37" x="26" y="201.7227">grafik()</text><ellipse cx="17" cy="211.9457" fill="#84BE84" rx="3" ry="3" style="stroke: #038048; stroke-width: 1.0;"/><text fill="#000000" font-family="sans-serif" font-size="11" lengthAdjust="spacingAndGlyphs" textLength="38" x="26" y="216.7046">create()</text><ellipse cx="17" cy="226.9276" fill="#84BE84" rx="3" ry="3" style="stroke: #038048; stroke-width: 1.0;"/><text fill="#000000" font-family="sans-serif" font-size="11" lengthAdjust="spacingAndGlyphs" textLength="33" x="26" y="231.6865">store()</text><ellipse cx="17" cy="241.9094" fill="#84BE84" rx="3" ry="3" style="stroke: #038048; stroke-width: 1.0;"/><text fill="#000000" font-family="sans-serif" font-size="11" lengthAdjust="spacingAndGlyphs" textLength="34" x="26" y="246.6684">show()</text><ellipse cx="17" cy="256.8913" fill="#84BE84" rx="3" ry="3" style="stroke: #038048; stroke-width: 1.0;"/><text fill="#000000" font-family="sans-serif" font-size="11" lengthAdjust="spacingAndGlyphs" textLength="26" x="26" y="261.6502">edit()</text><ellipse cx="17" cy="271.8732" fill="#84BE84" rx="3" ry="3" style="stroke: #038048; stroke-width: 1.0;"/><text fill="#000000" font-family="sans-serif" font-size="11" lengthAdjust="spacingAndGlyphs" textLength="43" x="26" y="276.6321">update()</text><ellipse cx="17" cy="286.8551" fill="#84BE84" rx="3" ry="3" style="stroke: #038048; stroke-width: 1.0;"/><text fill="#000000" font-family="sans-serif" font-size="11" lengthAdjust="spacingAndGlyphs" textLength="46" x="26" y="291.614">destroy()</text><!--MD5=[1d7ba1c7002d54515419844fbd155368]
class Controller--><rect fill="#FEFECE" filter="url(#fuvw913972k0x)" height="48" id="Controller" style="stroke: #A80036; stroke-width: 1.5;" width="88" x="202" y="8"/><ellipse cx="217" cy="24" fill="#ADD1B2" rx="11" ry="11" style="stroke: #A80036; stroke-width: 1.0;"/><path d="M219.9688,29.6406 Q219.3906,29.9375 218.75,30.0781 Q218.1094,30.2344 217.4063,30.2344 Q214.9063,30.2344 213.5781,28.5938 Q212.2656,26.9375 212.2656,23.8125 Q212.2656,20.6875 213.5781,19.0313 Q214.9063,17.375 217.4063,17.375 Q218.1094,17.375 218.75,17.5313 Q219.4063,17.6875 219.9688,17.9844 L219.9688,20.7031 Q219.3438,20.125 218.75,19.8594 Q218.1563,19.5781 217.5313,19.5781 Q216.1875,19.5781 215.5,20.6563 Q214.8125,21.7188 214.8125,23.8125 Q214.8125,25.9063 215.5,26.9844 Q216.1875,28.0469 217.5313,28.0469 Q218.1563,28.0469 218.75,27.7813 Q219.3438,27.5 219.9688,26.9219 L219.9688,29.6406 Z "/><text fill="#000000" font-family="sans-serif" font-size="12" lengthAdjust="spacingAndGlyphs" textLength="56" x="231" y="28.656">Controller</text><line style="stroke: #A80036; stroke-width: 1.5;" x1="203" x2="289" y1="40" y2="40"/><line style="stroke: #A80036; stroke-width: 1.5;" x1="203" x2="289" y1="48" y2="48"/><!--MD5=[e801597f74c1f71106e69ef8a74611ed]
class RingkasanKesehatanController--><rect fill="#FEFECE" filter="url(#fuvw913972k0x)" height="152.8732" id="RingkasanKesehatanController" style="stroke: #A80036; stroke-width: 1.5;" width="204" x="472" y="131"/><ellipse cx="487" cy="147" fill="#ADD1B2" rx="11" ry="11" style="stroke: #A80036; stroke-width: 1.0;"/><path d="M489.9688,152.6406 Q489.3906,152.9375 488.75,153.0781 Q488.1094,153.2344 487.4063,153.2344 Q484.9063,153.2344 483.5781,151.5938 Q482.2656,149.9375 482.2656,146.8125 Q482.2656,143.6875 483.5781,142.0313 Q484.9063,140.375 487.4063,140.375 Q488.1094,140.375 488.75,140.5313 Q489.4063,140.6875 489.9688,140.9844 L489.9688,143.7031 Q489.3438,143.125 488.75,142.8594 Q488.1563,142.5781 487.5313,142.5781 Q486.1875,142.5781 485.5,143.6563 Q484.8125,144.7188 484.8125,146.8125 Q484.8125,148.9063 485.5,149.9844 Q486.1875,151.0469 487.5313,151.0469 Q488.1563,151.0469 488.75,150.7813 Q489.3438,150.5 489.9688,149.9219 L489.9688,152.6406 Z "/><text fill="#000000" font-family="sans-serif" font-size="12" lengthAdjust="spacingAndGlyphs" textLength="172" x="501" y="151.656">RingkasanKesehatanController</text><line style="stroke: #A80036; stroke-width: 1.5;" x1="473" x2="675" y1="163" y2="163"/><line style="stroke: #A80036; stroke-width: 1.5;" x1="473" x2="675" y1="171" y2="171"/><ellipse cx="483" cy="182" fill="#84BE84" rx="3" ry="3" style="stroke: #038048; stroke-width: 1.0;"/><text fill="#000000" font-family="sans-serif" font-size="11" lengthAdjust="spacingAndGlyphs" textLength="35" x="492" y="186.7589">index()</text><ellipse cx="483" cy="196.9819" fill="#84BE84" rx="3" ry="3" style="stroke: #038048; stroke-width: 1.0;"/><text fill="#000000" font-family="sans-serif" font-size="11" lengthAdjust="spacingAndGlyphs" textLength="38" x="492" y="201.7408">create()</text><ellipse cx="483" cy="211.9638" fill="#84BE84" rx="3" ry="3" style="stroke: #038048; stroke-width: 1.0;"/><text fill="#000000" font-family="sans-serif" font-size="11" lengthAdjust="spacingAndGlyphs" textLength="33" x="492" y="216.7227">store()</text><ellipse cx="483" cy="226.9457" fill="#84BE84" rx="3" ry="3" style="stroke: #038048; stroke-width: 1.0;"/><text fill="#000000" font-family="sans-serif" font-size="11" lengthAdjust="spacingAndGlyphs" textLength="43" x="492" y="231.7046">update()</text><ellipse cx="483" cy="241.9276" fill="#84BE84" rx="3" ry="3" style="stroke: #038048; stroke-width: 1.0;"/><text fill="#000000" font-family="sans-serif" font-size="11" lengthAdjust="spacingAndGlyphs" textLength="26" x="492" y="246.6865">edit()</text><ellipse cx="483" cy="256.9094" fill="#84BE84" rx="3" ry="3" style="stroke: #038048; stroke-width: 1.0;"/><text fill="#000000" font-family="sans-serif" font-size="11" lengthAdjust="spacingAndGlyphs" textLength="46" x="492" y="261.6684">destroy()</text><ellipse cx="483" cy="271.8913" fill="#84BE84" rx="3" ry="3" style="stroke: #038048; stroke-width: 1.0;"/><text fill="#000000" font-family="sans-serif" font-size="11" lengthAdjust="spacingAndGlyphs" textLength="27" x="492" y="276.6502">ajax()</text><!--MD5=[a91429b804a8b5b16e6c31526b722d6a]
class BaseCrudController--><rect fill="#FEFECE" filter="url(#fuvw913972k0x)" height="48" id="BaseCrudController" style="stroke: #A80036; stroke-width: 1.5;" width="143" x="695.5" y="8"/><ellipse cx="710.5" cy="24" fill="#ADD1B2" rx="11" ry="11" style="stroke: #A80036; stroke-width: 1.0;"/><path d="M713.4688,29.6406 Q712.8906,29.9375 712.25,30.0781 Q711.6094,30.2344 710.9063,30.2344 Q708.4063,30.2344 707.0781,28.5938 Q705.7656,26.9375 705.7656,23.8125 Q705.7656,20.6875 707.0781,19.0313 Q708.4063,17.375 710.9063,17.375 Q711.6094,17.375 712.25,17.5313 Q712.9063,17.6875 713.4688,17.9844 L713.4688,20.7031 Q712.8438,20.125 712.25,19.8594 Q711.6563,19.5781 711.0313,19.5781 Q709.6875,19.5781 709,20.6563 Q708.3125,21.7188 708.3125,23.8125 Q708.3125,25.9063 709,26.9844 Q709.6875,28.0469 711.0313,28.0469 Q711.6563,28.0469 712.25,27.7813 Q712.8438,27.5 713.4688,26.9219 L713.4688,29.6406 Z "/><text fill="#000000" font-family="sans-serif" font-size="12" lengthAdjust="spacingAndGlyphs" textLength="111" x="724.5" y="28.656">BaseCrudController</text><line style="stroke: #A80036; stroke-width: 1.5;" x1="696.5" x2="837.5" y1="40" y2="40"/><line style="stroke: #A80036; stroke-width: 1.5;" x1="696.5" x2="837.5" y1="48" y2="48"/><!--MD5=[4ef837c861a6d7c0ecbaba81a9f0f396]
class KN2Controller--><rect fill="#FEFECE" filter="url(#fuvw913972k0x)" height="152.8732" id="KN2Controller" style="stroke: #A80036; stroke-width: 1.5;" width="111" x="711.5" y="131"/><ellipse cx="726.5" cy="147" fill="#ADD1B2" rx="11" ry="11" style="stroke: #A80036; stroke-width: 1.0;"/><path d="M729.4688,152.6406 Q728.8906,152.9375 728.25,153.0781 Q727.6094,153.2344 726.9063,153.2344 Q724.4063,153.2344 723.0781,151.5938 Q721.7656,149.9375 721.7656,146.8125 Q721.7656,143.6875 723.0781,142.0313 Q724.4063,140.375 726.9063,140.375 Q727.6094,140.375 728.25,140.5313 Q728.9063,140.6875 729.4688,140.9844 L729.4688,143.7031 Q728.8438,143.125 728.25,142.8594 Q727.6563,142.5781 727.0313,142.5781 Q725.6875,142.5781 725,143.6563 Q724.3125,144.7188 724.3125,146.8125 Q724.3125,148.9063 725,149.9844 Q725.6875,151.0469 727.0313,151.0469 Q727.6563,151.0469 728.25,150.7813 Q728.8438,150.5 729.4688,149.9219 L729.4688,152.6406 Z "/><text fill="#000000" font-family="sans-serif" font-size="12" lengthAdjust="spacingAndGlyphs" textLength="79" x="740.5" y="151.656">KN2Controller</text><line style="stroke: #A80036; stroke-width: 1.5;" x1="712.5" x2="821.5" y1="163" y2="163"/><line style="stroke: #A80036; stroke-width: 1.5;" x1="712.5" x2="821.5" y1="171" y2="171"/><ellipse cx="722.5" cy="182" fill="#84BE84" rx="3" ry="3" style="stroke: #038048; stroke-width: 1.0;"/><text fill="#000000" font-family="sans-serif" font-size="11" lengthAdjust="spacingAndGlyphs" textLength="35" x="731.5" y="186.7589">index()</text><ellipse cx="722.5" cy="196.9819" fill="#84BE84" rx="3" ry="3" style="stroke: #038048; stroke-width: 1.0;"/><text fill="#000000" font-family="sans-serif" font-size="11" lengthAdjust="spacingAndGlyphs" textLength="38" x="731.5" y="201.7408">create()</text><ellipse cx="722.5" cy="211.9638" fill="#84BE84" rx="3" ry="3" style="stroke: #038048; stroke-width: 1.0;"/><text fill="#000000" font-family="sans-serif" font-size="11" lengthAdjust="spacingAndGlyphs" textLength="33" x="731.5" y="216.7227">store()</text><ellipse cx="722.5" cy="226.9457" fill="#84BE84" rx="3" ry="3" style="stroke: #038048; stroke-width: 1.0;"/><text fill="#000000" font-family="sans-serif" font-size="11" lengthAdjust="spacingAndGlyphs" textLength="43" x="731.5" y="231.7046">update()</text><ellipse cx="722.5" cy="241.9276" fill="#84BE84" rx="3" ry="3" style="stroke: #038048; stroke-width: 1.0;"/><text fill="#000000" font-family="sans-serif" font-size="11" lengthAdjust="spacingAndGlyphs" textLength="26" x="731.5" y="246.6865">edit()</text><ellipse cx="722.5" cy="256.9094" fill="#84BE84" rx="3" ry="3" style="stroke: #038048; stroke-width: 1.0;"/><text fill="#000000" font-family="sans-serif" font-size="11" lengthAdjust="spacingAndGlyphs" textLength="46" x="731.5" y="261.6684">destroy()</text><ellipse cx="722.5" cy="271.8913" fill="#84BE84" rx="3" ry="3" style="stroke: #038048; stroke-width: 1.0;"/><text fill="#000000" font-family="sans-serif" font-size="11" lengthAdjust="spacingAndGlyphs" textLength="27" x="731.5" y="276.6502">ajax()</text><!--MD5=[d767fa326d5549465822c40e18e1804a]
class DataKmsLakiController--><rect fill="#FEFECE" filter="url(#fuvw913972k0x)" height="152.8732" id="DataKmsLakiController" style="stroke: #A80036; stroke-width: 1.5;" width="161" x="857.5" y="131"/><ellipse cx="872.5" cy="147" fill="#ADD1B2" rx="11" ry="11" style="stroke: #A80036; stroke-width: 1.0;"/><path d="M875.4688,152.6406 Q874.8906,152.9375 874.25,153.0781 Q873.6094,153.2344 872.9063,153.2344 Q870.4063,153.2344 869.0781,151.5938 Q867.7656,149.9375 867.7656,146.8125 Q867.7656,143.6875 869.0781,142.0313 Q870.4063,140.375 872.9063,140.375 Q873.6094,140.375 874.25,140.5313 Q874.9063,140.6875 875.4688,140.9844 L875.4688,143.7031 Q874.8438,143.125 874.25,142.8594 Q873.6563,142.5781 873.0313,142.5781 Q871.6875,142.5781 871,143.6563 Q870.3125,144.7188 870.3125,146.8125 Q870.3125,148.9063 871,149.9844 Q871.6875,151.0469 873.0313,151.0469 Q873.6563,151.0469 874.25,150.7813 Q874.8438,150.5 875.4688,149.9219 L875.4688,152.6406 Z "/><text fill="#000000" font-family="sans-serif" font-size="12" lengthAdjust="spacingAndGlyphs" textLength="129" x="886.5" y="151.656">DataKmsLakiController</text><line style="stroke: #A80036; stroke-width: 1.5;" x1="858.5" x2="1017.5" y1="163" y2="163"/><line style="stroke: #A80036; stroke-width: 1.5;" x1="858.5" x2="1017.5" y1="171" y2="171"/><ellipse cx="868.5" cy="182" fill="#84BE84" rx="3" ry="3" style="stroke: #038048; stroke-width: 1.0;"/><text fill="#000000" font-family="sans-serif" font-size="11" lengthAdjust="spacingAndGlyphs" textLength="35" x="877.5" y="186.7589">index()</text><ellipse cx="868.5" cy="196.9819" fill="#84BE84" rx="3" ry="3" style="stroke: #038048; stroke-width: 1.0;"/><text fill="#000000" font-family="sans-serif" font-size="11" lengthAdjust="spacingAndGlyphs" textLength="38" x="877.5" y="201.7408">create()</text><ellipse cx="868.5" cy="211.9638" fill="#84BE84" rx="3" ry="3" style="stroke: #038048; stroke-width: 1.0;"/><text fill="#000000" font-family="sans-serif" font-size="11" lengthAdjust="spacingAndGlyphs" textLength="33" x="877.5" y="216.7227">store()</text><ellipse cx="868.5" cy="226.9457" fill="#84BE84" rx="3" ry="3" style="stroke: #038048; stroke-width: 1.0;"/><text fill="#000000" font-family="sans-serif" font-size="11" lengthAdjust="spacingAndGlyphs" textLength="43" x="877.5" y="231.7046">update()</text><ellipse cx="868.5" cy="241.9276" fill="#84BE84" rx="3" ry="3" style="stroke: #038048; stroke-width: 1.0;"/><text fill="#000000" font-family="sans-serif" font-size="11" lengthAdjust="spacingAndGlyphs" textLength="26" x="877.5" y="246.6865">edit()</text><ellipse cx="868.5" cy="256.9094" fill="#84BE84" rx="3" ry="3" style="stroke: #038048; stroke-width: 1.0;"/><text fill="#000000" font-family="sans-serif" font-size="11" lengthAdjust="spacingAndGlyphs" textLength="46" x="877.5" y="261.6684">destroy()</text><ellipse cx="868.5" cy="271.8913" fill="#84BE84" rx="3" ry="3" style="stroke: #038048; stroke-width: 1.0;"/><text fill="#000000" font-family="sans-serif" font-size="11" lengthAdjust="spacingAndGlyphs" textLength="27" x="877.5" y="276.6502">ajax()</text><!--MD5=[6df68ba7857817ff37f8dc63cb99c131]
class DashboardController--><rect fill="#FEFECE" filter="url(#fuvw913972k0x)" height="167.8551" id="DashboardController" style="stroke: #A80036; stroke-width: 1.5;" width="150" x="287" y="123.5"/><ellipse cx="302" cy="139.5" fill="#ADD1B2" rx="11" ry="11" style="stroke: #A80036; stroke-width: 1.0;"/><path d="M304.9688,145.1406 Q304.3906,145.4375 303.75,145.5781 Q303.1094,145.7344 302.4063,145.7344 Q299.9063,145.7344 298.5781,144.0938 Q297.2656,142.4375 297.2656,139.3125 Q297.2656,136.1875 298.5781,134.5313 Q299.9063,132.875 302.4063,132.875 Q303.1094,132.875 303.75,133.0313 Q304.4063,133.1875 304.9688,133.4844 L304.9688,136.2031 Q304.3438,135.625 303.75,135.3594 Q303.1563,135.0781 302.5313,135.0781 Q301.1875,135.0781 300.5,136.1563 Q299.8125,137.2188 299.8125,139.3125 Q299.8125,141.4063 300.5,142.4844 Q301.1875,143.5469 302.5313,143.5469 Q303.1563,143.5469 303.75,143.2813 Q304.3438,143 304.9688,142.4219 L304.9688,145.1406 Z "/><text fill="#000000" font-family="sans-serif" font-size="12" lengthAdjust="spacingAndGlyphs" textLength="118" x="316" y="144.156">DashboardController</text><line style="stroke: #A80036; stroke-width: 1.5;" x1="288" x2="436" y1="155.5" y2="155.5"/><line style="stroke: #A80036; stroke-width: 1.5;" x1="288" x2="436" y1="163.5" y2="163.5"/><ellipse cx="298" cy="174.5" fill="#84BE84" rx="3" ry="3" style="stroke: #038048; stroke-width: 1.0;"/><text fill="#000000" font-family="sans-serif" font-size="11" lengthAdjust="spacingAndGlyphs" textLength="35" x="307" y="179.2589">index()</text><ellipse cx="298" cy="189.4819" fill="#84BE84" rx="3" ry="3" style="stroke: #038048; stroke-width: 1.0;"/><text fill="#000000" font-family="sans-serif" font-size="11" lengthAdjust="spacingAndGlyphs" textLength="61" x="307" y="194.2408">dataGrafik()</text><ellipse cx="298" cy="204.4638" fill="#84BE84" rx="3" ry="3" style="stroke: #038048; stroke-width: 1.0;"/><text fill="#000000" font-family="sans-serif" font-size="11" lengthAdjust="spacingAndGlyphs" textLength="38" x="307" y="209.2227">create()</text><ellipse cx="298" cy="219.4457" fill="#84BE84" rx="3" ry="3" style="stroke: #038048; stroke-width: 1.0;"/><text fill="#000000" font-family="sans-serif" font-size="11" lengthAdjust="spacingAndGlyphs" textLength="33" x="307" y="224.2046">store()</text><ellipse cx="298" cy="234.4276" fill="#84BE84" rx="3" ry="3" style="stroke: #038048; stroke-width: 1.0;"/><text fill="#000000" font-family="sans-serif" font-size="11" lengthAdjust="spacingAndGlyphs" textLength="34" x="307" y="239.1865">show()</text><ellipse cx="298" cy="249.4094" fill="#84BE84" rx="3" ry="3" style="stroke: #038048; stroke-width: 1.0;"/><text fill="#000000" font-family="sans-serif" font-size="11" lengthAdjust="spacingAndGlyphs" textLength="26" x="307" y="254.1684">edit()</text><ellipse cx="298" cy="264.3913" fill="#84BE84" rx="3" ry="3" style="stroke: #038048; stroke-width: 1.0;"/><text fill="#000000" font-family="sans-serif" font-size="11" lengthAdjust="spacingAndGlyphs" textLength="43" x="307" y="269.1502">update()</text><ellipse cx="298" cy="279.3732" fill="#84BE84" rx="3" ry="3" style="stroke: #038048; stroke-width: 1.0;"/><text fill="#000000" font-family="sans-serif" font-size="11" lengthAdjust="spacingAndGlyphs" textLength="46" x="307" y="284.1321">destroy()</text><!--MD5=[38429f60378238694cae220deddefcc2]
reverse link Controller to GrafikTinggiBadanUmurLakiController--><path d="M219.15,72.81 C210.43,85.74 200.36,100.67 190.19,115.76 " fill="none" id="Controller&lt;-GrafikTinggiBadanUmurLakiController" style="stroke: #A80036; stroke-width: 1.0;"/><polygon fill="none" points="213.48,68.71,230.46,56.04,225.08,76.54,213.48,68.71" style="stroke: #A80036; stroke-width: 1.0;"/><!--MD5=[b7dd60be4958e4494d940d7852ec461e]
reverse link BaseCrudController to RingkasanKesehatanController--><path d="M726.32,69.57 C706.53,87.36 681.97,109.44 658.39,130.64 " fill="none" id="BaseCrudController&lt;-RingkasanKesehatanController" style="stroke: #A80036; stroke-width: 1.0;"/><polygon fill="none" points="721.82,64.2,741.37,56.04,731.18,74.62,721.82,64.2" style="stroke: #A80036; stroke-width: 1.0;"/><!--MD5=[ee8e86b20dec2bc9d1cd2b3406758704]
reverse link BaseCrudController to KN2Controller--><path d="M767,76.12 C767,92.62 767,111.97 767,130.64 " fill="none" id="BaseCrudController&lt;-KN2Controller" style="stroke: #A80036; stroke-width: 1.0;"/><polygon fill="none" points="760,76.04,767,56.04,774,76.04,760,76.04" style="stroke: #A80036; stroke-width: 1.0;"/><!--MD5=[a94ce6c28a136ae8a9b55b39776bd135]
reverse link BaseCrudController to DataKmsLakiController--><path d="M803.83,70.37 C821.23,88.02 842.65,109.76 863.23,130.64 " fill="none" id="BaseCrudController&lt;-DataKmsLakiController" style="stroke: #A80036; stroke-width: 1.0;"/><polygon fill="none" points="798.76,75.2,789.71,56.04,808.73,65.37,798.76,75.2" style="stroke: #A80036; stroke-width: 1.0;"/><!--MD5=[64cc3a3c91added4ea406ccbb5368270]
reverse link Controller to DashboardController--><path d="M272.66,72.87 C282.72,87.92 294.58,105.66 306.31,123.21 " fill="none" id="Controller&lt;-DashboardController" style="stroke: #A80036; stroke-width: 1.0;"/><polygon fill="none" points="266.7,76.56,261.4,56.04,278.34,68.78,266.7,76.56" style="stroke: #A80036; stroke-width: 1.0;"/><!--MD5=[3b33c629297722ddc6a591a2e00dc92d]
@startuml

class GrafikTinggiBadanUmurLakiController extends Controller {
  +index()
  +dataGrafik()
  +grafik()
  +create()
  +store()
  +show()
  +edit()
  +update()
  +destroy()
}

class RingkasanKesehatanController extends BaseCrudController {
  +index()
  +create()
  +store()
  +update()
  +edit()
  +destroy()
  +ajax()
}

class KN2Controller extends BaseCrudController {
  +index()
  +create()
  +store()
  +update()
  +edit()
  +destroy()
  +ajax()
}

class DataKmsLakiController extends BaseCrudController {
  +index()
  +create()
  +store()
  +update()
  +edit()
  +destroy()
  +ajax()
}

class DashboardController extends Controller {
  +index()
  +dataGrafik()
  +create()
  +store()
  +show()
  +edit()
  +update()
  +destroy()
}

@enduml

PlantUML version 1.2020.02(Sun Mar 01 17:22:07 WIB 2020)
(GPL source distribution)
Java Runtime: OpenJDK Runtime Environment
JVM: OpenJDK 64-Bit Server VM
Java Version: 21.0.7+6-Ubuntu-0ubuntu124.04
Operating System: Linux
Default Encoding: UTF-8
Language: en
Country: US
--></g></svg>