<?xml version="1.0" encoding="UTF-8" standalone="no"?><svg xmlns="http://www.w3.org/2000/svg" xmlns:xlink="http://www.w3.org/1999/xlink" contentScriptType="application/ecmascript" contentStyleType="text/css" height="279px" preserveAspectRatio="none" style="width:1068px;height:279px;" version="1.1" viewBox="0 0 1068 279" width="1068px" zoomAndPan="magnify"><defs><filter height="300%" id="f1hycqpma5typh" width="300%" x="-1" y="-1"><feGaussianBlur result="blurOut" stdDeviation="2.0"/><feColorMatrix in="blurOut" result="blurOut2" type="matrix" values="0 0 0 0 0 0 0 0 0 0 0 0 0 0 0 0 0 0 .4 0"/><feOffset dx="4.0" dy="4.0" in="blurOut2" result="blurOut3"/><feBlend in="SourceGraphic" in2="blurOut3" mode="normal"/></filter></defs><g><!--MD5=[cf54c48e57240d0893b9839371078296]
class JenisVaksinController--><rect fill="#FEFECE" filter="url(#f1hycqpma5typh)" height="152.8732" id="JenisVaksinController" style="stroke: #A80036; stroke-width: 1.5;" width="150" x="6" y="116"/><ellipse cx="21" cy="132" fill="#ADD1B2" rx="11" ry="11" style="stroke: #A80036; stroke-width: 1.0;"/><path d="M23.9688,137.6406 Q23.3906,137.9375 22.75,138.0781 Q22.1094,138.2344 21.4063,138.2344 Q18.9063,138.2344 17.5781,136.5938 Q16.2656,134.9375 16.2656,131.8125 Q16.2656,128.6875 17.5781,127.0313 Q18.9063,125.375 21.4063,125.375 Q22.1094,125.375 22.75,125.5313 Q23.4063,125.6875 23.9688,125.9844 L23.9688,128.7031 Q23.3438,128.125 22.75,127.8594 Q22.1563,127.5781 21.5313,127.5781 Q20.1875,127.5781 19.5,128.6563 Q18.8125,129.7188 18.8125,131.8125 Q18.8125,133.9063 19.5,134.9844 Q20.1875,136.0469 21.5313,136.0469 Q22.1563,136.0469 22.75,135.7813 Q23.3438,135.5 23.9688,134.9219 L23.9688,137.6406 Z "/><text fill="#000000" font-family="sans-serif" font-size="12" lengthAdjust="spacingAndGlyphs" textLength="118" x="35" y="136.656">JenisVaksinController</text><line style="stroke: #A80036; stroke-width: 1.5;" x1="7" x2="155" y1="148" y2="148"/><line style="stroke: #A80036; stroke-width: 1.5;" x1="7" x2="155" y1="156" y2="156"/><ellipse cx="17" cy="167" fill="#84BE84" rx="3" ry="3" style="stroke: #038048; stroke-width: 1.0;"/><text fill="#000000" font-family="sans-serif" font-size="11" lengthAdjust="spacingAndGlyphs" textLength="35" x="26" y="171.7589">index()</text><ellipse cx="17" cy="181.9819" fill="#84BE84" rx="3" ry="3" style="stroke: #038048; stroke-width: 1.0;"/><text fill="#000000" font-family="sans-serif" font-size="11" lengthAdjust="spacingAndGlyphs" textLength="38" x="26" y="186.7408">create()</text><ellipse cx="17" cy="196.9638" fill="#84BE84" rx="3" ry="3" style="stroke: #038048; stroke-width: 1.0;"/><text fill="#000000" font-family="sans-serif" font-size="11" lengthAdjust="spacingAndGlyphs" textLength="33" x="26" y="201.7227">store()</text><ellipse cx="17" cy="211.9457" fill="#84BE84" rx="3" ry="3" style="stroke: #038048; stroke-width: 1.0;"/><text fill="#000000" font-family="sans-serif" font-size="11" lengthAdjust="spacingAndGlyphs" textLength="34" x="26" y="216.7046">show()</text><ellipse cx="17" cy="226.9276" fill="#84BE84" rx="3" ry="3" style="stroke: #038048; stroke-width: 1.0;"/><text fill="#000000" font-family="sans-serif" font-size="11" lengthAdjust="spacingAndGlyphs" textLength="26" x="26" y="231.6865">edit()</text><ellipse cx="17" cy="241.9094" fill="#84BE84" rx="3" ry="3" style="stroke: #038048; stroke-width: 1.0;"/><text fill="#000000" font-family="sans-serif" font-size="11" lengthAdjust="spacingAndGlyphs" textLength="43" x="26" y="246.6684">update()</text><ellipse cx="17" cy="256.8913" fill="#84BE84" rx="3" ry="3" style="stroke: #038048; stroke-width: 1.0;"/><text fill="#000000" font-family="sans-serif" font-size="11" lengthAdjust="spacingAndGlyphs" textLength="46" x="26" y="261.6502">destroy()</text><!--MD5=[1d7ba1c7002d54515419844fbd155368]
class Controller--><rect fill="#FEFECE" filter="url(#f1hycqpma5typh)" height="48" id="Controller" style="stroke: #A80036; stroke-width: 1.5;" width="88" x="120" y="8"/><ellipse cx="135" cy="24" fill="#ADD1B2" rx="11" ry="11" style="stroke: #A80036; stroke-width: 1.0;"/><path d="M137.9688,29.6406 Q137.3906,29.9375 136.75,30.0781 Q136.1094,30.2344 135.4063,30.2344 Q132.9063,30.2344 131.5781,28.5938 Q130.2656,26.9375 130.2656,23.8125 Q130.2656,20.6875 131.5781,19.0313 Q132.9063,17.375 135.4063,17.375 Q136.1094,17.375 136.75,17.5313 Q137.4063,17.6875 137.9688,17.9844 L137.9688,20.7031 Q137.3438,20.125 136.75,19.8594 Q136.1563,19.5781 135.5313,19.5781 Q134.1875,19.5781 133.5,20.6563 Q132.8125,21.7188 132.8125,23.8125 Q132.8125,25.9063 133.5,26.9844 Q134.1875,28.0469 135.5313,28.0469 Q136.1563,28.0469 136.75,27.7813 Q137.3438,27.5 137.9688,26.9219 L137.9688,29.6406 Z "/><text fill="#000000" font-family="sans-serif" font-size="12" lengthAdjust="spacingAndGlyphs" textLength="56" x="149" y="28.656">Controller</text><line style="stroke: #A80036; stroke-width: 1.5;" x1="121" x2="207" y1="40" y2="40"/><line style="stroke: #A80036; stroke-width: 1.5;" x1="121" x2="207" y1="48" y2="48"/><!--MD5=[50eb1fe760208b22188ddf1a6b6e6dc9]
class DataKmsPerempuanController--><rect fill="#FEFECE" filter="url(#f1hycqpma5typh)" height="152.8732" id="DataKmsPerempuanController" style="stroke: #A80036; stroke-width: 1.5;" width="204" x="336" y="116"/><ellipse cx="351" cy="132" fill="#ADD1B2" rx="11" ry="11" style="stroke: #A80036; stroke-width: 1.0;"/><path d="M353.9688,137.6406 Q353.3906,137.9375 352.75,138.0781 Q352.1094,138.2344 351.4063,138.2344 Q348.9063,138.2344 347.5781,136.5938 Q346.2656,134.9375 346.2656,131.8125 Q346.2656,128.6875 347.5781,127.0313 Q348.9063,125.375 351.4063,125.375 Q352.1094,125.375 352.75,125.5313 Q353.4063,125.6875 353.9688,125.9844 L353.9688,128.7031 Q353.3438,128.125 352.75,127.8594 Q352.1563,127.5781 351.5313,127.5781 Q350.1875,127.5781 349.5,128.6563 Q348.8125,129.7188 348.8125,131.8125 Q348.8125,133.9063 349.5,134.9844 Q350.1875,136.0469 351.5313,136.0469 Q352.1563,136.0469 352.75,135.7813 Q353.3438,135.5 353.9688,134.9219 L353.9688,137.6406 Z "/><text fill="#000000" font-family="sans-serif" font-size="12" lengthAdjust="spacingAndGlyphs" textLength="172" x="365" y="136.656">DataKmsPerempuanController</text><line style="stroke: #A80036; stroke-width: 1.5;" x1="337" x2="539" y1="148" y2="148"/><line style="stroke: #A80036; stroke-width: 1.5;" x1="337" x2="539" y1="156" y2="156"/><ellipse cx="347" cy="167" fill="#84BE84" rx="3" ry="3" style="stroke: #038048; stroke-width: 1.0;"/><text fill="#000000" font-family="sans-serif" font-size="11" lengthAdjust="spacingAndGlyphs" textLength="35" x="356" y="171.7589">index()</text><ellipse cx="347" cy="181.9819" fill="#84BE84" rx="3" ry="3" style="stroke: #038048; stroke-width: 1.0;"/><text fill="#000000" font-family="sans-serif" font-size="11" lengthAdjust="spacingAndGlyphs" textLength="38" x="356" y="186.7408">create()</text><ellipse cx="347" cy="196.9638" fill="#84BE84" rx="3" ry="3" style="stroke: #038048; stroke-width: 1.0;"/><text fill="#000000" font-family="sans-serif" font-size="11" lengthAdjust="spacingAndGlyphs" textLength="33" x="356" y="201.7227">store()</text><ellipse cx="347" cy="211.9457" fill="#84BE84" rx="3" ry="3" style="stroke: #038048; stroke-width: 1.0;"/><text fill="#000000" font-family="sans-serif" font-size="11" lengthAdjust="spacingAndGlyphs" textLength="43" x="356" y="216.7046">update()</text><ellipse cx="347" cy="226.9276" fill="#84BE84" rx="3" ry="3" style="stroke: #038048; stroke-width: 1.0;"/><text fill="#000000" font-family="sans-serif" font-size="11" lengthAdjust="spacingAndGlyphs" textLength="26" x="356" y="231.6865">edit()</text><ellipse cx="347" cy="241.9094" fill="#84BE84" rx="3" ry="3" style="stroke: #038048; stroke-width: 1.0;"/><text fill="#000000" font-family="sans-serif" font-size="11" lengthAdjust="spacingAndGlyphs" textLength="46" x="356" y="246.6684">destroy()</text><ellipse cx="347" cy="256.8913" fill="#84BE84" rx="3" ry="3" style="stroke: #038048; stroke-width: 1.0;"/><text fill="#000000" font-family="sans-serif" font-size="11" lengthAdjust="spacingAndGlyphs" textLength="27" x="356" y="261.6502">ajax()</text><!--MD5=[a91429b804a8b5b16e6c31526b722d6a]
class BaseCrudController--><rect fill="#FEFECE" filter="url(#f1hycqpma5typh)" height="48" id="BaseCrudController" style="stroke: #A80036; stroke-width: 1.5;" width="143" x="614.5" y="8"/><ellipse cx="629.5" cy="24" fill="#ADD1B2" rx="11" ry="11" style="stroke: #A80036; stroke-width: 1.0;"/><path d="M632.4688,29.6406 Q631.8906,29.9375 631.25,30.0781 Q630.6094,30.2344 629.9063,30.2344 Q627.4063,30.2344 626.0781,28.5938 Q624.7656,26.9375 624.7656,23.8125 Q624.7656,20.6875 626.0781,19.0313 Q627.4063,17.375 629.9063,17.375 Q630.6094,17.375 631.25,17.5313 Q631.9063,17.6875 632.4688,17.9844 L632.4688,20.7031 Q631.8438,20.125 631.25,19.8594 Q630.6563,19.5781 630.0313,19.5781 Q628.6875,19.5781 628,20.6563 Q627.3125,21.7188 627.3125,23.8125 Q627.3125,25.9063 628,26.9844 Q628.6875,28.0469 630.0313,28.0469 Q630.6563,28.0469 631.25,27.7813 Q631.8438,27.5 632.4688,26.9219 L632.4688,29.6406 Z "/><text fill="#000000" font-family="sans-serif" font-size="12" lengthAdjust="spacingAndGlyphs" textLength="111" x="643.5" y="28.656">BaseCrudController</text><line style="stroke: #A80036; stroke-width: 1.5;" x1="615.5" x2="756.5" y1="40" y2="40"/><line style="stroke: #A80036; stroke-width: 1.5;" x1="615.5" x2="756.5" y1="48" y2="48"/><!--MD5=[7a3dce8d9213e13813bbff3448e6f346]
class AncController--><rect fill="#FEFECE" filter="url(#f1hycqpma5typh)" height="152.8732" id="AncController" style="stroke: #A80036; stroke-width: 1.5;" width="109" x="191.5" y="116"/><ellipse cx="206.5" cy="132" fill="#ADD1B2" rx="11" ry="11" style="stroke: #A80036; stroke-width: 1.0;"/><path d="M209.4688,137.6406 Q208.8906,137.9375 208.25,138.0781 Q207.6094,138.2344 206.9063,138.2344 Q204.4063,138.2344 203.0781,136.5938 Q201.7656,134.9375 201.7656,131.8125 Q201.7656,128.6875 203.0781,127.0313 Q204.4063,125.375 206.9063,125.375 Q207.6094,125.375 208.25,125.5313 Q208.9063,125.6875 209.4688,125.9844 L209.4688,128.7031 Q208.8438,128.125 208.25,127.8594 Q207.6563,127.5781 207.0313,127.5781 Q205.6875,127.5781 205,128.6563 Q204.3125,129.7188 204.3125,131.8125 Q204.3125,133.9063 205,134.9844 Q205.6875,136.0469 207.0313,136.0469 Q207.6563,136.0469 208.25,135.7813 Q208.8438,135.5 209.4688,134.9219 L209.4688,137.6406 Z "/><text fill="#000000" font-family="sans-serif" font-size="12" lengthAdjust="spacingAndGlyphs" textLength="77" x="220.5" y="136.656">AncController</text><line style="stroke: #A80036; stroke-width: 1.5;" x1="192.5" x2="299.5" y1="148" y2="148"/><line style="stroke: #A80036; stroke-width: 1.5;" x1="192.5" x2="299.5" y1="156" y2="156"/><ellipse cx="202.5" cy="167" fill="#84BE84" rx="3" ry="3" style="stroke: #038048; stroke-width: 1.0;"/><text fill="#000000" font-family="sans-serif" font-size="11" lengthAdjust="spacingAndGlyphs" textLength="35" x="211.5" y="171.7589">index()</text><ellipse cx="202.5" cy="181.9819" fill="#84BE84" rx="3" ry="3" style="stroke: #038048; stroke-width: 1.0;"/><text fill="#000000" font-family="sans-serif" font-size="11" lengthAdjust="spacingAndGlyphs" textLength="38" x="211.5" y="186.7408">create()</text><ellipse cx="202.5" cy="196.9638" fill="#84BE84" rx="3" ry="3" style="stroke: #038048; stroke-width: 1.0;"/><text fill="#000000" font-family="sans-serif" font-size="11" lengthAdjust="spacingAndGlyphs" textLength="33" x="211.5" y="201.7227">store()</text><ellipse cx="202.5" cy="211.9457" fill="#84BE84" rx="3" ry="3" style="stroke: #038048; stroke-width: 1.0;"/><text fill="#000000" font-family="sans-serif" font-size="11" lengthAdjust="spacingAndGlyphs" textLength="34" x="211.5" y="216.7046">show()</text><ellipse cx="202.5" cy="226.9276" fill="#84BE84" rx="3" ry="3" style="stroke: #038048; stroke-width: 1.0;"/><text fill="#000000" font-family="sans-serif" font-size="11" lengthAdjust="spacingAndGlyphs" textLength="26" x="211.5" y="231.6865">edit()</text><ellipse cx="202.5" cy="241.9094" fill="#84BE84" rx="3" ry="3" style="stroke: #038048; stroke-width: 1.0;"/><text fill="#000000" font-family="sans-serif" font-size="11" lengthAdjust="spacingAndGlyphs" textLength="43" x="211.5" y="246.6684">update()</text><ellipse cx="202.5" cy="256.8913" fill="#84BE84" rx="3" ry="3" style="stroke: #038048; stroke-width: 1.0;"/><text fill="#000000" font-family="sans-serif" font-size="11" lengthAdjust="spacingAndGlyphs" textLength="46" x="211.5" y="261.6502">destroy()</text><!--MD5=[5f075f73a6e107451c72cee7f673c3d8]
class RiwayatKesehatanBumilController--><rect fill="#FEFECE" filter="url(#f1hycqpma5typh)" height="152.8732" id="RiwayatKesehatanBumilController" style="stroke: #A80036; stroke-width: 1.5;" width="222" x="575" y="116"/><ellipse cx="590" cy="132" fill="#ADD1B2" rx="11" ry="11" style="stroke: #A80036; stroke-width: 1.0;"/><path d="M592.9688,137.6406 Q592.3906,137.9375 591.75,138.0781 Q591.1094,138.2344 590.4063,138.2344 Q587.9063,138.2344 586.5781,136.5938 Q585.2656,134.9375 585.2656,131.8125 Q585.2656,128.6875 586.5781,127.0313 Q587.9063,125.375 590.4063,125.375 Q591.1094,125.375 591.75,125.5313 Q592.4063,125.6875 592.9688,125.9844 L592.9688,128.7031 Q592.3438,128.125 591.75,127.8594 Q591.1563,127.5781 590.5313,127.5781 Q589.1875,127.5781 588.5,128.6563 Q587.8125,129.7188 587.8125,131.8125 Q587.8125,133.9063 588.5,134.9844 Q589.1875,136.0469 590.5313,136.0469 Q591.1563,136.0469 591.75,135.7813 Q592.3438,135.5 592.9688,134.9219 L592.9688,137.6406 Z "/><text fill="#000000" font-family="sans-serif" font-size="12" lengthAdjust="spacingAndGlyphs" textLength="190" x="604" y="136.656">RiwayatKesehatanBumilController</text><line style="stroke: #A80036; stroke-width: 1.5;" x1="576" x2="796" y1="148" y2="148"/><line style="stroke: #A80036; stroke-width: 1.5;" x1="576" x2="796" y1="156" y2="156"/><ellipse cx="586" cy="167" fill="#84BE84" rx="3" ry="3" style="stroke: #038048; stroke-width: 1.0;"/><text fill="#000000" font-family="sans-serif" font-size="11" lengthAdjust="spacingAndGlyphs" textLength="35" x="595" y="171.7589">index()</text><ellipse cx="586" cy="181.9819" fill="#84BE84" rx="3" ry="3" style="stroke: #038048; stroke-width: 1.0;"/><text fill="#000000" font-family="sans-serif" font-size="11" lengthAdjust="spacingAndGlyphs" textLength="38" x="595" y="186.7408">create()</text><ellipse cx="586" cy="196.9638" fill="#84BE84" rx="3" ry="3" style="stroke: #038048; stroke-width: 1.0;"/><text fill="#000000" font-family="sans-serif" font-size="11" lengthAdjust="spacingAndGlyphs" textLength="33" x="595" y="201.7227">store()</text><ellipse cx="586" cy="211.9457" fill="#84BE84" rx="3" ry="3" style="stroke: #038048; stroke-width: 1.0;"/><text fill="#000000" font-family="sans-serif" font-size="11" lengthAdjust="spacingAndGlyphs" textLength="43" x="595" y="216.7046">update()</text><ellipse cx="586" cy="226.9276" fill="#84BE84" rx="3" ry="3" style="stroke: #038048; stroke-width: 1.0;"/><text fill="#000000" font-family="sans-serif" font-size="11" lengthAdjust="spacingAndGlyphs" textLength="26" x="595" y="231.6865">edit()</text><ellipse cx="586" cy="241.9094" fill="#84BE84" rx="3" ry="3" style="stroke: #038048; stroke-width: 1.0;"/><text fill="#000000" font-family="sans-serif" font-size="11" lengthAdjust="spacingAndGlyphs" textLength="46" x="595" y="246.6684">destroy()</text><ellipse cx="586" cy="256.8913" fill="#84BE84" rx="3" ry="3" style="stroke: #038048; stroke-width: 1.0;"/><text fill="#000000" font-family="sans-serif" font-size="11" lengthAdjust="spacingAndGlyphs" textLength="27" x="595" y="261.6502">ajax()</text><!--MD5=[192bdb5bb6b9405622e60dd8c621a417]
class EvaluasiKesehatanBumilController--><rect fill="#FEFECE" filter="url(#f1hycqpma5typh)" height="152.8732" id="EvaluasiKesehatanBumilController" style="stroke: #A80036; stroke-width: 1.5;" width="225" x="832.5" y="116"/><ellipse cx="847.5" cy="132" fill="#ADD1B2" rx="11" ry="11" style="stroke: #A80036; stroke-width: 1.0;"/><path d="M850.4688,137.6406 Q849.8906,137.9375 849.25,138.0781 Q848.6094,138.2344 847.9063,138.2344 Q845.4063,138.2344 844.0781,136.5938 Q842.7656,134.9375 842.7656,131.8125 Q842.7656,128.6875 844.0781,127.0313 Q845.4063,125.375 847.9063,125.375 Q848.6094,125.375 849.25,125.5313 Q849.9063,125.6875 850.4688,125.9844 L850.4688,128.7031 Q849.8438,128.125 849.25,127.8594 Q848.6563,127.5781 848.0313,127.5781 Q846.6875,127.5781 846,128.6563 Q845.3125,129.7188 845.3125,131.8125 Q845.3125,133.9063 846,134.9844 Q846.6875,136.0469 848.0313,136.0469 Q848.6563,136.0469 849.25,135.7813 Q849.8438,135.5 850.4688,134.9219 L850.4688,137.6406 Z "/><text fill="#000000" font-family="sans-serif" font-size="12" lengthAdjust="spacingAndGlyphs" textLength="193" x="861.5" y="136.656">EvaluasiKesehatanBumilController</text><line style="stroke: #A80036; stroke-width: 1.5;" x1="833.5" x2="1056.5" y1="148" y2="148"/><line style="stroke: #A80036; stroke-width: 1.5;" x1="833.5" x2="1056.5" y1="156" y2="156"/><ellipse cx="843.5" cy="167" fill="#84BE84" rx="3" ry="3" style="stroke: #038048; stroke-width: 1.0;"/><text fill="#000000" font-family="sans-serif" font-size="11" lengthAdjust="spacingAndGlyphs" textLength="35" x="852.5" y="171.7589">index()</text><ellipse cx="843.5" cy="181.9819" fill="#84BE84" rx="3" ry="3" style="stroke: #038048; stroke-width: 1.0;"/><text fill="#000000" font-family="sans-serif" font-size="11" lengthAdjust="spacingAndGlyphs" textLength="38" x="852.5" y="186.7408">create()</text><ellipse cx="843.5" cy="196.9638" fill="#84BE84" rx="3" ry="3" style="stroke: #038048; stroke-width: 1.0;"/><text fill="#000000" font-family="sans-serif" font-size="11" lengthAdjust="spacingAndGlyphs" textLength="33" x="852.5" y="201.7227">store()</text><ellipse cx="843.5" cy="211.9457" fill="#84BE84" rx="3" ry="3" style="stroke: #038048; stroke-width: 1.0;"/><text fill="#000000" font-family="sans-serif" font-size="11" lengthAdjust="spacingAndGlyphs" textLength="43" x="852.5" y="216.7046">update()</text><ellipse cx="843.5" cy="226.9276" fill="#84BE84" rx="3" ry="3" style="stroke: #038048; stroke-width: 1.0;"/><text fill="#000000" font-family="sans-serif" font-size="11" lengthAdjust="spacingAndGlyphs" textLength="26" x="852.5" y="231.6865">edit()</text><ellipse cx="843.5" cy="241.9094" fill="#84BE84" rx="3" ry="3" style="stroke: #038048; stroke-width: 1.0;"/><text fill="#000000" font-family="sans-serif" font-size="11" lengthAdjust="spacingAndGlyphs" textLength="46" x="852.5" y="246.6684">destroy()</text><ellipse cx="843.5" cy="256.8913" fill="#84BE84" rx="3" ry="3" style="stroke: #038048; stroke-width: 1.0;"/><text fill="#000000" font-family="sans-serif" font-size="11" lengthAdjust="spacingAndGlyphs" textLength="27" x="852.5" y="261.6502">ajax()</text><!--MD5=[136b511e76d9641c3528ae58f63b1d3c]
reverse link Controller to JenisVaksinController--><path d="M142.58,73.91 C135.86,86.73 128.22,101.32 120.66,115.76 " fill="none" id="Controller&lt;-JenisVaksinController" style="stroke: #A80036; stroke-width: 1.0;"/><polygon fill="none" points="136.45,70.52,151.93,56.05,148.85,77.01,136.45,70.52" style="stroke: #A80036; stroke-width: 1.0;"/><!--MD5=[21388c34dc881d6cd08809e136235939]
reverse link BaseCrudController to DataKmsPerempuanController--><path d="M632.8,67 C605.74,84.3 571.9,105.93 540.05,126.28 " fill="none" id="BaseCrudController&lt;-DataKmsPerempuanController" style="stroke: #A80036; stroke-width: 1.0;"/><polygon fill="none" points="629.32,60.92,649.94,56.05,636.86,72.72,629.32,60.92" style="stroke: #A80036; stroke-width: 1.0;"/><!--MD5=[5ff83d467eab92bd4924be1caefc84c0]
reverse link Controller to AncController--><path d="M185.16,73.91 C191.8,86.73 199.35,101.32 206.81,115.76 " fill="none" id="Controller&lt;-AncController" style="stroke: #A80036; stroke-width: 1.0;"/><polygon fill="none" points="178.9,77.03,175.92,56.05,191.33,70.59,178.9,77.03" style="stroke: #A80036; stroke-width: 1.0;"/><!--MD5=[992c28d14cf49cbbde483fb2b37f8243]
reverse link BaseCrudController to RiwayatKesehatanBumilController--><path d="M686,76.19 C686,88.45 686,102.17 686,115.76 " fill="none" id="BaseCrudController&lt;-RiwayatKesehatanBumilController" style="stroke: #A80036; stroke-width: 1.0;"/><polygon fill="none" points="679,76.05,686,56.05,693,76.05,679,76.05" style="stroke: #A80036; stroke-width: 1.0;"/><!--MD5=[f5ee1b912b2c77df3c0495bf254a953d]
reverse link BaseCrudController to EvaluasiKesehatanBumilController--><path d="M741.01,66.67 C767.68,82.99 800.75,103.22 832.43,122.61 " fill="none" id="BaseCrudController&lt;-EvaluasiKesehatanBumilController" style="stroke: #A80036; stroke-width: 1.0;"/><polygon fill="none" points="737.07,72.46,723.66,56.05,744.37,60.52,737.07,72.46" style="stroke: #A80036; stroke-width: 1.0;"/><!--MD5=[bcdc3972a857439329077121bd22a650]
@startuml

class JenisVaksinController extends Controller {
  +index()
  +create()
  +store()
  +show()
  +edit()
  +update()
  +destroy()
}

class DataKmsPerempuanController extends BaseCrudController {
  +index()
  +create()
  +store()
  +update()
  +edit()
  +destroy()
  +ajax()
}

class AncController extends Controller {
  +index()
  +create()
  +store()
  +show()
  +edit()
  +update()
  +destroy()
}

class RiwayatKesehatanBumilController extends BaseCrudController {
  +index()
  +create()
  +store()
  +update()
  +edit()
  +destroy()
  +ajax()
}

class EvaluasiKesehatanBumilController extends BaseCrudController {
  +index()
  +create()
  +store()
  +update()
  +edit()
  +destroy()
  +ajax()
}

@enduml

PlantUML version 1.2020.02(Sun Mar 01 17:22:07 WIB 2020)
(GPL source distribution)
Java Runtime: OpenJDK Runtime Environment
JVM: OpenJDK 64-Bit Server VM
Java Version: 21.0.7+6-Ubuntu-0ubuntu124.04
Operating System: Linux
Default Encoding: UTF-8
Language: en
Country: US
--></g></svg>