<?xml version="1.0" encoding="UTF-8" standalone="no"?><svg xmlns="http://www.w3.org/2000/svg" xmlns:xlink="http://www.w3.org/1999/xlink" contentScriptType="application/ecmascript" contentStyleType="text/css" height="309px" preserveAspectRatio="none" style="width:1157px;height:309px;" version="1.1" viewBox="0 0 1157 309" width="1157px" zoomAndPan="magnify"><defs><filter height="300%" id="f1g2dsux5x2n0" width="300%" x="-1" y="-1"><feGaussianBlur result="blurOut" stdDeviation="2.0"/><feColorMatrix in="blurOut" result="blurOut2" type="matrix" values="0 0 0 0 0 0 0 0 0 0 0 0 0 0 0 0 0 0 .4 0"/><feOffset dx="4.0" dy="4.0" in="blurOut2" result="blurOut3"/><feBlend in="SourceGraphic" in2="blurOut3" mode="normal"/></filter></defs><g><!--MD5=[f32928ab90adb9cdc85fc27b82a78dec]
class GrafikImtLakiController--><rect fill="#FEFECE" filter="url(#f1g2dsux5x2n0)" height="182.837" id="GrafikImtLakiController" style="stroke: #A80036; stroke-width: 1.5;" width="163" x="6" y="116"/><ellipse cx="21" cy="132" fill="#ADD1B2" rx="11" ry="11" style="stroke: #A80036; stroke-width: 1.0;"/><path d="M23.9688,137.6406 Q23.3906,137.9375 22.75,138.0781 Q22.1094,138.2344 21.4063,138.2344 Q18.9063,138.2344 17.5781,136.5938 Q16.2656,134.9375 16.2656,131.8125 Q16.2656,128.6875 17.5781,127.0313 Q18.9063,125.375 21.4063,125.375 Q22.1094,125.375 22.75,125.5313 Q23.4063,125.6875 23.9688,125.9844 L23.9688,128.7031 Q23.3438,128.125 22.75,127.8594 Q22.1563,127.5781 21.5313,127.5781 Q20.1875,127.5781 19.5,128.6563 Q18.8125,129.7188 18.8125,131.8125 Q18.8125,133.9063 19.5,134.9844 Q20.1875,136.0469 21.5313,136.0469 Q22.1563,136.0469 22.75,135.7813 Q23.3438,135.5 23.9688,134.9219 L23.9688,137.6406 Z "/><text fill="#000000" font-family="sans-serif" font-size="12" lengthAdjust="spacingAndGlyphs" textLength="131" x="35" y="136.656">GrafikImtLakiController</text><line style="stroke: #A80036; stroke-width: 1.5;" x1="7" x2="168" y1="148" y2="148"/><line style="stroke: #A80036; stroke-width: 1.5;" x1="7" x2="168" y1="156" y2="156"/><ellipse cx="17" cy="167" fill="#84BE84" rx="3" ry="3" style="stroke: #038048; stroke-width: 1.0;"/><text fill="#000000" font-family="sans-serif" font-size="11" lengthAdjust="spacingAndGlyphs" textLength="35" x="26" y="171.7589">index()</text><ellipse cx="17" cy="181.9819" fill="#84BE84" rx="3" ry="3" style="stroke: #038048; stroke-width: 1.0;"/><text fill="#000000" font-family="sans-serif" font-size="11" lengthAdjust="spacingAndGlyphs" textLength="61" x="26" y="186.7408">dataGrafik()</text><ellipse cx="17" cy="196.9638" fill="#84BE84" rx="3" ry="3" style="stroke: #038048; stroke-width: 1.0;"/><text fill="#000000" font-family="sans-serif" font-size="11" lengthAdjust="spacingAndGlyphs" textLength="37" x="26" y="201.7227">grafik()</text><ellipse cx="17" cy="211.9457" fill="#84BE84" rx="3" ry="3" style="stroke: #038048; stroke-width: 1.0;"/><text fill="#000000" font-family="sans-serif" font-size="11" lengthAdjust="spacingAndGlyphs" textLength="38" x="26" y="216.7046">create()</text><ellipse cx="17" cy="226.9276" fill="#84BE84" rx="3" ry="3" style="stroke: #038048; stroke-width: 1.0;"/><text fill="#000000" font-family="sans-serif" font-size="11" lengthAdjust="spacingAndGlyphs" textLength="33" x="26" y="231.6865">store()</text><ellipse cx="17" cy="241.9094" fill="#84BE84" rx="3" ry="3" style="stroke: #038048; stroke-width: 1.0;"/><text fill="#000000" font-family="sans-serif" font-size="11" lengthAdjust="spacingAndGlyphs" textLength="34" x="26" y="246.6684">show()</text><ellipse cx="17" cy="256.8913" fill="#84BE84" rx="3" ry="3" style="stroke: #038048; stroke-width: 1.0;"/><text fill="#000000" font-family="sans-serif" font-size="11" lengthAdjust="spacingAndGlyphs" textLength="26" x="26" y="261.6502">edit()</text><ellipse cx="17" cy="271.8732" fill="#84BE84" rx="3" ry="3" style="stroke: #038048; stroke-width: 1.0;"/><text fill="#000000" font-family="sans-serif" font-size="11" lengthAdjust="spacingAndGlyphs" textLength="43" x="26" y="276.6321">update()</text><ellipse cx="17" cy="286.8551" fill="#84BE84" rx="3" ry="3" style="stroke: #038048; stroke-width: 1.0;"/><text fill="#000000" font-family="sans-serif" font-size="11" lengthAdjust="spacingAndGlyphs" textLength="46" x="26" y="291.614">destroy()</text><!--MD5=[1d7ba1c7002d54515419844fbd155368]
class Controller--><rect fill="#FEFECE" filter="url(#f1g2dsux5x2n0)" height="48" id="Controller" style="stroke: #A80036; stroke-width: 1.5;" width="88" x="43.5" y="8"/><ellipse cx="58.5" cy="24" fill="#ADD1B2" rx="11" ry="11" style="stroke: #A80036; stroke-width: 1.0;"/><path d="M61.4688,29.6406 Q60.8906,29.9375 60.25,30.0781 Q59.6094,30.2344 58.9063,30.2344 Q56.4063,30.2344 55.0781,28.5938 Q53.7656,26.9375 53.7656,23.8125 Q53.7656,20.6875 55.0781,19.0313 Q56.4063,17.375 58.9063,17.375 Q59.6094,17.375 60.25,17.5313 Q60.9063,17.6875 61.4688,17.9844 L61.4688,20.7031 Q60.8438,20.125 60.25,19.8594 Q59.6563,19.5781 59.0313,19.5781 Q57.6875,19.5781 57,20.6563 Q56.3125,21.7188 56.3125,23.8125 Q56.3125,25.9063 57,26.9844 Q57.6875,28.0469 59.0313,28.0469 Q59.6563,28.0469 60.25,27.7813 Q60.8438,27.5 61.4688,26.9219 L61.4688,29.6406 Z "/><text fill="#000000" font-family="sans-serif" font-size="12" lengthAdjust="spacingAndGlyphs" textLength="56" x="72.5" y="28.656">Controller</text><line style="stroke: #A80036; stroke-width: 1.5;" x1="44.5" x2="130.5" y1="40" y2="40"/><line style="stroke: #A80036; stroke-width: 1.5;" x1="44.5" x2="130.5" y1="48" y2="48"/><!--MD5=[56ae58559a897b39f57436a3e09d5cd8]
class RiwayatPenyakitKeluargaController--><rect fill="#FEFECE" filter="url(#f1g2dsux5x2n0)" height="152.8732" id="RiwayatPenyakitKeluargaController" style="stroke: #A80036; stroke-width: 1.5;" width="228" x="204.5" y="131"/><ellipse cx="219.5" cy="147" fill="#ADD1B2" rx="11" ry="11" style="stroke: #A80036; stroke-width: 1.0;"/><path d="M222.4688,152.6406 Q221.8906,152.9375 221.25,153.0781 Q220.6094,153.2344 219.9063,153.2344 Q217.4063,153.2344 216.0781,151.5938 Q214.7656,149.9375 214.7656,146.8125 Q214.7656,143.6875 216.0781,142.0313 Q217.4063,140.375 219.9063,140.375 Q220.6094,140.375 221.25,140.5313 Q221.9063,140.6875 222.4688,140.9844 L222.4688,143.7031 Q221.8438,143.125 221.25,142.8594 Q220.6563,142.5781 220.0313,142.5781 Q218.6875,142.5781 218,143.6563 Q217.3125,144.7188 217.3125,146.8125 Q217.3125,148.9063 218,149.9844 Q218.6875,151.0469 220.0313,151.0469 Q220.6563,151.0469 221.25,150.7813 Q221.8438,150.5 222.4688,149.9219 L222.4688,152.6406 Z "/><text fill="#000000" font-family="sans-serif" font-size="12" lengthAdjust="spacingAndGlyphs" textLength="196" x="233.5" y="151.656">RiwayatPenyakitKeluargaController</text><line style="stroke: #A80036; stroke-width: 1.5;" x1="205.5" x2="431.5" y1="163" y2="163"/><line style="stroke: #A80036; stroke-width: 1.5;" x1="205.5" x2="431.5" y1="171" y2="171"/><ellipse cx="215.5" cy="182" fill="#84BE84" rx="3" ry="3" style="stroke: #038048; stroke-width: 1.0;"/><text fill="#000000" font-family="sans-serif" font-size="11" lengthAdjust="spacingAndGlyphs" textLength="35" x="224.5" y="186.7589">index()</text><ellipse cx="215.5" cy="196.9819" fill="#84BE84" rx="3" ry="3" style="stroke: #038048; stroke-width: 1.0;"/><text fill="#000000" font-family="sans-serif" font-size="11" lengthAdjust="spacingAndGlyphs" textLength="38" x="224.5" y="201.7408">create()</text><ellipse cx="215.5" cy="211.9638" fill="#84BE84" rx="3" ry="3" style="stroke: #038048; stroke-width: 1.0;"/><text fill="#000000" font-family="sans-serif" font-size="11" lengthAdjust="spacingAndGlyphs" textLength="33" x="224.5" y="216.7227">store()</text><ellipse cx="215.5" cy="226.9457" fill="#84BE84" rx="3" ry="3" style="stroke: #038048; stroke-width: 1.0;"/><text fill="#000000" font-family="sans-serif" font-size="11" lengthAdjust="spacingAndGlyphs" textLength="43" x="224.5" y="231.7046">update()</text><ellipse cx="215.5" cy="241.9276" fill="#84BE84" rx="3" ry="3" style="stroke: #038048; stroke-width: 1.0;"/><text fill="#000000" font-family="sans-serif" font-size="11" lengthAdjust="spacingAndGlyphs" textLength="26" x="224.5" y="246.6865">edit()</text><ellipse cx="215.5" cy="256.9094" fill="#84BE84" rx="3" ry="3" style="stroke: #038048; stroke-width: 1.0;"/><text fill="#000000" font-family="sans-serif" font-size="11" lengthAdjust="spacingAndGlyphs" textLength="46" x="224.5" y="261.6684">destroy()</text><ellipse cx="215.5" cy="271.8913" fill="#84BE84" rx="3" ry="3" style="stroke: #038048; stroke-width: 1.0;"/><text fill="#000000" font-family="sans-serif" font-size="11" lengthAdjust="spacingAndGlyphs" textLength="27" x="224.5" y="276.6502">ajax()</text><!--MD5=[a91429b804a8b5b16e6c31526b722d6a]
class BaseCrudController--><rect fill="#FEFECE" filter="url(#f1g2dsux5x2n0)" height="48" id="BaseCrudController" style="stroke: #A80036; stroke-width: 1.5;" width="143" x="572" y="8"/><ellipse cx="587" cy="24" fill="#ADD1B2" rx="11" ry="11" style="stroke: #A80036; stroke-width: 1.0;"/><path d="M589.9688,29.6406 Q589.3906,29.9375 588.75,30.0781 Q588.1094,30.2344 587.4063,30.2344 Q584.9063,30.2344 583.5781,28.5938 Q582.2656,26.9375 582.2656,23.8125 Q582.2656,20.6875 583.5781,19.0313 Q584.9063,17.375 587.4063,17.375 Q588.1094,17.375 588.75,17.5313 Q589.4063,17.6875 589.9688,17.9844 L589.9688,20.7031 Q589.3438,20.125 588.75,19.8594 Q588.1563,19.5781 587.5313,19.5781 Q586.1875,19.5781 585.5,20.6563 Q584.8125,21.7188 584.8125,23.8125 Q584.8125,25.9063 585.5,26.9844 Q586.1875,28.0469 587.5313,28.0469 Q588.1563,28.0469 588.75,27.7813 Q589.3438,27.5 589.9688,26.9219 L589.9688,29.6406 Z "/><text fill="#000000" font-family="sans-serif" font-size="12" lengthAdjust="spacingAndGlyphs" textLength="111" x="601" y="28.656">BaseCrudController</text><line style="stroke: #A80036; stroke-width: 1.5;" x1="573" x2="714" y1="40" y2="40"/><line style="stroke: #A80036; stroke-width: 1.5;" x1="573" x2="714" y1="48" y2="48"/><!--MD5=[eab95c1cb348e0895aa6b5f57976d8ff]
class ImtLakiController--><rect fill="#FEFECE" filter="url(#f1g2dsux5x2n0)" height="152.8732" id="ImtLakiController" style="stroke: #A80036; stroke-width: 1.5;" width="129" x="468" y="131"/><ellipse cx="483" cy="147" fill="#ADD1B2" rx="11" ry="11" style="stroke: #A80036; stroke-width: 1.0;"/><path d="M485.9688,152.6406 Q485.3906,152.9375 484.75,153.0781 Q484.1094,153.2344 483.4063,153.2344 Q480.9063,153.2344 479.5781,151.5938 Q478.2656,149.9375 478.2656,146.8125 Q478.2656,143.6875 479.5781,142.0313 Q480.9063,140.375 483.4063,140.375 Q484.1094,140.375 484.75,140.5313 Q485.4063,140.6875 485.9688,140.9844 L485.9688,143.7031 Q485.3438,143.125 484.75,142.8594 Q484.1563,142.5781 483.5313,142.5781 Q482.1875,142.5781 481.5,143.6563 Q480.8125,144.7188 480.8125,146.8125 Q480.8125,148.9063 481.5,149.9844 Q482.1875,151.0469 483.5313,151.0469 Q484.1563,151.0469 484.75,150.7813 Q485.3438,150.5 485.9688,149.9219 L485.9688,152.6406 Z "/><text fill="#000000" font-family="sans-serif" font-size="12" lengthAdjust="spacingAndGlyphs" textLength="97" x="497" y="151.656">ImtLakiController</text><line style="stroke: #A80036; stroke-width: 1.5;" x1="469" x2="596" y1="163" y2="163"/><line style="stroke: #A80036; stroke-width: 1.5;" x1="469" x2="596" y1="171" y2="171"/><ellipse cx="479" cy="182" fill="#84BE84" rx="3" ry="3" style="stroke: #038048; stroke-width: 1.0;"/><text fill="#000000" font-family="sans-serif" font-size="11" lengthAdjust="spacingAndGlyphs" textLength="35" x="488" y="186.7589">index()</text><ellipse cx="479" cy="196.9819" fill="#84BE84" rx="3" ry="3" style="stroke: #038048; stroke-width: 1.0;"/><text fill="#000000" font-family="sans-serif" font-size="11" lengthAdjust="spacingAndGlyphs" textLength="38" x="488" y="201.7408">create()</text><ellipse cx="479" cy="211.9638" fill="#84BE84" rx="3" ry="3" style="stroke: #038048; stroke-width: 1.0;"/><text fill="#000000" font-family="sans-serif" font-size="11" lengthAdjust="spacingAndGlyphs" textLength="33" x="488" y="216.7227">store()</text><ellipse cx="479" cy="226.9457" fill="#84BE84" rx="3" ry="3" style="stroke: #038048; stroke-width: 1.0;"/><text fill="#000000" font-family="sans-serif" font-size="11" lengthAdjust="spacingAndGlyphs" textLength="43" x="488" y="231.7046">update()</text><ellipse cx="479" cy="241.9276" fill="#84BE84" rx="3" ry="3" style="stroke: #038048; stroke-width: 1.0;"/><text fill="#000000" font-family="sans-serif" font-size="11" lengthAdjust="spacingAndGlyphs" textLength="26" x="488" y="246.6865">edit()</text><ellipse cx="479" cy="256.9094" fill="#84BE84" rx="3" ry="3" style="stroke: #038048; stroke-width: 1.0;"/><text fill="#000000" font-family="sans-serif" font-size="11" lengthAdjust="spacingAndGlyphs" textLength="46" x="488" y="261.6684">destroy()</text><ellipse cx="479" cy="271.8913" fill="#84BE84" rx="3" ry="3" style="stroke: #038048; stroke-width: 1.0;"/><text fill="#000000" font-family="sans-serif" font-size="11" lengthAdjust="spacingAndGlyphs" textLength="27" x="488" y="276.6502">ajax()</text><!--MD5=[09f502cc3ff82ecce2047fe503914f1f]
class PenyimpanganPertumbuhanController--><rect fill="#FEFECE" filter="url(#f1g2dsux5x2n0)" height="152.8732" id="PenyimpanganPertumbuhanController" style="stroke: #A80036; stroke-width: 1.5;" width="247" x="632" y="131"/><ellipse cx="647" cy="147" fill="#ADD1B2" rx="11" ry="11" style="stroke: #A80036; stroke-width: 1.0;"/><path d="M649.9688,152.6406 Q649.3906,152.9375 648.75,153.0781 Q648.1094,153.2344 647.4063,153.2344 Q644.9063,153.2344 643.5781,151.5938 Q642.2656,149.9375 642.2656,146.8125 Q642.2656,143.6875 643.5781,142.0313 Q644.9063,140.375 647.4063,140.375 Q648.1094,140.375 648.75,140.5313 Q649.4063,140.6875 649.9688,140.9844 L649.9688,143.7031 Q649.3438,143.125 648.75,142.8594 Q648.1563,142.5781 647.5313,142.5781 Q646.1875,142.5781 645.5,143.6563 Q644.8125,144.7188 644.8125,146.8125 Q644.8125,148.9063 645.5,149.9844 Q646.1875,151.0469 647.5313,151.0469 Q648.1563,151.0469 648.75,150.7813 Q649.3438,150.5 649.9688,149.9219 L649.9688,152.6406 Z "/><text fill="#000000" font-family="sans-serif" font-size="12" lengthAdjust="spacingAndGlyphs" textLength="215" x="661" y="151.656">PenyimpanganPertumbuhanController</text><line style="stroke: #A80036; stroke-width: 1.5;" x1="633" x2="878" y1="163" y2="163"/><line style="stroke: #A80036; stroke-width: 1.5;" x1="633" x2="878" y1="171" y2="171"/><ellipse cx="643" cy="182" fill="#84BE84" rx="3" ry="3" style="stroke: #038048; stroke-width: 1.0;"/><text fill="#000000" font-family="sans-serif" font-size="11" lengthAdjust="spacingAndGlyphs" textLength="35" x="652" y="186.7589">index()</text><ellipse cx="643" cy="196.9819" fill="#84BE84" rx="3" ry="3" style="stroke: #038048; stroke-width: 1.0;"/><text fill="#000000" font-family="sans-serif" font-size="11" lengthAdjust="spacingAndGlyphs" textLength="38" x="652" y="201.7408">create()</text><ellipse cx="643" cy="211.9638" fill="#84BE84" rx="3" ry="3" style="stroke: #038048; stroke-width: 1.0;"/><text fill="#000000" font-family="sans-serif" font-size="11" lengthAdjust="spacingAndGlyphs" textLength="33" x="652" y="216.7227">store()</text><ellipse cx="643" cy="226.9457" fill="#84BE84" rx="3" ry="3" style="stroke: #038048; stroke-width: 1.0;"/><text fill="#000000" font-family="sans-serif" font-size="11" lengthAdjust="spacingAndGlyphs" textLength="43" x="652" y="231.7046">update()</text><ellipse cx="643" cy="241.9276" fill="#84BE84" rx="3" ry="3" style="stroke: #038048; stroke-width: 1.0;"/><text fill="#000000" font-family="sans-serif" font-size="11" lengthAdjust="spacingAndGlyphs" textLength="26" x="652" y="246.6865">edit()</text><ellipse cx="643" cy="256.9094" fill="#84BE84" rx="3" ry="3" style="stroke: #038048; stroke-width: 1.0;"/><text fill="#000000" font-family="sans-serif" font-size="11" lengthAdjust="spacingAndGlyphs" textLength="46" x="652" y="261.6684">destroy()</text><ellipse cx="643" cy="271.8913" fill="#84BE84" rx="3" ry="3" style="stroke: #038048; stroke-width: 1.0;"/><text fill="#000000" font-family="sans-serif" font-size="11" lengthAdjust="spacingAndGlyphs" textLength="27" x="652" y="276.6502">ajax()</text><!--MD5=[94fd024086f1c70d8d48ef3542a9e632]
class LingkarKepalaPerempuanController--><rect fill="#FEFECE" filter="url(#f1g2dsux5x2n0)" height="152.8732" id="LingkarKepalaPerempuanController" style="stroke: #A80036; stroke-width: 1.5;" width="232" x="914.5" y="131"/><ellipse cx="929.5" cy="147" fill="#ADD1B2" rx="11" ry="11" style="stroke: #A80036; stroke-width: 1.0;"/><path d="M932.4688,152.6406 Q931.8906,152.9375 931.25,153.0781 Q930.6094,153.2344 929.9063,153.2344 Q927.4063,153.2344 926.0781,151.5938 Q924.7656,149.9375 924.7656,146.8125 Q924.7656,143.6875 926.0781,142.0313 Q927.4063,140.375 929.9063,140.375 Q930.6094,140.375 931.25,140.5313 Q931.9063,140.6875 932.4688,140.9844 L932.4688,143.7031 Q931.8438,143.125 931.25,142.8594 Q930.6563,142.5781 930.0313,142.5781 Q928.6875,142.5781 928,143.6563 Q927.3125,144.7188 927.3125,146.8125 Q927.3125,148.9063 928,149.9844 Q928.6875,151.0469 930.0313,151.0469 Q930.6563,151.0469 931.25,150.7813 Q931.8438,150.5 932.4688,149.9219 L932.4688,152.6406 Z "/><text fill="#000000" font-family="sans-serif" font-size="12" lengthAdjust="spacingAndGlyphs" textLength="200" x="943.5" y="151.656">LingkarKepalaPerempuanController</text><line style="stroke: #A80036; stroke-width: 1.5;" x1="915.5" x2="1145.5" y1="163" y2="163"/><line style="stroke: #A80036; stroke-width: 1.5;" x1="915.5" x2="1145.5" y1="171" y2="171"/><ellipse cx="925.5" cy="182" fill="#84BE84" rx="3" ry="3" style="stroke: #038048; stroke-width: 1.0;"/><text fill="#000000" font-family="sans-serif" font-size="11" lengthAdjust="spacingAndGlyphs" textLength="35" x="934.5" y="186.7589">index()</text><ellipse cx="925.5" cy="196.9819" fill="#84BE84" rx="3" ry="3" style="stroke: #038048; stroke-width: 1.0;"/><text fill="#000000" font-family="sans-serif" font-size="11" lengthAdjust="spacingAndGlyphs" textLength="38" x="934.5" y="201.7408">create()</text><ellipse cx="925.5" cy="211.9638" fill="#84BE84" rx="3" ry="3" style="stroke: #038048; stroke-width: 1.0;"/><text fill="#000000" font-family="sans-serif" font-size="11" lengthAdjust="spacingAndGlyphs" textLength="33" x="934.5" y="216.7227">store()</text><ellipse cx="925.5" cy="226.9457" fill="#84BE84" rx="3" ry="3" style="stroke: #038048; stroke-width: 1.0;"/><text fill="#000000" font-family="sans-serif" font-size="11" lengthAdjust="spacingAndGlyphs" textLength="43" x="934.5" y="231.7046">update()</text><ellipse cx="925.5" cy="241.9276" fill="#84BE84" rx="3" ry="3" style="stroke: #038048; stroke-width: 1.0;"/><text fill="#000000" font-family="sans-serif" font-size="11" lengthAdjust="spacingAndGlyphs" textLength="26" x="934.5" y="246.6865">edit()</text><ellipse cx="925.5" cy="256.9094" fill="#84BE84" rx="3" ry="3" style="stroke: #038048; stroke-width: 1.0;"/><text fill="#000000" font-family="sans-serif" font-size="11" lengthAdjust="spacingAndGlyphs" textLength="46" x="934.5" y="261.6684">destroy()</text><ellipse cx="925.5" cy="271.8913" fill="#84BE84" rx="3" ry="3" style="stroke: #038048; stroke-width: 1.0;"/><text fill="#000000" font-family="sans-serif" font-size="11" lengthAdjust="spacingAndGlyphs" textLength="27" x="934.5" y="276.6502">ajax()</text><!--MD5=[201e8b913b20417362309fc1f3d983bb]
reverse link Controller to GrafikImtLakiController--><path d="M87.5,76.43 C87.5,88.49 87.5,102.06 87.5,115.76 " fill="none" id="Controller&lt;-GrafikImtLakiController" style="stroke: #A80036; stroke-width: 1.0;"/><polygon fill="none" points="80.5,76.04,87.5,56.04,94.5,76.04,80.5,76.04" style="stroke: #A80036; stroke-width: 1.0;"/><!--MD5=[86f71712627d82c7e59f50c41f40fe14]
reverse link BaseCrudController to RiwayatPenyakitKeluargaController--><path d="M562.77,63.61 C527.54,78 486.22,96.32 450.5,116 C442.1,120.63 433.57,125.65 425.1,130.88 " fill="none" id="BaseCrudController&lt;-RiwayatPenyakitKeluargaController" style="stroke: #A80036; stroke-width: 1.0;"/><polygon fill="none" points="560.47,56.99,581.64,56.03,565.69,69.98,560.47,56.99" style="stroke: #A80036; stroke-width: 1.0;"/><!--MD5=[1ba4888cb76517df5ea1951ad2659fca]
reverse link BaseCrudController to ImtLakiController--><path d="M617.86,73.08 C606.9,90.21 593.72,110.81 581.03,130.64 " fill="none" id="BaseCrudController&lt;-ImtLakiController" style="stroke: #A80036; stroke-width: 1.0;"/><polygon fill="none" points="612.09,69.11,628.76,56.04,623.88,76.66,612.09,69.11" style="stroke: #A80036; stroke-width: 1.0;"/><!--MD5=[4ae6df130bfc3592369ea5cb4de1867f]
reverse link BaseCrudController to PenyimpanganPertumbuhanController--><path d="M669.37,73.08 C680.43,90.21 693.73,110.81 706.53,130.64 " fill="none" id="BaseCrudController&lt;-PenyimpanganPertumbuhanController" style="stroke: #A80036; stroke-width: 1.0;"/><polygon fill="none" points="663.34,76.64,658.37,56.04,675.1,69.05,663.34,76.64" style="stroke: #A80036; stroke-width: 1.0;"/><!--MD5=[f64e1150121e0af46f646f9fd32ecf14]
reverse link BaseCrudController to LingkarKepalaPerempuanController--><path d="M734.37,56.19 C783.64,70.38 844.85,90.7 896.5,116 C905.7,120.51 915,125.57 924.19,130.94 " fill="none" id="BaseCrudController&lt;-LingkarKepalaPerempuanController" style="stroke: #A80036; stroke-width: 1.0;"/><polygon fill="none" points="732.44,62.92,715.08,50.77,736.23,49.44,732.44,62.92" style="stroke: #A80036; stroke-width: 1.0;"/><!--MD5=[dd22248288bfb42d93370ccdfdefcfa2]
@startuml

class GrafikImtLakiController extends Controller {
  +index()
  +dataGrafik()
  +grafik()
  +create()
  +store()
  +show()
  +edit()
  +update()
  +destroy()
}

class RiwayatPenyakitKeluargaController extends BaseCrudController {
  +index()
  +create()
  +store()
  +update()
  +edit()
  +destroy()
  +ajax()
}

class ImtLakiController extends BaseCrudController {
  +index()
  +create()
  +store()
  +update()
  +edit()
  +destroy()
  +ajax()
}

class PenyimpanganPertumbuhanController extends BaseCrudController {
  +index()
  +create()
  +store()
  +update()
  +edit()
  +destroy()
  +ajax()
}

class LingkarKepalaPerempuanController extends BaseCrudController {
  +index()
  +create()
  +store()
  +update()
  +edit()
  +destroy()
  +ajax()
}

@enduml

PlantUML version 1.2020.02(Sun Mar 01 17:22:07 WIB 2020)
(GPL source distribution)
Java Runtime: OpenJDK Runtime Environment
JVM: OpenJDK 64-Bit Server VM
Java Version: 21.0.7+6-Ubuntu-0ubuntu124.04
Operating System: Linux
Default Encoding: UTF-8
Language: en
Country: US
--></g></svg>