<?xml version="1.0" encoding="UTF-8" standalone="no"?><svg xmlns="http://www.w3.org/2000/svg" xmlns:xlink="http://www.w3.org/1999/xlink" contentScriptType="application/ecmascript" contentStyleType="text/css" height="279px" preserveAspectRatio="none" style="width:1017px;height:279px;" version="1.1" viewBox="0 0 1017 279" width="1017px" zoomAndPan="magnify"><defs><filter height="300%" id="fo6c1b9id5y1k" width="300%" x="-1" y="-1"><feGaussianBlur result="blurOut" stdDeviation="2.0"/><feColorMatrix in="blurOut" result="blurOut2" type="matrix" values="0 0 0 0 0 0 0 0 0 0 0 0 0 0 0 0 0 0 .4 0"/><feOffset dx="4.0" dy="4.0" in="blurOut2" result="blurOut3"/><feBlend in="SourceGraphic" in2="blurOut3" mode="normal"/></filter></defs><g><!--MD5=[8cd15cabfe8b7f252da7459513f222bb]
class BbTbPerempuanController--><rect fill="#FEFECE" filter="url(#fo6c1b9id5y1k)" height="152.8732" id="BbTbPerempuanController" style="stroke: #A80036; stroke-width: 1.5;" width="182" x="6" y="116"/><ellipse cx="21" cy="132" fill="#ADD1B2" rx="11" ry="11" style="stroke: #A80036; stroke-width: 1.0;"/><path d="M23.9688,137.6406 Q23.3906,137.9375 22.75,138.0781 Q22.1094,138.2344 21.4063,138.2344 Q18.9063,138.2344 17.5781,136.5938 Q16.2656,134.9375 16.2656,131.8125 Q16.2656,128.6875 17.5781,127.0313 Q18.9063,125.375 21.4063,125.375 Q22.1094,125.375 22.75,125.5313 Q23.4063,125.6875 23.9688,125.9844 L23.9688,128.7031 Q23.3438,128.125 22.75,127.8594 Q22.1563,127.5781 21.5313,127.5781 Q20.1875,127.5781 19.5,128.6563 Q18.8125,129.7188 18.8125,131.8125 Q18.8125,133.9063 19.5,134.9844 Q20.1875,136.0469 21.5313,136.0469 Q22.1563,136.0469 22.75,135.7813 Q23.3438,135.5 23.9688,134.9219 L23.9688,137.6406 Z "/><text fill="#000000" font-family="sans-serif" font-size="12" lengthAdjust="spacingAndGlyphs" textLength="150" x="35" y="136.656">BbTbPerempuanController</text><line style="stroke: #A80036; stroke-width: 1.5;" x1="7" x2="187" y1="148" y2="148"/><line style="stroke: #A80036; stroke-width: 1.5;" x1="7" x2="187" y1="156" y2="156"/><ellipse cx="17" cy="167" fill="#84BE84" rx="3" ry="3" style="stroke: #038048; stroke-width: 1.0;"/><text fill="#000000" font-family="sans-serif" font-size="11" lengthAdjust="spacingAndGlyphs" textLength="35" x="26" y="171.7589">index()</text><ellipse cx="17" cy="181.9819" fill="#84BE84" rx="3" ry="3" style="stroke: #038048; stroke-width: 1.0;"/><text fill="#000000" font-family="sans-serif" font-size="11" lengthAdjust="spacingAndGlyphs" textLength="38" x="26" y="186.7408">create()</text><ellipse cx="17" cy="196.9638" fill="#84BE84" rx="3" ry="3" style="stroke: #038048; stroke-width: 1.0;"/><text fill="#000000" font-family="sans-serif" font-size="11" lengthAdjust="spacingAndGlyphs" textLength="33" x="26" y="201.7227">store()</text><ellipse cx="17" cy="211.9457" fill="#84BE84" rx="3" ry="3" style="stroke: #038048; stroke-width: 1.0;"/><text fill="#000000" font-family="sans-serif" font-size="11" lengthAdjust="spacingAndGlyphs" textLength="43" x="26" y="216.7046">update()</text><ellipse cx="17" cy="226.9276" fill="#84BE84" rx="3" ry="3" style="stroke: #038048; stroke-width: 1.0;"/><text fill="#000000" font-family="sans-serif" font-size="11" lengthAdjust="spacingAndGlyphs" textLength="26" x="26" y="231.6865">edit()</text><ellipse cx="17" cy="241.9094" fill="#84BE84" rx="3" ry="3" style="stroke: #038048; stroke-width: 1.0;"/><text fill="#000000" font-family="sans-serif" font-size="11" lengthAdjust="spacingAndGlyphs" textLength="46" x="26" y="246.6684">destroy()</text><ellipse cx="17" cy="256.8913" fill="#84BE84" rx="3" ry="3" style="stroke: #038048; stroke-width: 1.0;"/><text fill="#000000" font-family="sans-serif" font-size="11" lengthAdjust="spacingAndGlyphs" textLength="27" x="26" y="261.6502">ajax()</text><!--MD5=[a91429b804a8b5b16e6c31526b722d6a]
class BaseCrudController--><rect fill="#FEFECE" filter="url(#fo6c1b9id5y1k)" height="48" id="BaseCrudController" style="stroke: #A80036; stroke-width: 1.5;" width="143" x="358.5" y="8"/><ellipse cx="373.5" cy="24" fill="#ADD1B2" rx="11" ry="11" style="stroke: #A80036; stroke-width: 1.0;"/><path d="M376.4688,29.6406 Q375.8906,29.9375 375.25,30.0781 Q374.6094,30.2344 373.9063,30.2344 Q371.4063,30.2344 370.0781,28.5938 Q368.7656,26.9375 368.7656,23.8125 Q368.7656,20.6875 370.0781,19.0313 Q371.4063,17.375 373.9063,17.375 Q374.6094,17.375 375.25,17.5313 Q375.9063,17.6875 376.4688,17.9844 L376.4688,20.7031 Q375.8438,20.125 375.25,19.8594 Q374.6563,19.5781 374.0313,19.5781 Q372.6875,19.5781 372,20.6563 Q371.3125,21.7188 371.3125,23.8125 Q371.3125,25.9063 372,26.9844 Q372.6875,28.0469 374.0313,28.0469 Q374.6563,28.0469 375.25,27.7813 Q375.8438,27.5 376.4688,26.9219 L376.4688,29.6406 Z "/><text fill="#000000" font-family="sans-serif" font-size="12" lengthAdjust="spacingAndGlyphs" textLength="111" x="387.5" y="28.656">BaseCrudController</text><line style="stroke: #A80036; stroke-width: 1.5;" x1="359.5" x2="500.5" y1="40" y2="40"/><line style="stroke: #A80036; stroke-width: 1.5;" x1="359.5" x2="500.5" y1="48" y2="48"/><!--MD5=[ed653457bfe07d77a5e350c3da960109]
class AmanatKendaraanController--><rect fill="#FEFECE" filter="url(#fo6c1b9id5y1k)" height="152.8732" id="AmanatKendaraanController" style="stroke: #A80036; stroke-width: 1.5;" width="193" x="223.5" y="116"/><ellipse cx="238.5" cy="132" fill="#ADD1B2" rx="11" ry="11" style="stroke: #A80036; stroke-width: 1.0;"/><path d="M241.4688,137.6406 Q240.8906,137.9375 240.25,138.0781 Q239.6094,138.2344 238.9063,138.2344 Q236.4063,138.2344 235.0781,136.5938 Q233.7656,134.9375 233.7656,131.8125 Q233.7656,128.6875 235.0781,127.0313 Q236.4063,125.375 238.9063,125.375 Q239.6094,125.375 240.25,125.5313 Q240.9063,125.6875 241.4688,125.9844 L241.4688,128.7031 Q240.8438,128.125 240.25,127.8594 Q239.6563,127.5781 239.0313,127.5781 Q237.6875,127.5781 237,128.6563 Q236.3125,129.7188 236.3125,131.8125 Q236.3125,133.9063 237,134.9844 Q237.6875,136.0469 239.0313,136.0469 Q239.6563,136.0469 240.25,135.7813 Q240.8438,135.5 241.4688,134.9219 L241.4688,137.6406 Z "/><text fill="#000000" font-family="sans-serif" font-size="12" lengthAdjust="spacingAndGlyphs" textLength="161" x="252.5" y="136.656">AmanatKendaraanController</text><line style="stroke: #A80036; stroke-width: 1.5;" x1="224.5" x2="415.5" y1="148" y2="148"/><line style="stroke: #A80036; stroke-width: 1.5;" x1="224.5" x2="415.5" y1="156" y2="156"/><ellipse cx="234.5" cy="167" fill="#84BE84" rx="3" ry="3" style="stroke: #038048; stroke-width: 1.0;"/><text fill="#000000" font-family="sans-serif" font-size="11" lengthAdjust="spacingAndGlyphs" textLength="35" x="243.5" y="171.7589">index()</text><ellipse cx="234.5" cy="181.9819" fill="#84BE84" rx="3" ry="3" style="stroke: #038048; stroke-width: 1.0;"/><text fill="#000000" font-family="sans-serif" font-size="11" lengthAdjust="spacingAndGlyphs" textLength="38" x="243.5" y="186.7408">create()</text><ellipse cx="234.5" cy="196.9638" fill="#84BE84" rx="3" ry="3" style="stroke: #038048; stroke-width: 1.0;"/><text fill="#000000" font-family="sans-serif" font-size="11" lengthAdjust="spacingAndGlyphs" textLength="33" x="243.5" y="201.7227">store()</text><ellipse cx="234.5" cy="211.9457" fill="#84BE84" rx="3" ry="3" style="stroke: #038048; stroke-width: 1.0;"/><text fill="#000000" font-family="sans-serif" font-size="11" lengthAdjust="spacingAndGlyphs" textLength="43" x="243.5" y="216.7046">update()</text><ellipse cx="234.5" cy="226.9276" fill="#84BE84" rx="3" ry="3" style="stroke: #038048; stroke-width: 1.0;"/><text fill="#000000" font-family="sans-serif" font-size="11" lengthAdjust="spacingAndGlyphs" textLength="26" x="243.5" y="231.6865">edit()</text><ellipse cx="234.5" cy="241.9094" fill="#84BE84" rx="3" ry="3" style="stroke: #038048; stroke-width: 1.0;"/><text fill="#000000" font-family="sans-serif" font-size="11" lengthAdjust="spacingAndGlyphs" textLength="46" x="243.5" y="246.6684">destroy()</text><ellipse cx="234.5" cy="256.8913" fill="#84BE84" rx="3" ry="3" style="stroke: #038048; stroke-width: 1.0;"/><text fill="#000000" font-family="sans-serif" font-size="11" lengthAdjust="spacingAndGlyphs" textLength="27" x="243.5" y="261.6502">ajax()</text><!--MD5=[976ef2a87cd97c82e49d7ea77ded334c]
class KmsPerempuanController--><rect fill="#FEFECE" filter="url(#fo6c1b9id5y1k)" height="152.8732" id="KmsPerempuanController" style="stroke: #A80036; stroke-width: 1.5;" width="177" x="451.5" y="116"/><ellipse cx="466.5" cy="132" fill="#ADD1B2" rx="11" ry="11" style="stroke: #A80036; stroke-width: 1.0;"/><path d="M469.4688,137.6406 Q468.8906,137.9375 468.25,138.0781 Q467.6094,138.2344 466.9063,138.2344 Q464.4063,138.2344 463.0781,136.5938 Q461.7656,134.9375 461.7656,131.8125 Q461.7656,128.6875 463.0781,127.0313 Q464.4063,125.375 466.9063,125.375 Q467.6094,125.375 468.25,125.5313 Q468.9063,125.6875 469.4688,125.9844 L469.4688,128.7031 Q468.8438,128.125 468.25,127.8594 Q467.6563,127.5781 467.0313,127.5781 Q465.6875,127.5781 465,128.6563 Q464.3125,129.7188 464.3125,131.8125 Q464.3125,133.9063 465,134.9844 Q465.6875,136.0469 467.0313,136.0469 Q467.6563,136.0469 468.25,135.7813 Q468.8438,135.5 469.4688,134.9219 L469.4688,137.6406 Z "/><text fill="#000000" font-family="sans-serif" font-size="12" lengthAdjust="spacingAndGlyphs" textLength="145" x="480.5" y="136.656">KmsPerempuanController</text><line style="stroke: #A80036; stroke-width: 1.5;" x1="452.5" x2="627.5" y1="148" y2="148"/><line style="stroke: #A80036; stroke-width: 1.5;" x1="452.5" x2="627.5" y1="156" y2="156"/><ellipse cx="462.5" cy="167" fill="#84BE84" rx="3" ry="3" style="stroke: #038048; stroke-width: 1.0;"/><text fill="#000000" font-family="sans-serif" font-size="11" lengthAdjust="spacingAndGlyphs" textLength="35" x="471.5" y="171.7589">index()</text><ellipse cx="462.5" cy="181.9819" fill="#84BE84" rx="3" ry="3" style="stroke: #038048; stroke-width: 1.0;"/><text fill="#000000" font-family="sans-serif" font-size="11" lengthAdjust="spacingAndGlyphs" textLength="38" x="471.5" y="186.7408">create()</text><ellipse cx="462.5" cy="196.9638" fill="#84BE84" rx="3" ry="3" style="stroke: #038048; stroke-width: 1.0;"/><text fill="#000000" font-family="sans-serif" font-size="11" lengthAdjust="spacingAndGlyphs" textLength="33" x="471.5" y="201.7227">store()</text><ellipse cx="462.5" cy="211.9457" fill="#84BE84" rx="3" ry="3" style="stroke: #038048; stroke-width: 1.0;"/><text fill="#000000" font-family="sans-serif" font-size="11" lengthAdjust="spacingAndGlyphs" textLength="43" x="471.5" y="216.7046">update()</text><ellipse cx="462.5" cy="226.9276" fill="#84BE84" rx="3" ry="3" style="stroke: #038048; stroke-width: 1.0;"/><text fill="#000000" font-family="sans-serif" font-size="11" lengthAdjust="spacingAndGlyphs" textLength="26" x="471.5" y="231.6865">edit()</text><ellipse cx="462.5" cy="241.9094" fill="#84BE84" rx="3" ry="3" style="stroke: #038048; stroke-width: 1.0;"/><text fill="#000000" font-family="sans-serif" font-size="11" lengthAdjust="spacingAndGlyphs" textLength="46" x="471.5" y="246.6684">destroy()</text><ellipse cx="462.5" cy="256.8913" fill="#84BE84" rx="3" ry="3" style="stroke: #038048; stroke-width: 1.0;"/><text fill="#000000" font-family="sans-serif" font-size="11" lengthAdjust="spacingAndGlyphs" textLength="27" x="471.5" y="261.6502">ajax()</text><!--MD5=[7ea65554b9a74e2ba84f00158215f571]
class UsgTri1Controller--><rect fill="#FEFECE" filter="url(#fo6c1b9id5y1k)" height="152.8732" id="UsgTri1Controller" style="stroke: #A80036; stroke-width: 1.5;" width="132" x="664" y="116"/><ellipse cx="679" cy="132" fill="#ADD1B2" rx="11" ry="11" style="stroke: #A80036; stroke-width: 1.0;"/><path d="M681.9688,137.6406 Q681.3906,137.9375 680.75,138.0781 Q680.1094,138.2344 679.4063,138.2344 Q676.9063,138.2344 675.5781,136.5938 Q674.2656,134.9375 674.2656,131.8125 Q674.2656,128.6875 675.5781,127.0313 Q676.9063,125.375 679.4063,125.375 Q680.1094,125.375 680.75,125.5313 Q681.4063,125.6875 681.9688,125.9844 L681.9688,128.7031 Q681.3438,128.125 680.75,127.8594 Q680.1563,127.5781 679.5313,127.5781 Q678.1875,127.5781 677.5,128.6563 Q676.8125,129.7188 676.8125,131.8125 Q676.8125,133.9063 677.5,134.9844 Q678.1875,136.0469 679.5313,136.0469 Q680.1563,136.0469 680.75,135.7813 Q681.3438,135.5 681.9688,134.9219 L681.9688,137.6406 Z "/><text fill="#000000" font-family="sans-serif" font-size="12" lengthAdjust="spacingAndGlyphs" textLength="100" x="693" y="136.656">UsgTri1Controller</text><line style="stroke: #A80036; stroke-width: 1.5;" x1="665" x2="795" y1="148" y2="148"/><line style="stroke: #A80036; stroke-width: 1.5;" x1="665" x2="795" y1="156" y2="156"/><ellipse cx="675" cy="167" fill="#84BE84" rx="3" ry="3" style="stroke: #038048; stroke-width: 1.0;"/><text fill="#000000" font-family="sans-serif" font-size="11" lengthAdjust="spacingAndGlyphs" textLength="35" x="684" y="171.7589">index()</text><ellipse cx="675" cy="181.9819" fill="#84BE84" rx="3" ry="3" style="stroke: #038048; stroke-width: 1.0;"/><text fill="#000000" font-family="sans-serif" font-size="11" lengthAdjust="spacingAndGlyphs" textLength="38" x="684" y="186.7408">create()</text><ellipse cx="675" cy="196.9638" fill="#84BE84" rx="3" ry="3" style="stroke: #038048; stroke-width: 1.0;"/><text fill="#000000" font-family="sans-serif" font-size="11" lengthAdjust="spacingAndGlyphs" textLength="33" x="684" y="201.7227">store()</text><ellipse cx="675" cy="211.9457" fill="#84BE84" rx="3" ry="3" style="stroke: #038048; stroke-width: 1.0;"/><text fill="#000000" font-family="sans-serif" font-size="11" lengthAdjust="spacingAndGlyphs" textLength="43" x="684" y="216.7046">update()</text><ellipse cx="675" cy="226.9276" fill="#84BE84" rx="3" ry="3" style="stroke: #038048; stroke-width: 1.0;"/><text fill="#000000" font-family="sans-serif" font-size="11" lengthAdjust="spacingAndGlyphs" textLength="26" x="684" y="231.6865">edit()</text><ellipse cx="675" cy="241.9094" fill="#84BE84" rx="3" ry="3" style="stroke: #038048; stroke-width: 1.0;"/><text fill="#000000" font-family="sans-serif" font-size="11" lengthAdjust="spacingAndGlyphs" textLength="46" x="684" y="246.6684">destroy()</text><ellipse cx="675" cy="256.8913" fill="#84BE84" rx="3" ry="3" style="stroke: #038048; stroke-width: 1.0;"/><text fill="#000000" font-family="sans-serif" font-size="11" lengthAdjust="spacingAndGlyphs" textLength="27" x="684" y="261.6502">ajax()</text><!--MD5=[eba6e9794747e3a567cc075b602ce336]
class RegisteredUserController--><rect fill="#FEFECE" filter="url(#fo6c1b9id5y1k)" height="77.9638" id="RegisteredUserController" style="stroke: #A80036; stroke-width: 1.5;" width="175" x="831.5" y="153.5"/><ellipse cx="846.5" cy="169.5" fill="#ADD1B2" rx="11" ry="11" style="stroke: #A80036; stroke-width: 1.0;"/><path d="M849.4688,175.1406 Q848.8906,175.4375 848.25,175.5781 Q847.6094,175.7344 846.9063,175.7344 Q844.4063,175.7344 843.0781,174.0938 Q841.7656,172.4375 841.7656,169.3125 Q841.7656,166.1875 843.0781,164.5313 Q844.4063,162.875 846.9063,162.875 Q847.6094,162.875 848.25,163.0313 Q848.9063,163.1875 849.4688,163.4844 L849.4688,166.2031 Q848.8438,165.625 848.25,165.3594 Q847.6563,165.0781 847.0313,165.0781 Q845.6875,165.0781 845,166.1563 Q844.3125,167.2188 844.3125,169.3125 Q844.3125,171.4063 845,172.4844 Q845.6875,173.5469 847.0313,173.5469 Q847.6563,173.5469 848.25,173.2813 Q848.8438,173 849.4688,172.4219 L849.4688,175.1406 Z "/><text fill="#000000" font-family="sans-serif" font-size="12" lengthAdjust="spacingAndGlyphs" textLength="143" x="860.5" y="174.156">RegisteredUserController</text><line style="stroke: #A80036; stroke-width: 1.5;" x1="832.5" x2="1005.5" y1="185.5" y2="185.5"/><line style="stroke: #A80036; stroke-width: 1.5;" x1="832.5" x2="1005.5" y1="193.5" y2="193.5"/><ellipse cx="842.5" cy="204.5" fill="#84BE84" rx="3" ry="3" style="stroke: #038048; stroke-width: 1.0;"/><text fill="#000000" font-family="sans-serif" font-size="11" lengthAdjust="spacingAndGlyphs" textLength="38" x="851.5" y="209.2589">create()</text><ellipse cx="842.5" cy="219.4819" fill="#84BE84" rx="3" ry="3" style="stroke: #038048; stroke-width: 1.0;"/><text fill="#000000" font-family="sans-serif" font-size="11" lengthAdjust="spacingAndGlyphs" textLength="33" x="851.5" y="224.2408">store()</text><!--MD5=[1d7ba1c7002d54515419844fbd155368]
class Controller--><rect fill="#FEFECE" filter="url(#fo6c1b9id5y1k)" height="48" id="Controller" style="stroke: #A80036; stroke-width: 1.5;" width="88" x="875" y="8"/><ellipse cx="890" cy="24" fill="#ADD1B2" rx="11" ry="11" style="stroke: #A80036; stroke-width: 1.0;"/><path d="M892.9688,29.6406 Q892.3906,29.9375 891.75,30.0781 Q891.1094,30.2344 890.4063,30.2344 Q887.9063,30.2344 886.5781,28.5938 Q885.2656,26.9375 885.2656,23.8125 Q885.2656,20.6875 886.5781,19.0313 Q887.9063,17.375 890.4063,17.375 Q891.1094,17.375 891.75,17.5313 Q892.4063,17.6875 892.9688,17.9844 L892.9688,20.7031 Q892.3438,20.125 891.75,19.8594 Q891.1563,19.5781 890.5313,19.5781 Q889.1875,19.5781 888.5,20.6563 Q887.8125,21.7188 887.8125,23.8125 Q887.8125,25.9063 888.5,26.9844 Q889.1875,28.0469 890.5313,28.0469 Q891.1563,28.0469 891.75,27.7813 Q892.3438,27.5 892.9688,26.9219 L892.9688,29.6406 Z "/><text fill="#000000" font-family="sans-serif" font-size="12" lengthAdjust="spacingAndGlyphs" textLength="56" x="904" y="28.656">Controller</text><line style="stroke: #A80036; stroke-width: 1.5;" x1="876" x2="962" y1="40" y2="40"/><line style="stroke: #A80036; stroke-width: 1.5;" x1="876" x2="962" y1="48" y2="48"/><!--MD5=[f4c6bf9ae90a3969751b03024567ee63]
reverse link BaseCrudController to BbTbPerempuanController--><path d="M339.29,60.81 C297.64,75.04 248.23,94 206,116 C200.08,119.08 194.1,122.44 188.16,125.96 " fill="none" id="BaseCrudController&lt;-BbTbPerempuanController" style="stroke: #A80036; stroke-width: 1.0;"/><polygon fill="none" points="337.25,54.11,358.44,54.42,341.68,67.39,337.25,54.11" style="stroke: #A80036; stroke-width: 1.0;"/><!--MD5=[58d4c4a5fcd089e5f8cad569f2ac3eee]
reverse link BaseCrudController to AmanatKendaraanController--><path d="M402.55,72.56 C393.42,85.7 382.94,100.81 372.57,115.76 " fill="none" id="BaseCrudController&lt;-AmanatKendaraanController" style="stroke: #A80036; stroke-width: 1.0;"/><polygon fill="none" points="396.85,68.49,414.01,56.05,408.35,76.47,396.85,68.49" style="stroke: #A80036; stroke-width: 1.0;"/><!--MD5=[df55bda4595d037b3146e06ffd672da1]
reverse link BaseCrudController to KmsPerempuanController--><path d="M457.45,72.56 C466.58,85.7 477.06,100.81 487.43,115.76 " fill="none" id="BaseCrudController&lt;-KmsPerempuanController" style="stroke: #A80036; stroke-width: 1.0;"/><polygon fill="none" points="451.65,76.47,445.99,56.05,463.15,68.49,451.65,76.47" style="stroke: #A80036; stroke-width: 1.0;"/><!--MD5=[5e436f3515ef3f42b003f06ee75c3fb7]
reverse link BaseCrudController to UsgTri1Controller--><path d="M520.65,59.57 C560.66,73.34 607.28,92.29 646,116 C652.02,119.69 658.01,123.83 663.85,128.23 " fill="none" id="BaseCrudController&lt;-UsgTri1Controller" style="stroke: #A80036; stroke-width: 1.0;"/><polygon fill="none" points="518.37,66.18,501.61,53.22,522.79,52.9,518.37,66.18" style="stroke: #A80036; stroke-width: 1.0;"/><!--MD5=[f99d6d40a726f62bf00d2d3ab3aaef1b]
reverse link Controller to RegisteredUserController--><path d="M919,76.26 C919,100.39 919,130.16 919,153.39 " fill="none" id="Controller&lt;-RegisteredUserController" style="stroke: #A80036; stroke-width: 1.0;"/><polygon fill="none" points="912,76.05,919,56.05,926,76.05,912,76.05" style="stroke: #A80036; stroke-width: 1.0;"/><!--MD5=[a59cd35deb33ad12f307ac5629ff71fa]
@startuml

class BbTbPerempuanController extends BaseCrudController {
  +index()
  +create()
  +store()
  +update()
  +edit()
  +destroy()
  +ajax()
}

class AmanatKendaraanController extends BaseCrudController {
  +index()
  +create()
  +store()
  +update()
  +edit()
  +destroy()
  +ajax()
}

class KmsPerempuanController extends BaseCrudController {
  +index()
  +create()
  +store()
  +update()
  +edit()
  +destroy()
  +ajax()
}

class UsgTri1Controller extends BaseCrudController {
  +index()
  +create()
  +store()
  +update()
  +edit()
  +destroy()
  +ajax()
}

class RegisteredUserController extends Controller {
  +create()
  +store()
}

@enduml

PlantUML version 1.2020.02(Sun Mar 01 17:22:07 WIB 2020)
(GPL source distribution)
Java Runtime: OpenJDK Runtime Environment
JVM: OpenJDK 64-Bit Server VM
Java Version: 21.0.7+6-Ubuntu-0ubuntu124.04
Operating System: Linux
Default Encoding: UTF-8
Language: en
Country: US
--></g></svg>