<?xml version="1.0" encoding="UTF-8" standalone="no"?><svg xmlns="http://www.w3.org/2000/svg" xmlns:xlink="http://www.w3.org/1999/xlink" contentScriptType="application/ecmascript" contentStyleType="text/css" height="279px" preserveAspectRatio="none" style="width:1049px;height:279px;" version="1.1" viewBox="0 0 1049 279" width="1049px" zoomAndPan="magnify"><defs><filter height="300%" id="fhx9ttuexui1j" width="300%" x="-1" y="-1"><feGaussianBlur result="blurOut" stdDeviation="2.0"/><feColorMatrix in="blurOut" result="blurOut2" type="matrix" values="0 0 0 0 0 0 0 0 0 0 0 0 0 0 0 0 0 0 .4 0"/><feOffset dx="4.0" dy="4.0" in="blurOut2" result="blurOut3"/><feBlend in="SourceGraphic" in2="blurOut3" mode="normal"/></filter></defs><g><!--MD5=[75b4e00e820b8b7eea57c377cbdf4ea6]
class TbULakiController--><rect fill="#FEFECE" filter="url(#fhx9ttuexui1j)" height="152.8732" id="TbULakiController" style="stroke: #A80036; stroke-width: 1.5;" width="133" x="6" y="116"/><ellipse cx="21" cy="132" fill="#ADD1B2" rx="11" ry="11" style="stroke: #A80036; stroke-width: 1.0;"/><path d="M23.9688,137.6406 Q23.3906,137.9375 22.75,138.0781 Q22.1094,138.2344 21.4063,138.2344 Q18.9063,138.2344 17.5781,136.5938 Q16.2656,134.9375 16.2656,131.8125 Q16.2656,128.6875 17.5781,127.0313 Q18.9063,125.375 21.4063,125.375 Q22.1094,125.375 22.75,125.5313 Q23.4063,125.6875 23.9688,125.9844 L23.9688,128.7031 Q23.3438,128.125 22.75,127.8594 Q22.1563,127.5781 21.5313,127.5781 Q20.1875,127.5781 19.5,128.6563 Q18.8125,129.7188 18.8125,131.8125 Q18.8125,133.9063 19.5,134.9844 Q20.1875,136.0469 21.5313,136.0469 Q22.1563,136.0469 22.75,135.7813 Q23.3438,135.5 23.9688,134.9219 L23.9688,137.6406 Z "/><text fill="#000000" font-family="sans-serif" font-size="12" lengthAdjust="spacingAndGlyphs" textLength="101" x="35" y="136.656">TbULakiController</text><line style="stroke: #A80036; stroke-width: 1.5;" x1="7" x2="138" y1="148" y2="148"/><line style="stroke: #A80036; stroke-width: 1.5;" x1="7" x2="138" y1="156" y2="156"/><ellipse cx="17" cy="167" fill="#84BE84" rx="3" ry="3" style="stroke: #038048; stroke-width: 1.0;"/><text fill="#000000" font-family="sans-serif" font-size="11" lengthAdjust="spacingAndGlyphs" textLength="35" x="26" y="171.7589">index()</text><ellipse cx="17" cy="181.9819" fill="#84BE84" rx="3" ry="3" style="stroke: #038048; stroke-width: 1.0;"/><text fill="#000000" font-family="sans-serif" font-size="11" lengthAdjust="spacingAndGlyphs" textLength="38" x="26" y="186.7408">create()</text><ellipse cx="17" cy="196.9638" fill="#84BE84" rx="3" ry="3" style="stroke: #038048; stroke-width: 1.0;"/><text fill="#000000" font-family="sans-serif" font-size="11" lengthAdjust="spacingAndGlyphs" textLength="33" x="26" y="201.7227">store()</text><ellipse cx="17" cy="211.9457" fill="#84BE84" rx="3" ry="3" style="stroke: #038048; stroke-width: 1.0;"/><text fill="#000000" font-family="sans-serif" font-size="11" lengthAdjust="spacingAndGlyphs" textLength="43" x="26" y="216.7046">update()</text><ellipse cx="17" cy="226.9276" fill="#84BE84" rx="3" ry="3" style="stroke: #038048; stroke-width: 1.0;"/><text fill="#000000" font-family="sans-serif" font-size="11" lengthAdjust="spacingAndGlyphs" textLength="26" x="26" y="231.6865">edit()</text><ellipse cx="17" cy="241.9094" fill="#84BE84" rx="3" ry="3" style="stroke: #038048; stroke-width: 1.0;"/><text fill="#000000" font-family="sans-serif" font-size="11" lengthAdjust="spacingAndGlyphs" textLength="46" x="26" y="246.6684">destroy()</text><ellipse cx="17" cy="256.8913" fill="#84BE84" rx="3" ry="3" style="stroke: #038048; stroke-width: 1.0;"/><text fill="#000000" font-family="sans-serif" font-size="11" lengthAdjust="spacingAndGlyphs" textLength="27" x="26" y="261.6502">ajax()</text><!--MD5=[a91429b804a8b5b16e6c31526b722d6a]
class BaseCrudController--><rect fill="#FEFECE" filter="url(#fhx9ttuexui1j)" height="48" id="BaseCrudController" style="stroke: #A80036; stroke-width: 1.5;" width="143" x="413" y="8"/><ellipse cx="428" cy="24" fill="#ADD1B2" rx="11" ry="11" style="stroke: #A80036; stroke-width: 1.0;"/><path d="M430.9688,29.6406 Q430.3906,29.9375 429.75,30.0781 Q429.1094,30.2344 428.4063,30.2344 Q425.9063,30.2344 424.5781,28.5938 Q423.2656,26.9375 423.2656,23.8125 Q423.2656,20.6875 424.5781,19.0313 Q425.9063,17.375 428.4063,17.375 Q429.1094,17.375 429.75,17.5313 Q430.4063,17.6875 430.9688,17.9844 L430.9688,20.7031 Q430.3438,20.125 429.75,19.8594 Q429.1563,19.5781 428.5313,19.5781 Q427.1875,19.5781 426.5,20.6563 Q425.8125,21.7188 425.8125,23.8125 Q425.8125,25.9063 426.5,26.9844 Q427.1875,28.0469 428.5313,28.0469 Q429.1563,28.0469 429.75,27.7813 Q430.3438,27.5 430.9688,26.9219 L430.9688,29.6406 Z "/><text fill="#000000" font-family="sans-serif" font-size="12" lengthAdjust="spacingAndGlyphs" textLength="111" x="442" y="28.656">BaseCrudController</text><line style="stroke: #A80036; stroke-width: 1.5;" x1="414" x2="555" y1="40" y2="40"/><line style="stroke: #A80036; stroke-width: 1.5;" x1="414" x2="555" y1="48" y2="48"/><!--MD5=[91d161b9862b9600b168a1322c19744d]
class KeteranganLahirController--><rect fill="#FEFECE" filter="url(#fhx9ttuexui1j)" height="152.8732" id="KeteranganLahirController" style="stroke: #A80036; stroke-width: 1.5;" width="181" x="174" y="116"/><ellipse cx="189" cy="132" fill="#ADD1B2" rx="11" ry="11" style="stroke: #A80036; stroke-width: 1.0;"/><path d="M191.9688,137.6406 Q191.3906,137.9375 190.75,138.0781 Q190.1094,138.2344 189.4063,138.2344 Q186.9063,138.2344 185.5781,136.5938 Q184.2656,134.9375 184.2656,131.8125 Q184.2656,128.6875 185.5781,127.0313 Q186.9063,125.375 189.4063,125.375 Q190.1094,125.375 190.75,125.5313 Q191.4063,125.6875 191.9688,125.9844 L191.9688,128.7031 Q191.3438,128.125 190.75,127.8594 Q190.1563,127.5781 189.5313,127.5781 Q188.1875,127.5781 187.5,128.6563 Q186.8125,129.7188 186.8125,131.8125 Q186.8125,133.9063 187.5,134.9844 Q188.1875,136.0469 189.5313,136.0469 Q190.1563,136.0469 190.75,135.7813 Q191.3438,135.5 191.9688,134.9219 L191.9688,137.6406 Z "/><text fill="#000000" font-family="sans-serif" font-size="12" lengthAdjust="spacingAndGlyphs" textLength="149" x="203" y="136.656">KeteranganLahirController</text><line style="stroke: #A80036; stroke-width: 1.5;" x1="175" x2="354" y1="148" y2="148"/><line style="stroke: #A80036; stroke-width: 1.5;" x1="175" x2="354" y1="156" y2="156"/><ellipse cx="185" cy="167" fill="#84BE84" rx="3" ry="3" style="stroke: #038048; stroke-width: 1.0;"/><text fill="#000000" font-family="sans-serif" font-size="11" lengthAdjust="spacingAndGlyphs" textLength="35" x="194" y="171.7589">index()</text><ellipse cx="185" cy="181.9819" fill="#84BE84" rx="3" ry="3" style="stroke: #038048; stroke-width: 1.0;"/><text fill="#000000" font-family="sans-serif" font-size="11" lengthAdjust="spacingAndGlyphs" textLength="38" x="194" y="186.7408">create()</text><ellipse cx="185" cy="196.9638" fill="#84BE84" rx="3" ry="3" style="stroke: #038048; stroke-width: 1.0;"/><text fill="#000000" font-family="sans-serif" font-size="11" lengthAdjust="spacingAndGlyphs" textLength="33" x="194" y="201.7227">store()</text><ellipse cx="185" cy="211.9457" fill="#84BE84" rx="3" ry="3" style="stroke: #038048; stroke-width: 1.0;"/><text fill="#000000" font-family="sans-serif" font-size="11" lengthAdjust="spacingAndGlyphs" textLength="43" x="194" y="216.7046">update()</text><ellipse cx="185" cy="226.9276" fill="#84BE84" rx="3" ry="3" style="stroke: #038048; stroke-width: 1.0;"/><text fill="#000000" font-family="sans-serif" font-size="11" lengthAdjust="spacingAndGlyphs" textLength="26" x="194" y="231.6865">edit()</text><ellipse cx="185" cy="241.9094" fill="#84BE84" rx="3" ry="3" style="stroke: #038048; stroke-width: 1.0;"/><text fill="#000000" font-family="sans-serif" font-size="11" lengthAdjust="spacingAndGlyphs" textLength="46" x="194" y="246.6684">destroy()</text><ellipse cx="185" cy="256.8913" fill="#84BE84" rx="3" ry="3" style="stroke: #038048; stroke-width: 1.0;"/><text fill="#000000" font-family="sans-serif" font-size="11" lengthAdjust="spacingAndGlyphs" textLength="27" x="194" y="261.6502">ajax()</text><!--MD5=[5a8b11ca30bfbe8ffa6be321f5daa2c1]
class LingkarKepalaLakiController--><rect fill="#FEFECE" filter="url(#fhx9ttuexui1j)" height="152.8732" id="LingkarKepalaLakiController" style="stroke: #A80036; stroke-width: 1.5;" width="189" x="390" y="116"/><ellipse cx="405" cy="132" fill="#ADD1B2" rx="11" ry="11" style="stroke: #A80036; stroke-width: 1.0;"/><path d="M407.9688,137.6406 Q407.3906,137.9375 406.75,138.0781 Q406.1094,138.2344 405.4063,138.2344 Q402.9063,138.2344 401.5781,136.5938 Q400.2656,134.9375 400.2656,131.8125 Q400.2656,128.6875 401.5781,127.0313 Q402.9063,125.375 405.4063,125.375 Q406.1094,125.375 406.75,125.5313 Q407.4063,125.6875 407.9688,125.9844 L407.9688,128.7031 Q407.3438,128.125 406.75,127.8594 Q406.1563,127.5781 405.5313,127.5781 Q404.1875,127.5781 403.5,128.6563 Q402.8125,129.7188 402.8125,131.8125 Q402.8125,133.9063 403.5,134.9844 Q404.1875,136.0469 405.5313,136.0469 Q406.1563,136.0469 406.75,135.7813 Q407.3438,135.5 407.9688,134.9219 L407.9688,137.6406 Z "/><text fill="#000000" font-family="sans-serif" font-size="12" lengthAdjust="spacingAndGlyphs" textLength="157" x="419" y="136.656">LingkarKepalaLakiController</text><line style="stroke: #A80036; stroke-width: 1.5;" x1="391" x2="578" y1="148" y2="148"/><line style="stroke: #A80036; stroke-width: 1.5;" x1="391" x2="578" y1="156" y2="156"/><ellipse cx="401" cy="167" fill="#84BE84" rx="3" ry="3" style="stroke: #038048; stroke-width: 1.0;"/><text fill="#000000" font-family="sans-serif" font-size="11" lengthAdjust="spacingAndGlyphs" textLength="35" x="410" y="171.7589">index()</text><ellipse cx="401" cy="181.9819" fill="#84BE84" rx="3" ry="3" style="stroke: #038048; stroke-width: 1.0;"/><text fill="#000000" font-family="sans-serif" font-size="11" lengthAdjust="spacingAndGlyphs" textLength="38" x="410" y="186.7408">create()</text><ellipse cx="401" cy="196.9638" fill="#84BE84" rx="3" ry="3" style="stroke: #038048; stroke-width: 1.0;"/><text fill="#000000" font-family="sans-serif" font-size="11" lengthAdjust="spacingAndGlyphs" textLength="33" x="410" y="201.7227">store()</text><ellipse cx="401" cy="211.9457" fill="#84BE84" rx="3" ry="3" style="stroke: #038048; stroke-width: 1.0;"/><text fill="#000000" font-family="sans-serif" font-size="11" lengthAdjust="spacingAndGlyphs" textLength="43" x="410" y="216.7046">update()</text><ellipse cx="401" cy="226.9276" fill="#84BE84" rx="3" ry="3" style="stroke: #038048; stroke-width: 1.0;"/><text fill="#000000" font-family="sans-serif" font-size="11" lengthAdjust="spacingAndGlyphs" textLength="26" x="410" y="231.6865">edit()</text><ellipse cx="401" cy="241.9094" fill="#84BE84" rx="3" ry="3" style="stroke: #038048; stroke-width: 1.0;"/><text fill="#000000" font-family="sans-serif" font-size="11" lengthAdjust="spacingAndGlyphs" textLength="46" x="410" y="246.6684">destroy()</text><ellipse cx="401" cy="256.8913" fill="#84BE84" rx="3" ry="3" style="stroke: #038048; stroke-width: 1.0;"/><text fill="#000000" font-family="sans-serif" font-size="11" lengthAdjust="spacingAndGlyphs" textLength="27" x="410" y="261.6502">ajax()</text><!--MD5=[58e73123fad2831b4311c4fa43e54c0f]
class PenyimpanganEmosionalController--><rect fill="#FEFECE" filter="url(#fhx9ttuexui1j)" height="152.8732" id="PenyimpanganEmosionalController" style="stroke: #A80036; stroke-width: 1.5;" width="229" x="614" y="116"/><ellipse cx="629" cy="132" fill="#ADD1B2" rx="11" ry="11" style="stroke: #A80036; stroke-width: 1.0;"/><path d="M631.9688,137.6406 Q631.3906,137.9375 630.75,138.0781 Q630.1094,138.2344 629.4063,138.2344 Q626.9063,138.2344 625.5781,136.5938 Q624.2656,134.9375 624.2656,131.8125 Q624.2656,128.6875 625.5781,127.0313 Q626.9063,125.375 629.4063,125.375 Q630.1094,125.375 630.75,125.5313 Q631.4063,125.6875 631.9688,125.9844 L631.9688,128.7031 Q631.3438,128.125 630.75,127.8594 Q630.1563,127.5781 629.5313,127.5781 Q628.1875,127.5781 627.5,128.6563 Q626.8125,129.7188 626.8125,131.8125 Q626.8125,133.9063 627.5,134.9844 Q628.1875,136.0469 629.5313,136.0469 Q630.1563,136.0469 630.75,135.7813 Q631.3438,135.5 631.9688,134.9219 L631.9688,137.6406 Z "/><text fill="#000000" font-family="sans-serif" font-size="12" lengthAdjust="spacingAndGlyphs" textLength="197" x="643" y="136.656">PenyimpanganEmosionalController</text><line style="stroke: #A80036; stroke-width: 1.5;" x1="615" x2="842" y1="148" y2="148"/><line style="stroke: #A80036; stroke-width: 1.5;" x1="615" x2="842" y1="156" y2="156"/><ellipse cx="625" cy="167" fill="#84BE84" rx="3" ry="3" style="stroke: #038048; stroke-width: 1.0;"/><text fill="#000000" font-family="sans-serif" font-size="11" lengthAdjust="spacingAndGlyphs" textLength="35" x="634" y="171.7589">index()</text><ellipse cx="625" cy="181.9819" fill="#84BE84" rx="3" ry="3" style="stroke: #038048; stroke-width: 1.0;"/><text fill="#000000" font-family="sans-serif" font-size="11" lengthAdjust="spacingAndGlyphs" textLength="38" x="634" y="186.7408">create()</text><ellipse cx="625" cy="196.9638" fill="#84BE84" rx="3" ry="3" style="stroke: #038048; stroke-width: 1.0;"/><text fill="#000000" font-family="sans-serif" font-size="11" lengthAdjust="spacingAndGlyphs" textLength="33" x="634" y="201.7227">store()</text><ellipse cx="625" cy="211.9457" fill="#84BE84" rx="3" ry="3" style="stroke: #038048; stroke-width: 1.0;"/><text fill="#000000" font-family="sans-serif" font-size="11" lengthAdjust="spacingAndGlyphs" textLength="43" x="634" y="216.7046">update()</text><ellipse cx="625" cy="226.9276" fill="#84BE84" rx="3" ry="3" style="stroke: #038048; stroke-width: 1.0;"/><text fill="#000000" font-family="sans-serif" font-size="11" lengthAdjust="spacingAndGlyphs" textLength="26" x="634" y="231.6865">edit()</text><ellipse cx="625" cy="241.9094" fill="#84BE84" rx="3" ry="3" style="stroke: #038048; stroke-width: 1.0;"/><text fill="#000000" font-family="sans-serif" font-size="11" lengthAdjust="spacingAndGlyphs" textLength="46" x="634" y="246.6684">destroy()</text><ellipse cx="625" cy="256.8913" fill="#84BE84" rx="3" ry="3" style="stroke: #038048; stroke-width: 1.0;"/><text fill="#000000" font-family="sans-serif" font-size="11" lengthAdjust="spacingAndGlyphs" textLength="27" x="634" y="261.6502">ajax()</text><!--MD5=[4d617d0f32570d09521520d1d0836334]
class RujukanAnakController--><rect fill="#FEFECE" filter="url(#fhx9ttuexui1j)" height="152.8732" id="RujukanAnakController" style="stroke: #A80036; stroke-width: 1.5;" width="160" x="878.5" y="116"/><ellipse cx="893.5" cy="132" fill="#ADD1B2" rx="11" ry="11" style="stroke: #A80036; stroke-width: 1.0;"/><path d="M896.4688,137.6406 Q895.8906,137.9375 895.25,138.0781 Q894.6094,138.2344 893.9063,138.2344 Q891.4063,138.2344 890.0781,136.5938 Q888.7656,134.9375 888.7656,131.8125 Q888.7656,128.6875 890.0781,127.0313 Q891.4063,125.375 893.9063,125.375 Q894.6094,125.375 895.25,125.5313 Q895.9063,125.6875 896.4688,125.9844 L896.4688,128.7031 Q895.8438,128.125 895.25,127.8594 Q894.6563,127.5781 894.0313,127.5781 Q892.6875,127.5781 892,128.6563 Q891.3125,129.7188 891.3125,131.8125 Q891.3125,133.9063 892,134.9844 Q892.6875,136.0469 894.0313,136.0469 Q894.6563,136.0469 895.25,135.7813 Q895.8438,135.5 896.4688,134.9219 L896.4688,137.6406 Z "/><text fill="#000000" font-family="sans-serif" font-size="12" lengthAdjust="spacingAndGlyphs" textLength="128" x="907.5" y="136.656">RujukanAnakController</text><line style="stroke: #A80036; stroke-width: 1.5;" x1="879.5" x2="1037.5" y1="148" y2="148"/><line style="stroke: #A80036; stroke-width: 1.5;" x1="879.5" x2="1037.5" y1="156" y2="156"/><ellipse cx="889.5" cy="167" fill="#84BE84" rx="3" ry="3" style="stroke: #038048; stroke-width: 1.0;"/><text fill="#000000" font-family="sans-serif" font-size="11" lengthAdjust="spacingAndGlyphs" textLength="35" x="898.5" y="171.7589">index()</text><ellipse cx="889.5" cy="181.9819" fill="#84BE84" rx="3" ry="3" style="stroke: #038048; stroke-width: 1.0;"/><text fill="#000000" font-family="sans-serif" font-size="11" lengthAdjust="spacingAndGlyphs" textLength="38" x="898.5" y="186.7408">create()</text><ellipse cx="889.5" cy="196.9638" fill="#84BE84" rx="3" ry="3" style="stroke: #038048; stroke-width: 1.0;"/><text fill="#000000" font-family="sans-serif" font-size="11" lengthAdjust="spacingAndGlyphs" textLength="33" x="898.5" y="201.7227">store()</text><ellipse cx="889.5" cy="211.9457" fill="#84BE84" rx="3" ry="3" style="stroke: #038048; stroke-width: 1.0;"/><text fill="#000000" font-family="sans-serif" font-size="11" lengthAdjust="spacingAndGlyphs" textLength="43" x="898.5" y="216.7046">update()</text><ellipse cx="889.5" cy="226.9276" fill="#84BE84" rx="3" ry="3" style="stroke: #038048; stroke-width: 1.0;"/><text fill="#000000" font-family="sans-serif" font-size="11" lengthAdjust="spacingAndGlyphs" textLength="26" x="898.5" y="231.6865">edit()</text><ellipse cx="889.5" cy="241.9094" fill="#84BE84" rx="3" ry="3" style="stroke: #038048; stroke-width: 1.0;"/><text fill="#000000" font-family="sans-serif" font-size="11" lengthAdjust="spacingAndGlyphs" textLength="46" x="898.5" y="246.6684">destroy()</text><ellipse cx="889.5" cy="256.8913" fill="#84BE84" rx="3" ry="3" style="stroke: #038048; stroke-width: 1.0;"/><text fill="#000000" font-family="sans-serif" font-size="11" lengthAdjust="spacingAndGlyphs" textLength="27" x="898.5" y="261.6502">ajax()</text><!--MD5=[55af4e7faffd261ee3cb9c1690836367]
reverse link BaseCrudController to TbULakiController--><path d="M392.9,44.07 C324.63,55.12 230.75,76.39 156.5,116 C150.62,119.14 144.82,122.77 139.18,126.72 " fill="none" id="BaseCrudController&lt;-TbULakiController" style="stroke: #A80036; stroke-width: 1.0;"/><polygon fill="none" points="391.94,37.13,412.77,41.02,394.07,50.97,391.94,37.13" style="stroke: #A80036; stroke-width: 1.0;"/><!--MD5=[4c747d5446c2554c58bec4ca689dbacd]
reverse link BaseCrudController to KeteranganLahirController--><path d="M436.27,67.75 C412.44,84.92 382.87,106.22 355.03,126.28 " fill="none" id="BaseCrudController&lt;-KeteranganLahirController" style="stroke: #A80036; stroke-width: 1.0;"/><polygon fill="none" points="432.19,62.06,452.51,56.05,440.37,73.42,432.19,62.06" style="stroke: #A80036; stroke-width: 1.0;"/><!--MD5=[595e7985b1a6aa7bf26e8962c40ed38a]
reverse link BaseCrudController to LingkarKepalaLakiController--><path d="M484.5,76.19 C484.5,88.45 484.5,102.17 484.5,115.76 " fill="none" id="BaseCrudController&lt;-LingkarKepalaLakiController" style="stroke: #A80036; stroke-width: 1.0;"/><polygon fill="none" points="477.5,76.05,484.5,56.05,491.5,76.05,477.5,76.05" style="stroke: #A80036; stroke-width: 1.0;"/><!--MD5=[d3c10af97d70699fce7e7665d407c927]
reverse link BaseCrudController to PenyimpanganEmosionalController--><path d="M536.97,67.08 C559.56,81.76 586.91,99.53 613.8,116.99 " fill="none" id="BaseCrudController&lt;-PenyimpanganEmosionalController" style="stroke: #A80036; stroke-width: 1.0;"/><polygon fill="none" points="532.94,72.81,519.98,56.05,540.56,61.07,532.94,72.81" style="stroke: #A80036; stroke-width: 1.0;"/><!--MD5=[81eab0664a0856a43764dfcd6b7932ea]
reverse link BaseCrudController to RujukanAnakController--><path d="M575.95,41.85 C654.4,52.04 768.94,73.25 860.5,116 C866.53,118.82 872.54,122.06 878.44,125.58 " fill="none" id="BaseCrudController&lt;-RujukanAnakController" style="stroke: #A80036; stroke-width: 1.0;"/><polygon fill="none" points="575.07,48.79,556.08,39.4,576.78,34.9,575.07,48.79" style="stroke: #A80036; stroke-width: 1.0;"/><!--MD5=[765229d619065b6f973829eb1c866832]
@startuml

class TbULakiController extends BaseCrudController {
  +index()
  +create()
  +store()
  +update()
  +edit()
  +destroy()
  +ajax()
}

class KeteranganLahirController extends BaseCrudController {
  +index()
  +create()
  +store()
  +update()
  +edit()
  +destroy()
  +ajax()
}

class LingkarKepalaLakiController extends BaseCrudController {
  +index()
  +create()
  +store()
  +update()
  +edit()
  +destroy()
  +ajax()
}

class PenyimpanganEmosionalController extends BaseCrudController {
  +index()
  +create()
  +store()
  +update()
  +edit()
  +destroy()
  +ajax()
}

class RujukanAnakController extends BaseCrudController {
  +index()
  +create()
  +store()
  +update()
  +edit()
  +destroy()
  +ajax()
}

@enduml

PlantUML version 1.2020.02(Sun Mar 01 17:22:07 WIB 2020)
(GPL source distribution)
Java Runtime: OpenJDK Runtime Environment
JVM: OpenJDK 64-Bit Server VM
Java Version: 21.0.7+6-Ubuntu-0ubuntu124.04
Operating System: Linux
Default Encoding: UTF-8
Language: en
Country: US
--></g></svg>