<?xml version="1.0" encoding="UTF-8" standalone="no"?>
<!DOCTYPE svg PUBLIC "-//W3C//DTD SVG 1.1//EN"
 "http://www.w3.org/Graphics/SVG/1.1/DTD/svg11.dtd">
<!-- Generated by graphviz version 2.43.0 (0)
 -->
<!-- Title: G Pages: 1 -->
<svg width="738pt" height="1123pt"
 viewBox="0.00 0.00 738.00 1123.00" xmlns="http://www.w3.org/2000/svg" xmlns:xlink="http://www.w3.org/1999/xlink">
<g id="graph0" class="graph" transform="scale(1 1) rotate(0) translate(36 1087)">
<title>G</title>
<polygon fill="#f7f7f7" stroke="transparent" points="-36,36 -36,-1087 702,-1087 702,36 -36,36"/>
<!-- appmodelsanak -->
<g id="node1" class="node">
<title>appmodelsanak</title>
<polygon fill="none" stroke="black" points="300,-851 0,-851 0,0 300,0 300,-851"/>
<polygon fill="#d3d3d3" stroke="transparent" points="0,-813.5 0,-850.5 300,-850.5 300,-813.5 0,-813.5"/>
<polygon fill="none" stroke="black" points="0,-813.5 0,-850.5 300,-850.5 300,-813.5 0,-813.5"/>
<text text-anchor="start" x="132" y="-828.3" font-family="Helvetica Neue" font-size="14.00" fill="#333333">Anak</text>
<polygon fill="#ffffff" stroke="transparent" points="0,-776.5 0,-813.5 300,-813.5 300,-776.5 0,-776.5"/>
<polygon fill="none" stroke="black" points="0,-776.5 0,-813.5 300,-813.5 300,-776.5 0,-776.5"/>
<text text-anchor="start" x="11" y="-791.3" font-family="Helvetica Neue" font-size="14.00" fill="#333333">id_anak (int8)</text>
<polygon fill="#ffffff" stroke="transparent" points="0,-739.5 0,-776.5 300,-776.5 300,-739.5 0,-739.5"/>
<polygon fill="none" stroke="black" points="0,-739.5 0,-776.5 300,-776.5 300,-739.5 0,-739.5"/>
<text text-anchor="start" x="11" y="-754.3" font-family="Helvetica Neue" font-size="14.00" fill="#333333">id_wali (int8)</text>
<polygon fill="#ffffff" stroke="transparent" points="0,-702.5 0,-739.5 300,-739.5 300,-702.5 0,-702.5"/>
<polygon fill="none" stroke="black" points="0,-702.5 0,-739.5 300,-739.5 300,-702.5 0,-702.5"/>
<text text-anchor="start" x="11" y="-717.3" font-family="Helvetica Neue" font-size="14.00" fill="#333333">nama (varchar)</text>
<polygon fill="#ffffff" stroke="transparent" points="0,-665.5 0,-702.5 300,-702.5 300,-665.5 0,-665.5"/>
<polygon fill="none" stroke="black" points="0,-665.5 0,-702.5 300,-702.5 300,-665.5 0,-665.5"/>
<text text-anchor="start" x="11" y="-680.3" font-family="Helvetica Neue" font-size="14.00" fill="#333333">anak_ke (int2)</text>
<polygon fill="#ffffff" stroke="transparent" points="0,-628.5 0,-665.5 300,-665.5 300,-628.5 0,-628.5"/>
<polygon fill="none" stroke="black" points="0,-628.5 0,-665.5 300,-665.5 300,-628.5 0,-628.5"/>
<text text-anchor="start" x="11" y="-643.3" font-family="Helvetica Neue" font-size="14.00" fill="#333333">no_akte_kelahiran (varchar)</text>
<polygon fill="#ffffff" stroke="transparent" points="0,-591.5 0,-628.5 300,-628.5 300,-591.5 0,-591.5"/>
<polygon fill="none" stroke="black" points="0,-591.5 0,-628.5 300,-628.5 300,-591.5 0,-591.5"/>
<text text-anchor="start" x="11" y="-606.3" font-family="Helvetica Neue" font-size="14.00" fill="#333333">nik (bpchar)</text>
<polygon fill="#ffffff" stroke="transparent" points="0,-554.5 0,-591.5 300,-591.5 300,-554.5 0,-554.5"/>
<polygon fill="none" stroke="black" points="0,-554.5 0,-591.5 300,-591.5 300,-554.5 0,-554.5"/>
<text text-anchor="start" x="11" y="-569.3" font-family="Helvetica Neue" font-size="14.00" fill="#333333">tmpt_lahir (varchar)</text>
<polygon fill="#ffffff" stroke="transparent" points="0,-517.5 0,-554.5 300,-554.5 300,-517.5 0,-517.5"/>
<polygon fill="none" stroke="black" points="0,-517.5 0,-554.5 300,-554.5 300,-517.5 0,-517.5"/>
<text text-anchor="start" x="11" y="-532.3" font-family="Helvetica Neue" font-size="14.00" fill="#333333">tgl_lahir (date)</text>
<polygon fill="#ffffff" stroke="transparent" points="0,-480.5 0,-517.5 300,-517.5 300,-480.5 0,-480.5"/>
<polygon fill="none" stroke="black" points="0,-480.5 0,-517.5 300,-517.5 300,-480.5 0,-480.5"/>
<text text-anchor="start" x="11" y="-495.3" font-family="Helvetica Neue" font-size="14.00" fill="#333333">gol_darah (bpchar)</text>
<polygon fill="#ffffff" stroke="transparent" points="0,-443.5 0,-480.5 300,-480.5 300,-443.5 0,-443.5"/>
<polygon fill="none" stroke="black" points="0,-443.5 0,-480.5 300,-480.5 300,-443.5 0,-443.5"/>
<text text-anchor="start" x="11" y="-458.3" font-family="Helvetica Neue" font-size="14.00" fill="#333333">jenis_pelayanan (varchar)</text>
<polygon fill="#ffffff" stroke="transparent" points="0,-406.5 0,-443.5 300,-443.5 300,-406.5 0,-406.5"/>
<polygon fill="none" stroke="black" points="0,-406.5 0,-443.5 300,-443.5 300,-406.5 0,-406.5"/>
<text text-anchor="start" x="11" y="-421.3" font-family="Helvetica Neue" font-size="14.00" fill="#333333">no_asuransi (varchar)</text>
<polygon fill="#ffffff" stroke="transparent" points="0,-369.5 0,-406.5 300,-406.5 300,-369.5 0,-369.5"/>
<polygon fill="none" stroke="black" points="0,-369.5 0,-406.5 300,-406.5 300,-369.5 0,-369.5"/>
<text text-anchor="start" x="11" y="-384.3" font-family="Helvetica Neue" font-size="14.00" fill="#333333">tgl_berlaku_asuransi (date)</text>
<polygon fill="#ffffff" stroke="transparent" points="0,-332.5 0,-369.5 300,-369.5 300,-332.5 0,-332.5"/>
<polygon fill="none" stroke="black" points="0,-332.5 0,-369.5 300,-369.5 300,-332.5 0,-332.5"/>
<text text-anchor="start" x="11" y="-347.3" font-family="Helvetica Neue" font-size="14.00" fill="#333333">fasilitas_pelayanan_kesehatan (varchar)</text>
<polygon fill="#ffffff" stroke="transparent" points="0,-295.5 0,-332.5 300,-332.5 300,-295.5 0,-295.5"/>
<polygon fill="none" stroke="black" points="0,-295.5 0,-332.5 300,-332.5 300,-295.5 0,-295.5"/>
<text text-anchor="start" x="11" y="-310.3" font-family="Helvetica Neue" font-size="14.00" fill="#333333">no_reg_kohort_bayi (varchar)</text>
<polygon fill="#ffffff" stroke="transparent" points="0,-258.5 0,-295.5 300,-295.5 300,-258.5 0,-258.5"/>
<polygon fill="none" stroke="black" points="0,-258.5 0,-295.5 300,-295.5 300,-258.5 0,-258.5"/>
<text text-anchor="start" x="11" y="-273.3" font-family="Helvetica Neue" font-size="14.00" fill="#333333">no_reg_kohort_balita (varchar)</text>
<polygon fill="#ffffff" stroke="transparent" points="0,-221.5 0,-258.5 300,-258.5 300,-221.5 0,-221.5"/>
<polygon fill="none" stroke="black" points="0,-221.5 0,-258.5 300,-258.5 300,-221.5 0,-221.5"/>
<text text-anchor="start" x="11" y="-236.3" font-family="Helvetica Neue" font-size="14.00" fill="#333333">no_catatan_medik_rs (varchar)</text>
<polygon fill="#ffffff" stroke="transparent" points="0,-184.5 0,-221.5 300,-221.5 300,-184.5 0,-184.5"/>
<polygon fill="none" stroke="black" points="0,-184.5 0,-221.5 300,-221.5 300,-184.5 0,-184.5"/>
<text text-anchor="start" x="11" y="-199.3" font-family="Helvetica Neue" font-size="14.00" fill="#333333">provinsi (varchar)</text>
<polygon fill="#ffffff" stroke="transparent" points="0,-147.5 0,-184.5 300,-184.5 300,-147.5 0,-147.5"/>
<polygon fill="none" stroke="black" points="0,-147.5 0,-184.5 300,-184.5 300,-147.5 0,-147.5"/>
<text text-anchor="start" x="11" y="-162.3" font-family="Helvetica Neue" font-size="14.00" fill="#333333">kabupaten (varchar)</text>
<polygon fill="#ffffff" stroke="transparent" points="0,-110.5 0,-147.5 300,-147.5 300,-110.5 0,-110.5"/>
<polygon fill="none" stroke="black" points="0,-110.5 0,-147.5 300,-147.5 300,-110.5 0,-110.5"/>
<text text-anchor="start" x="11" y="-125.3" font-family="Helvetica Neue" font-size="14.00" fill="#333333">alamat (text)</text>
<polygon fill="#ffffff" stroke="transparent" points="0,-73.5 0,-110.5 300,-110.5 300,-73.5 0,-73.5"/>
<polygon fill="none" stroke="black" points="0,-73.5 0,-110.5 300,-110.5 300,-73.5 0,-73.5"/>
<text text-anchor="start" x="11" y="-88.3" font-family="Helvetica Neue" font-size="14.00" fill="#333333">telepon (varchar)</text>
<polygon fill="#ffffff" stroke="transparent" points="0,-36.5 0,-73.5 300,-73.5 300,-36.5 0,-36.5"/>
<polygon fill="none" stroke="black" points="0,-36.5 0,-73.5 300,-73.5 300,-36.5 0,-36.5"/>
<text text-anchor="start" x="11" y="-51.3" font-family="Helvetica Neue" font-size="14.00" fill="#333333">created_at (timestamp)</text>
<polygon fill="#ffffff" stroke="transparent" points="0,0.5 0,-36.5 300,-36.5 300,0.5 0,0.5"/>
<polygon fill="none" stroke="black" points="0,0.5 0,-36.5 300,-36.5 300,0.5 0,0.5"/>
<text text-anchor="start" x="11" y="-14.3" font-family="Helvetica Neue" font-size="14.00" fill="#333333">updated_at (timestamp)</text>
</g>
<!-- appmodelspemantauankia -->
<g id="node2" class="node">
<title>appmodelspemantauankia</title>
<polygon fill="none" stroke="black" points="666,-1051 449,-1051 449,-792 666,-792 666,-1051"/>
<polygon fill="#d3d3d3" stroke="transparent" points="449.5,-1013.5 449.5,-1050.5 666.5,-1050.5 666.5,-1013.5 449.5,-1013.5"/>
<polygon fill="none" stroke="black" points="449.5,-1013.5 449.5,-1050.5 666.5,-1050.5 666.5,-1013.5 449.5,-1013.5"/>
<text text-anchor="start" x="503.5" y="-1028.3" font-family="Helvetica Neue" font-size="14.00" fill="#333333">PemantauanKia</text>
<polygon fill="#ffffff" stroke="transparent" points="449.5,-976.5 449.5,-1013.5 666.5,-1013.5 666.5,-976.5 449.5,-976.5"/>
<polygon fill="none" stroke="black" points="449.5,-976.5 449.5,-1013.5 666.5,-1013.5 666.5,-976.5 449.5,-976.5"/>
<text text-anchor="start" x="460.5" y="-991.3" font-family="Helvetica Neue" font-size="14.00" fill="#333333">id_pemantauan_kia (int8)</text>
<polygon fill="#ffffff" stroke="transparent" points="449.5,-939.5 449.5,-976.5 666.5,-976.5 666.5,-939.5 449.5,-939.5"/>
<polygon fill="none" stroke="black" points="449.5,-939.5 449.5,-976.5 666.5,-976.5 666.5,-939.5 449.5,-939.5"/>
<text text-anchor="start" x="460.5" y="-954.3" font-family="Helvetica Neue" font-size="14.00" fill="#333333">id_anak (int8)</text>
<polygon fill="#ffffff" stroke="transparent" points="449.5,-902.5 449.5,-939.5 666.5,-939.5 666.5,-902.5 449.5,-902.5"/>
<polygon fill="none" stroke="black" points="449.5,-902.5 449.5,-939.5 666.5,-939.5 666.5,-902.5 449.5,-902.5"/>
<text text-anchor="start" x="460.5" y="-917.3" font-family="Helvetica Neue" font-size="14.00" fill="#333333">id_ceklis (int8)</text>
<polygon fill="#ffffff" stroke="transparent" points="449.5,-865.5 449.5,-902.5 666.5,-902.5 666.5,-865.5 449.5,-865.5"/>
<polygon fill="none" stroke="black" points="449.5,-865.5 449.5,-902.5 666.5,-902.5 666.5,-865.5 449.5,-865.5"/>
<text text-anchor="start" x="460.5" y="-880.3" font-family="Helvetica Neue" font-size="14.00" fill="#333333">hasil_pemantauan (varchar)</text>
<polygon fill="#ffffff" stroke="transparent" points="449.5,-828.5 449.5,-865.5 666.5,-865.5 666.5,-828.5 449.5,-828.5"/>
<polygon fill="none" stroke="black" points="449.5,-828.5 449.5,-865.5 666.5,-865.5 666.5,-828.5 449.5,-828.5"/>
<text text-anchor="start" x="460.5" y="-843.3" font-family="Helvetica Neue" font-size="14.00" fill="#333333">created_at (timestamp)</text>
<polygon fill="#ffffff" stroke="transparent" points="449.5,-791.5 449.5,-828.5 666.5,-828.5 666.5,-791.5 449.5,-791.5"/>
<polygon fill="none" stroke="black" points="449.5,-791.5 449.5,-828.5 666.5,-828.5 666.5,-791.5 449.5,-791.5"/>
<text text-anchor="start" x="460.5" y="-806.3" font-family="Helvetica Neue" font-size="14.00" fill="#333333">updated_at (timestamp)</text>
</g>
<!-- appmodelsanak&#45;&gt;appmodelspemantauankia -->
<g id="edge1" class="edge">
<title>appmodelsanak:id_anak&#45;&gt;appmodelspemantauankia:id_anak</title>
<path fill="none" stroke="#fcbf49" stroke-width="1.8" d="M300,-795.5C300,-795.5 372,-878.5 372,-878.5 372,-878.5 422.83,-931.31 441.89,-951.12"/>
<polygon fill="#fcbf49" stroke="#fcbf49" stroke-width="1.8" points="442.07,-951.3 445.76,-961.62 445.53,-954.9 449,-958.5 449,-958.5 449,-958.5 445.53,-954.9 452.24,-955.38 442.07,-951.3 442.07,-951.3"/>
<text text-anchor="middle" x="374.5" y="-886.3" font-family="Helvetica Neue" font-size="14.00"> </text>
<text text-anchor="middle" x="314.52" y="-893.87" font-family="Helvetica Neue" font-size="14.00">HasMany</text>
<text text-anchor="middle" x="314.52" y="-878.87" font-family="Helvetica Neue" font-size="14.00">pemantauanKia</text>
</g>
<!-- appmodelspelayanansdidtk -->
<g id="node3" class="node">
<title>appmodelspelayanansdidtk</title>
<polygon fill="none" stroke="black" points="660.5,-719.5 454.5,-719.5 454.5,-423.5 660.5,-423.5 660.5,-719.5"/>
<polygon fill="#d3d3d3" stroke="transparent" points="454.5,-682.5 454.5,-719.5 660.5,-719.5 660.5,-682.5 454.5,-682.5"/>
<polygon fill="none" stroke="black" points="454.5,-682.5 454.5,-719.5 660.5,-719.5 660.5,-682.5 454.5,-682.5"/>
<text text-anchor="start" x="499.5" y="-697.3" font-family="Helvetica Neue" font-size="14.00" fill="#333333">PelayananSdidtk</text>
<polygon fill="#ffffff" stroke="transparent" points="454.5,-645.5 454.5,-682.5 660.5,-682.5 660.5,-645.5 454.5,-645.5"/>
<polygon fill="none" stroke="black" points="454.5,-645.5 454.5,-682.5 660.5,-682.5 660.5,-645.5 454.5,-645.5"/>
<text text-anchor="start" x="465.5" y="-660.3" font-family="Helvetica Neue" font-size="14.00" fill="#333333">id_pelayanan_sdidtk (int8)</text>
<polygon fill="#ffffff" stroke="transparent" points="454.5,-608.5 454.5,-645.5 660.5,-645.5 660.5,-608.5 454.5,-608.5"/>
<polygon fill="none" stroke="black" points="454.5,-608.5 454.5,-645.5 660.5,-645.5 660.5,-608.5 454.5,-608.5"/>
<text text-anchor="start" x="465.5" y="-623.3" font-family="Helvetica Neue" font-size="14.00" fill="#333333">id_anak (int8)</text>
<polygon fill="#ffffff" stroke="transparent" points="454.5,-571.5 454.5,-608.5 660.5,-608.5 660.5,-571.5 454.5,-571.5"/>
<polygon fill="none" stroke="black" points="454.5,-571.5 454.5,-608.5 660.5,-608.5 660.5,-571.5 454.5,-571.5"/>
<text text-anchor="start" x="465.5" y="-586.3" font-family="Helvetica Neue" font-size="14.00" fill="#333333">id_umur_sdidtk (int8)</text>
<polygon fill="#ffffff" stroke="transparent" points="454.5,-534.5 454.5,-571.5 660.5,-571.5 660.5,-534.5 454.5,-534.5"/>
<polygon fill="none" stroke="black" points="454.5,-534.5 454.5,-571.5 660.5,-571.5 660.5,-534.5 454.5,-534.5"/>
<text text-anchor="start" x="465.5" y="-549.3" font-family="Helvetica Neue" font-size="14.00" fill="#333333">tindakan (text)</text>
<polygon fill="#ffffff" stroke="transparent" points="454.5,-497.5 454.5,-534.5 660.5,-534.5 660.5,-497.5 454.5,-497.5"/>
<polygon fill="none" stroke="black" points="454.5,-497.5 454.5,-534.5 660.5,-534.5 660.5,-497.5 454.5,-497.5"/>
<text text-anchor="start" x="465.5" y="-512.3" font-family="Helvetica Neue" font-size="14.00" fill="#333333">kunjungan_ulang (text)</text>
<polygon fill="#ffffff" stroke="transparent" points="454.5,-460.5 454.5,-497.5 660.5,-497.5 660.5,-460.5 454.5,-460.5"/>
<polygon fill="none" stroke="black" points="454.5,-460.5 454.5,-497.5 660.5,-497.5 660.5,-460.5 454.5,-460.5"/>
<text text-anchor="start" x="465.5" y="-475.3" font-family="Helvetica Neue" font-size="14.00" fill="#333333">created_at (timestamp)</text>
<polygon fill="#ffffff" stroke="transparent" points="454.5,-423.5 454.5,-460.5 660.5,-460.5 660.5,-423.5 454.5,-423.5"/>
<polygon fill="none" stroke="black" points="454.5,-423.5 454.5,-460.5 660.5,-460.5 660.5,-423.5 454.5,-423.5"/>
<text text-anchor="start" x="465.5" y="-438.3" font-family="Helvetica Neue" font-size="14.00" fill="#333333">updated_at (timestamp)</text>
</g>
<!-- appmodelsanak&#45;&gt;appmodelspelayanansdidtk -->
<g id="edge2" class="edge">
<title>appmodelsanak:id_anak&#45;&gt;appmodelspelayanansdidtk:id_anak</title>
<path fill="none" stroke="#fcbf49" stroke-width="1.8" d="M300,-795.5C300,-795.5 416.48,-668.02 446.51,-635.16"/>
<polygon fill="#fcbf49" stroke="#fcbf49" stroke-width="1.8" points="446.75,-634.88 456.82,-630.54 450.13,-631.19 453.5,-627.5 453.5,-627.5 453.5,-627.5 450.13,-631.19 450.18,-624.46 446.75,-634.88 446.75,-634.88"/>
<text text-anchor="middle" x="374.5" y="-721.3" font-family="Helvetica Neue" font-size="14.00"> </text>
<text text-anchor="middle" x="431.75" y="-734.13" font-family="Helvetica Neue" font-size="14.00">HasMany</text>
<text text-anchor="middle" x="431.75" y="-719.13" font-family="Helvetica Neue" font-size="14.00">pelayananSdidtk</text>
</g>
<!-- appmodelspemantauankia&#45;&gt;appmodelsanak -->
<g id="edge3" class="edge">
<title>appmodelspemantauankia:id_anak&#45;&gt;appmodelsanak:id_anak</title>
<path fill="none" stroke="#f77f00" stroke-width="1.8" d="M443.35,-950.03C426.38,-924.57 377,-850.5 377,-850.5 377,-850.5 320.13,-809.88 304.14,-798.46"/>
<polygon fill="#f77f00" stroke="#f77f00" stroke-width="1.8" points="443.45,-950.18 445.26,-961 446.23,-954.34 449,-958.5 449,-958.5 449,-958.5 446.23,-954.34 452.74,-956 443.45,-950.18 443.45,-950.18"/>
<polygon fill="#f77f00" stroke="#f77f00" stroke-width="1.8" points="297.91,-800.15 303.72,-792.01 305.35,-793.18 299.53,-801.31 297.91,-800.15"/>
<polyline fill="none" stroke="#f77f00" stroke-width="1.8" points="300,-795.5 304.07,-798.41 "/>
<text text-anchor="middle" x="374.5" y="-854.3" font-family="Helvetica Neue" font-size="14.00"> </text>
<text text-anchor="middle" x="350.34" y="-851.81" font-family="Helvetica Neue" font-size="14.00">BelongsTo</text>
<text text-anchor="middle" x="350.34" y="-836.81" font-family="Helvetica Neue" font-size="14.00">anak</text>
</g>
<!-- appmodelspelayanansdidtk&#45;&gt;appmodelsanak -->
<g id="edge4" class="edge">
<title>appmodelspelayanansdidtk:id_anak&#45;&gt;appmodelsanak:id_anak</title>
<path fill="none" stroke="#f77f00" stroke-width="1.8" d="M444.78,-632.96C423.75,-646.11 372,-678.5 372,-678.5 372,-678.5 315.89,-769.68 302.73,-791.06"/>
<polygon fill="#f77f00" stroke="#f77f00" stroke-width="1.8" points="445.02,-632.8 455.89,-631.31 449.26,-630.15 453.5,-627.5 453.5,-627.5 453.5,-627.5 449.26,-630.15 451.11,-623.69 445.02,-632.8 445.02,-632.8"/>
<polygon fill="#f77f00" stroke="#f77f00" stroke-width="1.8" points="304.78,-797.27 296.27,-792.03 297.31,-790.32 305.83,-795.57 304.78,-797.27"/>
<polyline fill="none" stroke="#f77f00" stroke-width="1.8" points="300,-795.5 302.62,-791.24 "/>
<text text-anchor="middle" x="374.5" y="-682.3" font-family="Helvetica Neue" font-size="14.00"> </text>
<text text-anchor="middle" x="394.86" y="-702.02" font-family="Helvetica Neue" font-size="14.00">BelongsTo</text>
<text text-anchor="middle" x="394.86" y="-687.02" font-family="Helvetica Neue" font-size="14.00">anak</text>
</g>
</g>
</svg>
