<?xml version="1.0" encoding="UTF-8" standalone="no"?>
<!DOCTYPE svg PUBLIC "-//W3C//DTD SVG 1.1//EN"
 "http://www.w3.org/Graphics/SVG/1.1/DTD/svg11.dtd">
<!-- Generated by graphviz version 2.43.0 (0)
 -->
<!-- Title: G Pages: 1 -->
<svg width="643pt" height="1180pt"
 viewBox="0.00 0.00 643.00 1180.00" xmlns="http://www.w3.org/2000/svg" xmlns:xlink="http://www.w3.org/1999/xlink">
<g id="graph0" class="graph" transform="scale(1 1) rotate(0) translate(36 1144)">
<title>G</title>
<polygon fill="#f7f7f7" stroke="transparent" points="-36,36 -36,-1144 607,-1144 607,36 -36,36"/>
<!-- appmodelsibu -->
<g id="node1" class="node">
<title>appmodelsibu</title>
<polygon fill="none" stroke="black" points="228,-839 0,-839 0,-62 228,-62 228,-839"/>
<polygon fill="#d3d3d3" stroke="transparent" points="0,-801.5 0,-838.5 228,-838.5 228,-801.5 0,-801.5"/>
<polygon fill="none" stroke="black" points="0,-801.5 0,-838.5 228,-838.5 228,-801.5 0,-801.5"/>
<text text-anchor="start" x="102.5" y="-816.3" font-family="Helvetica Neue" font-size="14.00" fill="#333333">Ibu</text>
<polygon fill="#ffffff" stroke="transparent" points="0,-764.5 0,-801.5 228,-801.5 228,-764.5 0,-764.5"/>
<polygon fill="none" stroke="black" points="0,-764.5 0,-801.5 228,-801.5 228,-764.5 0,-764.5"/>
<text text-anchor="start" x="11" y="-779.3" font-family="Helvetica Neue" font-size="14.00" fill="#333333">id_ibu (int8)</text>
<polygon fill="#ffffff" stroke="transparent" points="0,-727.5 0,-764.5 228,-764.5 228,-727.5 0,-727.5"/>
<polygon fill="none" stroke="black" points="0,-727.5 0,-764.5 228,-764.5 228,-727.5 0,-727.5"/>
<text text-anchor="start" x="11" y="-742.3" font-family="Helvetica Neue" font-size="14.00" fill="#333333">id_user (int8)</text>
<polygon fill="#ffffff" stroke="transparent" points="0,-690.5 0,-727.5 228,-727.5 228,-690.5 0,-690.5"/>
<polygon fill="none" stroke="black" points="0,-690.5 0,-727.5 228,-727.5 228,-690.5 0,-690.5"/>
<text text-anchor="start" x="11" y="-705.3" font-family="Helvetica Neue" font-size="14.00" fill="#333333">nama (varchar)</text>
<polygon fill="#ffffff" stroke="transparent" points="0,-653.5 0,-690.5 228,-690.5 228,-653.5 0,-653.5"/>
<polygon fill="none" stroke="black" points="0,-653.5 0,-690.5 228,-690.5 228,-653.5 0,-653.5"/>
<text text-anchor="start" x="11" y="-668.3" font-family="Helvetica Neue" font-size="14.00" fill="#333333">pembiayaan (varchar)</text>
<polygon fill="#ffffff" stroke="transparent" points="0,-616.5 0,-653.5 228,-653.5 228,-616.5 0,-616.5"/>
<polygon fill="none" stroke="black" points="0,-616.5 0,-653.5 228,-653.5 228,-616.5 0,-616.5"/>
<text text-anchor="start" x="11" y="-631.3" font-family="Helvetica Neue" font-size="14.00" fill="#333333">no_jkn (varchar)</text>
<polygon fill="#ffffff" stroke="transparent" points="0,-579.5 0,-616.5 228,-616.5 228,-579.5 0,-579.5"/>
<polygon fill="none" stroke="black" points="0,-579.5 0,-616.5 228,-616.5 228,-579.5 0,-579.5"/>
<text text-anchor="start" x="11" y="-594.3" font-family="Helvetica Neue" font-size="14.00" fill="#333333">faskes_tk_1 (varchar)</text>
<polygon fill="#ffffff" stroke="transparent" points="0,-542.5 0,-579.5 228,-579.5 228,-542.5 0,-542.5"/>
<polygon fill="none" stroke="black" points="0,-542.5 0,-579.5 228,-579.5 228,-542.5 0,-542.5"/>
<text text-anchor="start" x="11" y="-557.3" font-family="Helvetica Neue" font-size="14.00" fill="#333333">faskes_rujukan (varchar)</text>
<polygon fill="#ffffff" stroke="transparent" points="0,-505.5 0,-542.5 228,-542.5 228,-505.5 0,-505.5"/>
<polygon fill="none" stroke="black" points="0,-505.5 0,-542.5 228,-542.5 228,-505.5 0,-505.5"/>
<text text-anchor="start" x="11" y="-520.3" font-family="Helvetica Neue" font-size="14.00" fill="#333333">gol_darah (bpchar)</text>
<polygon fill="#ffffff" stroke="transparent" points="0,-468.5 0,-505.5 228,-505.5 228,-468.5 0,-468.5"/>
<polygon fill="none" stroke="black" points="0,-468.5 0,-505.5 228,-505.5 228,-468.5 0,-468.5"/>
<text text-anchor="start" x="11" y="-483.3" font-family="Helvetica Neue" font-size="14.00" fill="#333333">tmpt_lahir (varchar)</text>
<polygon fill="#ffffff" stroke="transparent" points="0,-431.5 0,-468.5 228,-468.5 228,-431.5 0,-431.5"/>
<polygon fill="none" stroke="black" points="0,-431.5 0,-468.5 228,-468.5 228,-431.5 0,-431.5"/>
<text text-anchor="start" x="11" y="-446.3" font-family="Helvetica Neue" font-size="14.00" fill="#333333">tgl_lahir (date)</text>
<polygon fill="#ffffff" stroke="transparent" points="0,-394.5 0,-431.5 228,-431.5 228,-394.5 0,-394.5"/>
<polygon fill="none" stroke="black" points="0,-394.5 0,-431.5 228,-431.5 228,-394.5 0,-394.5"/>
<text text-anchor="start" x="11" y="-409.3" font-family="Helvetica Neue" font-size="14.00" fill="#333333">pendidikan (varchar)</text>
<polygon fill="#ffffff" stroke="transparent" points="0,-357.5 0,-394.5 228,-394.5 228,-357.5 0,-357.5"/>
<polygon fill="none" stroke="black" points="0,-357.5 0,-394.5 228,-394.5 228,-357.5 0,-357.5"/>
<text text-anchor="start" x="11" y="-372.3" font-family="Helvetica Neue" font-size="14.00" fill="#333333">pekerjaan (varchar)</text>
<polygon fill="#ffffff" stroke="transparent" points="0,-320.5 0,-357.5 228,-357.5 228,-320.5 0,-320.5"/>
<polygon fill="none" stroke="black" points="0,-320.5 0,-357.5 228,-357.5 228,-320.5 0,-320.5"/>
<text text-anchor="start" x="11" y="-335.3" font-family="Helvetica Neue" font-size="14.00" fill="#333333">provinsi (varchar)</text>
<polygon fill="#ffffff" stroke="transparent" points="0,-283.5 0,-320.5 228,-320.5 228,-283.5 0,-283.5"/>
<polygon fill="none" stroke="black" points="0,-283.5 0,-320.5 228,-320.5 228,-283.5 0,-283.5"/>
<text text-anchor="start" x="11" y="-298.3" font-family="Helvetica Neue" font-size="14.00" fill="#333333">kabupaten (varchar)</text>
<polygon fill="#ffffff" stroke="transparent" points="0,-246.5 0,-283.5 228,-283.5 228,-246.5 0,-246.5"/>
<polygon fill="none" stroke="black" points="0,-246.5 0,-283.5 228,-283.5 228,-246.5 0,-246.5"/>
<text text-anchor="start" x="11" y="-261.3" font-family="Helvetica Neue" font-size="14.00" fill="#333333">alamat (text)</text>
<polygon fill="#ffffff" stroke="transparent" points="0,-209.5 0,-246.5 228,-246.5 228,-209.5 0,-209.5"/>
<polygon fill="none" stroke="black" points="0,-209.5 0,-246.5 228,-246.5 228,-209.5 0,-209.5"/>
<text text-anchor="start" x="11" y="-224.3" font-family="Helvetica Neue" font-size="14.00" fill="#333333">telepon (varchar)</text>
<polygon fill="#ffffff" stroke="transparent" points="0,-172.5 0,-209.5 228,-209.5 228,-172.5 0,-172.5"/>
<polygon fill="none" stroke="black" points="0,-172.5 0,-209.5 228,-209.5 228,-172.5 0,-172.5"/>
<text text-anchor="start" x="11" y="-187.3" font-family="Helvetica Neue" font-size="14.00" fill="#333333">puskesmas_domisili (varchar)</text>
<polygon fill="#ffffff" stroke="transparent" points="0,-135.5 0,-172.5 228,-172.5 228,-135.5 0,-135.5"/>
<polygon fill="none" stroke="black" points="0,-135.5 0,-172.5 228,-172.5 228,-135.5 0,-135.5"/>
<text text-anchor="start" x="11" y="-150.3" font-family="Helvetica Neue" font-size="14.00" fill="#333333">no_reg_kohort_ibu (varchar)</text>
<polygon fill="#ffffff" stroke="transparent" points="0,-98.5 0,-135.5 228,-135.5 228,-98.5 0,-98.5"/>
<polygon fill="none" stroke="black" points="0,-98.5 0,-135.5 228,-135.5 228,-98.5 0,-98.5"/>
<text text-anchor="start" x="11" y="-113.3" font-family="Helvetica Neue" font-size="14.00" fill="#333333">created_at (timestamp)</text>
<polygon fill="#ffffff" stroke="transparent" points="0,-61.5 0,-98.5 228,-98.5 228,-61.5 0,-61.5"/>
<polygon fill="none" stroke="black" points="0,-61.5 0,-98.5 228,-98.5 228,-61.5 0,-61.5"/>
<text text-anchor="start" x="11" y="-76.3" font-family="Helvetica Neue" font-size="14.00" fill="#333333">updated_at (timestamp)</text>
</g>
<!-- appmodelskeluarga -->
<g id="node2" class="node">
<title>appmodelskeluarga</title>
<polygon fill="none" stroke="black" points="571,-1108 377,-1108 377,-405 571,-405 571,-1108"/>
<polygon fill="#d3d3d3" stroke="transparent" points="377,-1070.5 377,-1107.5 571,-1107.5 571,-1070.5 377,-1070.5"/>
<polygon fill="none" stroke="black" points="377,-1070.5 377,-1107.5 571,-1107.5 571,-1070.5 377,-1070.5"/>
<text text-anchor="start" x="443.5" y="-1085.3" font-family="Helvetica Neue" font-size="14.00" fill="#333333">Keluarga</text>
<polygon fill="#ffffff" stroke="transparent" points="377,-1033.5 377,-1070.5 571,-1070.5 571,-1033.5 377,-1033.5"/>
<polygon fill="none" stroke="black" points="377,-1033.5 377,-1070.5 571,-1070.5 571,-1033.5 377,-1033.5"/>
<text text-anchor="start" x="388" y="-1048.3" font-family="Helvetica Neue" font-size="14.00" fill="#333333">id_keluarga (int8)</text>
<polygon fill="#ffffff" stroke="transparent" points="377,-996.5 377,-1033.5 571,-1033.5 571,-996.5 377,-996.5"/>
<polygon fill="none" stroke="black" points="377,-996.5 377,-1033.5 571,-1033.5 571,-996.5 377,-996.5"/>
<text text-anchor="start" x="388" y="-1011.3" font-family="Helvetica Neue" font-size="14.00" fill="#333333">id_ibu (int8)</text>
<polygon fill="#ffffff" stroke="transparent" points="377,-959.5 377,-996.5 571,-996.5 571,-959.5 377,-959.5"/>
<polygon fill="none" stroke="black" points="377,-959.5 377,-996.5 571,-996.5 571,-959.5 377,-959.5"/>
<text text-anchor="start" x="388" y="-974.3" font-family="Helvetica Neue" font-size="14.00" fill="#333333">nama (varchar)</text>
<polygon fill="#ffffff" stroke="transparent" points="377,-922.5 377,-959.5 571,-959.5 571,-922.5 377,-922.5"/>
<polygon fill="none" stroke="black" points="377,-922.5 377,-959.5 571,-959.5 571,-922.5 377,-922.5"/>
<text text-anchor="start" x="388" y="-937.3" font-family="Helvetica Neue" font-size="14.00" fill="#333333">pembiayaan (varchar)</text>
<polygon fill="#ffffff" stroke="transparent" points="377,-885.5 377,-922.5 571,-922.5 571,-885.5 377,-885.5"/>
<polygon fill="none" stroke="black" points="377,-885.5 377,-922.5 571,-922.5 571,-885.5 377,-885.5"/>
<text text-anchor="start" x="388" y="-900.3" font-family="Helvetica Neue" font-size="14.00" fill="#333333">no_jkn (varchar)</text>
<polygon fill="#ffffff" stroke="transparent" points="377,-848.5 377,-885.5 571,-885.5 571,-848.5 377,-848.5"/>
<polygon fill="none" stroke="black" points="377,-848.5 377,-885.5 571,-885.5 571,-848.5 377,-848.5"/>
<text text-anchor="start" x="388" y="-863.3" font-family="Helvetica Neue" font-size="14.00" fill="#333333">faskes_tk_1 (varchar)</text>
<polygon fill="#ffffff" stroke="transparent" points="377,-811.5 377,-848.5 571,-848.5 571,-811.5 377,-811.5"/>
<polygon fill="none" stroke="black" points="377,-811.5 377,-848.5 571,-848.5 571,-811.5 377,-811.5"/>
<text text-anchor="start" x="388" y="-826.3" font-family="Helvetica Neue" font-size="14.00" fill="#333333">faskes_rujukan (varchar)</text>
<polygon fill="#ffffff" stroke="transparent" points="377,-774.5 377,-811.5 571,-811.5 571,-774.5 377,-774.5"/>
<polygon fill="none" stroke="black" points="377,-774.5 377,-811.5 571,-811.5 571,-774.5 377,-774.5"/>
<text text-anchor="start" x="388" y="-789.3" font-family="Helvetica Neue" font-size="14.00" fill="#333333">gol_darah (bpchar)</text>
<polygon fill="#ffffff" stroke="transparent" points="377,-737.5 377,-774.5 571,-774.5 571,-737.5 377,-737.5"/>
<polygon fill="none" stroke="black" points="377,-737.5 377,-774.5 571,-774.5 571,-737.5 377,-737.5"/>
<text text-anchor="start" x="388" y="-752.3" font-family="Helvetica Neue" font-size="14.00" fill="#333333">tmpt_lahir (varchar)</text>
<polygon fill="#ffffff" stroke="transparent" points="377,-700.5 377,-737.5 571,-737.5 571,-700.5 377,-700.5"/>
<polygon fill="none" stroke="black" points="377,-700.5 377,-737.5 571,-737.5 571,-700.5 377,-700.5"/>
<text text-anchor="start" x="388" y="-715.3" font-family="Helvetica Neue" font-size="14.00" fill="#333333">tgl_lahir (date)</text>
<polygon fill="#ffffff" stroke="transparent" points="377,-663.5 377,-700.5 571,-700.5 571,-663.5 377,-663.5"/>
<polygon fill="none" stroke="black" points="377,-663.5 377,-700.5 571,-700.5 571,-663.5 377,-663.5"/>
<text text-anchor="start" x="388" y="-678.3" font-family="Helvetica Neue" font-size="14.00" fill="#333333">pendidikan (varchar)</text>
<polygon fill="#ffffff" stroke="transparent" points="377,-626.5 377,-663.5 571,-663.5 571,-626.5 377,-626.5"/>
<polygon fill="none" stroke="black" points="377,-626.5 377,-663.5 571,-663.5 571,-626.5 377,-626.5"/>
<text text-anchor="start" x="388" y="-641.3" font-family="Helvetica Neue" font-size="14.00" fill="#333333">pekerjaan (varchar)</text>
<polygon fill="#ffffff" stroke="transparent" points="377,-589.5 377,-626.5 571,-626.5 571,-589.5 377,-589.5"/>
<polygon fill="none" stroke="black" points="377,-589.5 377,-626.5 571,-626.5 571,-589.5 377,-589.5"/>
<text text-anchor="start" x="388" y="-604.3" font-family="Helvetica Neue" font-size="14.00" fill="#333333">provinsi (varchar)</text>
<polygon fill="#ffffff" stroke="transparent" points="377,-552.5 377,-589.5 571,-589.5 571,-552.5 377,-552.5"/>
<polygon fill="none" stroke="black" points="377,-552.5 377,-589.5 571,-589.5 571,-552.5 377,-552.5"/>
<text text-anchor="start" x="388" y="-567.3" font-family="Helvetica Neue" font-size="14.00" fill="#333333">kabupaten (varchar)</text>
<polygon fill="#ffffff" stroke="transparent" points="377,-515.5 377,-552.5 571,-552.5 571,-515.5 377,-515.5"/>
<polygon fill="none" stroke="black" points="377,-515.5 377,-552.5 571,-552.5 571,-515.5 377,-515.5"/>
<text text-anchor="start" x="388" y="-530.3" font-family="Helvetica Neue" font-size="14.00" fill="#333333">alamat (text)</text>
<polygon fill="#ffffff" stroke="transparent" points="377,-478.5 377,-515.5 571,-515.5 571,-478.5 377,-478.5"/>
<polygon fill="none" stroke="black" points="377,-478.5 377,-515.5 571,-515.5 571,-478.5 377,-478.5"/>
<text text-anchor="start" x="388" y="-493.3" font-family="Helvetica Neue" font-size="14.00" fill="#333333">telepon (varchar)</text>
<polygon fill="#ffffff" stroke="transparent" points="377,-441.5 377,-478.5 571,-478.5 571,-441.5 377,-441.5"/>
<polygon fill="none" stroke="black" points="377,-441.5 377,-478.5 571,-478.5 571,-441.5 377,-441.5"/>
<text text-anchor="start" x="388" y="-456.3" font-family="Helvetica Neue" font-size="14.00" fill="#333333">created_at (timestamp)</text>
<polygon fill="#ffffff" stroke="transparent" points="377,-404.5 377,-441.5 571,-441.5 571,-404.5 377,-404.5"/>
<polygon fill="none" stroke="black" points="377,-404.5 377,-441.5 571,-441.5 571,-404.5 377,-404.5"/>
<text text-anchor="start" x="388" y="-419.3" font-family="Helvetica Neue" font-size="14.00" fill="#333333">updated_at (timestamp)</text>
</g>
<!-- appmodelsibu&#45;&gt;appmodelskeluarga -->
<g id="edge1" class="edge">
<title>appmodelsibu:id_ibu&#45;&gt;appmodelskeluarga:id_ibu</title>
<path fill="none" stroke="#fcbf49" stroke-width="1.8" d="M228,-783.5C228,-783.5 344.64,-965.11 371.52,-1006.97"/>
<polygon fill="#fcbf49" stroke="#fcbf49" stroke-width="1.8" points="371.6,-1007.09 373.21,-1017.93 374.3,-1011.29 377,-1015.5 377,-1015.5 377,-1015.5 374.3,-1011.29 380.79,-1013.07 371.6,-1007.09 371.6,-1007.09"/>
<text text-anchor="middle" x="302.5" y="-903.3" font-family="Helvetica Neue" font-size="14.00"> </text>
<text text-anchor="middle" x="267.76" y="-884.03" font-family="Helvetica Neue" font-size="14.00">HasMany</text>
<text text-anchor="middle" x="267.76" y="-869.03" font-family="Helvetica Neue" font-size="14.00">keluarga</text>
</g>
<!-- appmodelskesehatan1 -->
<g id="node3" class="node">
<title>appmodelskesehatan1</title>
<polygon fill="none" stroke="black" points="569,-333 379,-333 379,0 569,0 569,-333"/>
<polygon fill="#d3d3d3" stroke="transparent" points="379,-295.5 379,-332.5 569,-332.5 569,-295.5 379,-295.5"/>
<polygon fill="none" stroke="black" points="379,-295.5 379,-332.5 569,-332.5 569,-295.5 379,-295.5"/>
<text text-anchor="start" x="433" y="-310.3" font-family="Helvetica Neue" font-size="14.00" fill="#333333">Kesehatan1</text>
<polygon fill="#ffffff" stroke="transparent" points="379,-258.5 379,-295.5 569,-295.5 569,-258.5 379,-258.5"/>
<polygon fill="none" stroke="black" points="379,-258.5 379,-295.5 569,-295.5 569,-258.5 379,-258.5"/>
<text text-anchor="start" x="390" y="-273.3" font-family="Helvetica Neue" font-size="14.00" fill="#333333">id_kesehatan1 (int8)</text>
<polygon fill="#ffffff" stroke="transparent" points="379,-221.5 379,-258.5 569,-258.5 569,-221.5 379,-221.5"/>
<polygon fill="none" stroke="black" points="379,-221.5 379,-258.5 569,-258.5 569,-221.5 379,-221.5"/>
<text text-anchor="start" x="390" y="-236.3" font-family="Helvetica Neue" font-size="14.00" fill="#333333">id_ibu (int8)</text>
<polygon fill="#ffffff" stroke="transparent" points="379,-184.5 379,-221.5 569,-221.5 569,-184.5 379,-184.5"/>
<polygon fill="none" stroke="black" points="379,-184.5 379,-221.5 569,-221.5 569,-184.5 379,-184.5"/>
<text text-anchor="start" x="390" y="-199.3" font-family="Helvetica Neue" font-size="14.00" fill="#333333">hpht (date)</text>
<polygon fill="#ffffff" stroke="transparent" points="379,-147.5 379,-184.5 569,-184.5 569,-147.5 379,-147.5"/>
<polygon fill="none" stroke="black" points="379,-147.5 379,-184.5 569,-184.5 569,-147.5 379,-147.5"/>
<text text-anchor="start" x="390" y="-162.3" font-family="Helvetica Neue" font-size="14.00" fill="#333333">bb (int4)</text>
<polygon fill="#ffffff" stroke="transparent" points="379,-110.5 379,-147.5 569,-147.5 569,-110.5 379,-110.5"/>
<polygon fill="none" stroke="black" points="379,-110.5 379,-147.5 569,-147.5 569,-110.5 379,-110.5"/>
<text text-anchor="start" x="390" y="-125.3" font-family="Helvetica Neue" font-size="14.00" fill="#333333">tb (int4)</text>
<polygon fill="#ffffff" stroke="transparent" points="379,-73.5 379,-110.5 569,-110.5 569,-73.5 379,-73.5"/>
<polygon fill="none" stroke="black" points="379,-73.5 379,-110.5 569,-110.5 569,-73.5 379,-73.5"/>
<text text-anchor="start" x="390" y="-88.3" font-family="Helvetica Neue" font-size="14.00" fill="#333333">imt (numeric)</text>
<polygon fill="#ffffff" stroke="transparent" points="379,-36.5 379,-73.5 569,-73.5 569,-36.5 379,-36.5"/>
<polygon fill="none" stroke="black" points="379,-36.5 379,-73.5 569,-73.5 569,-36.5 379,-36.5"/>
<text text-anchor="start" x="390" y="-51.3" font-family="Helvetica Neue" font-size="14.00" fill="#333333">created_at (timestamp)</text>
<polygon fill="#ffffff" stroke="transparent" points="379,0.5 379,-36.5 569,-36.5 569,0.5 379,0.5"/>
<polygon fill="none" stroke="black" points="379,0.5 379,-36.5 569,-36.5 569,0.5 379,0.5"/>
<text text-anchor="start" x="390" y="-14.3" font-family="Helvetica Neue" font-size="14.00" fill="#333333">updated_at (timestamp)</text>
</g>
<!-- appmodelsibu&#45;&gt;appmodelskesehatan1 -->
<g id="edge2" class="edge">
<title>appmodelsibu:id_ibu&#45;&gt;appmodelskesehatan1:id_ibu</title>
<path fill="none" stroke="#fcbf49" stroke-width="1.8" d="M228,-783.5C228,-783.5 305,-522.5 305,-522.5 305,-522.5 362.65,-299.79 375.49,-250.21"/>
<polygon fill="#fcbf49" stroke="#fcbf49" stroke-width="1.8" points="375.49,-250.18 382.36,-241.63 376.75,-245.34 378,-240.5 378,-240.5 378,-240.5 376.75,-245.34 373.64,-239.37 375.49,-250.18 375.49,-250.18"/>
<text text-anchor="middle" x="302.5" y="-539.3" font-family="Helvetica Neue" font-size="14.00"> </text>
<text text-anchor="middle" x="265.65" y="-536.87" font-family="Helvetica Neue" font-size="14.00">HasMany</text>
<text text-anchor="middle" x="265.65" y="-521.87" font-family="Helvetica Neue" font-size="14.00">kesehatan1</text>
</g>
<!-- appmodelskeluarga&#45;&gt;appmodelsibu -->
<g id="edge3" class="edge">
<title>appmodelskeluarga:id_ibu&#45;&gt;appmodelsibu:id_ibu</title>
<path fill="none" stroke="#f77f00" stroke-width="1.8" d="M372.5,-1006.18C356.73,-973.56 305,-866.5 305,-866.5 305,-866.5 247.09,-804.08 231.71,-787.5"/>
<polygon fill="#f77f00" stroke="#f77f00" stroke-width="1.8" points="372.65,-1006.5 372.95,-1017.46 374.82,-1011 377,-1015.5 377,-1015.5 377,-1015.5 374.82,-1011 381.05,-1013.54 372.65,-1006.5 372.65,-1006.5"/>
<polygon fill="#f77f00" stroke="#f77f00" stroke-width="1.8" points="225.01,-787.63 232.35,-780.83 233.71,-782.3 226.37,-789.1 225.01,-787.63"/>
<polyline fill="none" stroke="#f77f00" stroke-width="1.8" points="228,-783.5 231.4,-787.17 "/>
<text text-anchor="middle" x="302.5" y="-870.3" font-family="Helvetica Neue" font-size="14.00"> </text>
<text text-anchor="middle" x="350.31" y="-876.63" font-family="Helvetica Neue" font-size="14.00">BelongsTo</text>
<text text-anchor="middle" x="350.31" y="-861.63" font-family="Helvetica Neue" font-size="14.00">ibu</text>
</g>
<!-- appmodelskesehatan1&#45;&gt;appmodelsibu -->
<g id="edge4" class="edge">
<title>appmodelskesehatan1:id_ibu&#45;&gt;appmodelsibu:id_ibu</title>
<path fill="none" stroke="#f77f00" stroke-width="1.8" d="M374.94,-250.26C360.52,-296.3 300,-489.5 300,-489.5 300,-489.5 238.81,-739.36 229.25,-778.4"/>
<polygon fill="#f77f00" stroke="#f77f00" stroke-width="1.8" points="375.01,-250.04 382.29,-241.85 376.51,-245.27 378,-240.5 378,-240.5 378,-240.5 376.51,-245.27 373.71,-239.15 375.01,-250.04 375.01,-250.04"/>
<polygon fill="#f77f00" stroke="#f77f00" stroke-width="1.8" points="233.09,-783.72 223.38,-781.34 223.86,-779.4 233.57,-781.78 233.09,-783.72"/>
<polyline fill="none" stroke="#f77f00" stroke-width="1.8" points="228,-783.5 229.19,-778.64 "/>
<text text-anchor="middle" x="302.5" y="-493.3" font-family="Helvetica Neue" font-size="14.00"> </text>
<text text-anchor="middle" x="329.44" y="-501" font-family="Helvetica Neue" font-size="14.00">BelongsTo</text>
<text text-anchor="middle" x="329.44" y="-486" font-family="Helvetica Neue" font-size="14.00">ibu</text>
</g>
</g>
</svg>
