<?xml version="1.0" encoding="UTF-8" standalone="no"?>
<!DOCTYPE svg PUBLIC "-//W3C//DTD SVG 1.1//EN"
 "http://www.w3.org/Graphics/SVG/1.1/DTD/svg11.dtd">
<!-- Generated by graphviz version 2.43.0 (0)
 -->
<!-- Title: G Pages: 1 -->
<svg width="1071pt" height="886pt"
 viewBox="0.00 0.00 1071.00 886.00" xmlns="http://www.w3.org/2000/svg" xmlns:xlink="http://www.w3.org/1999/xlink">
<g id="graph0" class="graph" transform="scale(1 1) rotate(0) translate(36 850)">
<title>G</title>
<polygon fill="#f7f7f7" stroke="transparent" points="-36,36 -36,-850 1035,-850 1035,36 -36,36"/>
<!-- appmodelsevaluasikehamilan -->
<g id="node1" class="node">
<title>appmodelsevaluasikehamilan</title>
<polygon fill="none" stroke="black" points="219,-814 0,-814 0,-185 219,-185 219,-814"/>
<polygon fill="#d3d3d3" stroke="transparent" points="0.5,-776.5 0.5,-813.5 219.5,-813.5 219.5,-776.5 0.5,-776.5"/>
<polygon fill="none" stroke="black" points="0.5,-776.5 0.5,-813.5 219.5,-813.5 219.5,-776.5 0.5,-776.5"/>
<text text-anchor="start" x="45" y="-791.3" font-family="Helvetica Neue" font-size="14.00" fill="#333333">EvaluasiKehamilan</text>
<polygon fill="#ffffff" stroke="transparent" points="0.5,-739.5 0.5,-776.5 219.5,-776.5 219.5,-739.5 0.5,-739.5"/>
<polygon fill="none" stroke="black" points="0.5,-739.5 0.5,-776.5 219.5,-776.5 219.5,-739.5 0.5,-739.5"/>
<text text-anchor="start" x="11.5" y="-754.3" font-family="Helvetica Neue" font-size="14.00" fill="#333333">id_evaluasi_kehamilan (int8)</text>
<polygon fill="#ffffff" stroke="transparent" points="0.5,-702.5 0.5,-739.5 219.5,-739.5 219.5,-702.5 0.5,-702.5"/>
<polygon fill="none" stroke="black" points="0.5,-702.5 0.5,-739.5 219.5,-739.5 219.5,-702.5 0.5,-702.5"/>
<text text-anchor="start" x="11.5" y="-717.3" font-family="Helvetica Neue" font-size="14.00" fill="#333333">id_ibu (int8)</text>
<polygon fill="#ffffff" stroke="transparent" points="0.5,-665.5 0.5,-702.5 219.5,-702.5 219.5,-665.5 0.5,-665.5"/>
<polygon fill="none" stroke="black" points="0.5,-665.5 0.5,-702.5 219.5,-702.5 219.5,-665.5 0.5,-665.5"/>
<text text-anchor="start" x="11.5" y="-680.3" font-family="Helvetica Neue" font-size="14.00" fill="#333333">pemeriksa (varchar)</text>
<polygon fill="#ffffff" stroke="transparent" points="0.5,-628.5 0.5,-665.5 219.5,-665.5 219.5,-628.5 0.5,-628.5"/>
<polygon fill="none" stroke="black" points="0.5,-628.5 0.5,-665.5 219.5,-665.5 219.5,-628.5 0.5,-628.5"/>
<text text-anchor="start" x="11.5" y="-643.3" font-family="Helvetica Neue" font-size="14.00" fill="#333333">tanggal (timestamp)</text>
<polygon fill="#ffffff" stroke="transparent" points="0.5,-591.5 0.5,-628.5 219.5,-628.5 219.5,-591.5 0.5,-591.5"/>
<polygon fill="none" stroke="black" points="0.5,-591.5 0.5,-628.5 219.5,-628.5 219.5,-591.5 0.5,-591.5"/>
<text text-anchor="start" x="11.5" y="-606.3" font-family="Helvetica Neue" font-size="14.00" fill="#333333">usia_gestasi (int4)</text>
<polygon fill="#ffffff" stroke="transparent" points="0.5,-554.5 0.5,-591.5 219.5,-591.5 219.5,-554.5 0.5,-554.5"/>
<polygon fill="none" stroke="black" points="0.5,-554.5 0.5,-591.5 219.5,-591.5 219.5,-554.5 0.5,-554.5"/>
<text text-anchor="start" x="11.5" y="-569.3" font-family="Helvetica Neue" font-size="14.00" fill="#333333">denyut_jantung_janin (int4)</text>
<polygon fill="#ffffff" stroke="transparent" points="0.5,-517.5 0.5,-554.5 219.5,-554.5 219.5,-517.5 0.5,-517.5"/>
<polygon fill="none" stroke="black" points="0.5,-517.5 0.5,-554.5 219.5,-554.5 219.5,-517.5 0.5,-517.5"/>
<text text-anchor="start" x="11.5" y="-532.3" font-family="Helvetica Neue" font-size="14.00" fill="#333333">sistolik (int4)</text>
<polygon fill="#ffffff" stroke="transparent" points="0.5,-480.5 0.5,-517.5 219.5,-517.5 219.5,-480.5 0.5,-480.5"/>
<polygon fill="none" stroke="black" points="0.5,-480.5 0.5,-517.5 219.5,-517.5 219.5,-480.5 0.5,-480.5"/>
<text text-anchor="start" x="11.5" y="-495.3" font-family="Helvetica Neue" font-size="14.00" fill="#333333">diastolik (int4)</text>
<polygon fill="#ffffff" stroke="transparent" points="0.5,-443.5 0.5,-480.5 219.5,-480.5 219.5,-443.5 0.5,-443.5"/>
<polygon fill="none" stroke="black" points="0.5,-443.5 0.5,-480.5 219.5,-480.5 219.5,-443.5 0.5,-443.5"/>
<text text-anchor="start" x="11.5" y="-458.3" font-family="Helvetica Neue" font-size="14.00" fill="#333333">gerakan_bayi (int4)</text>
<polygon fill="#ffffff" stroke="transparent" points="0.5,-406.5 0.5,-443.5 219.5,-443.5 219.5,-406.5 0.5,-406.5"/>
<polygon fill="none" stroke="black" points="0.5,-406.5 0.5,-443.5 219.5,-443.5 219.5,-406.5 0.5,-406.5"/>
<text text-anchor="start" x="11.5" y="-421.3" font-family="Helvetica Neue" font-size="14.00" fill="#333333">urin_protein (int4)</text>
<polygon fill="#ffffff" stroke="transparent" points="0.5,-369.5 0.5,-406.5 219.5,-406.5 219.5,-369.5 0.5,-369.5"/>
<polygon fill="none" stroke="black" points="0.5,-369.5 0.5,-406.5 219.5,-406.5 219.5,-369.5 0.5,-369.5"/>
<text text-anchor="start" x="11.5" y="-384.3" font-family="Helvetica Neue" font-size="14.00" fill="#333333">urin_reduksi (int4)</text>
<polygon fill="#ffffff" stroke="transparent" points="0.5,-332.5 0.5,-369.5 219.5,-369.5 219.5,-332.5 0.5,-332.5"/>
<polygon fill="none" stroke="black" points="0.5,-332.5 0.5,-369.5 219.5,-369.5 219.5,-332.5 0.5,-332.5"/>
<text text-anchor="start" x="11.5" y="-347.3" font-family="Helvetica Neue" font-size="14.00" fill="#333333">hemoglobin (int4)</text>
<polygon fill="#ffffff" stroke="transparent" points="0.5,-295.5 0.5,-332.5 219.5,-332.5 219.5,-295.5 0.5,-295.5"/>
<polygon fill="none" stroke="black" points="0.5,-295.5 0.5,-332.5 219.5,-332.5 219.5,-295.5 0.5,-295.5"/>
<text text-anchor="start" x="11.5" y="-310.3" font-family="Helvetica Neue" font-size="14.00" fill="#333333">kalsium (int4)</text>
<polygon fill="#ffffff" stroke="transparent" points="0.5,-258.5 0.5,-295.5 219.5,-295.5 219.5,-258.5 0.5,-258.5"/>
<polygon fill="none" stroke="black" points="0.5,-258.5 0.5,-295.5 219.5,-295.5 219.5,-258.5 0.5,-258.5"/>
<text text-anchor="start" x="11.5" y="-273.3" font-family="Helvetica Neue" font-size="14.00" fill="#333333">aspirin (int4)</text>
<polygon fill="#ffffff" stroke="transparent" points="0.5,-221.5 0.5,-258.5 219.5,-258.5 219.5,-221.5 0.5,-221.5"/>
<polygon fill="none" stroke="black" points="0.5,-221.5 0.5,-258.5 219.5,-258.5 219.5,-221.5 0.5,-221.5"/>
<text text-anchor="start" x="11.5" y="-236.3" font-family="Helvetica Neue" font-size="14.00" fill="#333333">created_at (timestamp)</text>
<polygon fill="#ffffff" stroke="transparent" points="0.5,-184.5 0.5,-221.5 219.5,-221.5 219.5,-184.5 0.5,-184.5"/>
<polygon fill="none" stroke="black" points="0.5,-184.5 0.5,-221.5 219.5,-221.5 219.5,-184.5 0.5,-184.5"/>
<text text-anchor="start" x="11.5" y="-199.3" font-family="Helvetica Neue" font-size="14.00" fill="#333333">updated_at (timestamp)</text>
</g>
<!-- appmodelsibu -->
<g id="node2" class="node">
<title>appmodelsibu</title>
<polygon fill="none" stroke="black" points="596,-777 368,-777 368,0 596,0 596,-777"/>
<polygon fill="#d3d3d3" stroke="transparent" points="368,-739.5 368,-776.5 596,-776.5 596,-739.5 368,-739.5"/>
<polygon fill="none" stroke="black" points="368,-739.5 368,-776.5 596,-776.5 596,-739.5 368,-739.5"/>
<text text-anchor="start" x="470.5" y="-754.3" font-family="Helvetica Neue" font-size="14.00" fill="#333333">Ibu</text>
<polygon fill="#ffffff" stroke="transparent" points="368,-702.5 368,-739.5 596,-739.5 596,-702.5 368,-702.5"/>
<polygon fill="none" stroke="black" points="368,-702.5 368,-739.5 596,-739.5 596,-702.5 368,-702.5"/>
<text text-anchor="start" x="379" y="-717.3" font-family="Helvetica Neue" font-size="14.00" fill="#333333">id_ibu (int8)</text>
<polygon fill="#ffffff" stroke="transparent" points="368,-665.5 368,-702.5 596,-702.5 596,-665.5 368,-665.5"/>
<polygon fill="none" stroke="black" points="368,-665.5 368,-702.5 596,-702.5 596,-665.5 368,-665.5"/>
<text text-anchor="start" x="379" y="-680.3" font-family="Helvetica Neue" font-size="14.00" fill="#333333">id_user (int8)</text>
<polygon fill="#ffffff" stroke="transparent" points="368,-628.5 368,-665.5 596,-665.5 596,-628.5 368,-628.5"/>
<polygon fill="none" stroke="black" points="368,-628.5 368,-665.5 596,-665.5 596,-628.5 368,-628.5"/>
<text text-anchor="start" x="379" y="-643.3" font-family="Helvetica Neue" font-size="14.00" fill="#333333">nama (varchar)</text>
<polygon fill="#ffffff" stroke="transparent" points="368,-591.5 368,-628.5 596,-628.5 596,-591.5 368,-591.5"/>
<polygon fill="none" stroke="black" points="368,-591.5 368,-628.5 596,-628.5 596,-591.5 368,-591.5"/>
<text text-anchor="start" x="379" y="-606.3" font-family="Helvetica Neue" font-size="14.00" fill="#333333">pembiayaan (varchar)</text>
<polygon fill="#ffffff" stroke="transparent" points="368,-554.5 368,-591.5 596,-591.5 596,-554.5 368,-554.5"/>
<polygon fill="none" stroke="black" points="368,-554.5 368,-591.5 596,-591.5 596,-554.5 368,-554.5"/>
<text text-anchor="start" x="379" y="-569.3" font-family="Helvetica Neue" font-size="14.00" fill="#333333">no_jkn (varchar)</text>
<polygon fill="#ffffff" stroke="transparent" points="368,-517.5 368,-554.5 596,-554.5 596,-517.5 368,-517.5"/>
<polygon fill="none" stroke="black" points="368,-517.5 368,-554.5 596,-554.5 596,-517.5 368,-517.5"/>
<text text-anchor="start" x="379" y="-532.3" font-family="Helvetica Neue" font-size="14.00" fill="#333333">faskes_tk_1 (varchar)</text>
<polygon fill="#ffffff" stroke="transparent" points="368,-480.5 368,-517.5 596,-517.5 596,-480.5 368,-480.5"/>
<polygon fill="none" stroke="black" points="368,-480.5 368,-517.5 596,-517.5 596,-480.5 368,-480.5"/>
<text text-anchor="start" x="379" y="-495.3" font-family="Helvetica Neue" font-size="14.00" fill="#333333">faskes_rujukan (varchar)</text>
<polygon fill="#ffffff" stroke="transparent" points="368,-443.5 368,-480.5 596,-480.5 596,-443.5 368,-443.5"/>
<polygon fill="none" stroke="black" points="368,-443.5 368,-480.5 596,-480.5 596,-443.5 368,-443.5"/>
<text text-anchor="start" x="379" y="-458.3" font-family="Helvetica Neue" font-size="14.00" fill="#333333">gol_darah (bpchar)</text>
<polygon fill="#ffffff" stroke="transparent" points="368,-406.5 368,-443.5 596,-443.5 596,-406.5 368,-406.5"/>
<polygon fill="none" stroke="black" points="368,-406.5 368,-443.5 596,-443.5 596,-406.5 368,-406.5"/>
<text text-anchor="start" x="379" y="-421.3" font-family="Helvetica Neue" font-size="14.00" fill="#333333">tmpt_lahir (varchar)</text>
<polygon fill="#ffffff" stroke="transparent" points="368,-369.5 368,-406.5 596,-406.5 596,-369.5 368,-369.5"/>
<polygon fill="none" stroke="black" points="368,-369.5 368,-406.5 596,-406.5 596,-369.5 368,-369.5"/>
<text text-anchor="start" x="379" y="-384.3" font-family="Helvetica Neue" font-size="14.00" fill="#333333">tgl_lahir (date)</text>
<polygon fill="#ffffff" stroke="transparent" points="368,-332.5 368,-369.5 596,-369.5 596,-332.5 368,-332.5"/>
<polygon fill="none" stroke="black" points="368,-332.5 368,-369.5 596,-369.5 596,-332.5 368,-332.5"/>
<text text-anchor="start" x="379" y="-347.3" font-family="Helvetica Neue" font-size="14.00" fill="#333333">pendidikan (varchar)</text>
<polygon fill="#ffffff" stroke="transparent" points="368,-295.5 368,-332.5 596,-332.5 596,-295.5 368,-295.5"/>
<polygon fill="none" stroke="black" points="368,-295.5 368,-332.5 596,-332.5 596,-295.5 368,-295.5"/>
<text text-anchor="start" x="379" y="-310.3" font-family="Helvetica Neue" font-size="14.00" fill="#333333">pekerjaan (varchar)</text>
<polygon fill="#ffffff" stroke="transparent" points="368,-258.5 368,-295.5 596,-295.5 596,-258.5 368,-258.5"/>
<polygon fill="none" stroke="black" points="368,-258.5 368,-295.5 596,-295.5 596,-258.5 368,-258.5"/>
<text text-anchor="start" x="379" y="-273.3" font-family="Helvetica Neue" font-size="14.00" fill="#333333">provinsi (varchar)</text>
<polygon fill="#ffffff" stroke="transparent" points="368,-221.5 368,-258.5 596,-258.5 596,-221.5 368,-221.5"/>
<polygon fill="none" stroke="black" points="368,-221.5 368,-258.5 596,-258.5 596,-221.5 368,-221.5"/>
<text text-anchor="start" x="379" y="-236.3" font-family="Helvetica Neue" font-size="14.00" fill="#333333">kabupaten (varchar)</text>
<polygon fill="#ffffff" stroke="transparent" points="368,-184.5 368,-221.5 596,-221.5 596,-184.5 368,-184.5"/>
<polygon fill="none" stroke="black" points="368,-184.5 368,-221.5 596,-221.5 596,-184.5 368,-184.5"/>
<text text-anchor="start" x="379" y="-199.3" font-family="Helvetica Neue" font-size="14.00" fill="#333333">alamat (text)</text>
<polygon fill="#ffffff" stroke="transparent" points="368,-147.5 368,-184.5 596,-184.5 596,-147.5 368,-147.5"/>
<polygon fill="none" stroke="black" points="368,-147.5 368,-184.5 596,-184.5 596,-147.5 368,-147.5"/>
<text text-anchor="start" x="379" y="-162.3" font-family="Helvetica Neue" font-size="14.00" fill="#333333">telepon (varchar)</text>
<polygon fill="#ffffff" stroke="transparent" points="368,-110.5 368,-147.5 596,-147.5 596,-110.5 368,-110.5"/>
<polygon fill="none" stroke="black" points="368,-110.5 368,-147.5 596,-147.5 596,-110.5 368,-110.5"/>
<text text-anchor="start" x="379" y="-125.3" font-family="Helvetica Neue" font-size="14.00" fill="#333333">puskesmas_domisili (varchar)</text>
<polygon fill="#ffffff" stroke="transparent" points="368,-73.5 368,-110.5 596,-110.5 596,-73.5 368,-73.5"/>
<polygon fill="none" stroke="black" points="368,-73.5 368,-110.5 596,-110.5 596,-73.5 368,-73.5"/>
<text text-anchor="start" x="379" y="-88.3" font-family="Helvetica Neue" font-size="14.00" fill="#333333">no_reg_kohort_ibu (varchar)</text>
<polygon fill="#ffffff" stroke="transparent" points="368,-36.5 368,-73.5 596,-73.5 596,-36.5 368,-36.5"/>
<polygon fill="none" stroke="black" points="368,-36.5 368,-73.5 596,-73.5 596,-36.5 368,-36.5"/>
<text text-anchor="start" x="379" y="-51.3" font-family="Helvetica Neue" font-size="14.00" fill="#333333">created_at (timestamp)</text>
<polygon fill="#ffffff" stroke="transparent" points="368,0.5 368,-36.5 596,-36.5 596,0.5 368,0.5"/>
<polygon fill="none" stroke="black" points="368,0.5 368,-36.5 596,-36.5 596,0.5 368,0.5"/>
<text text-anchor="start" x="379" y="-14.3" font-family="Helvetica Neue" font-size="14.00" fill="#333333">updated_at (timestamp)</text>
</g>
<!-- appmodelsevaluasikehamilan&#45;&gt;appmodelsibu -->
<g id="edge1" class="edge">
<title>appmodelsevaluasikehamilan:id_ibu&#45;&gt;appmodelsibu:id_ibu</title>
<path fill="none" stroke="#f77f00" stroke-width="1.8" d="M229.24,-721.5C258.43,-721.5 341.34,-721.5 362.85,-721.5"/>
<polygon fill="#f77f00" stroke="#f77f00" stroke-width="1.8" points="229,-721.5 219,-717 224,-721.5 219,-721.5 219,-721.5 219,-721.5 224,-721.5 219,-726 229,-721.5 229,-721.5"/>
<polygon fill="#f77f00" stroke="#f77f00" stroke-width="1.8" points="367,-716.5 367,-726.5 365,-726.5 365,-716.5 367,-716.5"/>
<polyline fill="none" stroke="#f77f00" stroke-width="1.8" points="368,-721.5 363,-721.5 "/>
<text text-anchor="middle" x="293.5" y="-725.3" font-family="Helvetica Neue" font-size="14.00"> </text>
<text text-anchor="middle" x="331.05" y="-710.3" font-family="Helvetica Neue" font-size="14.00">BelongsTo</text>
<text text-anchor="middle" x="331.05" y="-695.3" font-family="Helvetica Neue" font-size="14.00">ibu</text>
</g>
<!-- appmodelsibu&#45;&gt;appmodelsevaluasikehamilan -->
<g id="edge2" class="edge">
<title>appmodelsibu:id_ibu&#45;&gt;appmodelsevaluasikehamilan:id_ibu</title>
<path fill="none" stroke="#fcbf49" stroke-width="1.8" d="M368,-721.5C368,-721.5 296,-688.5 296,-688.5 296,-688.5 291,-688.5 291,-688.5 291,-688.5 247.49,-708.44 228.12,-717.32"/>
<polygon fill="#fcbf49" stroke="#fcbf49" stroke-width="1.8" points="228.09,-717.33 217.13,-717.41 223.55,-719.42 219,-721.5 219,-721.5 219,-721.5 223.55,-719.42 220.87,-725.59 228.09,-717.33 228.09,-717.33"/>
<text text-anchor="middle" x="293.5" y="-692.3" font-family="Helvetica Neue" font-size="14.00"> </text>
<text text-anchor="middle" x="363.29" y="-678.35" font-family="Helvetica Neue" font-size="14.00">HasMany</text>
<text text-anchor="middle" x="363.29" y="-663.35" font-family="Helvetica Neue" font-size="14.00">evaluasiKehamilan</text>
</g>
<!-- appmodelspemeriksaantrimester1 -->
<g id="node3" class="node">
<title>appmodelspemeriksaantrimester1</title>
<polygon fill="none" stroke="black" points="999,-814 745,-814 745,-555 999,-555 999,-814"/>
<polygon fill="#d3d3d3" stroke="transparent" points="745,-776.5 745,-813.5 999,-813.5 999,-776.5 745,-776.5"/>
<polygon fill="none" stroke="black" points="745,-776.5 745,-813.5 999,-813.5 999,-776.5 745,-776.5"/>
<text text-anchor="start" x="790" y="-791.3" font-family="Helvetica Neue" font-size="14.00" fill="#333333">PemeriksaanTrimester1</text>
<polygon fill="#ffffff" stroke="transparent" points="745,-739.5 745,-776.5 999,-776.5 999,-739.5 745,-739.5"/>
<polygon fill="none" stroke="black" points="745,-739.5 745,-776.5 999,-776.5 999,-739.5 745,-739.5"/>
<text text-anchor="start" x="756" y="-754.3" font-family="Helvetica Neue" font-size="14.00" fill="#333333">id_pemeriksaan_trimester1 (int8)</text>
<polygon fill="#ffffff" stroke="transparent" points="745,-702.5 745,-739.5 999,-739.5 999,-702.5 745,-702.5"/>
<polygon fill="none" stroke="black" points="745,-702.5 745,-739.5 999,-739.5 999,-702.5 745,-702.5"/>
<text text-anchor="start" x="756" y="-717.3" font-family="Helvetica Neue" font-size="14.00" fill="#333333">id_ibu (int8)</text>
<polygon fill="#ffffff" stroke="transparent" points="745,-665.5 745,-702.5 999,-702.5 999,-665.5 745,-665.5"/>
<polygon fill="none" stroke="black" points="745,-665.5 745,-702.5 999,-702.5 999,-665.5 745,-665.5"/>
<text text-anchor="start" x="756" y="-680.3" font-family="Helvetica Neue" font-size="14.00" fill="#333333">kesimpulan (text)</text>
<polygon fill="#ffffff" stroke="transparent" points="745,-628.5 745,-665.5 999,-665.5 999,-628.5 745,-628.5"/>
<polygon fill="none" stroke="black" points="745,-628.5 745,-665.5 999,-665.5 999,-628.5 745,-628.5"/>
<text text-anchor="start" x="756" y="-643.3" font-family="Helvetica Neue" font-size="14.00" fill="#333333">rekomendasi (text)</text>
<polygon fill="#ffffff" stroke="transparent" points="745,-591.5 745,-628.5 999,-628.5 999,-591.5 745,-591.5"/>
<polygon fill="none" stroke="black" points="745,-591.5 745,-628.5 999,-628.5 999,-591.5 745,-591.5"/>
<text text-anchor="start" x="756" y="-606.3" font-family="Helvetica Neue" font-size="14.00" fill="#333333">created_at (timestamp)</text>
<polygon fill="#ffffff" stroke="transparent" points="745,-554.5 745,-591.5 999,-591.5 999,-554.5 745,-554.5"/>
<polygon fill="none" stroke="black" points="745,-554.5 745,-591.5 999,-591.5 999,-554.5 745,-554.5"/>
<text text-anchor="start" x="756" y="-569.3" font-family="Helvetica Neue" font-size="14.00" fill="#333333">updated_at (timestamp)</text>
</g>
<!-- appmodelsibu&#45;&gt;appmodelspemeriksaantrimester1 -->
<g id="edge3" class="edge">
<title>appmodelsibu:id_ibu&#45;&gt;appmodelspemeriksaantrimester1:id_ibu</title>
<path fill="none" stroke="#fcbf49" stroke-width="1.8" d="M596,-721.5C596,-721.5 701.1,-721.5 734.76,-721.5"/>
<polygon fill="#fcbf49" stroke="#fcbf49" stroke-width="1.8" points="735,-721.5 745,-726 740,-721.5 745,-721.5 745,-721.5 745,-721.5 740,-721.5 745,-717 735,-721.5 735,-721.5"/>
<text text-anchor="middle" x="670.5" y="-725.3" font-family="Helvetica Neue" font-size="14.00"> </text>
<text text-anchor="middle" x="747.88" y="-710.3" font-family="Helvetica Neue" font-size="14.00">HasMany</text>
<text text-anchor="middle" x="747.88" y="-695.3" font-family="Helvetica Neue" font-size="14.00">pemeriksaanTrimester1</text>
</g>
<!-- appmodelspemeriksaantrimester1&#45;&gt;appmodelsibu -->
<g id="edge4" class="edge">
<title>appmodelspemeriksaantrimester1:id_ibu&#45;&gt;appmodelsibu:id_ibu</title>
<path fill="none" stroke="#f77f00" stroke-width="1.8" d="M735.88,-717.32C716.51,-708.44 673,-688.5 673,-688.5 673,-688.5 668,-688.5 668,-688.5 668,-688.5 616.74,-711.99 600.72,-719.33"/>
<polygon fill="#f77f00" stroke="#f77f00" stroke-width="1.8" points="735.91,-717.33 743.13,-725.59 740.45,-719.42 745,-721.5 745,-721.5 745,-721.5 740.45,-719.42 746.87,-717.41 735.91,-717.33 735.91,-717.33"/>
<polygon fill="#f77f00" stroke="#f77f00" stroke-width="1.8" points="598.99,-725.63 594.83,-716.54 596.64,-715.7 600.81,-724.8 598.99,-725.63"/>
<polyline fill="none" stroke="#f77f00" stroke-width="1.8" points="596,-721.5 600.55,-719.42 "/>
<text text-anchor="middle" x="670.5" y="-692.3" font-family="Helvetica Neue" font-size="14.00"> </text>
<text text-anchor="middle" x="633.08" y="-677.3" font-family="Helvetica Neue" font-size="14.00">BelongsTo</text>
<text text-anchor="middle" x="633.08" y="-662.3" font-family="Helvetica Neue" font-size="14.00">ibu</text>
</g>
</g>
</svg>
