<?xml version="1.0" encoding="UTF-8" standalone="no"?>
<!DOCTYPE svg PUBLIC "-//W3C//DTD SVG 1.1//EN"
 "http://www.w3.org/Graphics/SVG/1.1/DTD/svg11.dtd">
<!-- Generated by graphviz version 2.43.0 (0)
 -->
<!-- Title: G Pages: 1 -->
<svg width="1083pt" height="997pt"
 viewBox="0.00 0.00 1083.00 997.00" xmlns="http://www.w3.org/2000/svg" xmlns:xlink="http://www.w3.org/1999/xlink">
<g id="graph0" class="graph" transform="scale(1 1) rotate(0) translate(36 961)">
<title>G</title>
<polygon fill="#f7f7f7" stroke="transparent" points="-36,36 -36,-961 1047,-961 1047,36 -36,36"/>
<!-- appmodelsanak -->
<g id="node1" class="node">
<title>appmodelsanak</title>
<polygon fill="none" stroke="black" points="283,-851 0,-851 0,0 283,0 283,-851"/>
<polygon fill="#d3d3d3" stroke="transparent" points="0.5,-813.5 0.5,-850.5 283.5,-850.5 283.5,-813.5 0.5,-813.5"/>
<polygon fill="none" stroke="black" points="0.5,-813.5 0.5,-850.5 283.5,-850.5 283.5,-813.5 0.5,-813.5"/>
<text text-anchor="start" x="125" y="-828.3" font-family="Helvetica Neue" font-size="14.00" fill="#333333">Anak</text>
<polygon fill="#ffffff" stroke="transparent" points="0.5,-776.5 0.5,-813.5 283.5,-813.5 283.5,-776.5 0.5,-776.5"/>
<polygon fill="none" stroke="black" points="0.5,-776.5 0.5,-813.5 283.5,-813.5 283.5,-776.5 0.5,-776.5"/>
<text text-anchor="start" x="11.5" y="-791.3" font-family="Helvetica Neue" font-size="14.00" fill="#333333">id_anak (int8)</text>
<polygon fill="#ffffff" stroke="transparent" points="0.5,-739.5 0.5,-776.5 283.5,-776.5 283.5,-739.5 0.5,-739.5"/>
<polygon fill="none" stroke="black" points="0.5,-739.5 0.5,-776.5 283.5,-776.5 283.5,-739.5 0.5,-739.5"/>
<text text-anchor="start" x="11.5" y="-754.3" font-family="Helvetica Neue" font-size="14.00" fill="#333333">id_wali (int8)</text>
<polygon fill="#ffffff" stroke="transparent" points="0.5,-702.5 0.5,-739.5 283.5,-739.5 283.5,-702.5 0.5,-702.5"/>
<polygon fill="none" stroke="black" points="0.5,-702.5 0.5,-739.5 283.5,-739.5 283.5,-702.5 0.5,-702.5"/>
<text text-anchor="start" x="11.5" y="-717.3" font-family="Helvetica Neue" font-size="14.00" fill="#333333">nama (varchar)</text>
<polygon fill="#ffffff" stroke="transparent" points="0.5,-665.5 0.5,-702.5 283.5,-702.5 283.5,-665.5 0.5,-665.5"/>
<polygon fill="none" stroke="black" points="0.5,-665.5 0.5,-702.5 283.5,-702.5 283.5,-665.5 0.5,-665.5"/>
<text text-anchor="start" x="11.5" y="-680.3" font-family="Helvetica Neue" font-size="14.00" fill="#333333">anak_ke (int2)</text>
<polygon fill="#ffffff" stroke="transparent" points="0.5,-628.5 0.5,-665.5 283.5,-665.5 283.5,-628.5 0.5,-628.5"/>
<polygon fill="none" stroke="black" points="0.5,-628.5 0.5,-665.5 283.5,-665.5 283.5,-628.5 0.5,-628.5"/>
<text text-anchor="start" x="11.5" y="-643.3" font-family="Helvetica Neue" font-size="14.00" fill="#333333">no_akte_kelahiran (varchar)</text>
<polygon fill="#ffffff" stroke="transparent" points="0.5,-591.5 0.5,-628.5 283.5,-628.5 283.5,-591.5 0.5,-591.5"/>
<polygon fill="none" stroke="black" points="0.5,-591.5 0.5,-628.5 283.5,-628.5 283.5,-591.5 0.5,-591.5"/>
<text text-anchor="start" x="11.5" y="-606.3" font-family="Helvetica Neue" font-size="14.00" fill="#333333">nik (bpchar)</text>
<polygon fill="#ffffff" stroke="transparent" points="0.5,-554.5 0.5,-591.5 283.5,-591.5 283.5,-554.5 0.5,-554.5"/>
<polygon fill="none" stroke="black" points="0.5,-554.5 0.5,-591.5 283.5,-591.5 283.5,-554.5 0.5,-554.5"/>
<text text-anchor="start" x="11.5" y="-569.3" font-family="Helvetica Neue" font-size="14.00" fill="#333333">tmpt_lahir (varchar)</text>
<polygon fill="#ffffff" stroke="transparent" points="0.5,-517.5 0.5,-554.5 283.5,-554.5 283.5,-517.5 0.5,-517.5"/>
<polygon fill="none" stroke="black" points="0.5,-517.5 0.5,-554.5 283.5,-554.5 283.5,-517.5 0.5,-517.5"/>
<text text-anchor="start" x="11.5" y="-532.3" font-family="Helvetica Neue" font-size="14.00" fill="#333333">tgl_lahir (date)</text>
<polygon fill="#ffffff" stroke="transparent" points="0.5,-480.5 0.5,-517.5 283.5,-517.5 283.5,-480.5 0.5,-480.5"/>
<polygon fill="none" stroke="black" points="0.5,-480.5 0.5,-517.5 283.5,-517.5 283.5,-480.5 0.5,-480.5"/>
<text text-anchor="start" x="11.5" y="-495.3" font-family="Helvetica Neue" font-size="14.00" fill="#333333">gol_darah (bpchar)</text>
<polygon fill="#ffffff" stroke="transparent" points="0.5,-443.5 0.5,-480.5 283.5,-480.5 283.5,-443.5 0.5,-443.5"/>
<polygon fill="none" stroke="black" points="0.5,-443.5 0.5,-480.5 283.5,-480.5 283.5,-443.5 0.5,-443.5"/>
<text text-anchor="start" x="11.5" y="-458.3" font-family="Helvetica Neue" font-size="14.00" fill="#333333">jenis_pelayanan (varchar)</text>
<polygon fill="#ffffff" stroke="transparent" points="0.5,-406.5 0.5,-443.5 283.5,-443.5 283.5,-406.5 0.5,-406.5"/>
<polygon fill="none" stroke="black" points="0.5,-406.5 0.5,-443.5 283.5,-443.5 283.5,-406.5 0.5,-406.5"/>
<text text-anchor="start" x="11.5" y="-421.3" font-family="Helvetica Neue" font-size="14.00" fill="#333333">no_asuransi (varchar)</text>
<polygon fill="#ffffff" stroke="transparent" points="0.5,-369.5 0.5,-406.5 283.5,-406.5 283.5,-369.5 0.5,-369.5"/>
<polygon fill="none" stroke="black" points="0.5,-369.5 0.5,-406.5 283.5,-406.5 283.5,-369.5 0.5,-369.5"/>
<text text-anchor="start" x="11.5" y="-384.3" font-family="Helvetica Neue" font-size="14.00" fill="#333333">tgl_berlaku_asuransi (date)</text>
<polygon fill="#ffffff" stroke="transparent" points="0.5,-332.5 0.5,-369.5 283.5,-369.5 283.5,-332.5 0.5,-332.5"/>
<polygon fill="none" stroke="black" points="0.5,-332.5 0.5,-369.5 283.5,-369.5 283.5,-332.5 0.5,-332.5"/>
<text text-anchor="start" x="11.5" y="-347.3" font-family="Helvetica Neue" font-size="14.00" fill="#333333">fasilitas_pelayanan_kesehatan (varchar)</text>
<polygon fill="#ffffff" stroke="transparent" points="0.5,-295.5 0.5,-332.5 283.5,-332.5 283.5,-295.5 0.5,-295.5"/>
<polygon fill="none" stroke="black" points="0.5,-295.5 0.5,-332.5 283.5,-332.5 283.5,-295.5 0.5,-295.5"/>
<text text-anchor="start" x="11.5" y="-310.3" font-family="Helvetica Neue" font-size="14.00" fill="#333333">no_reg_kohort_bayi (varchar)</text>
<polygon fill="#ffffff" stroke="transparent" points="0.5,-258.5 0.5,-295.5 283.5,-295.5 283.5,-258.5 0.5,-258.5"/>
<polygon fill="none" stroke="black" points="0.5,-258.5 0.5,-295.5 283.5,-295.5 283.5,-258.5 0.5,-258.5"/>
<text text-anchor="start" x="11.5" y="-273.3" font-family="Helvetica Neue" font-size="14.00" fill="#333333">no_reg_kohort_balita (varchar)</text>
<polygon fill="#ffffff" stroke="transparent" points="0.5,-221.5 0.5,-258.5 283.5,-258.5 283.5,-221.5 0.5,-221.5"/>
<polygon fill="none" stroke="black" points="0.5,-221.5 0.5,-258.5 283.5,-258.5 283.5,-221.5 0.5,-221.5"/>
<text text-anchor="start" x="11.5" y="-236.3" font-family="Helvetica Neue" font-size="14.00" fill="#333333">no_catatan_medik_rs (varchar)</text>
<polygon fill="#ffffff" stroke="transparent" points="0.5,-184.5 0.5,-221.5 283.5,-221.5 283.5,-184.5 0.5,-184.5"/>
<polygon fill="none" stroke="black" points="0.5,-184.5 0.5,-221.5 283.5,-221.5 283.5,-184.5 0.5,-184.5"/>
<text text-anchor="start" x="11.5" y="-199.3" font-family="Helvetica Neue" font-size="14.00" fill="#333333">provinsi (varchar)</text>
<polygon fill="#ffffff" stroke="transparent" points="0.5,-147.5 0.5,-184.5 283.5,-184.5 283.5,-147.5 0.5,-147.5"/>
<polygon fill="none" stroke="black" points="0.5,-147.5 0.5,-184.5 283.5,-184.5 283.5,-147.5 0.5,-147.5"/>
<text text-anchor="start" x="11.5" y="-162.3" font-family="Helvetica Neue" font-size="14.00" fill="#333333">kabupaten (varchar)</text>
<polygon fill="#ffffff" stroke="transparent" points="0.5,-110.5 0.5,-147.5 283.5,-147.5 283.5,-110.5 0.5,-110.5"/>
<polygon fill="none" stroke="black" points="0.5,-110.5 0.5,-147.5 283.5,-147.5 283.5,-110.5 0.5,-110.5"/>
<text text-anchor="start" x="11.5" y="-125.3" font-family="Helvetica Neue" font-size="14.00" fill="#333333">alamat (text)</text>
<polygon fill="#ffffff" stroke="transparent" points="0.5,-73.5 0.5,-110.5 283.5,-110.5 283.5,-73.5 0.5,-73.5"/>
<polygon fill="none" stroke="black" points="0.5,-73.5 0.5,-110.5 283.5,-110.5 283.5,-73.5 0.5,-73.5"/>
<text text-anchor="start" x="11.5" y="-88.3" font-family="Helvetica Neue" font-size="14.00" fill="#333333">telepon (varchar)</text>
<polygon fill="#ffffff" stroke="transparent" points="0.5,-36.5 0.5,-73.5 283.5,-73.5 283.5,-36.5 0.5,-36.5"/>
<polygon fill="none" stroke="black" points="0.5,-36.5 0.5,-73.5 283.5,-73.5 283.5,-36.5 0.5,-36.5"/>
<text text-anchor="start" x="11.5" y="-51.3" font-family="Helvetica Neue" font-size="14.00" fill="#333333">created_at (timestamp)</text>
<polygon fill="#ffffff" stroke="transparent" points="0.5,0.5 0.5,-36.5 283.5,-36.5 283.5,0.5 0.5,0.5"/>
<polygon fill="none" stroke="black" points="0.5,0.5 0.5,-36.5 283.5,-36.5 283.5,0.5 0.5,0.5"/>
<text text-anchor="start" x="11.5" y="-14.3" font-family="Helvetica Neue" font-size="14.00" fill="#333333">updated_at (timestamp)</text>
</g>
<!-- appmodelskmsperempuan -->
<g id="node2" class="node">
<title>appmodelskmsperempuan</title>
<polygon fill="none" stroke="black" points="622,-888 431,-888 431,-629 622,-629 622,-888"/>
<polygon fill="#d3d3d3" stroke="transparent" points="431.5,-850.5 431.5,-887.5 622.5,-887.5 622.5,-850.5 431.5,-850.5"/>
<polygon fill="none" stroke="black" points="431.5,-850.5 431.5,-887.5 622.5,-887.5 622.5,-850.5 431.5,-850.5"/>
<text text-anchor="start" x="474" y="-865.3" font-family="Helvetica Neue" font-size="14.00" fill="#333333">KmsPerempuan</text>
<polygon fill="#ffffff" stroke="transparent" points="431.5,-813.5 431.5,-850.5 622.5,-850.5 622.5,-813.5 431.5,-813.5"/>
<polygon fill="none" stroke="black" points="431.5,-813.5 431.5,-850.5 622.5,-850.5 622.5,-813.5 431.5,-813.5"/>
<text text-anchor="start" x="442.5" y="-828.3" font-family="Helvetica Neue" font-size="14.00" fill="#333333">id_kms_perempuan (int8)</text>
<polygon fill="#ffffff" stroke="transparent" points="431.5,-776.5 431.5,-813.5 622.5,-813.5 622.5,-776.5 431.5,-776.5"/>
<polygon fill="none" stroke="black" points="431.5,-776.5 431.5,-813.5 622.5,-813.5 622.5,-776.5 431.5,-776.5"/>
<text text-anchor="start" x="442.5" y="-791.3" font-family="Helvetica Neue" font-size="14.00" fill="#333333">id_anak (int8)</text>
<polygon fill="#ffffff" stroke="transparent" points="431.5,-739.5 431.5,-776.5 622.5,-776.5 622.5,-739.5 431.5,-739.5"/>
<polygon fill="none" stroke="black" points="431.5,-739.5 431.5,-776.5 622.5,-776.5 622.5,-739.5 431.5,-739.5"/>
<text text-anchor="start" x="442.5" y="-754.3" font-family="Helvetica Neue" font-size="14.00" fill="#333333">nama_anak (varchar)</text>
<polygon fill="#ffffff" stroke="transparent" points="431.5,-702.5 431.5,-739.5 622.5,-739.5 622.5,-702.5 431.5,-702.5"/>
<polygon fill="none" stroke="black" points="431.5,-702.5 431.5,-739.5 622.5,-739.5 622.5,-702.5 431.5,-702.5"/>
<text text-anchor="start" x="442.5" y="-717.3" font-family="Helvetica Neue" font-size="14.00" fill="#333333">nama_posyandu (varchar)</text>
<polygon fill="#ffffff" stroke="transparent" points="431.5,-665.5 431.5,-702.5 622.5,-702.5 622.5,-665.5 431.5,-665.5"/>
<polygon fill="none" stroke="black" points="431.5,-665.5 431.5,-702.5 622.5,-702.5 622.5,-665.5 431.5,-665.5"/>
<text text-anchor="start" x="442.5" y="-680.3" font-family="Helvetica Neue" font-size="14.00" fill="#333333">created_at (timestamp)</text>
<polygon fill="#ffffff" stroke="transparent" points="431.5,-628.5 431.5,-665.5 622.5,-665.5 622.5,-628.5 431.5,-628.5"/>
<polygon fill="none" stroke="black" points="431.5,-628.5 431.5,-665.5 622.5,-665.5 622.5,-628.5 431.5,-628.5"/>
<text text-anchor="start" x="442.5" y="-643.3" font-family="Helvetica Neue" font-size="14.00" fill="#333333">updated_at (timestamp)</text>
</g>
<!-- appmodelsanak&#45;&gt;appmodelskmsperempuan -->
<g id="edge1" class="edge">
<title>appmodelsanak:id_anak&#45;&gt;appmodelskmsperempuan:id_anak</title>
<path fill="none" stroke="#fcbf49" stroke-width="1.8" d="M283,-795.5C345.31,-795.5 363.35,-795.5 420.99,-795.5"/>
<polygon fill="#fcbf49" stroke="#fcbf49" stroke-width="1.8" points="421,-795.5 431,-800 426,-795.5 431,-795.5 431,-795.5 431,-795.5 426,-795.5 431,-791 421,-795.5 421,-795.5"/>
<text text-anchor="middle" x="357" y="-799.3" font-family="Helvetica Neue" font-size="14.00"> </text>
<text text-anchor="middle" x="304.94" y="-784.3" font-family="Helvetica Neue" font-size="14.00">HasMany</text>
<text text-anchor="middle" x="304.94" y="-769.3" font-family="Helvetica Neue" font-size="14.00">kmsPerempuan</text>
</g>
<!-- appmodelskmsperempuan&#45;&gt;appmodelsanak -->
<g id="edge2" class="edge">
<title>appmodelskmsperempuan:id_anak&#45;&gt;appmodelsanak:id_anak</title>
<path fill="none" stroke="#f77f00" stroke-width="1.8" d="M420.75,-794.33C393.19,-787.7 387.32,-755.45 355,-762.5 322.35,-769.62 318.53,-792.96 288.12,-795.31"/>
<polygon fill="#f77f00" stroke="#f77f00" stroke-width="1.8" points="421.06,-794.37 430.49,-799.97 426.03,-794.93 431,-795.5 431,-795.5 431,-795.5 426.03,-794.93 431.51,-791.03 421.06,-794.37 421.06,-794.37"/>
<polygon fill="#f77f00" stroke="#f77f00" stroke-width="1.8" points="284.19,-800.46 283.81,-790.47 285.81,-790.39 286.19,-800.38 284.19,-800.46"/>
<polyline fill="none" stroke="#f77f00" stroke-width="1.8" points="283,-795.5 288,-795.31 "/>
<text text-anchor="middle" x="357" y="-766.3" font-family="Helvetica Neue" font-size="14.00"> </text>
<text text-anchor="middle" x="380.39" y="-753.93" font-family="Helvetica Neue" font-size="14.00">BelongsTo</text>
<text text-anchor="middle" x="380.39" y="-738.93" font-family="Helvetica Neue" font-size="14.00">anak</text>
</g>
<!-- appmodelsdatakmsperempuan -->
<g id="node3" class="node">
<title>appmodelsdatakmsperempuan</title>
<polygon fill="none" stroke="black" points="1011,-925 770,-925 770,-518 1011,-518 1011,-925"/>
<polygon fill="#d3d3d3" stroke="transparent" points="770.5,-887.5 770.5,-924.5 1011.5,-924.5 1011.5,-887.5 770.5,-887.5"/>
<polygon fill="none" stroke="black" points="770.5,-887.5 770.5,-924.5 1011.5,-924.5 1011.5,-887.5 770.5,-887.5"/>
<text text-anchor="start" x="823" y="-902.3" font-family="Helvetica Neue" font-size="14.00" fill="#333333">DataKmsPerempuan</text>
<polygon fill="#ffffff" stroke="transparent" points="770.5,-850.5 770.5,-887.5 1011.5,-887.5 1011.5,-850.5 770.5,-850.5"/>
<polygon fill="none" stroke="black" points="770.5,-850.5 770.5,-887.5 1011.5,-887.5 1011.5,-850.5 770.5,-850.5"/>
<text text-anchor="start" x="781.5" y="-865.3" font-family="Helvetica Neue" font-size="14.00" fill="#333333">id_data_kms_perempuan (int8)</text>
<polygon fill="#ffffff" stroke="transparent" points="770.5,-813.5 770.5,-850.5 1011.5,-850.5 1011.5,-813.5 770.5,-813.5"/>
<polygon fill="none" stroke="black" points="770.5,-813.5 770.5,-850.5 1011.5,-850.5 1011.5,-813.5 770.5,-813.5"/>
<text text-anchor="start" x="781.5" y="-828.3" font-family="Helvetica Neue" font-size="14.00" fill="#333333">id_kms_perempuan (int8)</text>
<polygon fill="#ffffff" stroke="transparent" points="770.5,-776.5 770.5,-813.5 1011.5,-813.5 1011.5,-776.5 770.5,-776.5"/>
<polygon fill="none" stroke="black" points="770.5,-776.5 770.5,-813.5 1011.5,-813.5 1011.5,-776.5 770.5,-776.5"/>
<text text-anchor="start" x="781.5" y="-791.3" font-family="Helvetica Neue" font-size="14.00" fill="#333333">umur (int4)</text>
<polygon fill="#ffffff" stroke="transparent" points="770.5,-739.5 770.5,-776.5 1011.5,-776.5 1011.5,-739.5 770.5,-739.5"/>
<polygon fill="none" stroke="black" points="770.5,-739.5 770.5,-776.5 1011.5,-776.5 1011.5,-739.5 770.5,-739.5"/>
<text text-anchor="start" x="781.5" y="-754.3" font-family="Helvetica Neue" font-size="14.00" fill="#333333">bulan_penimbangan (timestamp)</text>
<polygon fill="#ffffff" stroke="transparent" points="770.5,-702.5 770.5,-739.5 1011.5,-739.5 1011.5,-702.5 770.5,-702.5"/>
<polygon fill="none" stroke="black" points="770.5,-702.5 770.5,-739.5 1011.5,-739.5 1011.5,-702.5 770.5,-702.5"/>
<text text-anchor="start" x="781.5" y="-717.3" font-family="Helvetica Neue" font-size="14.00" fill="#333333">bb (float8)</text>
<polygon fill="#ffffff" stroke="transparent" points="770.5,-665.5 770.5,-702.5 1011.5,-702.5 1011.5,-665.5 770.5,-665.5"/>
<polygon fill="none" stroke="black" points="770.5,-665.5 770.5,-702.5 1011.5,-702.5 1011.5,-665.5 770.5,-665.5"/>
<text text-anchor="start" x="781.5" y="-680.3" font-family="Helvetica Neue" font-size="14.00" fill="#333333">kbm (float8)</text>
<polygon fill="#ffffff" stroke="transparent" points="770.5,-628.5 770.5,-665.5 1011.5,-665.5 1011.5,-628.5 770.5,-628.5"/>
<polygon fill="none" stroke="black" points="770.5,-628.5 770.5,-665.5 1011.5,-665.5 1011.5,-628.5 770.5,-628.5"/>
<text text-anchor="start" x="781.5" y="-643.3" font-family="Helvetica Neue" font-size="14.00" fill="#333333">n_t (varchar)</text>
<polygon fill="#ffffff" stroke="transparent" points="770.5,-591.5 770.5,-628.5 1011.5,-628.5 1011.5,-591.5 770.5,-591.5"/>
<polygon fill="none" stroke="black" points="770.5,-591.5 770.5,-628.5 1011.5,-628.5 1011.5,-591.5 770.5,-591.5"/>
<text text-anchor="start" x="781.5" y="-606.3" font-family="Helvetica Neue" font-size="14.00" fill="#333333">asi_eksklusif (varchar)</text>
<polygon fill="#ffffff" stroke="transparent" points="770.5,-554.5 770.5,-591.5 1011.5,-591.5 1011.5,-554.5 770.5,-554.5"/>
<polygon fill="none" stroke="black" points="770.5,-554.5 770.5,-591.5 1011.5,-591.5 1011.5,-554.5 770.5,-554.5"/>
<text text-anchor="start" x="781.5" y="-569.3" font-family="Helvetica Neue" font-size="14.00" fill="#333333">created_at (timestamp)</text>
<polygon fill="#ffffff" stroke="transparent" points="770.5,-517.5 770.5,-554.5 1011.5,-554.5 1011.5,-517.5 770.5,-517.5"/>
<polygon fill="none" stroke="black" points="770.5,-517.5 770.5,-554.5 1011.5,-554.5 1011.5,-517.5 770.5,-517.5"/>
<text text-anchor="start" x="781.5" y="-532.3" font-family="Helvetica Neue" font-size="14.00" fill="#333333">updated_at (timestamp)</text>
</g>
<!-- appmodelskmsperempuan&#45;&gt;appmodelsdatakmsperempuan -->
<g id="edge3" class="edge">
<title>appmodelskmsperempuan:id_kms_perempuan&#45;&gt;appmodelsdatakmsperempuan:id_kms_perempuan</title>
<path fill="none" stroke="#fcbf49" stroke-width="1.8" d="M622,-832.5C684.31,-832.5 702.35,-832.5 759.99,-832.5"/>
<polygon fill="#fcbf49" stroke="#fcbf49" stroke-width="1.8" points="760,-832.5 770,-837 765,-832.5 770,-832.5 770,-832.5 770,-832.5 765,-832.5 770,-828 760,-832.5 760,-832.5"/>
<text text-anchor="middle" x="696" y="-836.3" font-family="Helvetica Neue" font-size="14.00"> </text>
<text text-anchor="middle" x="762.94" y="-821.3" font-family="Helvetica Neue" font-size="14.00">HasMany</text>
<text text-anchor="middle" x="762.94" y="-806.3" font-family="Helvetica Neue" font-size="14.00">dataKmsPerempuan</text>
</g>
<!-- appmodelsdatakmsperempuan&#45;&gt;appmodelskmsperempuan -->
<g id="edge4" class="edge">
<title>appmodelsdatakmsperempuan:id_kms_perempuan&#45;&gt;appmodelskmsperempuan:id_kms_perempuan</title>
<path fill="none" stroke="#f77f00" stroke-width="1.8" d="M759.88,-831.7C733.94,-827.32 728.76,-806.21 698,-799.5 663.85,-792.05 659.23,-828.48 627.36,-832.2"/>
<polygon fill="#f77f00" stroke="#f77f00" stroke-width="1.8" points="760.03,-831.71 769.65,-836.99 765.02,-832.11 770,-832.5 770,-832.5 770,-832.5 765.02,-832.11 770.35,-828.01 760.03,-831.71 760.03,-831.71"/>
<polygon fill="#f77f00" stroke="#f77f00" stroke-width="1.8" points="623.28,-837.44 622.71,-827.45 624.71,-827.34 625.28,-837.32 623.28,-837.44"/>
<polyline fill="none" stroke="#f77f00" stroke-width="1.8" points="622,-832.5 626.99,-832.22 "/>
<text text-anchor="middle" x="696" y="-803.3" font-family="Helvetica Neue" font-size="14.00"> </text>
<text text-anchor="middle" x="645.97" y="-788.29" font-family="Helvetica Neue" font-size="14.00">BelongsTo</text>
<text text-anchor="middle" x="645.97" y="-773.29" font-family="Helvetica Neue" font-size="14.00">kmsPerempuan</text>
</g>
</g>
</svg>
