<?xml version="1.0" encoding="UTF-8" standalone="no"?>
<!DOCTYPE svg PUBLIC "-//W3C//DTD SVG 1.1//EN"
 "http://www.w3.org/Graphics/SVG/1.1/DTD/svg11.dtd">
<!-- Generated by graphviz version 2.43.0 (0)
 -->
<!-- Title: G Pages: 1 -->
<svg width="962pt" height="923pt"
 viewBox="0.00 0.00 962.00 922.50" xmlns="http://www.w3.org/2000/svg" xmlns:xlink="http://www.w3.org/1999/xlink">
<g id="graph0" class="graph" transform="scale(1 1) rotate(0) translate(36 886.5)">
<title>G</title>
<polygon fill="#f7f7f7" stroke="transparent" points="-36,36 -36,-886.5 926,-886.5 926,36 -36,36"/>
<!-- appmodelsibu -->
<g id="node1" class="node">
<title>appmodelsibu</title>
<polygon fill="none" stroke="black" points="215,-777 0,-777 0,0 215,0 215,-777"/>
<polygon fill="#d3d3d3" stroke="transparent" points="0.5,-739.5 0.5,-776.5 215.5,-776.5 215.5,-739.5 0.5,-739.5"/>
<polygon fill="none" stroke="black" points="0.5,-739.5 0.5,-776.5 215.5,-776.5 215.5,-739.5 0.5,-739.5"/>
<text text-anchor="start" x="97" y="-754.3" font-family="Helvetica Neue" font-size="14.00" fill="#333333">Ibu</text>
<polygon fill="#ffffff" stroke="transparent" points="0.5,-702.5 0.5,-739.5 215.5,-739.5 215.5,-702.5 0.5,-702.5"/>
<polygon fill="none" stroke="black" points="0.5,-702.5 0.5,-739.5 215.5,-739.5 215.5,-702.5 0.5,-702.5"/>
<text text-anchor="start" x="11.5" y="-717.3" font-family="Helvetica Neue" font-size="14.00" fill="#333333">id_ibu (int8)</text>
<polygon fill="#ffffff" stroke="transparent" points="0.5,-665.5 0.5,-702.5 215.5,-702.5 215.5,-665.5 0.5,-665.5"/>
<polygon fill="none" stroke="black" points="0.5,-665.5 0.5,-702.5 215.5,-702.5 215.5,-665.5 0.5,-665.5"/>
<text text-anchor="start" x="11.5" y="-680.3" font-family="Helvetica Neue" font-size="14.00" fill="#333333">id_user (int8)</text>
<polygon fill="#ffffff" stroke="transparent" points="0.5,-628.5 0.5,-665.5 215.5,-665.5 215.5,-628.5 0.5,-628.5"/>
<polygon fill="none" stroke="black" points="0.5,-628.5 0.5,-665.5 215.5,-665.5 215.5,-628.5 0.5,-628.5"/>
<text text-anchor="start" x="11.5" y="-643.3" font-family="Helvetica Neue" font-size="14.00" fill="#333333">nama (varchar)</text>
<polygon fill="#ffffff" stroke="transparent" points="0.5,-591.5 0.5,-628.5 215.5,-628.5 215.5,-591.5 0.5,-591.5"/>
<polygon fill="none" stroke="black" points="0.5,-591.5 0.5,-628.5 215.5,-628.5 215.5,-591.5 0.5,-591.5"/>
<text text-anchor="start" x="11.5" y="-606.3" font-family="Helvetica Neue" font-size="14.00" fill="#333333">pembiayaan (varchar)</text>
<polygon fill="#ffffff" stroke="transparent" points="0.5,-554.5 0.5,-591.5 215.5,-591.5 215.5,-554.5 0.5,-554.5"/>
<polygon fill="none" stroke="black" points="0.5,-554.5 0.5,-591.5 215.5,-591.5 215.5,-554.5 0.5,-554.5"/>
<text text-anchor="start" x="11.5" y="-569.3" font-family="Helvetica Neue" font-size="14.00" fill="#333333">no_jkn (varchar)</text>
<polygon fill="#ffffff" stroke="transparent" points="0.5,-517.5 0.5,-554.5 215.5,-554.5 215.5,-517.5 0.5,-517.5"/>
<polygon fill="none" stroke="black" points="0.5,-517.5 0.5,-554.5 215.5,-554.5 215.5,-517.5 0.5,-517.5"/>
<text text-anchor="start" x="11.5" y="-532.3" font-family="Helvetica Neue" font-size="14.00" fill="#333333">faskes_tk_1 (varchar)</text>
<polygon fill="#ffffff" stroke="transparent" points="0.5,-480.5 0.5,-517.5 215.5,-517.5 215.5,-480.5 0.5,-480.5"/>
<polygon fill="none" stroke="black" points="0.5,-480.5 0.5,-517.5 215.5,-517.5 215.5,-480.5 0.5,-480.5"/>
<text text-anchor="start" x="11.5" y="-495.3" font-family="Helvetica Neue" font-size="14.00" fill="#333333">faskes_rujukan (varchar)</text>
<polygon fill="#ffffff" stroke="transparent" points="0.5,-443.5 0.5,-480.5 215.5,-480.5 215.5,-443.5 0.5,-443.5"/>
<polygon fill="none" stroke="black" points="0.5,-443.5 0.5,-480.5 215.5,-480.5 215.5,-443.5 0.5,-443.5"/>
<text text-anchor="start" x="11.5" y="-458.3" font-family="Helvetica Neue" font-size="14.00" fill="#333333">gol_darah (bpchar)</text>
<polygon fill="#ffffff" stroke="transparent" points="0.5,-406.5 0.5,-443.5 215.5,-443.5 215.5,-406.5 0.5,-406.5"/>
<polygon fill="none" stroke="black" points="0.5,-406.5 0.5,-443.5 215.5,-443.5 215.5,-406.5 0.5,-406.5"/>
<text text-anchor="start" x="11.5" y="-421.3" font-family="Helvetica Neue" font-size="14.00" fill="#333333">tmpt_lahir (varchar)</text>
<polygon fill="#ffffff" stroke="transparent" points="0.5,-369.5 0.5,-406.5 215.5,-406.5 215.5,-369.5 0.5,-369.5"/>
<polygon fill="none" stroke="black" points="0.5,-369.5 0.5,-406.5 215.5,-406.5 215.5,-369.5 0.5,-369.5"/>
<text text-anchor="start" x="11.5" y="-384.3" font-family="Helvetica Neue" font-size="14.00" fill="#333333">tgl_lahir (date)</text>
<polygon fill="#ffffff" stroke="transparent" points="0.5,-332.5 0.5,-369.5 215.5,-369.5 215.5,-332.5 0.5,-332.5"/>
<polygon fill="none" stroke="black" points="0.5,-332.5 0.5,-369.5 215.5,-369.5 215.5,-332.5 0.5,-332.5"/>
<text text-anchor="start" x="11.5" y="-347.3" font-family="Helvetica Neue" font-size="14.00" fill="#333333">pendidikan (varchar)</text>
<polygon fill="#ffffff" stroke="transparent" points="0.5,-295.5 0.5,-332.5 215.5,-332.5 215.5,-295.5 0.5,-295.5"/>
<polygon fill="none" stroke="black" points="0.5,-295.5 0.5,-332.5 215.5,-332.5 215.5,-295.5 0.5,-295.5"/>
<text text-anchor="start" x="11.5" y="-310.3" font-family="Helvetica Neue" font-size="14.00" fill="#333333">pekerjaan (varchar)</text>
<polygon fill="#ffffff" stroke="transparent" points="0.5,-258.5 0.5,-295.5 215.5,-295.5 215.5,-258.5 0.5,-258.5"/>
<polygon fill="none" stroke="black" points="0.5,-258.5 0.5,-295.5 215.5,-295.5 215.5,-258.5 0.5,-258.5"/>
<text text-anchor="start" x="11.5" y="-273.3" font-family="Helvetica Neue" font-size="14.00" fill="#333333">provinsi (varchar)</text>
<polygon fill="#ffffff" stroke="transparent" points="0.5,-221.5 0.5,-258.5 215.5,-258.5 215.5,-221.5 0.5,-221.5"/>
<polygon fill="none" stroke="black" points="0.5,-221.5 0.5,-258.5 215.5,-258.5 215.5,-221.5 0.5,-221.5"/>
<text text-anchor="start" x="11.5" y="-236.3" font-family="Helvetica Neue" font-size="14.00" fill="#333333">kabupaten (varchar)</text>
<polygon fill="#ffffff" stroke="transparent" points="0.5,-184.5 0.5,-221.5 215.5,-221.5 215.5,-184.5 0.5,-184.5"/>
<polygon fill="none" stroke="black" points="0.5,-184.5 0.5,-221.5 215.5,-221.5 215.5,-184.5 0.5,-184.5"/>
<text text-anchor="start" x="11.5" y="-199.3" font-family="Helvetica Neue" font-size="14.00" fill="#333333">alamat (text)</text>
<polygon fill="#ffffff" stroke="transparent" points="0.5,-147.5 0.5,-184.5 215.5,-184.5 215.5,-147.5 0.5,-147.5"/>
<polygon fill="none" stroke="black" points="0.5,-147.5 0.5,-184.5 215.5,-184.5 215.5,-147.5 0.5,-147.5"/>
<text text-anchor="start" x="11.5" y="-162.3" font-family="Helvetica Neue" font-size="14.00" fill="#333333">telepon (varchar)</text>
<polygon fill="#ffffff" stroke="transparent" points="0.5,-110.5 0.5,-147.5 215.5,-147.5 215.5,-110.5 0.5,-110.5"/>
<polygon fill="none" stroke="black" points="0.5,-110.5 0.5,-147.5 215.5,-147.5 215.5,-110.5 0.5,-110.5"/>
<text text-anchor="start" x="11.5" y="-125.3" font-family="Helvetica Neue" font-size="14.00" fill="#333333">puskesmas_domisili (varchar)</text>
<polygon fill="#ffffff" stroke="transparent" points="0.5,-73.5 0.5,-110.5 215.5,-110.5 215.5,-73.5 0.5,-73.5"/>
<polygon fill="none" stroke="black" points="0.5,-73.5 0.5,-110.5 215.5,-110.5 215.5,-73.5 0.5,-73.5"/>
<text text-anchor="start" x="11.5" y="-88.3" font-family="Helvetica Neue" font-size="14.00" fill="#333333">no_reg_kohort_ibu (varchar)</text>
<polygon fill="#ffffff" stroke="transparent" points="0.5,-36.5 0.5,-73.5 215.5,-73.5 215.5,-36.5 0.5,-36.5"/>
<polygon fill="none" stroke="black" points="0.5,-36.5 0.5,-73.5 215.5,-73.5 215.5,-36.5 0.5,-36.5"/>
<text text-anchor="start" x="11.5" y="-51.3" font-family="Helvetica Neue" font-size="14.00" fill="#333333">created_at (timestamp)</text>
<polygon fill="#ffffff" stroke="transparent" points="0.5,0.5 0.5,-36.5 215.5,-36.5 215.5,0.5 0.5,0.5"/>
<polygon fill="none" stroke="black" points="0.5,0.5 0.5,-36.5 215.5,-36.5 215.5,0.5 0.5,0.5"/>
<text text-anchor="start" x="11.5" y="-14.3" font-family="Helvetica Neue" font-size="14.00" fill="#333333">updated_at (timestamp)</text>
</g>
<!-- appmodelskontrolttd -->
<g id="node2" class="node">
<title>appmodelskontrolttd</title>
<polygon fill="none" stroke="black" points="563,-814 363,-814 363,-555 563,-555 563,-814"/>
<polygon fill="#d3d3d3" stroke="transparent" points="363,-776.5 363,-813.5 563,-813.5 563,-776.5 363,-776.5"/>
<polygon fill="none" stroke="black" points="363,-776.5 363,-813.5 563,-813.5 563,-776.5 363,-776.5"/>
<text text-anchor="start" x="428" y="-791.3" font-family="Helvetica Neue" font-size="14.00" fill="#333333">KontrolTtd</text>
<polygon fill="#ffffff" stroke="transparent" points="363,-739.5 363,-776.5 563,-776.5 563,-739.5 363,-739.5"/>
<polygon fill="none" stroke="black" points="363,-739.5 363,-776.5 563,-776.5 563,-739.5 363,-739.5"/>
<text text-anchor="start" x="374" y="-754.3" font-family="Helvetica Neue" font-size="14.00" fill="#333333">id_kontrol_ttd (int8)</text>
<polygon fill="#ffffff" stroke="transparent" points="363,-702.5 363,-739.5 563,-739.5 563,-702.5 363,-702.5"/>
<polygon fill="none" stroke="black" points="363,-702.5 363,-739.5 563,-739.5 563,-702.5 363,-702.5"/>
<text text-anchor="start" x="374" y="-717.3" font-family="Helvetica Neue" font-size="14.00" fill="#333333">id_ibu (int8)</text>
<polygon fill="#ffffff" stroke="transparent" points="363,-665.5 363,-702.5 563,-702.5 563,-665.5 363,-665.5"/>
<polygon fill="none" stroke="black" points="363,-665.5 363,-702.5 563,-702.5 563,-665.5 363,-665.5"/>
<text text-anchor="start" x="374" y="-680.3" font-family="Helvetica Neue" font-size="14.00" fill="#333333">nama_pengontrol (varchar)</text>
<polygon fill="#ffffff" stroke="transparent" points="363,-628.5 363,-665.5 563,-665.5 563,-628.5 363,-628.5"/>
<polygon fill="none" stroke="black" points="363,-628.5 363,-665.5 563,-665.5 563,-628.5 363,-628.5"/>
<text text-anchor="start" x="374" y="-643.3" font-family="Helvetica Neue" font-size="14.00" fill="#333333">hubungan (varchar)</text>
<polygon fill="#ffffff" stroke="transparent" points="363,-591.5 363,-628.5 563,-628.5 563,-591.5 363,-591.5"/>
<polygon fill="none" stroke="black" points="363,-591.5 363,-628.5 563,-628.5 563,-591.5 363,-591.5"/>
<text text-anchor="start" x="374" y="-606.3" font-family="Helvetica Neue" font-size="14.00" fill="#333333">created_at (timestamp)</text>
<polygon fill="#ffffff" stroke="transparent" points="363,-554.5 363,-591.5 563,-591.5 563,-554.5 363,-554.5"/>
<polygon fill="none" stroke="black" points="363,-554.5 363,-591.5 563,-591.5 563,-554.5 363,-554.5"/>
<text text-anchor="start" x="374" y="-569.3" font-family="Helvetica Neue" font-size="14.00" fill="#333333">updated_at (timestamp)</text>
</g>
<!-- appmodelsibu&#45;&gt;appmodelskontrolttd -->
<g id="edge1" class="edge">
<title>appmodelsibu:id_ibu&#45;&gt;appmodelskontrolttd:id_ibu</title>
<path fill="none" stroke="#fcbf49" stroke-width="1.8" d="M215,-721.5C277.31,-721.5 295.35,-721.5 352.99,-721.5"/>
<polygon fill="#fcbf49" stroke="#fcbf49" stroke-width="1.8" points="353,-721.5 363,-726 358,-721.5 363,-721.5 363,-721.5 363,-721.5 358,-721.5 363,-717 353,-721.5 353,-721.5"/>
<text text-anchor="middle" x="289" y="-725.3" font-family="Helvetica Neue" font-size="14.00"> </text>
<text text-anchor="middle" x="254.44" y="-710.3" font-family="Helvetica Neue" font-size="14.00">HasMany</text>
<text text-anchor="middle" x="254.44" y="-695.3" font-family="Helvetica Neue" font-size="14.00">kontrolTtd</text>
</g>
<!-- appmodelskontrolttd&#45;&gt;appmodelsibu -->
<g id="edge2" class="edge">
<title>appmodelskontrolttd:id_ibu&#45;&gt;appmodelsibu:id_ibu</title>
<path fill="none" stroke="#f77f00" stroke-width="1.8" d="M352.75,-720.33C325.19,-713.7 319.32,-681.45 287,-688.5 254.35,-695.62 250.53,-718.96 220.12,-721.31"/>
<polygon fill="#f77f00" stroke="#f77f00" stroke-width="1.8" points="353.06,-720.37 362.49,-725.97 358.03,-720.93 363,-721.5 363,-721.5 363,-721.5 358.03,-720.93 363.51,-717.03 353.06,-720.37 353.06,-720.37"/>
<polygon fill="#f77f00" stroke="#f77f00" stroke-width="1.8" points="216.19,-726.46 215.81,-716.47 217.81,-716.39 218.19,-726.38 216.19,-726.46"/>
<polyline fill="none" stroke="#f77f00" stroke-width="1.8" points="215,-721.5 220,-721.31 "/>
<text text-anchor="middle" x="289" y="-692.3" font-family="Helvetica Neue" font-size="14.00"> </text>
<text text-anchor="middle" x="312.39" y="-679.93" font-family="Helvetica Neue" font-size="14.00">BelongsTo</text>
<text text-anchor="middle" x="312.39" y="-664.93" font-family="Helvetica Neue" font-size="14.00">ibu</text>
</g>
<!-- appmodelsminumttd -->
<g id="node3" class="node">
<title>appmodelsminumttd</title>
<polygon fill="none" stroke="black" points="890,-850.5 711,-850.5 711,-554.5 890,-554.5 890,-850.5"/>
<polygon fill="#d3d3d3" stroke="transparent" points="711.5,-813.5 711.5,-850.5 890.5,-850.5 890.5,-813.5 711.5,-813.5"/>
<polygon fill="none" stroke="black" points="711.5,-813.5 711.5,-850.5 890.5,-850.5 890.5,-813.5 711.5,-813.5"/>
<text text-anchor="start" x="766.5" y="-828.3" font-family="Helvetica Neue" font-size="14.00" fill="#333333">MinumTtd</text>
<polygon fill="#ffffff" stroke="transparent" points="711.5,-776.5 711.5,-813.5 890.5,-813.5 890.5,-776.5 711.5,-776.5"/>
<polygon fill="none" stroke="black" points="711.5,-776.5 711.5,-813.5 890.5,-813.5 890.5,-776.5 711.5,-776.5"/>
<text text-anchor="start" x="722.5" y="-791.3" font-family="Helvetica Neue" font-size="14.00" fill="#333333">id_minum_ttd (int8)</text>
<polygon fill="#ffffff" stroke="transparent" points="711.5,-739.5 711.5,-776.5 890.5,-776.5 890.5,-739.5 711.5,-739.5"/>
<polygon fill="none" stroke="black" points="711.5,-739.5 711.5,-776.5 890.5,-776.5 890.5,-739.5 711.5,-739.5"/>
<text text-anchor="start" x="722.5" y="-754.3" font-family="Helvetica Neue" font-size="14.00" fill="#333333">id_kontrol_ttd (int8)</text>
<polygon fill="#ffffff" stroke="transparent" points="711.5,-702.5 711.5,-739.5 890.5,-739.5 890.5,-702.5 711.5,-702.5"/>
<polygon fill="none" stroke="black" points="711.5,-702.5 711.5,-739.5 890.5,-739.5 890.5,-702.5 711.5,-702.5"/>
<text text-anchor="start" x="722.5" y="-717.3" font-family="Helvetica Neue" font-size="14.00" fill="#333333">bulan_ke (varchar)</text>
<polygon fill="#ffffff" stroke="transparent" points="711.5,-665.5 711.5,-702.5 890.5,-702.5 890.5,-665.5 711.5,-665.5"/>
<polygon fill="none" stroke="black" points="711.5,-665.5 711.5,-702.5 890.5,-702.5 890.5,-665.5 711.5,-665.5"/>
<text text-anchor="start" x="722.5" y="-680.3" font-family="Helvetica Neue" font-size="14.00" fill="#333333">keterangan (varchar)</text>
<polygon fill="#ffffff" stroke="transparent" points="711.5,-628.5 711.5,-665.5 890.5,-665.5 890.5,-628.5 711.5,-628.5"/>
<polygon fill="none" stroke="black" points="711.5,-628.5 711.5,-665.5 890.5,-665.5 890.5,-628.5 711.5,-628.5"/>
<text text-anchor="start" x="722.5" y="-643.3" font-family="Helvetica Neue" font-size="14.00" fill="#333333">nama_bulan (varchar)</text>
<polygon fill="#ffffff" stroke="transparent" points="711.5,-591.5 711.5,-628.5 890.5,-628.5 890.5,-591.5 711.5,-591.5"/>
<polygon fill="none" stroke="black" points="711.5,-591.5 711.5,-628.5 890.5,-628.5 890.5,-591.5 711.5,-591.5"/>
<text text-anchor="start" x="722.5" y="-606.3" font-family="Helvetica Neue" font-size="14.00" fill="#333333">created_at (timestamp)</text>
<polygon fill="#ffffff" stroke="transparent" points="711.5,-554.5 711.5,-591.5 890.5,-591.5 890.5,-554.5 711.5,-554.5"/>
<polygon fill="none" stroke="black" points="711.5,-554.5 711.5,-591.5 890.5,-591.5 890.5,-554.5 711.5,-554.5"/>
<text text-anchor="start" x="722.5" y="-569.3" font-family="Helvetica Neue" font-size="14.00" fill="#333333">updated_at (timestamp)</text>
</g>
<!-- appmodelskontrolttd&#45;&gt;appmodelsminumttd -->
<g id="edge3" class="edge">
<title>appmodelskontrolttd:id_kontrol_ttd&#45;&gt;appmodelsminumttd:id_kontrol_ttd</title>
<path fill="none" stroke="#fcbf49" stroke-width="1.8" d="M563,-758.5C625.31,-758.5 643.35,-758.5 700.99,-758.5"/>
<polygon fill="#fcbf49" stroke="#fcbf49" stroke-width="1.8" points="701,-758.5 711,-763 706,-758.5 711,-758.5 711,-758.5 711,-758.5 706,-758.5 711,-754 701,-758.5 701,-758.5"/>
<text text-anchor="middle" x="637" y="-762.3" font-family="Helvetica Neue" font-size="14.00"> </text>
<text text-anchor="middle" x="602.44" y="-747.3" font-family="Helvetica Neue" font-size="14.00">HasMany</text>
<text text-anchor="middle" x="602.44" y="-732.3" font-family="Helvetica Neue" font-size="14.00">minumTtd</text>
</g>
<!-- appmodelsminumttd&#45;&gt;appmodelskontrolttd -->
<g id="edge4" class="edge">
<title>appmodelsminumttd:id_kontrol_ttd&#45;&gt;appmodelskontrolttd:id_kontrol_ttd</title>
<path fill="none" stroke="#f77f00" stroke-width="1.8" d="M700.75,-757.33C673.19,-750.7 667.32,-718.45 635,-725.5 602.35,-732.62 598.53,-755.96 568.12,-758.31"/>
<polygon fill="#f77f00" stroke="#f77f00" stroke-width="1.8" points="701.06,-757.37 710.49,-762.97 706.03,-757.93 711,-758.5 711,-758.5 711,-758.5 706.03,-757.93 711.51,-754.03 701.06,-757.37 701.06,-757.37"/>
<polygon fill="#f77f00" stroke="#f77f00" stroke-width="1.8" points="564.19,-763.46 563.81,-753.47 565.81,-753.39 566.19,-763.38 564.19,-763.46"/>
<polyline fill="none" stroke="#f77f00" stroke-width="1.8" points="563,-758.5 568,-758.31 "/>
<text text-anchor="middle" x="637" y="-729.3" font-family="Helvetica Neue" font-size="14.00"> </text>
<text text-anchor="middle" x="660.39" y="-716.93" font-family="Helvetica Neue" font-size="14.00">BelongsTo</text>
<text text-anchor="middle" x="660.39" y="-701.93" font-family="Helvetica Neue" font-size="14.00">kontrolTtd</text>
</g>
</g>
</svg>
