<?xml version="1.0" encoding="UTF-8" standalone="no"?>
<!DOCTYPE svg PUBLIC "-//W3C//DTD SVG 1.1//EN"
 "http://www.w3.org/Graphics/SVG/1.1/DTD/svg11.dtd">
<!-- Generated by graphviz version 2.43.0 (0)
 -->
<!-- Title: G Pages: 1 -->
<svg width="1111pt" height="2178pt"
 viewBox="0.00 0.00 1111.00 2178.00" xmlns="http://www.w3.org/2000/svg" xmlns:xlink="http://www.w3.org/1999/xlink">
<g id="graph0" class="graph" transform="scale(1 1) rotate(0) translate(36 2142)">
<title>G</title>
<polygon fill="#f7f7f7" stroke="transparent" points="-36,36 -36,-2142 1075,-2142 1075,36 -36,36"/>
<!-- appmodelsibu -->
<g id="node1" class="node">
<title>appmodelsibu</title>
<polygon fill="none" stroke="black" points="215,-1367.5 0,-1367.5 0,-590.5 215,-590.5 215,-1367.5"/>
<polygon fill="#d3d3d3" stroke="transparent" points="0.5,-1330 0.5,-1367 215.5,-1367 215.5,-1330 0.5,-1330"/>
<polygon fill="none" stroke="black" points="0.5,-1330 0.5,-1367 215.5,-1367 215.5,-1330 0.5,-1330"/>
<text text-anchor="start" x="97" y="-1344.8" font-family="Helvetica Neue" font-size="14.00" fill="#333333">Ibu</text>
<polygon fill="#ffffff" stroke="transparent" points="0.5,-1293 0.5,-1330 215.5,-1330 215.5,-1293 0.5,-1293"/>
<polygon fill="none" stroke="black" points="0.5,-1293 0.5,-1330 215.5,-1330 215.5,-1293 0.5,-1293"/>
<text text-anchor="start" x="11.5" y="-1307.8" font-family="Helvetica Neue" font-size="14.00" fill="#333333">id_ibu (int8)</text>
<polygon fill="#ffffff" stroke="transparent" points="0.5,-1256 0.5,-1293 215.5,-1293 215.5,-1256 0.5,-1256"/>
<polygon fill="none" stroke="black" points="0.5,-1256 0.5,-1293 215.5,-1293 215.5,-1256 0.5,-1256"/>
<text text-anchor="start" x="11.5" y="-1270.8" font-family="Helvetica Neue" font-size="14.00" fill="#333333">id_user (int8)</text>
<polygon fill="#ffffff" stroke="transparent" points="0.5,-1219 0.5,-1256 215.5,-1256 215.5,-1219 0.5,-1219"/>
<polygon fill="none" stroke="black" points="0.5,-1219 0.5,-1256 215.5,-1256 215.5,-1219 0.5,-1219"/>
<text text-anchor="start" x="11.5" y="-1233.8" font-family="Helvetica Neue" font-size="14.00" fill="#333333">nama (varchar)</text>
<polygon fill="#ffffff" stroke="transparent" points="0.5,-1182 0.5,-1219 215.5,-1219 215.5,-1182 0.5,-1182"/>
<polygon fill="none" stroke="black" points="0.5,-1182 0.5,-1219 215.5,-1219 215.5,-1182 0.5,-1182"/>
<text text-anchor="start" x="11.5" y="-1196.8" font-family="Helvetica Neue" font-size="14.00" fill="#333333">pembiayaan (varchar)</text>
<polygon fill="#ffffff" stroke="transparent" points="0.5,-1145 0.5,-1182 215.5,-1182 215.5,-1145 0.5,-1145"/>
<polygon fill="none" stroke="black" points="0.5,-1145 0.5,-1182 215.5,-1182 215.5,-1145 0.5,-1145"/>
<text text-anchor="start" x="11.5" y="-1159.8" font-family="Helvetica Neue" font-size="14.00" fill="#333333">no_jkn (varchar)</text>
<polygon fill="#ffffff" stroke="transparent" points="0.5,-1108 0.5,-1145 215.5,-1145 215.5,-1108 0.5,-1108"/>
<polygon fill="none" stroke="black" points="0.5,-1108 0.5,-1145 215.5,-1145 215.5,-1108 0.5,-1108"/>
<text text-anchor="start" x="11.5" y="-1122.8" font-family="Helvetica Neue" font-size="14.00" fill="#333333">faskes_tk_1 (varchar)</text>
<polygon fill="#ffffff" stroke="transparent" points="0.5,-1071 0.5,-1108 215.5,-1108 215.5,-1071 0.5,-1071"/>
<polygon fill="none" stroke="black" points="0.5,-1071 0.5,-1108 215.5,-1108 215.5,-1071 0.5,-1071"/>
<text text-anchor="start" x="11.5" y="-1085.8" font-family="Helvetica Neue" font-size="14.00" fill="#333333">faskes_rujukan (varchar)</text>
<polygon fill="#ffffff" stroke="transparent" points="0.5,-1034 0.5,-1071 215.5,-1071 215.5,-1034 0.5,-1034"/>
<polygon fill="none" stroke="black" points="0.5,-1034 0.5,-1071 215.5,-1071 215.5,-1034 0.5,-1034"/>
<text text-anchor="start" x="11.5" y="-1048.8" font-family="Helvetica Neue" font-size="14.00" fill="#333333">gol_darah (bpchar)</text>
<polygon fill="#ffffff" stroke="transparent" points="0.5,-997 0.5,-1034 215.5,-1034 215.5,-997 0.5,-997"/>
<polygon fill="none" stroke="black" points="0.5,-997 0.5,-1034 215.5,-1034 215.5,-997 0.5,-997"/>
<text text-anchor="start" x="11.5" y="-1011.8" font-family="Helvetica Neue" font-size="14.00" fill="#333333">tmpt_lahir (varchar)</text>
<polygon fill="#ffffff" stroke="transparent" points="0.5,-960 0.5,-997 215.5,-997 215.5,-960 0.5,-960"/>
<polygon fill="none" stroke="black" points="0.5,-960 0.5,-997 215.5,-997 215.5,-960 0.5,-960"/>
<text text-anchor="start" x="11.5" y="-974.8" font-family="Helvetica Neue" font-size="14.00" fill="#333333">tgl_lahir (date)</text>
<polygon fill="#ffffff" stroke="transparent" points="0.5,-923 0.5,-960 215.5,-960 215.5,-923 0.5,-923"/>
<polygon fill="none" stroke="black" points="0.5,-923 0.5,-960 215.5,-960 215.5,-923 0.5,-923"/>
<text text-anchor="start" x="11.5" y="-937.8" font-family="Helvetica Neue" font-size="14.00" fill="#333333">pendidikan (varchar)</text>
<polygon fill="#ffffff" stroke="transparent" points="0.5,-886 0.5,-923 215.5,-923 215.5,-886 0.5,-886"/>
<polygon fill="none" stroke="black" points="0.5,-886 0.5,-923 215.5,-923 215.5,-886 0.5,-886"/>
<text text-anchor="start" x="11.5" y="-900.8" font-family="Helvetica Neue" font-size="14.00" fill="#333333">pekerjaan (varchar)</text>
<polygon fill="#ffffff" stroke="transparent" points="0.5,-849 0.5,-886 215.5,-886 215.5,-849 0.5,-849"/>
<polygon fill="none" stroke="black" points="0.5,-849 0.5,-886 215.5,-886 215.5,-849 0.5,-849"/>
<text text-anchor="start" x="11.5" y="-863.8" font-family="Helvetica Neue" font-size="14.00" fill="#333333">provinsi (varchar)</text>
<polygon fill="#ffffff" stroke="transparent" points="0.5,-812 0.5,-849 215.5,-849 215.5,-812 0.5,-812"/>
<polygon fill="none" stroke="black" points="0.5,-812 0.5,-849 215.5,-849 215.5,-812 0.5,-812"/>
<text text-anchor="start" x="11.5" y="-826.8" font-family="Helvetica Neue" font-size="14.00" fill="#333333">kabupaten (varchar)</text>
<polygon fill="#ffffff" stroke="transparent" points="0.5,-775 0.5,-812 215.5,-812 215.5,-775 0.5,-775"/>
<polygon fill="none" stroke="black" points="0.5,-775 0.5,-812 215.5,-812 215.5,-775 0.5,-775"/>
<text text-anchor="start" x="11.5" y="-789.8" font-family="Helvetica Neue" font-size="14.00" fill="#333333">alamat (text)</text>
<polygon fill="#ffffff" stroke="transparent" points="0.5,-738 0.5,-775 215.5,-775 215.5,-738 0.5,-738"/>
<polygon fill="none" stroke="black" points="0.5,-738 0.5,-775 215.5,-775 215.5,-738 0.5,-738"/>
<text text-anchor="start" x="11.5" y="-752.8" font-family="Helvetica Neue" font-size="14.00" fill="#333333">telepon (varchar)</text>
<polygon fill="#ffffff" stroke="transparent" points="0.5,-701 0.5,-738 215.5,-738 215.5,-701 0.5,-701"/>
<polygon fill="none" stroke="black" points="0.5,-701 0.5,-738 215.5,-738 215.5,-701 0.5,-701"/>
<text text-anchor="start" x="11.5" y="-715.8" font-family="Helvetica Neue" font-size="14.00" fill="#333333">puskesmas_domisili (varchar)</text>
<polygon fill="#ffffff" stroke="transparent" points="0.5,-664 0.5,-701 215.5,-701 215.5,-664 0.5,-664"/>
<polygon fill="none" stroke="black" points="0.5,-664 0.5,-701 215.5,-701 215.5,-664 0.5,-664"/>
<text text-anchor="start" x="11.5" y="-678.8" font-family="Helvetica Neue" font-size="14.00" fill="#333333">no_reg_kohort_ibu (varchar)</text>
<polygon fill="#ffffff" stroke="transparent" points="0.5,-627 0.5,-664 215.5,-664 215.5,-627 0.5,-627"/>
<polygon fill="none" stroke="black" points="0.5,-627 0.5,-664 215.5,-664 215.5,-627 0.5,-627"/>
<text text-anchor="start" x="11.5" y="-641.8" font-family="Helvetica Neue" font-size="14.00" fill="#333333">created_at (timestamp)</text>
<polygon fill="#ffffff" stroke="transparent" points="0.5,-590 0.5,-627 215.5,-627 215.5,-590 0.5,-590"/>
<polygon fill="none" stroke="black" points="0.5,-590 0.5,-627 215.5,-627 215.5,-590 0.5,-590"/>
<text text-anchor="start" x="11.5" y="-604.8" font-family="Helvetica Neue" font-size="14.00" fill="#333333">updated_at (timestamp)</text>
</g>
<!-- appmodelspemeriksaantrimester1 -->
<g id="node2" class="node">
<title>appmodelspemeriksaantrimester1</title>
<polygon fill="none" stroke="black" points="605,-1404.5 363,-1404.5 363,-1145.5 605,-1145.5 605,-1404.5"/>
<polygon fill="#d3d3d3" stroke="transparent" points="363,-1367 363,-1404 605,-1404 605,-1367 363,-1367"/>
<polygon fill="none" stroke="black" points="363,-1367 363,-1404 605,-1404 605,-1367 363,-1367"/>
<text text-anchor="start" x="405" y="-1381.8" font-family="Helvetica Neue" font-size="14.00" fill="#333333">PemeriksaanTrimester1</text>
<polygon fill="#ffffff" stroke="transparent" points="363,-1330 363,-1367 605,-1367 605,-1330 363,-1330"/>
<polygon fill="none" stroke="black" points="363,-1330 363,-1367 605,-1367 605,-1330 363,-1330"/>
<text text-anchor="start" x="374" y="-1344.8" font-family="Helvetica Neue" font-size="14.00" fill="#333333">id_pemeriksaan_trimester1 (int8)</text>
<polygon fill="#ffffff" stroke="transparent" points="363,-1293 363,-1330 605,-1330 605,-1293 363,-1293"/>
<polygon fill="none" stroke="black" points="363,-1293 363,-1330 605,-1330 605,-1293 363,-1293"/>
<text text-anchor="start" x="374" y="-1307.8" font-family="Helvetica Neue" font-size="14.00" fill="#333333">id_ibu (int8)</text>
<polygon fill="#ffffff" stroke="transparent" points="363,-1256 363,-1293 605,-1293 605,-1256 363,-1256"/>
<polygon fill="none" stroke="black" points="363,-1256 363,-1293 605,-1293 605,-1256 363,-1256"/>
<text text-anchor="start" x="374" y="-1270.8" font-family="Helvetica Neue" font-size="14.00" fill="#333333">kesimpulan (text)</text>
<polygon fill="#ffffff" stroke="transparent" points="363,-1219 363,-1256 605,-1256 605,-1219 363,-1219"/>
<polygon fill="none" stroke="black" points="363,-1219 363,-1256 605,-1256 605,-1219 363,-1219"/>
<text text-anchor="start" x="374" y="-1233.8" font-family="Helvetica Neue" font-size="14.00" fill="#333333">rekomendasi (text)</text>
<polygon fill="#ffffff" stroke="transparent" points="363,-1182 363,-1219 605,-1219 605,-1182 363,-1182"/>
<polygon fill="none" stroke="black" points="363,-1182 363,-1219 605,-1219 605,-1182 363,-1182"/>
<text text-anchor="start" x="374" y="-1196.8" font-family="Helvetica Neue" font-size="14.00" fill="#333333">created_at (timestamp)</text>
<polygon fill="#ffffff" stroke="transparent" points="363,-1145 363,-1182 605,-1182 605,-1145 363,-1145"/>
<polygon fill="none" stroke="black" points="363,-1145 363,-1182 605,-1182 605,-1145 363,-1145"/>
<text text-anchor="start" x="374" y="-1159.8" font-family="Helvetica Neue" font-size="14.00" fill="#333333">updated_at (timestamp)</text>
</g>
<!-- appmodelsibu&#45;&gt;appmodelspemeriksaantrimester1 -->
<g id="edge1" class="edge">
<title>appmodelsibu:id_ibu&#45;&gt;appmodelspemeriksaantrimester1:id_ibu</title>
<path fill="none" stroke="#fcbf49" stroke-width="1.8" d="M215,-1312C277.31,-1312 295.35,-1312 352.99,-1312"/>
<polygon fill="#fcbf49" stroke="#fcbf49" stroke-width="1.8" points="353,-1312 363,-1316.5 358,-1312 363,-1312 363,-1312 363,-1312 358,-1312 363,-1307.5 353,-1312 353,-1312"/>
<text text-anchor="middle" x="289" y="-1315.8" font-family="Helvetica Neue" font-size="14.00"> </text>
<text text-anchor="middle" x="209.94" y="-1300.8" font-family="Helvetica Neue" font-size="14.00">HasMany</text>
<text text-anchor="middle" x="209.94" y="-1285.8" font-family="Helvetica Neue" font-size="14.00">pemeriksaanTrimester1</text>
</g>
<!-- appmodelspemeriksaantrimester1&#45;&gt;appmodelsibu -->
<g id="edge2" class="edge">
<title>appmodelspemeriksaantrimester1:id_ibu&#45;&gt;appmodelsibu:id_ibu</title>
<path fill="none" stroke="#f77f00" stroke-width="1.8" d="M352.75,-1310.83C325.19,-1304.2 319.32,-1271.95 287,-1279 254.35,-1286.12 250.53,-1309.46 220.12,-1311.81"/>
<polygon fill="#f77f00" stroke="#f77f00" stroke-width="1.8" points="353.06,-1310.87 362.49,-1316.47 358.03,-1311.43 363,-1312 363,-1312 363,-1312 358.03,-1311.43 363.51,-1307.53 353.06,-1310.87 353.06,-1310.87"/>
<polygon fill="#f77f00" stroke="#f77f00" stroke-width="1.8" points="216.19,-1316.96 215.81,-1306.97 217.81,-1306.89 218.19,-1316.88 216.19,-1316.96"/>
<polyline fill="none" stroke="#f77f00" stroke-width="1.8" points="215,-1312 220,-1311.81 "/>
<text text-anchor="middle" x="289" y="-1282.8" font-family="Helvetica Neue" font-size="14.00"> </text>
<text text-anchor="middle" x="312.39" y="-1270.43" font-family="Helvetica Neue" font-size="14.00">BelongsTo</text>
<text text-anchor="middle" x="312.39" y="-1255.43" font-family="Helvetica Neue" font-size="14.00">ibu</text>
</g>
<!-- appmodelspemeriksaanfisiktri1 -->
<g id="node3" class="node">
<title>appmodelspemeriksaanfisiktri1</title>
<polygon fill="none" stroke="black" points="1017,-2106 775,-2106 775,-1514 1017,-1514 1017,-2106"/>
<polygon fill="#d3d3d3" stroke="transparent" points="775,-2069 775,-2106 1017,-2106 1017,-2069 775,-2069"/>
<polygon fill="none" stroke="black" points="775,-2069 775,-2106 1017,-2106 1017,-2069 775,-2069"/>
<text text-anchor="start" x="826" y="-2083.8" font-family="Helvetica Neue" font-size="14.00" fill="#333333">PemeriksaanFisikTri1</text>
<polygon fill="#ffffff" stroke="transparent" points="775,-2032 775,-2069 1017,-2069 1017,-2032 775,-2032"/>
<polygon fill="none" stroke="black" points="775,-2032 775,-2069 1017,-2069 1017,-2032 775,-2032"/>
<text text-anchor="start" x="786" y="-2046.8" font-family="Helvetica Neue" font-size="14.00" fill="#333333">id_pemeriksaan_fisik_tri1 (int8)</text>
<polygon fill="#ffffff" stroke="transparent" points="775,-1995 775,-2032 1017,-2032 1017,-1995 775,-1995"/>
<polygon fill="none" stroke="black" points="775,-1995 775,-2032 1017,-2032 1017,-1995 775,-1995"/>
<text text-anchor="start" x="786" y="-2009.8" font-family="Helvetica Neue" font-size="14.00" fill="#333333">id_pemeriksaan_trimester1 (int8)</text>
<polygon fill="#ffffff" stroke="transparent" points="775,-1958 775,-1995 1017,-1995 1017,-1958 775,-1958"/>
<polygon fill="none" stroke="black" points="775,-1958 775,-1995 1017,-1995 1017,-1958 775,-1958"/>
<text text-anchor="start" x="786" y="-1972.8" font-family="Helvetica Neue" font-size="14.00" fill="#333333">keadaan_umum (varchar)</text>
<polygon fill="#ffffff" stroke="transparent" points="775,-1921 775,-1958 1017,-1958 1017,-1921 775,-1921"/>
<polygon fill="none" stroke="black" points="775,-1921 775,-1958 1017,-1958 1017,-1921 775,-1921"/>
<text text-anchor="start" x="786" y="-1935.8" font-family="Helvetica Neue" font-size="14.00" fill="#333333">konjuctiva (varchar)</text>
<polygon fill="#ffffff" stroke="transparent" points="775,-1884 775,-1921 1017,-1921 1017,-1884 775,-1884"/>
<polygon fill="none" stroke="black" points="775,-1884 775,-1921 1017,-1921 1017,-1884 775,-1884"/>
<text text-anchor="start" x="786" y="-1898.8" font-family="Helvetica Neue" font-size="14.00" fill="#333333">sklera (varchar)</text>
<polygon fill="#ffffff" stroke="transparent" points="775,-1847 775,-1884 1017,-1884 1017,-1847 775,-1847"/>
<polygon fill="none" stroke="black" points="775,-1847 775,-1884 1017,-1884 1017,-1847 775,-1847"/>
<text text-anchor="start" x="786" y="-1861.8" font-family="Helvetica Neue" font-size="14.00" fill="#333333">kulit (varchar)</text>
<polygon fill="#ffffff" stroke="transparent" points="775,-1810 775,-1847 1017,-1847 1017,-1810 775,-1810"/>
<polygon fill="none" stroke="black" points="775,-1810 775,-1847 1017,-1847 1017,-1810 775,-1810"/>
<text text-anchor="start" x="786" y="-1824.8" font-family="Helvetica Neue" font-size="14.00" fill="#333333">leher (varchar)</text>
<polygon fill="#ffffff" stroke="transparent" points="775,-1773 775,-1810 1017,-1810 1017,-1773 775,-1773"/>
<polygon fill="none" stroke="black" points="775,-1773 775,-1810 1017,-1810 1017,-1773 775,-1773"/>
<text text-anchor="start" x="786" y="-1787.8" font-family="Helvetica Neue" font-size="14.00" fill="#333333">gigi_mulut (varchar)</text>
<polygon fill="#ffffff" stroke="transparent" points="775,-1736 775,-1773 1017,-1773 1017,-1736 775,-1736"/>
<polygon fill="none" stroke="black" points="775,-1736 775,-1773 1017,-1773 1017,-1736 775,-1736"/>
<text text-anchor="start" x="786" y="-1750.8" font-family="Helvetica Neue" font-size="14.00" fill="#333333">tht (varchar)</text>
<polygon fill="#ffffff" stroke="transparent" points="775,-1699 775,-1736 1017,-1736 1017,-1699 775,-1699"/>
<polygon fill="none" stroke="black" points="775,-1699 775,-1736 1017,-1736 1017,-1699 775,-1699"/>
<text text-anchor="start" x="786" y="-1713.8" font-family="Helvetica Neue" font-size="14.00" fill="#333333">jantung (varchar)</text>
<polygon fill="#ffffff" stroke="transparent" points="775,-1662 775,-1699 1017,-1699 1017,-1662 775,-1662"/>
<polygon fill="none" stroke="black" points="775,-1662 775,-1699 1017,-1699 1017,-1662 775,-1662"/>
<text text-anchor="start" x="786" y="-1676.8" font-family="Helvetica Neue" font-size="14.00" fill="#333333">paru (varchar)</text>
<polygon fill="#ffffff" stroke="transparent" points="775,-1625 775,-1662 1017,-1662 1017,-1625 775,-1625"/>
<polygon fill="none" stroke="black" points="775,-1625 775,-1662 1017,-1662 1017,-1625 775,-1625"/>
<text text-anchor="start" x="786" y="-1639.8" font-family="Helvetica Neue" font-size="14.00" fill="#333333">perut (varchar)</text>
<polygon fill="#ffffff" stroke="transparent" points="775,-1588 775,-1625 1017,-1625 1017,-1588 775,-1588"/>
<polygon fill="none" stroke="black" points="775,-1588 775,-1625 1017,-1625 1017,-1588 775,-1588"/>
<text text-anchor="start" x="786" y="-1602.8" font-family="Helvetica Neue" font-size="14.00" fill="#333333">tungkai (varchar)</text>
<polygon fill="#ffffff" stroke="transparent" points="775,-1551 775,-1588 1017,-1588 1017,-1551 775,-1551"/>
<polygon fill="none" stroke="black" points="775,-1551 775,-1588 1017,-1588 1017,-1551 775,-1551"/>
<text text-anchor="start" x="786" y="-1565.8" font-family="Helvetica Neue" font-size="14.00" fill="#333333">created_at (timestamp)</text>
<polygon fill="#ffffff" stroke="transparent" points="775,-1514 775,-1551 1017,-1551 1017,-1514 775,-1514"/>
<polygon fill="none" stroke="black" points="775,-1514 775,-1551 1017,-1551 1017,-1514 775,-1514"/>
<text text-anchor="start" x="786" y="-1528.8" font-family="Helvetica Neue" font-size="14.00" fill="#333333">updated_at (timestamp)</text>
</g>
<!-- appmodelspemeriksaantrimester1&#45;&gt;appmodelspemeriksaanfisiktri1 -->
<g id="edge3" class="edge">
<title>appmodelspemeriksaantrimester1:id_pemeriksaan_trimester1&#45;&gt;appmodelspemeriksaanfisiktri1:id_pemeriksaan_trimester1</title>
<path fill="none" stroke="#fcbf49" stroke-width="1.8" d="M605,-1349C697.72,-1349 652.35,-1670.61 677,-1760 708.19,-1873.08 656.36,-2005.96 763.83,-2013.65"/>
<polygon fill="#fcbf49" stroke="#fcbf49" stroke-width="1.8" points="764.01,-2013.66 773.85,-2018.5 769,-2013.83 774,-2014 774,-2014 774,-2014 769,-2013.83 774.15,-2009.5 764.01,-2013.66 764.01,-2013.66"/>
<text text-anchor="middle" x="679" y="-1777.8" font-family="Helvetica Neue" font-size="14.00"> </text>
<text text-anchor="middle" x="598.93" y="-1671.17" font-family="Helvetica Neue" font-size="14.00">HasMany</text>
<text text-anchor="middle" x="598.93" y="-1656.17" font-family="Helvetica Neue" font-size="14.00">pemeriksaanFisikTri1</text>
</g>
<!-- appmodelspemeriksaanlaboratoriumtri1 -->
<g id="node4" class="node">
<title>appmodelspemeriksaanlaboratoriumtri1</title>
<polygon fill="none" stroke="black" points="1039,-1441.5 753,-1441.5 753,-590.5 1039,-590.5 1039,-1441.5"/>
<polygon fill="#d3d3d3" stroke="transparent" points="753,-1404 753,-1441 1039,-1441 1039,-1404 753,-1404"/>
<polygon fill="none" stroke="black" points="753,-1404 753,-1441 1039,-1441 1039,-1404 753,-1404"/>
<text text-anchor="start" x="796" y="-1418.8" font-family="Helvetica Neue" font-size="14.00" fill="#333333">PemeriksaanLaboratoriumTri1</text>
<polygon fill="#ffffff" stroke="transparent" points="753,-1367 753,-1404 1039,-1404 1039,-1367 753,-1367"/>
<polygon fill="none" stroke="black" points="753,-1367 753,-1404 1039,-1404 1039,-1367 753,-1367"/>
<text text-anchor="start" x="764" y="-1381.8" font-family="Helvetica Neue" font-size="14.00" fill="#333333">id_pemeriksaan_laboratorium_tri1 (int8)</text>
<polygon fill="#ffffff" stroke="transparent" points="753,-1330 753,-1367 1039,-1367 1039,-1330 753,-1330"/>
<polygon fill="none" stroke="black" points="753,-1330 753,-1367 1039,-1367 1039,-1330 753,-1330"/>
<text text-anchor="start" x="764" y="-1344.8" font-family="Helvetica Neue" font-size="14.00" fill="#333333">id_pemeriksaan_trimester1 (int8)</text>
<polygon fill="#ffffff" stroke="transparent" points="753,-1293 753,-1330 1039,-1330 1039,-1293 753,-1293"/>
<polygon fill="none" stroke="black" points="753,-1293 753,-1330 1039,-1330 1039,-1293 753,-1293"/>
<text text-anchor="start" x="764" y="-1307.8" font-family="Helvetica Neue" font-size="14.00" fill="#333333">tanggal (timestamp)</text>
<polygon fill="#ffffff" stroke="transparent" points="753,-1256 753,-1293 1039,-1293 1039,-1256 753,-1256"/>
<polygon fill="none" stroke="black" points="753,-1256 753,-1293 1039,-1293 1039,-1256 753,-1256"/>
<text text-anchor="start" x="764" y="-1270.8" font-family="Helvetica Neue" font-size="14.00" fill="#333333">hemoglobin (float8)</text>
<polygon fill="#ffffff" stroke="transparent" points="753,-1219 753,-1256 1039,-1256 1039,-1219 753,-1219"/>
<polygon fill="none" stroke="black" points="753,-1219 753,-1256 1039,-1256 1039,-1219 753,-1219"/>
<text text-anchor="start" x="764" y="-1233.8" font-family="Helvetica Neue" font-size="14.00" fill="#333333">tindak_hemoglobin (text)</text>
<polygon fill="#ffffff" stroke="transparent" points="753,-1182 753,-1219 1039,-1219 1039,-1182 753,-1182"/>
<polygon fill="none" stroke="black" points="753,-1182 753,-1219 1039,-1219 1039,-1182 753,-1182"/>
<text text-anchor="start" x="764" y="-1196.8" font-family="Helvetica Neue" font-size="14.00" fill="#333333">goldar (varchar)</text>
<polygon fill="#ffffff" stroke="transparent" points="753,-1145 753,-1182 1039,-1182 1039,-1145 753,-1145"/>
<polygon fill="none" stroke="black" points="753,-1145 753,-1182 1039,-1182 1039,-1145 753,-1145"/>
<text text-anchor="start" x="764" y="-1159.8" font-family="Helvetica Neue" font-size="14.00" fill="#333333">rhesus (varchar)</text>
<polygon fill="#ffffff" stroke="transparent" points="753,-1108 753,-1145 1039,-1145 1039,-1108 753,-1108"/>
<polygon fill="none" stroke="black" points="753,-1108 753,-1145 1039,-1145 1039,-1108 753,-1108"/>
<text text-anchor="start" x="764" y="-1122.8" font-family="Helvetica Neue" font-size="14.00" fill="#333333">tindak_goldar_rhesus (text)</text>
<polygon fill="#ffffff" stroke="transparent" points="753,-1071 753,-1108 1039,-1108 1039,-1071 753,-1071"/>
<polygon fill="none" stroke="black" points="753,-1071 753,-1108 1039,-1108 1039,-1071 753,-1071"/>
<text text-anchor="start" x="764" y="-1085.8" font-family="Helvetica Neue" font-size="14.00" fill="#333333">gula_darah_sewaktu (float8)</text>
<polygon fill="#ffffff" stroke="transparent" points="753,-1034 753,-1071 1039,-1071 1039,-1034 753,-1034"/>
<polygon fill="none" stroke="black" points="753,-1034 753,-1071 1039,-1071 1039,-1034 753,-1034"/>
<text text-anchor="start" x="764" y="-1048.8" font-family="Helvetica Neue" font-size="14.00" fill="#333333">tindak_gula_darah (text)</text>
<polygon fill="#ffffff" stroke="transparent" points="753,-997 753,-1034 1039,-1034 1039,-997 753,-997"/>
<polygon fill="none" stroke="black" points="753,-997 753,-1034 1039,-1034 1039,-997 753,-997"/>
<text text-anchor="start" x="764" y="-1011.8" font-family="Helvetica Neue" font-size="14.00" fill="#333333">ppia (varchar)</text>
<polygon fill="#ffffff" stroke="transparent" points="753,-960 753,-997 1039,-997 1039,-960 753,-960"/>
<polygon fill="none" stroke="black" points="753,-960 753,-997 1039,-997 1039,-960 753,-960"/>
<text text-anchor="start" x="764" y="-974.8" font-family="Helvetica Neue" font-size="14.00" fill="#333333">tindak_ppia (text)</text>
<polygon fill="#ffffff" stroke="transparent" points="753,-923 753,-960 1039,-960 1039,-923 753,-923"/>
<polygon fill="none" stroke="black" points="753,-923 753,-960 1039,-960 1039,-923 753,-923"/>
<text text-anchor="start" x="764" y="-937.8" font-family="Helvetica Neue" font-size="14.00" fill="#333333">h (varchar)</text>
<polygon fill="#ffffff" stroke="transparent" points="753,-886 753,-923 1039,-923 1039,-886 753,-886"/>
<polygon fill="none" stroke="black" points="753,-886 753,-923 1039,-923 1039,-886 753,-886"/>
<text text-anchor="start" x="764" y="-900.8" font-family="Helvetica Neue" font-size="14.00" fill="#333333">tindak_h (text)</text>
<polygon fill="#ffffff" stroke="transparent" points="753,-849 753,-886 1039,-886 1039,-849 753,-849"/>
<polygon fill="none" stroke="black" points="753,-849 753,-886 1039,-886 1039,-849 753,-849"/>
<text text-anchor="start" x="764" y="-863.8" font-family="Helvetica Neue" font-size="14.00" fill="#333333">s (varchar)</text>
<polygon fill="#ffffff" stroke="transparent" points="753,-812 753,-849 1039,-849 1039,-812 753,-812"/>
<polygon fill="none" stroke="black" points="753,-812 753,-849 1039,-849 1039,-812 753,-812"/>
<text text-anchor="start" x="764" y="-826.8" font-family="Helvetica Neue" font-size="14.00" fill="#333333">tindak_s (text)</text>
<polygon fill="#ffffff" stroke="transparent" points="753,-775 753,-812 1039,-812 1039,-775 753,-775"/>
<polygon fill="none" stroke="black" points="753,-775 753,-812 1039,-812 1039,-775 753,-775"/>
<text text-anchor="start" x="764" y="-789.8" font-family="Helvetica Neue" font-size="14.00" fill="#333333">hepatitis_b (varchar)</text>
<polygon fill="#ffffff" stroke="transparent" points="753,-738 753,-775 1039,-775 1039,-738 753,-738"/>
<polygon fill="none" stroke="black" points="753,-738 753,-775 1039,-775 1039,-738 753,-738"/>
<text text-anchor="start" x="764" y="-752.8" font-family="Helvetica Neue" font-size="14.00" fill="#333333">tindak_hepatitis_b (text)</text>
<polygon fill="#ffffff" stroke="transparent" points="753,-701 753,-738 1039,-738 1039,-701 753,-701"/>
<polygon fill="none" stroke="black" points="753,-701 753,-738 1039,-738 1039,-701 753,-701"/>
<text text-anchor="start" x="764" y="-715.8" font-family="Helvetica Neue" font-size="14.00" fill="#333333">lain_lain (text)</text>
<polygon fill="#ffffff" stroke="transparent" points="753,-664 753,-701 1039,-701 1039,-664 753,-664"/>
<polygon fill="none" stroke="black" points="753,-664 753,-701 1039,-701 1039,-664 753,-664"/>
<text text-anchor="start" x="764" y="-678.8" font-family="Helvetica Neue" font-size="14.00" fill="#333333">tindak_lain_lain (text)</text>
<polygon fill="#ffffff" stroke="transparent" points="753,-627 753,-664 1039,-664 1039,-627 753,-627"/>
<polygon fill="none" stroke="black" points="753,-627 753,-664 1039,-664 1039,-627 753,-627"/>
<text text-anchor="start" x="764" y="-641.8" font-family="Helvetica Neue" font-size="14.00" fill="#333333">created_at (timestamp)</text>
<polygon fill="#ffffff" stroke="transparent" points="753,-590 753,-627 1039,-627 1039,-590 753,-590"/>
<polygon fill="none" stroke="black" points="753,-590 753,-627 1039,-627 1039,-590 753,-590"/>
<text text-anchor="start" x="764" y="-604.8" font-family="Helvetica Neue" font-size="14.00" fill="#333333">updated_at (timestamp)</text>
</g>
<!-- appmodelspemeriksaantrimester1&#45;&gt;appmodelspemeriksaanlaboratoriumtri1 -->
<g id="edge4" class="edge">
<title>appmodelspemeriksaantrimester1:id_pemeriksaan_trimester1&#45;&gt;appmodelspemeriksaanlaboratoriumtri1:id_pemeriksaan_trimester1</title>
<path fill="none" stroke="#fcbf49" stroke-width="1.8" d="M605,-1349C667.31,-1349 685.35,-1349 742.99,-1349"/>
<polygon fill="#fcbf49" stroke="#fcbf49" stroke-width="1.8" points="743,-1349 753,-1353.5 748,-1349 753,-1349 753,-1349 753,-1349 748,-1349 753,-1344.5 743,-1349 743,-1349"/>
<text text-anchor="middle" x="679" y="-1352.8" font-family="Helvetica Neue" font-size="14.00"> </text>
<text text-anchor="middle" x="578.94" y="-1337.8" font-family="Helvetica Neue" font-size="14.00">HasMany</text>
<text text-anchor="middle" x="578.94" y="-1322.8" font-family="Helvetica Neue" font-size="14.00">pemeriksaanLaboratoriumTri1</text>
</g>
<!-- appmodelsusgtri1 -->
<g id="node5" class="node">
<title>appmodelsusgtri1</title>
<polygon fill="none" stroke="black" points="1017,-518 775,-518 775,0 1017,0 1017,-518"/>
<polygon fill="#d3d3d3" stroke="transparent" points="775,-481 775,-518 1017,-518 1017,-481 775,-481"/>
<polygon fill="none" stroke="black" points="775,-481 775,-518 1017,-518 1017,-481 775,-481"/>
<text text-anchor="start" x="870.5" y="-495.8" font-family="Helvetica Neue" font-size="14.00" fill="#333333">UsgTri1</text>
<polygon fill="#ffffff" stroke="transparent" points="775,-444 775,-481 1017,-481 1017,-444 775,-444"/>
<polygon fill="none" stroke="black" points="775,-444 775,-481 1017,-481 1017,-444 775,-444"/>
<text text-anchor="start" x="786" y="-458.8" font-family="Helvetica Neue" font-size="14.00" fill="#333333">id_usg_tri1 (int8)</text>
<polygon fill="#ffffff" stroke="transparent" points="775,-407 775,-444 1017,-444 1017,-407 775,-407"/>
<polygon fill="none" stroke="black" points="775,-407 775,-444 1017,-444 1017,-407 775,-407"/>
<text text-anchor="start" x="786" y="-421.8" font-family="Helvetica Neue" font-size="14.00" fill="#333333">id_pemeriksaan_trimester1 (int8)</text>
<polygon fill="#ffffff" stroke="transparent" points="775,-370 775,-407 1017,-407 1017,-370 775,-370"/>
<polygon fill="none" stroke="black" points="775,-370 775,-407 1017,-407 1017,-370 775,-370"/>
<text text-anchor="start" x="786" y="-384.8" font-family="Helvetica Neue" font-size="14.00" fill="#333333">hpht (timestamp)</text>
<polygon fill="#ffffff" stroke="transparent" points="775,-333 775,-370 1017,-370 1017,-333 775,-333"/>
<polygon fill="none" stroke="black" points="775,-333 775,-370 1017,-370 1017,-333 775,-333"/>
<text text-anchor="start" x="786" y="-347.8" font-family="Helvetica Neue" font-size="14.00" fill="#333333">usia_kehamilan (int4)</text>
<polygon fill="#ffffff" stroke="transparent" points="775,-296 775,-333 1017,-333 1017,-296 775,-296"/>
<polygon fill="none" stroke="black" points="775,-296 775,-333 1017,-333 1017,-296 775,-296"/>
<text text-anchor="start" x="786" y="-310.8" font-family="Helvetica Neue" font-size="14.00" fill="#333333">gestational_sac (float8)</text>
<polygon fill="#ffffff" stroke="transparent" points="775,-259 775,-296 1017,-296 1017,-259 775,-259"/>
<polygon fill="none" stroke="black" points="775,-259 775,-296 1017,-296 1017,-259 775,-259"/>
<text text-anchor="start" x="786" y="-273.8" font-family="Helvetica Neue" font-size="14.00" fill="#333333">crown_rump_length (float8)</text>
<polygon fill="#ffffff" stroke="transparent" points="775,-222 775,-259 1017,-259 1017,-222 775,-222"/>
<polygon fill="none" stroke="black" points="775,-222 775,-259 1017,-259 1017,-222 775,-222"/>
<text text-anchor="start" x="786" y="-236.8" font-family="Helvetica Neue" font-size="14.00" fill="#333333">denyut_jantung_janin (int4)</text>
<polygon fill="#ffffff" stroke="transparent" points="775,-185 775,-222 1017,-222 1017,-185 775,-185"/>
<polygon fill="none" stroke="black" points="775,-185 775,-222 1017,-222 1017,-185 775,-185"/>
<text text-anchor="start" x="786" y="-199.8" font-family="Helvetica Neue" font-size="14.00" fill="#333333">sesuai_usia_kehamilan (int4)</text>
<polygon fill="#ffffff" stroke="transparent" points="775,-148 775,-185 1017,-185 1017,-148 775,-148"/>
<polygon fill="none" stroke="black" points="775,-148 775,-185 1017,-185 1017,-148 775,-148"/>
<text text-anchor="start" x="786" y="-162.8" font-family="Helvetica Neue" font-size="14.00" fill="#333333">letak_janin (varchar)</text>
<polygon fill="#ffffff" stroke="transparent" points="775,-111 775,-148 1017,-148 1017,-111 775,-111"/>
<polygon fill="none" stroke="black" points="775,-111 775,-148 1017,-148 1017,-111 775,-111"/>
<text text-anchor="start" x="786" y="-125.8" font-family="Helvetica Neue" font-size="14.00" fill="#333333">taksiran_persalinan (varchar)</text>
<polygon fill="#ffffff" stroke="transparent" points="775,-74 775,-111 1017,-111 1017,-74 775,-74"/>
<polygon fill="none" stroke="black" points="775,-74 775,-111 1017,-111 1017,-74 775,-74"/>
<text text-anchor="start" x="786" y="-88.8" font-family="Helvetica Neue" font-size="14.00" fill="#333333">hasil_usg (varchar)</text>
<polygon fill="#ffffff" stroke="transparent" points="775,-37 775,-74 1017,-74 1017,-37 775,-37"/>
<polygon fill="none" stroke="black" points="775,-37 775,-74 1017,-74 1017,-37 775,-37"/>
<text text-anchor="start" x="786" y="-51.8" font-family="Helvetica Neue" font-size="14.00" fill="#333333">created_at (timestamp)</text>
<polygon fill="#ffffff" stroke="transparent" points="775,0 775,-37 1017,-37 1017,0 775,0"/>
<polygon fill="none" stroke="black" points="775,0 775,-37 1017,-37 1017,0 775,0"/>
<text text-anchor="start" x="786" y="-14.8" font-family="Helvetica Neue" font-size="14.00" fill="#333333">updated_at (timestamp)</text>
</g>
<!-- appmodelspemeriksaantrimester1&#45;&gt;appmodelsusgtri1 -->
<g id="edge5" class="edge">
<title>appmodelspemeriksaantrimester1:id_pemeriksaan_trimester1&#45;&gt;appmodelsusgtri1:id_pemeriksaan_trimester1</title>
<path fill="none" stroke="#fcbf49" stroke-width="1.8" d="M605,-1349C810.06,-1349 573.59,-456.39 763.99,-426.75"/>
<polygon fill="#fcbf49" stroke="#fcbf49" stroke-width="1.8" points="764.03,-426.75 774.34,-430.49 769.01,-426.38 774,-426 774,-426 774,-426 769.01,-426.38 773.66,-421.51 764.03,-426.75 764.03,-426.75"/>
<text text-anchor="middle" x="679" y="-1273.8" font-family="Helvetica Neue" font-size="14.00"> </text>
<text text-anchor="middle" x="720.51" y="-876.49" font-family="Helvetica Neue" font-size="14.00">HasMany</text>
<text text-anchor="middle" x="720.51" y="-861.49" font-family="Helvetica Neue" font-size="14.00">usgTri1</text>
</g>
<!-- appmodelspemeriksaanfisiktri1&#45;&gt;appmodelspemeriksaantrimester1 -->
<g id="edge6" class="edge">
<title>appmodelspemeriksaanfisiktri1:id_pemeriksaan_trimester1&#45;&gt;appmodelspemeriksaantrimester1:id_pemeriksaan_trimester1</title>
<path fill="none" stroke="#f77f00" stroke-width="1.8" d="M763.86,-2012.95C629.3,-1983.9 750.95,-1364.14 610.24,-1349.27"/>
<polygon fill="#f77f00" stroke="#f77f00" stroke-width="1.8" points="764.05,-2012.97 773.53,-2018.48 769.03,-2013.48 774,-2014 774,-2014 774,-2014 769.03,-2013.48 774.47,-2009.52 764.05,-2012.97 764.05,-2012.97"/>
<polygon fill="#f77f00" stroke="#f77f00" stroke-width="1.8" points="605.74,-1354.05 606.26,-1344.06 608.25,-1344.16 607.74,-1354.15 605.74,-1354.05"/>
<polyline fill="none" stroke="#f77f00" stroke-width="1.8" points="605,-1349 609.99,-1349.26 "/>
<text text-anchor="middle" x="679" y="-1495.8" font-family="Helvetica Neue" font-size="14.00"> </text>
<text text-anchor="middle" x="610.5" y="-1700.23" font-family="Helvetica Neue" font-size="14.00">BelongsTo</text>
<text text-anchor="middle" x="610.5" y="-1685.23" font-family="Helvetica Neue" font-size="14.00">pemeriksaanTrimester1</text>
</g>
<!-- appmodelspemeriksaanlaboratoriumtri1&#45;&gt;appmodelspemeriksaantrimester1 -->
<g id="edge7" class="edge">
<title>appmodelspemeriksaanlaboratoriumtri1:id_pemeriksaan_trimester1&#45;&gt;appmodelspemeriksaantrimester1:id_pemeriksaan_trimester1</title>
<path fill="none" stroke="#f77f00" stroke-width="1.8" d="M742.75,-1347.83C715.19,-1341.2 709.32,-1308.95 677,-1316 644.35,-1323.12 640.53,-1346.46 610.12,-1348.81"/>
<polygon fill="#f77f00" stroke="#f77f00" stroke-width="1.8" points="743.06,-1347.87 752.49,-1353.47 748.03,-1348.43 753,-1349 753,-1349 753,-1349 748.03,-1348.43 753.51,-1344.53 743.06,-1347.87 743.06,-1347.87"/>
<polygon fill="#f77f00" stroke="#f77f00" stroke-width="1.8" points="606.19,-1353.96 605.81,-1343.97 607.81,-1343.89 608.19,-1353.88 606.19,-1353.96"/>
<polyline fill="none" stroke="#f77f00" stroke-width="1.8" points="605,-1349 610,-1348.81 "/>
<text text-anchor="middle" x="679" y="-1319.8" font-family="Helvetica Neue" font-size="14.00"> </text>
<text text-anchor="middle" x="588.89" y="-1307.43" font-family="Helvetica Neue" font-size="14.00">BelongsTo</text>
<text text-anchor="middle" x="588.89" y="-1292.43" font-family="Helvetica Neue" font-size="14.00">pemeriksaanTrimester1</text>
</g>
<!-- appmodelsusgtri1&#45;&gt;appmodelspemeriksaantrimester1 -->
<g id="edge8" class="edge">
<title>appmodelsusgtri1:id_pemeriksaan_trimester1&#45;&gt;appmodelspemeriksaantrimester1:id_pemeriksaan_trimester1</title>
<path fill="none" stroke="#f77f00" stroke-width="1.8" d="M764.24,-428.89C673.75,-484.32 704.74,-1319.59 610.08,-1348.25"/>
<polygon fill="#f77f00" stroke="#f77f00" stroke-width="1.8" points="764.41,-428.84 775.28,-430.32 769.21,-427.42 774,-426 774,-426 774,-426 769.21,-427.42 772.72,-421.68 764.41,-428.84 764.41,-428.84"/>
<polygon fill="#f77f00" stroke="#f77f00" stroke-width="1.8" points="606.72,-1353.8 605.25,-1343.91 607.23,-1343.61 608.7,-1353.5 606.72,-1353.8"/>
<polyline fill="none" stroke="#f77f00" stroke-width="1.8" points="605,-1349 609.95,-1348.26 "/>
<text text-anchor="middle" x="679" y="-1054.8" font-family="Helvetica Neue" font-size="14.00"> </text>
<text text-anchor="middle" x="610.49" y="-876.48" font-family="Helvetica Neue" font-size="14.00">BelongsTo</text>
<text text-anchor="middle" x="610.49" y="-861.48" font-family="Helvetica Neue" font-size="14.00">pemeriksaanTrimester1</text>
</g>
</g>
</svg>
