<?xml version="1.0" encoding="UTF-8" standalone="no"?>
<!DOCTYPE svg PUBLIC "-//W3C//DTD SVG 1.1//EN"
 "http://www.w3.org/Graphics/SVG/1.1/DTD/svg11.dtd">
<!-- Generated by graphviz version 2.43.0 (0)
 -->
<!-- Title: G Pages: 1 -->
<svg width="1156pt" height="1845pt"
 viewBox="0.00 0.00 1156.00 1845.00" xmlns="http://www.w3.org/2000/svg" xmlns:xlink="http://www.w3.org/1999/xlink">
<g id="graph0" class="graph" transform="scale(1 1) rotate(0) translate(36 1809)">
<title>G</title>
<polygon fill="#f7f7f7" stroke="transparent" points="-36,36 -36,-1809 1120,-1809 1120,36 -36,36"/>
<!-- appmodelsibu -->
<g id="node1" class="node">
<title>appmodelsibu</title>
<polygon fill="none" stroke="black" points="215,-1072 0,-1072 0,-295 215,-295 215,-1072"/>
<polygon fill="#d3d3d3" stroke="transparent" points="0.5,-1034.5 0.5,-1071.5 215.5,-1071.5 215.5,-1034.5 0.5,-1034.5"/>
<polygon fill="none" stroke="black" points="0.5,-1034.5 0.5,-1071.5 215.5,-1071.5 215.5,-1034.5 0.5,-1034.5"/>
<text text-anchor="start" x="97" y="-1049.3" font-family="Helvetica Neue" font-size="14.00" fill="#333333">Ibu</text>
<polygon fill="#ffffff" stroke="transparent" points="0.5,-997.5 0.5,-1034.5 215.5,-1034.5 215.5,-997.5 0.5,-997.5"/>
<polygon fill="none" stroke="black" points="0.5,-997.5 0.5,-1034.5 215.5,-1034.5 215.5,-997.5 0.5,-997.5"/>
<text text-anchor="start" x="11.5" y="-1012.3" font-family="Helvetica Neue" font-size="14.00" fill="#333333">id_ibu (int8)</text>
<polygon fill="#ffffff" stroke="transparent" points="0.5,-960.5 0.5,-997.5 215.5,-997.5 215.5,-960.5 0.5,-960.5"/>
<polygon fill="none" stroke="black" points="0.5,-960.5 0.5,-997.5 215.5,-997.5 215.5,-960.5 0.5,-960.5"/>
<text text-anchor="start" x="11.5" y="-975.3" font-family="Helvetica Neue" font-size="14.00" fill="#333333">id_user (int8)</text>
<polygon fill="#ffffff" stroke="transparent" points="0.5,-923.5 0.5,-960.5 215.5,-960.5 215.5,-923.5 0.5,-923.5"/>
<polygon fill="none" stroke="black" points="0.5,-923.5 0.5,-960.5 215.5,-960.5 215.5,-923.5 0.5,-923.5"/>
<text text-anchor="start" x="11.5" y="-938.3" font-family="Helvetica Neue" font-size="14.00" fill="#333333">nama (varchar)</text>
<polygon fill="#ffffff" stroke="transparent" points="0.5,-886.5 0.5,-923.5 215.5,-923.5 215.5,-886.5 0.5,-886.5"/>
<polygon fill="none" stroke="black" points="0.5,-886.5 0.5,-923.5 215.5,-923.5 215.5,-886.5 0.5,-886.5"/>
<text text-anchor="start" x="11.5" y="-901.3" font-family="Helvetica Neue" font-size="14.00" fill="#333333">pembiayaan (varchar)</text>
<polygon fill="#ffffff" stroke="transparent" points="0.5,-849.5 0.5,-886.5 215.5,-886.5 215.5,-849.5 0.5,-849.5"/>
<polygon fill="none" stroke="black" points="0.5,-849.5 0.5,-886.5 215.5,-886.5 215.5,-849.5 0.5,-849.5"/>
<text text-anchor="start" x="11.5" y="-864.3" font-family="Helvetica Neue" font-size="14.00" fill="#333333">no_jkn (varchar)</text>
<polygon fill="#ffffff" stroke="transparent" points="0.5,-812.5 0.5,-849.5 215.5,-849.5 215.5,-812.5 0.5,-812.5"/>
<polygon fill="none" stroke="black" points="0.5,-812.5 0.5,-849.5 215.5,-849.5 215.5,-812.5 0.5,-812.5"/>
<text text-anchor="start" x="11.5" y="-827.3" font-family="Helvetica Neue" font-size="14.00" fill="#333333">faskes_tk_1 (varchar)</text>
<polygon fill="#ffffff" stroke="transparent" points="0.5,-775.5 0.5,-812.5 215.5,-812.5 215.5,-775.5 0.5,-775.5"/>
<polygon fill="none" stroke="black" points="0.5,-775.5 0.5,-812.5 215.5,-812.5 215.5,-775.5 0.5,-775.5"/>
<text text-anchor="start" x="11.5" y="-790.3" font-family="Helvetica Neue" font-size="14.00" fill="#333333">faskes_rujukan (varchar)</text>
<polygon fill="#ffffff" stroke="transparent" points="0.5,-738.5 0.5,-775.5 215.5,-775.5 215.5,-738.5 0.5,-738.5"/>
<polygon fill="none" stroke="black" points="0.5,-738.5 0.5,-775.5 215.5,-775.5 215.5,-738.5 0.5,-738.5"/>
<text text-anchor="start" x="11.5" y="-753.3" font-family="Helvetica Neue" font-size="14.00" fill="#333333">gol_darah (bpchar)</text>
<polygon fill="#ffffff" stroke="transparent" points="0.5,-701.5 0.5,-738.5 215.5,-738.5 215.5,-701.5 0.5,-701.5"/>
<polygon fill="none" stroke="black" points="0.5,-701.5 0.5,-738.5 215.5,-738.5 215.5,-701.5 0.5,-701.5"/>
<text text-anchor="start" x="11.5" y="-716.3" font-family="Helvetica Neue" font-size="14.00" fill="#333333">tmpt_lahir (varchar)</text>
<polygon fill="#ffffff" stroke="transparent" points="0.5,-664.5 0.5,-701.5 215.5,-701.5 215.5,-664.5 0.5,-664.5"/>
<polygon fill="none" stroke="black" points="0.5,-664.5 0.5,-701.5 215.5,-701.5 215.5,-664.5 0.5,-664.5"/>
<text text-anchor="start" x="11.5" y="-679.3" font-family="Helvetica Neue" font-size="14.00" fill="#333333">tgl_lahir (date)</text>
<polygon fill="#ffffff" stroke="transparent" points="0.5,-627.5 0.5,-664.5 215.5,-664.5 215.5,-627.5 0.5,-627.5"/>
<polygon fill="none" stroke="black" points="0.5,-627.5 0.5,-664.5 215.5,-664.5 215.5,-627.5 0.5,-627.5"/>
<text text-anchor="start" x="11.5" y="-642.3" font-family="Helvetica Neue" font-size="14.00" fill="#333333">pendidikan (varchar)</text>
<polygon fill="#ffffff" stroke="transparent" points="0.5,-590.5 0.5,-627.5 215.5,-627.5 215.5,-590.5 0.5,-590.5"/>
<polygon fill="none" stroke="black" points="0.5,-590.5 0.5,-627.5 215.5,-627.5 215.5,-590.5 0.5,-590.5"/>
<text text-anchor="start" x="11.5" y="-605.3" font-family="Helvetica Neue" font-size="14.00" fill="#333333">pekerjaan (varchar)</text>
<polygon fill="#ffffff" stroke="transparent" points="0.5,-553.5 0.5,-590.5 215.5,-590.5 215.5,-553.5 0.5,-553.5"/>
<polygon fill="none" stroke="black" points="0.5,-553.5 0.5,-590.5 215.5,-590.5 215.5,-553.5 0.5,-553.5"/>
<text text-anchor="start" x="11.5" y="-568.3" font-family="Helvetica Neue" font-size="14.00" fill="#333333">provinsi (varchar)</text>
<polygon fill="#ffffff" stroke="transparent" points="0.5,-516.5 0.5,-553.5 215.5,-553.5 215.5,-516.5 0.5,-516.5"/>
<polygon fill="none" stroke="black" points="0.5,-516.5 0.5,-553.5 215.5,-553.5 215.5,-516.5 0.5,-516.5"/>
<text text-anchor="start" x="11.5" y="-531.3" font-family="Helvetica Neue" font-size="14.00" fill="#333333">kabupaten (varchar)</text>
<polygon fill="#ffffff" stroke="transparent" points="0.5,-479.5 0.5,-516.5 215.5,-516.5 215.5,-479.5 0.5,-479.5"/>
<polygon fill="none" stroke="black" points="0.5,-479.5 0.5,-516.5 215.5,-516.5 215.5,-479.5 0.5,-479.5"/>
<text text-anchor="start" x="11.5" y="-494.3" font-family="Helvetica Neue" font-size="14.00" fill="#333333">alamat (text)</text>
<polygon fill="#ffffff" stroke="transparent" points="0.5,-442.5 0.5,-479.5 215.5,-479.5 215.5,-442.5 0.5,-442.5"/>
<polygon fill="none" stroke="black" points="0.5,-442.5 0.5,-479.5 215.5,-479.5 215.5,-442.5 0.5,-442.5"/>
<text text-anchor="start" x="11.5" y="-457.3" font-family="Helvetica Neue" font-size="14.00" fill="#333333">telepon (varchar)</text>
<polygon fill="#ffffff" stroke="transparent" points="0.5,-405.5 0.5,-442.5 215.5,-442.5 215.5,-405.5 0.5,-405.5"/>
<polygon fill="none" stroke="black" points="0.5,-405.5 0.5,-442.5 215.5,-442.5 215.5,-405.5 0.5,-405.5"/>
<text text-anchor="start" x="11.5" y="-420.3" font-family="Helvetica Neue" font-size="14.00" fill="#333333">puskesmas_domisili (varchar)</text>
<polygon fill="#ffffff" stroke="transparent" points="0.5,-368.5 0.5,-405.5 215.5,-405.5 215.5,-368.5 0.5,-368.5"/>
<polygon fill="none" stroke="black" points="0.5,-368.5 0.5,-405.5 215.5,-405.5 215.5,-368.5 0.5,-368.5"/>
<text text-anchor="start" x="11.5" y="-383.3" font-family="Helvetica Neue" font-size="14.00" fill="#333333">no_reg_kohort_ibu (varchar)</text>
<polygon fill="#ffffff" stroke="transparent" points="0.5,-331.5 0.5,-368.5 215.5,-368.5 215.5,-331.5 0.5,-331.5"/>
<polygon fill="none" stroke="black" points="0.5,-331.5 0.5,-368.5 215.5,-368.5 215.5,-331.5 0.5,-331.5"/>
<text text-anchor="start" x="11.5" y="-346.3" font-family="Helvetica Neue" font-size="14.00" fill="#333333">created_at (timestamp)</text>
<polygon fill="#ffffff" stroke="transparent" points="0.5,-294.5 0.5,-331.5 215.5,-331.5 215.5,-294.5 0.5,-294.5"/>
<polygon fill="none" stroke="black" points="0.5,-294.5 0.5,-331.5 215.5,-331.5 215.5,-294.5 0.5,-294.5"/>
<text text-anchor="start" x="11.5" y="-309.3" font-family="Helvetica Neue" font-size="14.00" fill="#333333">updated_at (timestamp)</text>
</g>
<!-- appmodelspemeriksaantrimester3 -->
<g id="node2" class="node">
<title>appmodelspemeriksaantrimester3</title>
<polygon fill="none" stroke="black" points="618,-1109 363,-1109 363,-702 618,-702 618,-1109"/>
<polygon fill="#d3d3d3" stroke="transparent" points="363.5,-1071.5 363.5,-1108.5 618.5,-1108.5 618.5,-1071.5 363.5,-1071.5"/>
<polygon fill="none" stroke="black" points="363.5,-1071.5 363.5,-1108.5 618.5,-1108.5 618.5,-1071.5 363.5,-1071.5"/>
<text text-anchor="start" x="412" y="-1086.3" font-family="Helvetica Neue" font-size="14.00" fill="#333333">PemeriksaanTrimester3</text>
<polygon fill="#ffffff" stroke="transparent" points="363.5,-1034.5 363.5,-1071.5 618.5,-1071.5 618.5,-1034.5 363.5,-1034.5"/>
<polygon fill="none" stroke="black" points="363.5,-1034.5 363.5,-1071.5 618.5,-1071.5 618.5,-1034.5 363.5,-1034.5"/>
<text text-anchor="start" x="374.5" y="-1049.3" font-family="Helvetica Neue" font-size="14.00" fill="#333333">id_pemeriksaan_trimester3 (int8)</text>
<polygon fill="#ffffff" stroke="transparent" points="363.5,-997.5 363.5,-1034.5 618.5,-1034.5 618.5,-997.5 363.5,-997.5"/>
<polygon fill="none" stroke="black" points="363.5,-997.5 363.5,-1034.5 618.5,-1034.5 618.5,-997.5 363.5,-997.5"/>
<text text-anchor="start" x="374.5" y="-1012.3" font-family="Helvetica Neue" font-size="14.00" fill="#333333">id_ibu (int8)</text>
<polygon fill="#ffffff" stroke="transparent" points="363.5,-960.5 363.5,-997.5 618.5,-997.5 618.5,-960.5 363.5,-960.5"/>
<polygon fill="none" stroke="black" points="363.5,-960.5 363.5,-997.5 618.5,-997.5 618.5,-960.5 363.5,-960.5"/>
<text text-anchor="start" x="374.5" y="-975.3" font-family="Helvetica Neue" font-size="14.00" fill="#333333">rencana_konsultasi_lanjut (varchar)</text>
<polygon fill="#ffffff" stroke="transparent" points="363.5,-923.5 363.5,-960.5 618.5,-960.5 618.5,-923.5 363.5,-923.5"/>
<polygon fill="none" stroke="black" points="363.5,-923.5 363.5,-960.5 618.5,-960.5 618.5,-923.5 363.5,-923.5"/>
<text text-anchor="start" x="374.5" y="-938.3" font-family="Helvetica Neue" font-size="14.00" fill="#333333">rencana_tempat_bersalin (varchar)</text>
<polygon fill="#ffffff" stroke="transparent" points="363.5,-886.5 363.5,-923.5 618.5,-923.5 618.5,-886.5 363.5,-886.5"/>
<polygon fill="none" stroke="black" points="363.5,-886.5 363.5,-923.5 618.5,-923.5 618.5,-886.5 363.5,-886.5"/>
<text text-anchor="start" x="374.5" y="-901.3" font-family="Helvetica Neue" font-size="14.00" fill="#333333">rencana_kontrasepsi (varchar)</text>
<polygon fill="#ffffff" stroke="transparent" points="363.5,-849.5 363.5,-886.5 618.5,-886.5 618.5,-849.5 363.5,-849.5"/>
<polygon fill="none" stroke="black" points="363.5,-849.5 363.5,-886.5 618.5,-886.5 618.5,-849.5 363.5,-849.5"/>
<text text-anchor="start" x="374.5" y="-864.3" font-family="Helvetica Neue" font-size="14.00" fill="#333333">konseling (varchar)</text>
<polygon fill="#ffffff" stroke="transparent" points="363.5,-812.5 363.5,-849.5 618.5,-849.5 618.5,-812.5 363.5,-812.5"/>
<polygon fill="none" stroke="black" points="363.5,-812.5 363.5,-849.5 618.5,-849.5 618.5,-812.5 363.5,-812.5"/>
<text text-anchor="start" x="374.5" y="-827.3" font-family="Helvetica Neue" font-size="14.00" fill="#333333">jelaskan (text)</text>
<polygon fill="#ffffff" stroke="transparent" points="363.5,-775.5 363.5,-812.5 618.5,-812.5 618.5,-775.5 363.5,-775.5"/>
<polygon fill="none" stroke="black" points="363.5,-775.5 363.5,-812.5 618.5,-812.5 618.5,-775.5 363.5,-775.5"/>
<text text-anchor="start" x="374.5" y="-790.3" font-family="Helvetica Neue" font-size="14.00" fill="#333333">kesimpulan (text)</text>
<polygon fill="#ffffff" stroke="transparent" points="363.5,-738.5 363.5,-775.5 618.5,-775.5 618.5,-738.5 363.5,-738.5"/>
<polygon fill="none" stroke="black" points="363.5,-738.5 363.5,-775.5 618.5,-775.5 618.5,-738.5 363.5,-738.5"/>
<text text-anchor="start" x="374.5" y="-753.3" font-family="Helvetica Neue" font-size="14.00" fill="#333333">created_at (timestamp)</text>
<polygon fill="#ffffff" stroke="transparent" points="363.5,-701.5 363.5,-738.5 618.5,-738.5 618.5,-701.5 363.5,-701.5"/>
<polygon fill="none" stroke="black" points="363.5,-701.5 363.5,-738.5 618.5,-738.5 618.5,-701.5 363.5,-701.5"/>
<text text-anchor="start" x="374.5" y="-716.3" font-family="Helvetica Neue" font-size="14.00" fill="#333333">updated_at (timestamp)</text>
</g>
<!-- appmodelsibu&#45;&gt;appmodelspemeriksaantrimester3 -->
<g id="edge1" class="edge">
<title>appmodelsibu:id_ibu&#45;&gt;appmodelspemeriksaantrimester3:id_ibu</title>
<path fill="none" stroke="#fcbf49" stroke-width="1.8" d="M215,-1016.5C277.31,-1016.5 295.35,-1016.5 352.99,-1016.5"/>
<polygon fill="#fcbf49" stroke="#fcbf49" stroke-width="1.8" points="353,-1016.5 363,-1021 358,-1016.5 363,-1016.5 363,-1016.5 363,-1016.5 358,-1016.5 363,-1012 353,-1016.5 353,-1016.5"/>
<text text-anchor="middle" x="289" y="-1020.3" font-family="Helvetica Neue" font-size="14.00"> </text>
<text text-anchor="middle" x="367.94" y="-1005.3" font-family="Helvetica Neue" font-size="14.00">HasMany</text>
<text text-anchor="middle" x="367.94" y="-990.3" font-family="Helvetica Neue" font-size="14.00">pemeriksaanTrimester3</text>
</g>
<!-- appmodelspemeriksaantrimester3&#45;&gt;appmodelsibu -->
<g id="edge2" class="edge">
<title>appmodelspemeriksaantrimester3:id_ibu&#45;&gt;appmodelsibu:id_ibu</title>
<path fill="none" stroke="#f77f00" stroke-width="1.8" d="M352.75,-1015.33C325.19,-1008.7 319.32,-976.45 287,-983.5 254.35,-990.62 250.53,-1013.96 220.12,-1016.31"/>
<polygon fill="#f77f00" stroke="#f77f00" stroke-width="1.8" points="353.06,-1015.37 362.49,-1020.97 358.03,-1015.93 363,-1016.5 363,-1016.5 363,-1016.5 358.03,-1015.93 363.51,-1012.03 353.06,-1015.37 353.06,-1015.37"/>
<polygon fill="#f77f00" stroke="#f77f00" stroke-width="1.8" points="216.19,-1021.46 215.81,-1011.47 217.81,-1011.39 218.19,-1021.38 216.19,-1021.46"/>
<polyline fill="none" stroke="#f77f00" stroke-width="1.8" points="215,-1016.5 220,-1016.31 "/>
<text text-anchor="middle" x="289" y="-987.3" font-family="Helvetica Neue" font-size="14.00"> </text>
<text text-anchor="middle" x="312.39" y="-974.93" font-family="Helvetica Neue" font-size="14.00">BelongsTo</text>
<text text-anchor="middle" x="312.39" y="-959.93" font-family="Helvetica Neue" font-size="14.00">ibu</text>
</g>
<!-- appmodelspemeriksaanfisiktri3 -->
<g id="node3" class="node">
<title>appmodelspemeriksaanfisiktri3</title>
<polygon fill="none" stroke="black" points="1046,-1773 804,-1773 804,-1218 1046,-1218 1046,-1773"/>
<polygon fill="#d3d3d3" stroke="transparent" points="804,-1735.5 804,-1772.5 1046,-1772.5 1046,-1735.5 804,-1735.5"/>
<polygon fill="none" stroke="black" points="804,-1735.5 804,-1772.5 1046,-1772.5 1046,-1735.5 804,-1735.5"/>
<text text-anchor="start" x="855" y="-1750.3" font-family="Helvetica Neue" font-size="14.00" fill="#333333">PemeriksaanFisikTri3</text>
<polygon fill="#ffffff" stroke="transparent" points="804,-1698.5 804,-1735.5 1046,-1735.5 1046,-1698.5 804,-1698.5"/>
<polygon fill="none" stroke="black" points="804,-1698.5 804,-1735.5 1046,-1735.5 1046,-1698.5 804,-1698.5"/>
<text text-anchor="start" x="815" y="-1713.3" font-family="Helvetica Neue" font-size="14.00" fill="#333333">id_pemeriksaan_fisik_tri3 (int8)</text>
<polygon fill="#ffffff" stroke="transparent" points="804,-1661.5 804,-1698.5 1046,-1698.5 1046,-1661.5 804,-1661.5"/>
<polygon fill="none" stroke="black" points="804,-1661.5 804,-1698.5 1046,-1698.5 1046,-1661.5 804,-1661.5"/>
<text text-anchor="start" x="815" y="-1676.3" font-family="Helvetica Neue" font-size="14.00" fill="#333333">id_pemeriksaan_trimester3 (int8)</text>
<polygon fill="#ffffff" stroke="transparent" points="804,-1624.5 804,-1661.5 1046,-1661.5 1046,-1624.5 804,-1624.5"/>
<polygon fill="none" stroke="black" points="804,-1624.5 804,-1661.5 1046,-1661.5 1046,-1624.5 804,-1624.5"/>
<text text-anchor="start" x="815" y="-1639.3" font-family="Helvetica Neue" font-size="14.00" fill="#333333">keadaan_umum (varchar)</text>
<polygon fill="#ffffff" stroke="transparent" points="804,-1587.5 804,-1624.5 1046,-1624.5 1046,-1587.5 804,-1587.5"/>
<polygon fill="none" stroke="black" points="804,-1587.5 804,-1624.5 1046,-1624.5 1046,-1587.5 804,-1587.5"/>
<text text-anchor="start" x="815" y="-1602.3" font-family="Helvetica Neue" font-size="14.00" fill="#333333">konjuctiva (varchar)</text>
<polygon fill="#ffffff" stroke="transparent" points="804,-1550.5 804,-1587.5 1046,-1587.5 1046,-1550.5 804,-1550.5"/>
<polygon fill="none" stroke="black" points="804,-1550.5 804,-1587.5 1046,-1587.5 1046,-1550.5 804,-1550.5"/>
<text text-anchor="start" x="815" y="-1565.3" font-family="Helvetica Neue" font-size="14.00" fill="#333333">sklera (varchar)</text>
<polygon fill="#ffffff" stroke="transparent" points="804,-1513.5 804,-1550.5 1046,-1550.5 1046,-1513.5 804,-1513.5"/>
<polygon fill="none" stroke="black" points="804,-1513.5 804,-1550.5 1046,-1550.5 1046,-1513.5 804,-1513.5"/>
<text text-anchor="start" x="815" y="-1528.3" font-family="Helvetica Neue" font-size="14.00" fill="#333333">gigi_mulut (varchar)</text>
<polygon fill="#ffffff" stroke="transparent" points="804,-1476.5 804,-1513.5 1046,-1513.5 1046,-1476.5 804,-1476.5"/>
<polygon fill="none" stroke="black" points="804,-1476.5 804,-1513.5 1046,-1513.5 1046,-1476.5 804,-1476.5"/>
<text text-anchor="start" x="815" y="-1491.3" font-family="Helvetica Neue" font-size="14.00" fill="#333333">tht (varchar)</text>
<polygon fill="#ffffff" stroke="transparent" points="804,-1439.5 804,-1476.5 1046,-1476.5 1046,-1439.5 804,-1439.5"/>
<polygon fill="none" stroke="black" points="804,-1439.5 804,-1476.5 1046,-1476.5 1046,-1439.5 804,-1439.5"/>
<text text-anchor="start" x="815" y="-1454.3" font-family="Helvetica Neue" font-size="14.00" fill="#333333">leher (varchar)</text>
<polygon fill="#ffffff" stroke="transparent" points="804,-1402.5 804,-1439.5 1046,-1439.5 1046,-1402.5 804,-1402.5"/>
<polygon fill="none" stroke="black" points="804,-1402.5 804,-1439.5 1046,-1439.5 1046,-1402.5 804,-1402.5"/>
<text text-anchor="start" x="815" y="-1417.3" font-family="Helvetica Neue" font-size="14.00" fill="#333333">jantung (varchar)</text>
<polygon fill="#ffffff" stroke="transparent" points="804,-1365.5 804,-1402.5 1046,-1402.5 1046,-1365.5 804,-1365.5"/>
<polygon fill="none" stroke="black" points="804,-1365.5 804,-1402.5 1046,-1402.5 1046,-1365.5 804,-1365.5"/>
<text text-anchor="start" x="815" y="-1380.3" font-family="Helvetica Neue" font-size="14.00" fill="#333333">paru (varchar)</text>
<polygon fill="#ffffff" stroke="transparent" points="804,-1328.5 804,-1365.5 1046,-1365.5 1046,-1328.5 804,-1328.5"/>
<polygon fill="none" stroke="black" points="804,-1328.5 804,-1365.5 1046,-1365.5 1046,-1328.5 804,-1328.5"/>
<text text-anchor="start" x="815" y="-1343.3" font-family="Helvetica Neue" font-size="14.00" fill="#333333">perut (varchar)</text>
<polygon fill="#ffffff" stroke="transparent" points="804,-1291.5 804,-1328.5 1046,-1328.5 1046,-1291.5 804,-1291.5"/>
<polygon fill="none" stroke="black" points="804,-1291.5 804,-1328.5 1046,-1328.5 1046,-1291.5 804,-1291.5"/>
<text text-anchor="start" x="815" y="-1306.3" font-family="Helvetica Neue" font-size="14.00" fill="#333333">tungkai (varchar)</text>
<polygon fill="#ffffff" stroke="transparent" points="804,-1254.5 804,-1291.5 1046,-1291.5 1046,-1254.5 804,-1254.5"/>
<polygon fill="none" stroke="black" points="804,-1254.5 804,-1291.5 1046,-1291.5 1046,-1254.5 804,-1254.5"/>
<text text-anchor="start" x="815" y="-1269.3" font-family="Helvetica Neue" font-size="14.00" fill="#333333">created_at (timestamp)</text>
<polygon fill="#ffffff" stroke="transparent" points="804,-1217.5 804,-1254.5 1046,-1254.5 1046,-1217.5 804,-1217.5"/>
<polygon fill="none" stroke="black" points="804,-1217.5 804,-1254.5 1046,-1254.5 1046,-1217.5 804,-1217.5"/>
<text text-anchor="start" x="815" y="-1232.3" font-family="Helvetica Neue" font-size="14.00" fill="#333333">updated_at (timestamp)</text>
</g>
<!-- appmodelspemeriksaantrimester3&#45;&gt;appmodelspemeriksaanfisiktri3 -->
<g id="edge3" class="edge">
<title>appmodelspemeriksaantrimester3:id_pemeriksaan_trimester3&#45;&gt;appmodelspemeriksaanfisiktri3:id_pemeriksaan_trimester3</title>
<path fill="none" stroke="#fcbf49" stroke-width="1.8" d="M618,-1053.5C706.57,-1053.5 662.57,-1361.29 690,-1445.5 724.81,-1552.36 689.39,-1672.96 792.89,-1680.16"/>
<polygon fill="#fcbf49" stroke="#fcbf49" stroke-width="1.8" points="793.01,-1680.16 802.85,-1685 798,-1680.33 803,-1680.5 803,-1680.5 803,-1680.5 798,-1680.33 803.15,-1676 793.01,-1680.16 793.01,-1680.16"/>
<text text-anchor="middle" x="692" y="-1462.3" font-family="Helvetica Neue" font-size="14.00"> </text>
<text text-anchor="middle" x="610.3" y="-1357.06" font-family="Helvetica Neue" font-size="14.00">HasMany</text>
<text text-anchor="middle" x="610.3" y="-1342.06" font-family="Helvetica Neue" font-size="14.00">pemeriksaanFisikTri3</text>
</g>
<!-- appmodelspemeriksaanlaboratoriumtri3 -->
<g id="node4" class="node">
<title>appmodelspemeriksaanlaboratoriumtri3</title>
<polygon fill="none" stroke="black" points="1084,-1145.5 766,-1145.5 766,-701.5 1084,-701.5 1084,-1145.5"/>
<polygon fill="#d3d3d3" stroke="transparent" points="766,-1108.5 766,-1145.5 1084,-1145.5 1084,-1108.5 766,-1108.5"/>
<polygon fill="none" stroke="black" points="766,-1108.5 766,-1145.5 1084,-1145.5 1084,-1108.5 766,-1108.5"/>
<text text-anchor="start" x="825" y="-1123.3" font-family="Helvetica Neue" font-size="14.00" fill="#333333">PemeriksaanLaboratoriumTri3</text>
<polygon fill="#ffffff" stroke="transparent" points="766,-1071.5 766,-1108.5 1084,-1108.5 1084,-1071.5 766,-1071.5"/>
<polygon fill="none" stroke="black" points="766,-1071.5 766,-1108.5 1084,-1108.5 1084,-1071.5 766,-1071.5"/>
<text text-anchor="start" x="777" y="-1086.3" font-family="Helvetica Neue" font-size="14.00" fill="#333333">id_pemeriksaan_laboratorium_tri3 (int8)</text>
<polygon fill="#ffffff" stroke="transparent" points="766,-1034.5 766,-1071.5 1084,-1071.5 1084,-1034.5 766,-1034.5"/>
<polygon fill="none" stroke="black" points="766,-1034.5 766,-1071.5 1084,-1071.5 1084,-1034.5 766,-1034.5"/>
<text text-anchor="start" x="777" y="-1049.3" font-family="Helvetica Neue" font-size="14.00" fill="#333333">id_pemeriksaan_trimester3 (int8)</text>
<polygon fill="#ffffff" stroke="transparent" points="766,-997.5 766,-1034.5 1084,-1034.5 1084,-997.5 766,-997.5"/>
<polygon fill="none" stroke="black" points="766,-997.5 766,-1034.5 1084,-1034.5 1084,-997.5 766,-997.5"/>
<text text-anchor="start" x="777" y="-1012.3" font-family="Helvetica Neue" font-size="14.00" fill="#333333">tanggal (timestamp)</text>
<polygon fill="#ffffff" stroke="transparent" points="766,-960.5 766,-997.5 1084,-997.5 1084,-960.5 766,-960.5"/>
<polygon fill="none" stroke="black" points="766,-960.5 766,-997.5 1084,-997.5 1084,-960.5 766,-960.5"/>
<text text-anchor="start" x="777" y="-975.3" font-family="Helvetica Neue" font-size="14.00" fill="#333333">hemoglobin (float8)</text>
<polygon fill="#ffffff" stroke="transparent" points="766,-923.5 766,-960.5 1084,-960.5 1084,-923.5 766,-923.5"/>
<polygon fill="none" stroke="black" points="766,-923.5 766,-960.5 1084,-960.5 1084,-923.5 766,-923.5"/>
<text text-anchor="start" x="777" y="-938.3" font-family="Helvetica Neue" font-size="14.00" fill="#333333">tindak_hemoglobin (text)</text>
<polygon fill="#ffffff" stroke="transparent" points="766,-886.5 766,-923.5 1084,-923.5 1084,-886.5 766,-886.5"/>
<polygon fill="none" stroke="black" points="766,-886.5 766,-923.5 1084,-923.5 1084,-886.5 766,-886.5"/>
<text text-anchor="start" x="777" y="-901.3" font-family="Helvetica Neue" font-size="14.00" fill="#333333">gula_darah_puasa (float8)</text>
<polygon fill="#ffffff" stroke="transparent" points="766,-849.5 766,-886.5 1084,-886.5 1084,-849.5 766,-849.5"/>
<polygon fill="none" stroke="black" points="766,-849.5 766,-886.5 1084,-886.5 1084,-849.5 766,-849.5"/>
<text text-anchor="start" x="777" y="-864.3" font-family="Helvetica Neue" font-size="14.00" fill="#333333">tindak_gula_puasa (text)</text>
<polygon fill="#ffffff" stroke="transparent" points="766,-812.5 766,-849.5 1084,-849.5 1084,-812.5 766,-812.5"/>
<polygon fill="none" stroke="black" points="766,-812.5 766,-849.5 1084,-849.5 1084,-812.5 766,-812.5"/>
<text text-anchor="start" x="777" y="-827.3" font-family="Helvetica Neue" font-size="14.00" fill="#333333">gula_darah_2_jam_post_pradinal (float8)</text>
<polygon fill="#ffffff" stroke="transparent" points="766,-775.5 766,-812.5 1084,-812.5 1084,-775.5 766,-775.5"/>
<polygon fill="none" stroke="black" points="766,-775.5 766,-812.5 1084,-812.5 1084,-775.5 766,-775.5"/>
<text text-anchor="start" x="777" y="-790.3" font-family="Helvetica Neue" font-size="14.00" fill="#333333">tindak_gula_darah_2_jam_post_pradinal (text)</text>
<polygon fill="#ffffff" stroke="transparent" points="766,-738.5 766,-775.5 1084,-775.5 1084,-738.5 766,-738.5"/>
<polygon fill="none" stroke="black" points="766,-738.5 766,-775.5 1084,-775.5 1084,-738.5 766,-738.5"/>
<text text-anchor="start" x="777" y="-753.3" font-family="Helvetica Neue" font-size="14.00" fill="#333333">created_at (timestamp)</text>
<polygon fill="#ffffff" stroke="transparent" points="766,-701.5 766,-738.5 1084,-738.5 1084,-701.5 766,-701.5"/>
<polygon fill="none" stroke="black" points="766,-701.5 766,-738.5 1084,-738.5 1084,-701.5 766,-701.5"/>
<text text-anchor="start" x="777" y="-716.3" font-family="Helvetica Neue" font-size="14.00" fill="#333333">updated_at (timestamp)</text>
</g>
<!-- appmodelspemeriksaantrimester3&#45;&gt;appmodelspemeriksaanlaboratoriumtri3 -->
<g id="edge4" class="edge">
<title>appmodelspemeriksaantrimester3:id_pemeriksaan_trimester3&#45;&gt;appmodelspemeriksaanlaboratoriumtri3:id_pemeriksaan_trimester3</title>
<path fill="none" stroke="#fcbf49" stroke-width="1.8" d="M618,-1053.5C680.31,-1053.5 698.35,-1053.5 755.99,-1053.5"/>
<polygon fill="#fcbf49" stroke="#fcbf49" stroke-width="1.8" points="756,-1053.5 766,-1058 761,-1053.5 766,-1053.5 766,-1053.5 766,-1053.5 761,-1053.5 766,-1049 756,-1053.5 756,-1053.5"/>
<text text-anchor="middle" x="692" y="-1057.3" font-family="Helvetica Neue" font-size="14.00"> </text>
<text text-anchor="middle" x="770.94" y="-1042.3" font-family="Helvetica Neue" font-size="14.00">HasMany</text>
<text text-anchor="middle" x="770.94" y="-1027.3" font-family="Helvetica Neue" font-size="14.00">pemeriksaanTrimester3</text>
</g>
<!-- appmodelsusgtri3 -->
<g id="node5" class="node">
<title>appmodelsusgtri3</title>
<polygon fill="none" stroke="black" points="1046,-629 804,-629 804,0 1046,0 1046,-629"/>
<polygon fill="#d3d3d3" stroke="transparent" points="804,-591.5 804,-628.5 1046,-628.5 1046,-591.5 804,-591.5"/>
<polygon fill="none" stroke="black" points="804,-591.5 804,-628.5 1046,-628.5 1046,-591.5 804,-591.5"/>
<text text-anchor="start" x="899.5" y="-606.3" font-family="Helvetica Neue" font-size="14.00" fill="#333333">UsgTri3</text>
<polygon fill="#ffffff" stroke="transparent" points="804,-554.5 804,-591.5 1046,-591.5 1046,-554.5 804,-554.5"/>
<polygon fill="none" stroke="black" points="804,-554.5 804,-591.5 1046,-591.5 1046,-554.5 804,-554.5"/>
<text text-anchor="start" x="815" y="-569.3" font-family="Helvetica Neue" font-size="14.00" fill="#333333">id_usg_tri3 (int8)</text>
<polygon fill="#ffffff" stroke="transparent" points="804,-517.5 804,-554.5 1046,-554.5 1046,-517.5 804,-517.5"/>
<polygon fill="none" stroke="black" points="804,-517.5 804,-554.5 1046,-554.5 1046,-517.5 804,-517.5"/>
<text text-anchor="start" x="815" y="-532.3" font-family="Helvetica Neue" font-size="14.00" fill="#333333">id_pemeriksaan_trimester3 (int8)</text>
<polygon fill="#ffffff" stroke="transparent" points="804,-480.5 804,-517.5 1046,-517.5 1046,-480.5 804,-480.5"/>
<polygon fill="none" stroke="black" points="804,-480.5 804,-517.5 1046,-517.5 1046,-480.5 804,-480.5"/>
<text text-anchor="start" x="815" y="-495.3" font-family="Helvetica Neue" font-size="14.00" fill="#333333">hpht (timestamp)</text>
<polygon fill="#ffffff" stroke="transparent" points="804,-443.5 804,-480.5 1046,-480.5 1046,-443.5 804,-443.5"/>
<polygon fill="none" stroke="black" points="804,-443.5 804,-480.5 1046,-480.5 1046,-443.5 804,-443.5"/>
<text text-anchor="start" x="815" y="-458.3" font-family="Helvetica Neue" font-size="14.00" fill="#333333">kehamilan (int4)</text>
<polygon fill="#ffffff" stroke="transparent" points="804,-406.5 804,-443.5 1046,-443.5 1046,-406.5 804,-406.5"/>
<polygon fill="none" stroke="black" points="804,-406.5 804,-443.5 1046,-443.5 1046,-406.5 804,-406.5"/>
<text text-anchor="start" x="815" y="-421.3" font-family="Helvetica Neue" font-size="14.00" fill="#333333">janin (varchar)</text>
<polygon fill="#ffffff" stroke="transparent" points="804,-369.5 804,-406.5 1046,-406.5 1046,-369.5 804,-369.5"/>
<polygon fill="none" stroke="black" points="804,-369.5 804,-406.5 1046,-406.5 1046,-369.5 804,-369.5"/>
<text text-anchor="start" x="815" y="-384.3" font-family="Helvetica Neue" font-size="14.00" fill="#333333">bpd (float8)</text>
<polygon fill="#ffffff" stroke="transparent" points="804,-332.5 804,-369.5 1046,-369.5 1046,-332.5 804,-332.5"/>
<polygon fill="none" stroke="black" points="804,-332.5 804,-369.5 1046,-369.5 1046,-332.5 804,-332.5"/>
<text text-anchor="start" x="815" y="-347.3" font-family="Helvetica Neue" font-size="14.00" fill="#333333">jumlah_janin (varchar)</text>
<polygon fill="#ffffff" stroke="transparent" points="804,-295.5 804,-332.5 1046,-332.5 1046,-295.5 804,-295.5"/>
<polygon fill="none" stroke="black" points="804,-295.5 804,-332.5 1046,-332.5 1046,-295.5 804,-295.5"/>
<text text-anchor="start" x="815" y="-310.3" font-family="Helvetica Neue" font-size="14.00" fill="#333333">hc (float8)</text>
<polygon fill="#ffffff" stroke="transparent" points="804,-258.5 804,-295.5 1046,-295.5 1046,-258.5 804,-258.5"/>
<polygon fill="none" stroke="black" points="804,-258.5 804,-295.5 1046,-295.5 1046,-258.5 804,-258.5"/>
<text text-anchor="start" x="815" y="-273.3" font-family="Helvetica Neue" font-size="14.00" fill="#333333">letak_janin (varchar)</text>
<polygon fill="#ffffff" stroke="transparent" points="804,-221.5 804,-258.5 1046,-258.5 1046,-221.5 804,-221.5"/>
<polygon fill="none" stroke="black" points="804,-221.5 804,-258.5 1046,-258.5 1046,-221.5 804,-221.5"/>
<text text-anchor="start" x="815" y="-236.3" font-family="Helvetica Neue" font-size="14.00" fill="#333333">berat_janin (float8)</text>
<polygon fill="#ffffff" stroke="transparent" points="804,-184.5 804,-221.5 1046,-221.5 1046,-184.5 804,-184.5"/>
<polygon fill="none" stroke="black" points="804,-184.5 804,-221.5 1046,-221.5 1046,-184.5 804,-184.5"/>
<text text-anchor="start" x="815" y="-199.3" font-family="Helvetica Neue" font-size="14.00" fill="#333333">fl (float8)</text>
<polygon fill="#ffffff" stroke="transparent" points="804,-147.5 804,-184.5 1046,-184.5 1046,-147.5 804,-147.5"/>
<polygon fill="none" stroke="black" points="804,-147.5 804,-184.5 1046,-184.5 1046,-147.5 804,-147.5"/>
<text text-anchor="start" x="815" y="-162.3" font-family="Helvetica Neue" font-size="14.00" fill="#333333">plasenta (varchar)</text>
<polygon fill="#ffffff" stroke="transparent" points="804,-110.5 804,-147.5 1046,-147.5 1046,-110.5 804,-110.5"/>
<polygon fill="none" stroke="black" points="804,-110.5 804,-147.5 1046,-147.5 1046,-110.5 804,-110.5"/>
<text text-anchor="start" x="815" y="-125.3" font-family="Helvetica Neue" font-size="14.00" fill="#333333">cairan_ketuban (float8)</text>
<polygon fill="#ffffff" stroke="transparent" points="804,-73.5 804,-110.5 1046,-110.5 1046,-73.5 804,-73.5"/>
<polygon fill="none" stroke="black" points="804,-73.5 804,-110.5 1046,-110.5 1046,-73.5 804,-73.5"/>
<text text-anchor="start" x="815" y="-88.3" font-family="Helvetica Neue" font-size="14.00" fill="#333333">usia_kehamilan (int4)</text>
<polygon fill="#ffffff" stroke="transparent" points="804,-36.5 804,-73.5 1046,-73.5 1046,-36.5 804,-36.5"/>
<polygon fill="none" stroke="black" points="804,-36.5 804,-73.5 1046,-73.5 1046,-36.5 804,-36.5"/>
<text text-anchor="start" x="815" y="-51.3" font-family="Helvetica Neue" font-size="14.00" fill="#333333">created_at (timestamp)</text>
<polygon fill="#ffffff" stroke="transparent" points="804,0.5 804,-36.5 1046,-36.5 1046,0.5 804,0.5"/>
<polygon fill="none" stroke="black" points="804,0.5 804,-36.5 1046,-36.5 1046,0.5 804,0.5"/>
<text text-anchor="start" x="815" y="-14.3" font-family="Helvetica Neue" font-size="14.00" fill="#333333">updated_at (timestamp)</text>
</g>
<!-- appmodelspemeriksaantrimester3&#45;&gt;appmodelsusgtri3 -->
<g id="edge5" class="edge">
<title>appmodelspemeriksaantrimester3:id_pemeriksaan_trimester3&#45;&gt;appmodelsusgtri3:id_pemeriksaan_trimester3</title>
<path fill="none" stroke="#fcbf49" stroke-width="1.8" d="M618,-1053.5C736.57,-1053.5 684.18,-565.37 793.06,-537.72"/>
<polygon fill="#fcbf49" stroke="#fcbf49" stroke-width="1.8" points="793.07,-537.72 803.55,-540.97 798.04,-537.11 803,-536.5 803,-536.5 803,-536.5 798.04,-537.11 802.45,-532.03 793.07,-537.72 793.07,-537.72"/>
<text text-anchor="middle" x="692" y="-932.3" font-family="Helvetica Neue" font-size="14.00"> </text>
<text text-anchor="middle" x="679.51" y="-783.74" font-family="Helvetica Neue" font-size="14.00">HasMany</text>
<text text-anchor="middle" x="679.51" y="-768.74" font-family="Helvetica Neue" font-size="14.00">usgTri3</text>
</g>
<!-- appmodelspemeriksaanfisiktri3&#45;&gt;appmodelspemeriksaantrimester3 -->
<g id="edge6" class="edge">
<title>appmodelspemeriksaanfisiktri3:id_pemeriksaan_trimester3&#45;&gt;appmodelspemeriksaantrimester3:id_pemeriksaan_trimester3</title>
<path fill="none" stroke="#f77f00" stroke-width="1.8" d="M792.92,-1679.42C664.24,-1650.95 757.47,-1067.76 623,-1053.76"/>
<polygon fill="#f77f00" stroke="#f77f00" stroke-width="1.8" points="793.06,-1679.44 802.52,-1684.97 798.03,-1679.97 803,-1680.5 803,-1680.5 803,-1680.5 798.03,-1679.97 803.48,-1676.03 793.06,-1679.44 793.06,-1679.44"/>
<polygon fill="#f77f00" stroke="#f77f00" stroke-width="1.8" points="618.74,-1058.54 619.25,-1048.56 621.25,-1048.66 620.74,-1058.65 618.74,-1058.54"/>
<polyline fill="none" stroke="#f77f00" stroke-width="1.8" points="618,-1053.5 622.99,-1053.76 "/>
<text text-anchor="middle" x="692" y="-1176.3" font-family="Helvetica Neue" font-size="14.00"> </text>
<text text-anchor="middle" x="631.49" y="-1385.72" font-family="Helvetica Neue" font-size="14.00">BelongsTo</text>
<text text-anchor="middle" x="631.49" y="-1370.72" font-family="Helvetica Neue" font-size="14.00">pemeriksaanTrimester3</text>
</g>
<!-- appmodelspemeriksaanlaboratoriumtri3&#45;&gt;appmodelspemeriksaantrimester3 -->
<g id="edge7" class="edge">
<title>appmodelspemeriksaanlaboratoriumtri3:id_pemeriksaan_trimester3&#45;&gt;appmodelspemeriksaantrimester3:id_pemeriksaan_trimester3</title>
<path fill="none" stroke="#f77f00" stroke-width="1.8" d="M755.88,-1052.7C729.94,-1048.32 724.76,-1027.21 694,-1020.5 659.85,-1013.05 655.23,-1049.48 623.36,-1053.2"/>
<polygon fill="#f77f00" stroke="#f77f00" stroke-width="1.8" points="756.03,-1052.71 765.65,-1057.99 761.02,-1053.11 766,-1053.5 766,-1053.5 766,-1053.5 761.02,-1053.11 766.35,-1049.01 756.03,-1052.71 756.03,-1052.71"/>
<polygon fill="#f77f00" stroke="#f77f00" stroke-width="1.8" points="619.28,-1058.44 618.71,-1048.45 620.71,-1048.34 621.28,-1058.32 619.28,-1058.44"/>
<polyline fill="none" stroke="#f77f00" stroke-width="1.8" points="618,-1053.5 622.99,-1053.22 "/>
<text text-anchor="middle" x="692" y="-1024.3" font-family="Helvetica Neue" font-size="14.00"> </text>
<text text-anchor="middle" x="614.97" y="-1009.29" font-family="Helvetica Neue" font-size="14.00">BelongsTo</text>
<text text-anchor="middle" x="614.97" y="-994.29" font-family="Helvetica Neue" font-size="14.00">pemeriksaanTrimester3</text>
</g>
<!-- appmodelsusgtri3&#45;&gt;appmodelspemeriksaantrimester3 -->
<g id="edge8" class="edge">
<title>appmodelsusgtri3:id_pemeriksaan_trimester3&#45;&gt;appmodelspemeriksaantrimester3:id_pemeriksaan_trimester3</title>
<path fill="none" stroke="#f77f00" stroke-width="1.8" d="M793.6,-540.44C737.21,-586.8 679.32,-1027.02 623.01,-1052.36"/>
<polygon fill="#f77f00" stroke="#f77f00" stroke-width="1.8" points="793.78,-540.37 804.74,-540.65 798.39,-538.43 803,-536.5 803,-536.5 803,-536.5 798.39,-538.43 801.26,-532.35 793.78,-540.37 793.78,-540.37"/>
<polygon fill="#f77f00" stroke="#f77f00" stroke-width="1.8" points="620.08,-1058.15 617.87,-1048.4 619.82,-1047.96 622.03,-1057.71 620.08,-1058.15"/>
<polyline fill="none" stroke="#f77f00" stroke-width="1.8" points="618,-1053.5 622.88,-1052.39 "/>
<text text-anchor="middle" x="692" y="-875.3" font-family="Helvetica Neue" font-size="14.00"> </text>
<text text-anchor="middle" x="631.45" y="-814.02" font-family="Helvetica Neue" font-size="14.00">BelongsTo</text>
<text text-anchor="middle" x="631.45" y="-799.02" font-family="Helvetica Neue" font-size="14.00">pemeriksaanTrimester3</text>
</g>
</g>
</svg>
